<?xml version="1.0" encoding="utf-8"?>
<!-- Generator: Adobe Illustrator 22.1.0, SVG Export Plug-In . SVG Version: 6.00 Build 0)  -->
<svg version="1.1" id="Capa_1" xmlns="http://www.w3.org/2000/svg" xmlns:xlink="http://www.w3.org/1999/xlink" x="0px" y="0px"
	 viewBox="0 0 512 512" enable-background="new 0 0 512 512" xml:space="preserve">
<g>
	<polygon fill="#4A71AE" points="451.7,367.1 281,123 281,486.5 451.7,367.1 	"/>
	<polygon fill="#EECD42" points="61.5,177.9 274.6,482.5 274.6,114.1 274.7,114.1 234.6,56.8 61.5,177.9 	"/>
	<polygon fill="#FFFFFF" points="459.4,369.5 459.4,366.9 459.4,369.5 277,497.1 277,497.1 459.4,369.5 	"/>
	<polygon fill="#FFFFFF" points="274.6,482.5 61.5,177.9 234.6,56.8 274.7,114.1 280.4,111 236.2,47.9 52.6,176.3 274.6,493.6 
		274.6,482.5 	"/>
	<path fill="#FFFFFF" d="M280.4,111l-5.7,3l-0.1,0v379.5l1,1.5l1.4,1.9l182.4-127.6V14.9L280.4,111z M281,486.5V123l170.7,244.1
		L281,486.5z M453,357.8L284.1,116.3L453,25.6V357.8z"/>
	<polygon fill="#C13730" points="453,25.6 453,357.8 284.1,116.3 	"/>
</g>
<g>
	<g>
		
			<ellipse transform="matrix(0.7071 -0.7071 0.7071 0.7071 15.5926 306.1137)" fill="#BC042C" cx="377.3" cy="134.2" rx="121.5" ry="121.5"/>
		<path fill="#FFFFFF" d="M377.3,24.3c60.7,0,110,49.2,110,110c0,60.7-49.2,110-110,110c-60.7,0-110-49.2-110-110
			C267.3,73.5,316.6,24.3,377.3,24.3 M377.3,1.3c-35.5,0-68.9,13.8-94,38.9c-25.1,25.1-38.9,58.5-38.9,94c0,35.5,13.8,68.9,38.9,94
			c25.1,25.1,58.5,38.9,94,38.9s68.9-13.8,94-38.9c25.1-25.1,38.9-58.5,38.9-94c0-35.5-13.8-68.9-38.9-94
			C446.2,15.1,412.8,1.3,377.3,1.3L377.3,1.3z"/>
	</g>
	<g>
		<polygon fill="#FFFFFF" points="377.3,52.1 402,102.2 457.3,110.3 417.3,149.3 426.8,204.3 377.3,178.3 327.8,204.3 337.3,149.3 
			297.3,110.3 352.6,102.2 		"/>
	</g>
</g>
</svg>
