<?xml version="1.0" encoding="utf-8"?>
<!-- Generator: Adobe Illustrator 22.1.0, SVG Export Plug-In . SVG Version: 6.00 Build 0)  -->
<svg version="1.1" id="Capa_1" xmlns="http://www.w3.org/2000/svg" xmlns:xlink="http://www.w3.org/1999/xlink" x="0px" y="0px"
	 viewBox="0 0 512 512" enable-background="new 0 0 512 512" xml:space="preserve">
<g>
	<path fill-rule="evenodd" clip-rule="evenodd" fill="#004E94" d="M15.6,62.5h480.8v386.9H15.6V62.5L15.6,62.5z M99.3,323.6H42.2
		V188.4h58.6c28.1,0,37.5,22.7,22.7,43.8l-6.2,10.2C164.9,265,148.5,323.6,99.3,323.6L99.3,323.6z M93,248.6l10.9-18
		c1.6-3.1,3.9-6.3,3.9-9.4c0-8.6-8.6-14.9-16.4-14.9H75v99.3h7.8c16.4,0,29.7-7.8,29.7-28.9C112.6,260.3,104,250.1,93,248.6
		L93,248.6z M213.4,323.6h-57.1V188.4h59.4c27.4,0,37.5,22.7,22.7,43.8l-7,10.2C279.1,265,262.6,323.6,213.4,323.6L213.4,323.6z
		 M207.1,248.6l11.7-18c1.6-3.1,3.1-6.3,3.1-9.4c0-8.6-8.6-14.9-16.4-14.9h-16.4v99.3h8.6c15.6,0,28.9-7.8,28.9-28.9
		C226.7,260.3,218.9,250.1,207.1,248.6L207.1,248.6z M347.9,188.4H369l-40.7,135.2h-32.8l-43.8-135.2h24.2c7.8,0,11.7,1.6,16.4,18
		l24.2,85.2L347.9,188.4L347.9,188.4z M421.3,188.4c10.2,0,11.7,3.1,16.4,12.5l40.6,122.7h-37.5l-7.8-28.9h-49.2l-10.2,28.9h-21.1
		l43-135.2H421.3L421.3,188.4z M426,275.2h-37.5l19.5-62.5L426,275.2L426,275.2z"/>
	<polygon fill-rule="evenodd" clip-rule="evenodd" fill="#004E94" points="426,275.2 388.5,275.2 408,212.6 426,275.2 	"/>
</g>
<g>
	<g>
		
			<ellipse transform="matrix(0.7071 -0.7071 0.7071 0.7071 15.5927 306.1137)" fill="#BC042C" cx="377.3" cy="134.2" rx="121.5" ry="121.5"/>
		<path fill="#FFFFFF" d="M377.3,24.3c60.7,0,110,49.2,110,110c0,60.7-49.2,110-110,110c-60.7,0-110-49.2-110-110
			C267.3,73.5,316.6,24.3,377.3,24.3 M377.3,1.3c-35.5,0-68.9,13.8-94,38.9c-25.1,25.1-38.9,58.5-38.9,94c0,35.5,13.8,68.9,38.9,94
			c25.1,25.1,58.5,38.9,94,38.9s68.9-13.8,94-38.9c25.1-25.1,38.9-58.5,38.9-94c0-35.5-13.8-68.9-38.9-94
			C446.2,15.1,412.8,1.3,377.3,1.3L377.3,1.3z"/>
	</g>
	<g>
		<polygon fill="#FFFFFF" points="377.3,52.1 402,102.2 457.3,110.3 417.3,149.3 426.8,204.3 377.3,178.3 327.8,204.3 337.3,149.3 
			297.3,110.3 352.6,102.2 		"/>
	</g>
</g>
</svg>
