<?xml version="1.0" encoding="utf-8"?>
<!-- Generator: Adobe Illustrator 22.1.0, SVG Export Plug-In . SVG Version: 6.00 Build 0)  -->
<svg version="1.1" id="Capa_1" xmlns="http://www.w3.org/2000/svg" xmlns:xlink="http://www.w3.org/1999/xlink" x="0px" y="0px"
	 viewBox="0 0 512 512" enable-background="new 0 0 512 512" xml:space="preserve">
<g>
	<path fill="#FF1F10" d="M17.9,242.4c0.4-3.8,0.7-7.5,1.1-11.3c1.5-14.5,4.3-28.8,8.4-42.7c6.9-23.4,17.2-45.3,31-65.5
		c19.5-28.7,44.1-52.2,73.8-70.3c27.1-16.5,56.5-27,87.8-31.9c16-2.5,32.2-3.2,48.3-2.3c32,1.6,62.4,9.3,91.3,23.3
		c20.2,9.8,38.7,22.2,55.4,37.2c23.1,20.8,41.6,45.1,55.2,73c11.1,22.7,18.2,46.6,21.8,71.6c2.3,15.8,2.4,31.7,1.7,47.5
		c-0.8,19.2-4.5,38.1-10.3,56.5c-9.3,29.5-23.8,56.2-43.4,80.2c-14.2,17.3-30.5,32.2-48.9,44.9c-23.8,16.4-49.7,28.1-77.7,35
		c-13.1,3.3-26.4,5.4-39.9,6.3c-0.4,0-0.8,0.2-1.2,0.3c-10.9,0-21.8,0-32.7,0c-0.4-0.1-0.8-0.2-1.2-0.3c-5.2-0.3-10.3-0.9-15.4-1.6
		c-23.2-3.1-45.5-9.6-66.7-19.5c-31.9-14.8-59.3-35.5-82.1-62.3c-19-22.4-33.4-47.4-43.2-75.1C24.9,317.7,20.8,299.6,19,281
		c-0.3-3.6-0.7-7.1-1.1-10.7C17.9,261,17.9,251.7,17.9,242.4z M256.1,483.7C381.2,484,482.6,382.2,483.5,258
		c0.9-125.4-99.1-228-224.1-229.7c-128.9-1.7-229.3,101.5-231,224.5C26.6,381.6,131.2,484.2,256.1,483.7z"/>
	<path fill="#FF1F10" d="M241.9,343.3c-0.7,0.7-0.7,1.5-0.9,2.2c-3.3,13.5-7.2,26.8-13.6,39.3c-14.4,27.7-36.6,46.1-66.5,55.2
		c-3.8,1.1-7.6,2-11.4,2.9c-1.4,0.3-2.1-0.1-2.7-1.3c-3.2-5.4-4.7-11.4-5.6-17.5c-1.2-8.2-1.6-16.5-1.2-24.9
		c0.7-15.3,4.6-29.9,11.2-43.7c7.3-15.2,17.5-28.3,29.4-40.2c0.5-0.5,1.1-0.8,1.3-1.6c-1-0.2-1.6,0.4-2.3,0.9
		c-9.2,6-17.4,13.3-24.9,21.4c-5.3,5.7-10.1,11.8-14.5,18.2c-0.7,1-1.3,1.1-2.3,0.5c-7.9-4.9-15.9-9.6-24.2-13.9
		c-1.2-0.6-1.3-1.5-1.2-2.7c0.6-7,0.4-13.9,0.4-20.9c0-2.1-0.2-4.1-0.4-6.2c-0.2-1.4,0.3-2,1.8-2.1c9.9-1.1,19.6-2.9,29-5.9
		c9.4-3,18.3-7.1,26.5-12.7c0.3-0.2,0.7-0.3,0.8-1c-6.4,1.6-12.7,3.2-19,4.9c-10.9,2.9-22,4.4-33.3,3.8c-18.4-1-35.6-5.9-51.4-15.4
		c-10.5-6.4-19.6-14.4-27.5-23.8c-1.4-1.7-1.3-2.6,0.1-4.1C48,245,57.7,237,69,230.8c14.6-8.1,30.2-12.7,46.8-14.1
		c17.5-1.4,34.5,0.7,51,6.4c0.3,0.1,0.6,0.3,0.9,0.3c0.4,0.1,0.8,0.2,1.1-0.2c0.2-0.5-0.1-0.8-0.5-1c-1.4-0.8-2.9-1.7-4.3-2.5
		c-12.5-6.6-25.8-10.6-39.7-12.8c-3.6-0.6-7.2-1-10.9-1.4c-1.7-0.2-2.3-0.9-2.3-2.7c0-8.9-0.1-17.8-0.3-26.7c0-1.8,0.5-2.9,2.2-3.7
		c8-3.8,16-7.5,23-13c1.3-1,2.4-0.2,3.2,0.9c3.8,5.2,7.9,10.2,12.3,14.9c8.6,9.3,18.1,17.6,29.2,23.9c0.4,0.2,0.8,0.4,1.4,0.4
		c-2.3-2-4.6-4.1-6.8-6.1c-11.1-10.4-19.9-22.5-26.3-36.2c-6.3-13.6-9.9-27.8-10.8-42.8c-0.9-14.7,1.2-28.9,5.4-42.8
		c0.9-2.8,1.4-3.1,4.4-2.6c20,3.4,37.1,12.5,52.3,25.6c12.4,10.7,22.2,23.3,29.3,38.1c4.8,10,7.2,20.7,9.3,31.4c0.2,1,0.3,2.1,1,3.4
		c0-2.5,0.1-4.7,0-6.8c-0.7-10.4-1.9-20.8-4.6-30.9c-2-7.4-4.6-14.6-8.5-21.2c-0.9-1.6-0.7-2.3,0.9-3.2c8.4-4.6,16.7-9.4,25-14.2
		c1.2-0.7,2-0.7,3.1,0.2c5.2,4.4,11.3,7.4,17.2,10.8c1.6,0.9,3.2,1.9,4.8,2.8c1.3,0.7,1.7,1.5,1,3.1c-5.3,12.5-9.3,25.3-11.5,38.7
		c-1.1,6.7-1.9,13.4-1.9,20.2c0,0.3,0,0.7,0,1c0.1,0.7,0,1.7,1,1.6c0.8-0.1,0.8-0.9,0.9-1.6c2.9-24.2,12.5-45.4,28.2-63.9
		c9.5-11.2,20.6-20.4,34.1-26.4c8.8-3.9,17.8-7.3,27.3-9.3c3.3-0.7,3.4-0.6,4.9,2.4c5,9.7,7.3,20.1,7.6,30.9
		c0.7,22.4-4.8,43.3-15.7,62.8c-2.9,5.2-6.6,9.8-10.7,14.1c-5.9,6.2-12,12.3-18,18.4c-0.6,0.6-1.1,1.2-1.6,1.8
		c-0.3,0.4-1.1,0.9-0.7,1.5c0.5,0.6,1.1,0,1.6-0.3c2.3-1.3,4.6-2.6,6.9-4c11.4-7.5,21.1-17,29.9-27.4c2.4-2.8,4.8-5.7,7-8.7
		c0.9-1.2,1.9-1.4,3.2-0.9c2.6,0.9,5.1,2.1,7.3,3.6c5,3.4,10.3,6.3,15.9,8.7c3.5,1.5,3.3,1.6,2.9,5.4c-0.7,5.5-0.8,11-0.3,16.5
		c0.3,3.3-0.3,6.6-0.3,9.9c0,1.4-1,1.6-2.2,1.8c-8,1.1-16.1,2.2-24,4c-11.1,2.5-21.9,6.1-31.6,12.3c-0.7,0.4-2.1,0.8-1.7,1.6
		c0.4,0.9,1.5,0,2.3-0.3c12-4,24.4-6.5,37.1-7.1c20.4-1.1,39.8,2.4,58.4,10.8c10.1,4.6,19.3,10.7,27.5,18.2c2.9,2.6,5.5,5.4,8.1,8.2
		c1.2,1.2,1.4,2.3,0.6,3.9c-3.6,7.5-9.2,13.2-15.9,17.7c-16.8,11.2-34.8,19.3-55.1,21.5c-21.6,2.4-42.6,0.2-62.8-7.8
		c-0.8-0.3-2-1.5-2.5-0.3c-0.5,1,1.1,1.4,2,1.8c15.8,8.9,32.6,14.5,50.5,17.2c2.6,0.4,5.3,0.7,7.9,0.9c1.5,0.1,2,0.7,2.1,2.2
		c0.1,8.6,0,17.2,0.5,25.7c0.2,3.4-1.2,4.8-3.7,6.3c-7.3,4.3-15,7.8-22.4,11.7c-1.3,0.7-1.8-0.1-2.4-1c-5.9-8.4-12.6-16.1-20.1-23.1
		c-7.5-7-15.7-13.2-24.6-18.3c-0.5-0.3-1.2-1.1-1.7-0.3c-0.6,0.8,0.4,1.3,0.9,1.7c11,9,20.7,19.3,28.4,31.3
		c10.1,15.7,16.1,32.7,17.9,51.2c1.1,11.7,0.5,23.2-1.8,34.7c-0.8,4-2.3,7.8-3.4,11.7c-0.6,2.1-1.7,2.7-3.8,2.4
		c-8.2-1.2-16.2-3.2-23.8-6.5c-24.6-10.8-43.2-28.2-55.9-51.9c-2.9-5.4-5.1-11.1-6.6-17.1c-1.8-7.3-4.7-14.3-6.4-21.6
		c-0.2-1-0.5-2-0.8-3.3c-0.7,1.1-0.7,2-0.8,3c-0.5,10.8,0.9,21.3,3.9,31.7c2.3,8.1,5.4,15.9,8.9,23.5c0.7,1.5,0.5,2.4-0.8,3.3
		c-3.3,2.3-6.6,4.5-10,6.6c-4.3,2.6-8.6,5-12.6,8.1c-1,0.8-1.9,0.9-3.1,0.2c-7.9-4.5-16.1-8.6-23.8-13.3c-2.3-1.4-2.3-1.4-1.2-3.9
		c6.7-14.4,11.1-29.5,12.9-45.2c0.5-4,0.6-7.9,0.9-11.9C242.4,344.7,242.6,343.9,241.9,343.3z M178.7,256.2
		c-1.5,43.1,36.9,76.8,75.3,77.6c42.7,0.8,79.7-34.7,79.5-77.3c-0.2-43.8-36.5-77.4-76.9-77.6C213.6,178.7,177.7,212.5,178.7,256.2z
		 M234.5,344.1c0-2.4-1.1-3.9-2.8-4.2c-2-0.3-1.9,1.6-2.3,2.7c-1.9,5.4-4,10.7-6.4,15.9c-5.8,12.4-13.1,23.7-24,32.4
		c-4.8,3.8-9.9,7.4-16.2,8.5c-2.1,0.3-4,1.4-5.8,2.5c-5,3.2-8.3,7.8-11.2,12.8c-4.3,7.4-7.5,15.4-12.9,22.2
		c-0.3,0.3-0.5,0.7-0.2,1.1c0.3,0.3,0.7,0.3,1.1,0.2c4.7-1,9.6-1.5,14.1-3.3c14.2-5.7,26.2-14.5,36.5-25.7
		c12.6-13.8,21.6-29.5,26.7-47.5C232.8,355.7,233.5,349.7,234.5,344.1z M365.4,105.2c0.1-5-0.4-10-0.9-14.9
		c-0.5-4.3-1.8-8.4-3.2-12.5c-0.2-0.7-0.6-1.6-1.5-1.7c-0.8-0.1-0.9,0.8-1.2,1.4c-5.5,10.2-11,20.5-16.6,30.7
		c-0.8,1.5-1,2.9-0.5,4.6c3.2,13.2,2.6,26.2-1.6,39.1c-4.8,14.7-13.4,27.1-23.7,38.4c-1.1,1.2-2.7,2.2-0.8,4.1c1.7,1.7,2,1.8,4.3,0
		c5.9-4.5,11.4-9.4,16.4-14.8C355.2,158.3,365.2,133.7,365.4,105.2z M361.4,437.8c0.3-0.3,0.5-0.4,0.5-0.5c0.2-0.4,0.4-0.8,0.6-1.2
		c3.4-6.9,4-14.4,4.2-21.9c0.3-9.2-0.5-18.3-2.4-27.3c-6-28.5-21.2-50.9-44.8-67.8c-1.5-1.1-2.9-0.8-4,0.7c-1,1.4,0.2,2,1,2.8
		c6.6,7,12.5,14.5,17.2,22.9c9.9,17.5,13.5,35.9,8.5,55.6c-0.3,1.2,0,2.2,0.5,3.2c3.8,6.9,7.6,13.7,11.4,20.6
		C356.6,429.1,358.9,433.4,361.4,437.8z M58.9,258.8c-3.6,0-7.2,0-10.8,0c-0.6,0-1.5-0.3-1.8,0.4c-0.4,0.8,0.3,1.4,0.8,1.9
		c4.2,4.3,8.3,8.6,13.3,12c17.8,11.8,37.5,17.6,58.7,18.4c15.3,0.6,30.2-1.5,44.5-7.2c2.3-0.9,4.5-2,6.7-3c1.7-0.8,1.7-2.2,1.2-3.7
		c-0.5-1.6-1.6-1.3-2.9-1c-13.5,3.7-27.1,4.8-41,2.7c-14.9-2.3-28.3-7.9-39.6-18.2c-0.7-0.6-1.4-0.9-2.3-1
		C76.9,259.1,67.9,258.7,58.9,258.8z M152.1,75.3c-0.5,0.1-1.1-0.2-1.4,0.4c-0.3,0.5,0.2,0.9,0.4,1.3c0.2,0.4,0.4,0.7,0.6,1
		c6.3,10,12.7,20,18.9,30c0.7,1.1,1.7,1.6,2.9,1.9c6.3,1.5,12.2,4.2,17.6,7.7c12.3,8,21.2,19,28.4,31.6c4.1,7.2,7.4,14.9,9.9,22.8
		c0.5,1.5,1.3,1.9,2.6,1.6c1.2-0.3,2.1-0.8,1.9-2.3c-1.6-9.8-3.3-19.5-6.8-28.8c-5.1-13.5-12.7-25.4-22.4-36
		c-10.8-11.9-23.4-21.4-38.6-27.2C161.6,77.4,156.9,76.1,152.1,75.3z M465.2,259c-2.5-0.4-4.3,0.1-6.2,0.1c-8.8,0-17.7,0.1-26.5,0.1
		c-4.8,0-9.4,0.3-12.6,4.6c-0.2,0.2-0.4,0.3-0.6,0.5c-12.8,10.2-27.7,14.6-43.8,15.5c-11.3,0.7-22.6-0.5-33.6-3.3
		c-1.1-0.3-2.2-0.7-2.7,0.9c-0.6,2-0.3,3.2,1.4,3.8c4.5,1.7,8.9,3.5,13.5,5c17.6,5.5,35.6,6.6,53.8,3.5
		c19.4-3.3,36.8-11.2,51.4-24.6C461.1,263.3,462.9,261.3,465.2,259z M394.1,253.8c0,0.1,0,0.3,0,0.4c5.1,0,10.1,0,15.2,0
		c1.9,0,2.1-0.4,1.1-2c-2.1-3.2-5.1-5.7-8.2-7.7c-13.1-8.5-27.6-11.8-43.1-10.7c-6.1,0.4-11.9,2.1-17.3,4.9c-0.8,0.4-2.1,0.7-2,2
		c0.4,3.7,0.4,7.4,1.6,11c0.4,1.3,1.2,1.9,2.7,1.8c4.1,0,8.2,0.2,12.3,0.2C368.8,253.9,381.4,253.8,394.1,253.8z M282.5,172
		c0.3,1.2-0.7,3,1.4,3.7c2.9,1,5.9,2.2,8.7,3.4c1.9,0.8,2.9,0.3,3.9-1.5c8-13.8,16.1-27.5,24.2-41.3c2.8-4.9,5.5-9.9,8.2-14.8
		c0.2-0.4,0.7-0.9,0.4-1.5c-0.3-0.6-1-0.2-1.5-0.2c-1.2,0.1-2.4,0.1-3.6,0.4c-8.2,1.7-14.7,6.8-20.9,12c-4.8,4-8.6,9-12.2,14.2
		C286,154.1,282.6,162.4,282.5,172z M171.5,374.5c0,4.1-0.3,8.3,1.6,12.1c0.5,1.1,0.8,2.6,2,2.8c1.2,0.1,1.4-1.5,2-2.4
		c10.2-17.7,19.8-35.8,30.2-53.5c1.5-2.5,1.4-3.5-0.5-5.6c-2.3-2.6-5.3-4.4-8.4-6c-0.9-0.5-1.5,0-2.2,0.4
		c-5.3,3.7-9.8,8.1-13.5,13.4C174.6,347.4,171.4,360.5,171.5,374.5z M197.7,191.9c0.4-0.1,0.9-0.3,1.4-0.5c3.3-1.4,6.1-3.5,8.4-6.2
		c1-1.1,1-2.1,0.2-3.4c-6.4-11.2-12.7-22.4-19.1-33.6c-4.3-7.6-8.9-15.1-13.6-22.5c-0.9-1.4-1.3-1.1-2,0.1c-0.9,1.7-1.8,3.4-2,5.4
		c-0.9,9.8-0.3,19.5,2.5,29c3.8,12.8,10.8,23.3,22,30.8C196.2,191.4,196.8,191.9,197.7,191.9z M113,254.3c10.3,0,20.6-0.4,30.9-0.7
		c7.6-0.2,15.3-0.4,22.9-0.5c1.6,0,2.2-0.6,2.5-2.1c0.6-3.2,1-6.4,1.1-9.7c0-1.6-0.6-2.4-2-3c-10-4.5-20.5-5.5-31.4-4.4
		c-9.1,0.9-17.3,4.4-25.2,8.7c-4.3,2.4-8.4,5.2-11,9.5c-1.1,1.8-1,2.1,1.1,2.1C105.5,254.3,109.3,254.3,113,254.3z M295.3,333.9
		c-0.3,0.1-0.6,0.2-1,0.2c-2.6,0.5-4.8,1.8-7.2,2.9c-3.7,1.8-3.8,1.8-3.5,5.9c0.2,3.2,0.3,6.5,1.5,9.6c3.5,9.2,8.6,17.5,15.4,24.7
		c7.6,8,16.4,14.1,27.6,16c0.7,0.1,1.6,0.6,2-0.1c0.4-0.7-0.3-1.3-0.7-2c-6.4-12.3-13.5-24.1-20.6-35.9c-4-6.6-7.9-13.2-11.9-19.8
		C296.6,334.7,296.4,333.8,295.3,333.9z M117.7,318.9c0.2,4.6,0.6,10,0.8,15.4c0.1,1.7,0.4,1.9,1.8,1c19.3-11.8,38.7-23.5,58.1-35.2
		c1.6-1,2.1-2,1.4-3.7c-0.3-0.7-0.6-1.5-1-2.2c-1.2-2-1.7-2.1-3.6-0.7c-6.1,4.6-12.8,8.1-19.9,10.8c-10.7,4.1-21.8,6.4-33,8.4
		C117.6,313.5,117.6,313.5,117.7,318.9z M392.5,323.3C392.5,323.3,392.4,323.3,392.5,323.3c-0.1-3-0.2-6,0-9
		c0.1-1.9-0.7-2.5-2.4-2.8c-5.2-0.9-10.5-1.8-15.7-2.9c-14-2.9-27.5-7.2-39.3-15.6c-2.6-1.9-2.7-1.8-4.4,1.1
		c-0.1,0.2-0.3,0.5-0.4,0.7c-1.3,2.7-1.2,3.1,1.4,4.5c8.8,4.8,17.4,10,25.9,15.2c10.8,6.5,21.6,13.1,32.7,19.1
		c1.9,1,2.1,0.9,2.1-1.3C392.5,329.3,392.5,326.3,392.5,323.3z M260.5,340.2c-1.1,0.4-3.2-1-3.3,2c-0.1,9.8-0.5,19.5-0.6,29.3
		c-0.1,8.1-0.1,16.2-0.1,24.3c0,5.4,0.3,10.9,0.5,16.3c0,0.9-0.1,2.5,1.5,1.2c4.7-3.7,10-6.2,15.3-9c2.5-1.3,2.5-1.3,1.5-4.1
		c-3.8-10.4-7.4-20.8-9.5-31.6c-1.6-8.2-2.7-16.5-1.9-24.9C264.1,340.3,264.2,340.2,260.5,340.2z M254.5,127
		c-0.1,13.6,0.1,27.1,0.9,40.6c0.3,4.4,0.3,4.4,4.5,4.9c2.7,0.3,3.2-0.3,2.7-3c-1-5.3-1.3-10.7-0.4-16.1c2.1-12.6,4.6-25.1,9.5-36.9
		c0.7-1.7,1.2-3.5,1.6-5.3c0.3-1.4,0-2.2-1.3-2.9c-4.9-2.6-9.7-5.2-14.6-7.8c-0.9-0.5-2-1.7-3-1.1c-0.8,0.5,0.1,1.8,0,2.8
		c0,0.4,0,0.8,0,1.2C254.5,111.3,254.5,119.1,254.5,127z M391.3,187.6C391.3,187.6,391.2,187.6,391.3,187.6c-0.1-2.5,0-5-0.1-7.6
		c0-1.1,0.6-2.6-0.4-3.1c-0.8-0.4-1.8,0.8-2.8,1.3c-19.7,10.8-38.3,23.4-58,34.1c-0.9,0.5-1.7,1.1-1.3,2.3c0.6,1.6,1.3,3.1,2.3,4.4
		c0.8,1,1.5,1.1,2.5,0.3c9.3-7.5,20.1-11.8,31.5-14.9c7.9-2.1,15.9-3.7,23.9-5.1c1.8-0.3,2.4-1.1,2.4-2.9
		C391.2,193.4,391.3,190.5,391.3,187.6z M116.6,192.6c0.1,0,0.2,0,0.3,0c0,1.8,0.1,3.6,0,5.4c-0.1,1.6,0.3,2.4,2.1,2.6
		c3.3,0.3,6.6,0.9,9.9,1.4c16.3,2.9,31.6,8.2,45.4,17.6c2.4,1.7,3.4,1.4,4.4-1.3c0.2-0.4,0.2-0.9,0.5-1.3c0.9-1.6,0.4-2.5-1.2-3.5
		c-19.5-12.2-39.7-23.2-59.6-34.7c-1.5-0.9-1.7-0.4-1.7,1.1C116.6,184.1,116.6,188.4,116.6,192.6z"/>
	<path fill="#FF1F10" d="M424,176.7c-7.8,0-14-6.3-14-14.1c0-7.7,6.5-14.1,14.2-14c7.8,0.1,13.9,6.3,13.9,14.2
		C438,170.6,431.9,176.7,424,176.7z"/>
	<path fill="#FF1F10" d="M88.3,175.5c-7.9,0-13.9-6.2-13.8-14.2c0-7.8,6.2-14,13.9-14c7.8,0,14.1,6.3,14.2,14
		C102.6,169.2,96.2,175.5,88.3,175.5z"/>
	<path fill="#FF1F10" d="M269.7,63.7c0,7.9-6,14-14,14c-7.8,0-14-6.1-14-13.8c-0.1-7.8,6.3-14.3,14.1-14.3
		C263.6,49.6,269.7,55.9,269.7,63.7z"/>
	<path fill="#FF1F10" d="M241.6,448.4c0-7.9,6-13.8,13.9-13.8c7.8,0,14.1,6.2,14.1,13.8c0,7.5-6.5,14.1-14,14.1
		C247.8,462.6,241.6,456.4,241.6,448.4z"/>
	<path fill="#FF1F10" d="M423.1,337.6c7.9,0,14.1,6,14.1,13.9c0,7.6-6.2,13.8-14,13.8c-7.8,0-14.1-6.1-14.1-13.7
		C409.1,343.6,415.2,337.6,423.1,337.6z"/>
	<path fill="#FF1F10" d="M87.4,335.2c7.9,0,14.2,6.2,14.2,13.9c0,7.6-6.3,13.8-14,13.9c-7.8,0-13.9-6.1-13.9-13.8
		C73.7,341.1,79.5,335.2,87.4,335.2z"/>
	<path fill="#FF1F10" d="M256.1,184.3c28,1,49.3,13.4,63.2,38c3.7,6.6,6,13.7,7.4,21.2c0.3,1.5-0.1,2.3-1.6,2.9
		c-4.2,1.7-4,1.7-5-2.7c-4.7-22.1-17.1-38.5-37.9-47.6c-25.7-11.3-54.8-5.2-73.9,15.2c-11,11.8-17,25.9-17.6,42.1
		c-0.8,19.3,5.9,35.8,19.4,49.5c4.6,4.7,10,8.5,15.9,11.5c1.7,0.9,2.4,1.9,2.3,3.9c-0.1,4.5-0.1,4.6-4.1,2.4
		c-23-12.1-36.6-31-39.6-56.9c-4.2-36.7,20.4-70.3,56.6-77.9C246.1,184.8,251,184.2,256.1,184.3z"/>
	<path fill="#FF1F10" d="M283.8,248.5c-11.2,0-20.2-9-20.2-20.1c0.1-11.1,9.1-20,20.3-20c11.1,0,20,8.9,20,20
		C304,239.6,295.1,248.5,283.8,248.5z M283.9,235.2c3.9,0,6.8-2.9,6.8-6.8c0-3.8-3-6.8-6.8-6.8c-3.9,0-7,3.1-6.9,6.9
		C277,232.3,280,235.2,283.9,235.2z"/>
	<path fill="#FF1F10" d="M227.9,248.5c-11.1,0-20.1-8.8-20-20c0.1-12.4,10.1-20.3,20.1-20.2c11.2,0.1,20.2,9,20.1,20.2
		C248,240.8,237.8,249,227.9,248.5z M228,235.2c4,0,6.9-2.7,6.9-6.6c0.1-3.9-2.8-6.9-6.6-6.9c-3.9-0.1-7.1,2.9-7.1,6.7
		C221.1,232.1,224.2,235.2,228,235.2z"/>
	<path fill="#FF1F10" d="M284,264.2c11.4,0,20,8.5,20,19.9c0,11-9,20.1-20.1,20.1c-11.1,0-20.3-9.2-20.2-20.2
		C263.9,272.6,272.6,264.2,284,264.2z M290.7,284c0-3.9-2.8-6.8-6.7-6.8c-3.9,0-7,3-7,6.9c0,3.6,3.4,6.9,7,6.9
		C287.7,290.8,290.7,287.8,290.7,284z"/>
	<path fill="#FF1F10" d="M228.3,264.2c11.1,0,19.8,8.6,19.8,19.6c0,11.2-9.1,20.4-20,20.3c-11.3-0.2-20.1-8.7-20.2-20.2
		C207.8,272.7,216.8,264.2,228.3,264.2z M228.1,277.1c-3.9,0-7,3.1-7,6.9c0,3.5,3.3,6.8,6.8,6.8c3.8,0.1,7-3.1,7-6.9
		C234.9,280.1,232,277.1,228.1,277.1z"/>
	<path fill="#FF1F10" d="M294.6,208.2c-4.7-2.2-9.5-3-14.6-2.2c-0.5,0.1-1.2-0.3-1.7-0.5c-14.9-6.3-29.8-6.3-44.7,0.1
		c-0.7,0.3-1.3,0.6-2.1,0.4c-4.7-0.7-9.1-0.1-13.4,2.1c-0.2,0.1-0.5,0.2-0.9-0.2c11-8.9,23.6-13.4,37.6-13.7
		C269.5,193.8,288.6,200.7,294.6,208.2z"/>
	<path fill="#FF1F10" d="M207.1,294c-8.8-11.8-13.2-24.9-12.8-39.4c0.4-13.6,4.8-25.8,13.1-36.7c0.4,0.8,0,1.2-0.2,1.6
		c-1.7,3.9-2.1,8-1.6,12.1c0.1,1,0,1.9-0.4,2.9c-2.7,6.6-4.2,13.5-4.4,20.5c-0.2,7.7,1.3,15.1,4.1,22.2c0.5,1.3,0.8,2.6,0.6,4
		c-0.4,3.8-0.1,7.6,1.4,11.2C207.1,292.7,207.5,293.1,207.1,294z"/>
	<path fill="#FF1F10" d="M265.8,213.2c-3.5-0.8-7.3-1.2-11.2-1.1c-2.7,0.1-5.3,0.5-7.9,1c-1.1,0.2-1.9,0-2.7-0.8
		c-1.1-1-2.3-1.9-3.5-2.9c-0.3-0.3-0.9-0.4-0.8-1c0.1-0.6,0.7-0.6,1.1-0.7c3.4-1.1,6.8-1.8,10.3-2.1c6.7-0.5,13.3-0.1,19.7,2
		c0.5,0.2,1.4,0.2,1.5,0.8c0.2,0.8-0.7,0.9-1.1,1.2c-1.3,0.9-2.4,1.9-3.5,3C267.2,213,266.7,213.4,265.8,213.2z"/>
	<path fill="#FF1F10" d="M205.3,256.5c0-5.3,0.7-10.1,2.1-14.9c0.2-0.5,0.1-1.4,0.9-1.4c0.6,0,0.7,0.7,1.1,1.1
		c3.3,2.7,3.9,6,2.9,10.2c-1.1,4.6-0.4,9.4,0.7,14c0.2,1,0,1.8-0.7,2.5c-1,1-1.9,2-2.8,3.1c-0.3,0.4-0.5,1-1.2,0.9
		c-0.6-0.1-0.7-0.8-0.8-1.3C206.1,266,205.2,261.2,205.3,256.5z"/>
	<path fill="#FF1F10" d="M304.3,217.7c2.1,2.1,3.6,4.5,5,7.1c4,7,6.5,14.5,7.8,22.4c0.3,1.7-0.2,2.5-1.8,3.1
		c-4.1,1.6-4.1,1.7-4.8-2.5c-0.8-4.7-2-9.3-3.7-13.8c-0.2-0.6-0.5-1.3-0.4-1.9c0.3-2.4,0.4-4.9,0-7.3
		C305.9,222.4,304.9,220.2,304.3,217.7z"/>
	<path fill="#FF1F10" d="M255.8,224.4c-0.3,0-0.5,0-0.8,0c-4.9,0.1-4.9,0.1-6.1-4.7c-0.3-1,0-1.3,0.9-1.5c4-0.7,8-0.7,12.1-0.1
		c1,0.2,1.3,0.7,1,1.7c-0.4,1.2-0.8,2.5-1.2,3.8c-0.3,0.9-0.8,1.1-1.7,1C258.6,224.5,257.2,224.5,255.8,224.4
		C255.8,224.4,255.8,224.4,255.8,224.4z"/>
	<path fill="#FF1F10" d="M306.5,251.8c0.8,1.8-0.5,2.4-2.2,3.1c-4.2,1.6-4.2,1.6-4.4-2.7c0-0.2,0-0.4,0-0.6c-1.7-4.3-0.1-7.7,3-10.7
		c0.3-0.3,0.5-0.8,0.8-0.8c0.6,0,0.6,0.6,0.7,1C305.4,244.5,306.2,247.9,306.5,251.8z"/>
	<path fill="#FF1F10" d="M294.4,256.5c0.2,1.9-0.2,3.7-0.4,5.5c-0.1,1.1-0.6,1.5-1.7,1.1c-4.6-1.3-4.6-1.3-4.4-6
		c0-1.3-0.1-2.6-0.3-4c-0.2-1.5,0.1-2.4,1.8-2.7c1-0.1,1.9-0.5,2.8-0.9c1.2-0.5,1.7,0,1.8,1.2C294.2,252.6,294.6,254.5,294.4,256.5z
		"/>
	<path fill="#FF1F10" d="M217.8,256.1c-0.1-1.9-0.1-3.7,0.3-5.6c0.2-1.1,0.7-1.3,1.7-0.9c1.5,0.5,3.3,0.6,4.4,1.6
		c1.2,1-0.1,2.9,0.1,4.4c0.2,1.5-0.1,3.1,0.3,4.6c0.3,1.1-0.1,1.8-1.3,2c-0.6,0.1-1.2,0.3-1.7,0.5c-3.4,1.2-3.1,1.6-3.7-2.5
		C217.6,258.7,217.8,257.4,217.8,256.1z"/>
	<path fill="#FF1F10" d="M256.2,228.8c0.1,0,0.3,0,0.4,0c4.2,0.1,5.6,1.7,5.2,5.9c-0.1,0.9-0.6,0.8-1.1,0.7
		c-3.2-0.6-6.5-0.7-9.7,0.1c-0.8,0.2-1.1-0.1-1-0.9c0-0.3,0.1-0.5,0.1-0.8C251,228.7,251,228.7,256.2,228.8z"/>
	<path fill="#FF1F10" d="M235.1,251.7c-0.8,3.2-0.6,6.3,0,9.4c0.2,0.9-0.2,1.2-1.1,1c-1.3-0.2-2.6-0.4-3.9-0.6
		c-0.8-0.1-1.1-0.6-1.2-1.3c-0.4-2.6-0.5-5.3,0-7.9c0.1-0.8,0.6-1.1,1.3-1.2c1.2-0.2,2.5-0.3,3.7-0.6
		C235,250.3,235.4,250.7,235.1,251.7z"/>
	<path fill="#FF1F10" d="M283.3,256.5c0,0.1,0,0.3,0,0.4c0,4.3-1.5,5.7-5.8,5.4c-0.8-0.1-0.8-0.5-0.7-1.1c0.7-3.2,0.8-6.4,0.1-9.6
		c-0.2-0.9,0.2-1.2,1.1-1c1.2,0.2,2.5,0.4,3.7,0.6c1,0.1,1.4,0.8,1.4,1.6C283.3,254,283.3,255.2,283.3,256.5
		C283.3,256.5,283.3,256.5,283.3,256.5z"/>
</g>
<g>
	<g>
		
			<ellipse transform="matrix(0.7071 -0.7071 0.7071 0.7071 15.5926 306.1137)" fill="#BC042C" cx="377.3" cy="134.2" rx="121.5" ry="121.5"/>
		<path fill="#FFFFFF" d="M377.3,24.3c60.7,0,110,49.2,110,110c0,60.7-49.2,110-110,110c-60.7,0-110-49.2-110-110
			C267.3,73.5,316.6,24.3,377.3,24.3 M377.3,1.3c-35.5,0-68.9,13.8-94,38.9s-38.9,58.5-38.9,94c0,35.5,13.8,68.9,38.9,94
			c25.1,25.1,58.5,38.9,94,38.9s68.9-13.8,94-38.9c25.1-25.1,38.9-58.5,38.9-94c0-35.5-13.8-68.9-38.9-94
			C446.2,15.1,412.8,1.3,377.3,1.3L377.3,1.3z"/>
	</g>
	<g>
		<polygon fill="#FFFFFF" points="377.3,52.1 402,102.2 457.3,110.3 417.3,149.3 426.8,204.3 377.3,178.3 327.8,204.3 337.3,149.3 
			297.3,110.3 352.6,102.2 		"/>
	</g>
</g>
</svg>
