<?xml version="1.0" encoding="utf-8"?>
<!-- Generator: Adobe Illustrator 22.1.0, SVG Export Plug-In . SVG Version: 6.00 Build 0)  -->
<svg version="1.1" id="Capa_1" xmlns="http://www.w3.org/2000/svg" xmlns:xlink="http://www.w3.org/1999/xlink" x="0px" y="0px"
	 viewBox="0 0 512 512" enable-background="new 0 0 512 512" xml:space="preserve">
<g>
	<polygon fill="#EBECEE" stroke="#211915" stroke-width="4.0766" stroke-miterlimit="2.6131" points="220.4,279.1 219,498 255,474 
		293.6,497 292.4,278.7 255.4,254.9 220.4,279.1 220.4,279.1 	"/>
	<polygon fill="#EBECEE" stroke="#211915" stroke-width="4.0766" stroke-miterlimit="2.6131" points="455.1,272.2 478.4,290.7 
		349.5,368.3 349.7,333.4 455.1,272.2 455.1,272.2 	"/>
	<polygon fill="#EBECEE" stroke="#211915" stroke-width="4.0766" stroke-miterlimit="2.6131" points="49.3,272.8 33.6,290.7 
		157.9,368.9 158.7,334.8 49.3,272.8 49.3,272.8 	"/>
	<polygon fill="#EBECEE" stroke="#211915" stroke-width="4.0766" stroke-miterlimit="2.6131" points="72.2,100.8 71.6,144.9 
		36,164.1 218.8,276.6 254.6,253.1 293.8,276 474,166.7 441.8,141.7 437.6,102.2 254.8,207.4 72.2,100.8 72.2,100.8 	"/>
	<polygon fill="#BD0811" stroke="#211915" stroke-width="4.0766" stroke-miterlimit="2.6131" points="34.4,166.9 37,254.1 
		47.5,270.8 158.1,334.2 157.3,367.3 33.6,290.5 33.8,370.3 43.5,392 215.8,498 218.2,279.7 34.4,166.9 34.4,166.9 	"/>
	<polygon fill="#BD0811" stroke="#211915" stroke-width="4.0766" stroke-miterlimit="2.6131" points="295.2,278.1 475.2,169.7 
		475.4,249.3 464.3,266.8 349.7,334 349.3,369.1 477.8,290.9 477,371.1 468.1,388.8 296.8,497 295.2,278.1 295.2,278.1 	"/>
	<polygon fill="#EBECEE" stroke="#211915" stroke-width="4.0766" stroke-miterlimit="2.6131" points="326.6,45.2 330.2,73.6 
		239.9,125.8 211.8,111.1 326.6,45.2 326.6,45.2 	"/>
	<path fill="#BD0811" stroke="#211915" stroke-width="4.0766" stroke-miterlimit="2.6131" d="M243.1,14L74,98.2l180.8,106.1
		L435.6,99.8c-27.1-14.7-52.5-27.6-78.8-42.1c-39,22.8-77.8,45.3-116.8,67.9l-28.2-14.5l114.6-65.9L267.1,14H243.1L243.1,14
		L243.1,14z"/>
	<path fill="none" stroke="#211915" stroke-width="4.0766" stroke-miterlimit="2.6131" d="M71.4,145.3l184.4,109l185.6-112.8
		 M254.6,203.9v270.5"/>
</g>
<g>
	<g>
		
			<ellipse transform="matrix(0.7071 -0.7071 0.7071 0.7071 15.5926 306.1137)" fill="#BC042C" cx="377.3" cy="134.2" rx="121.5" ry="121.5"/>
		<path fill="#FFFFFF" d="M377.3,24.3c60.7,0,110,49.2,110,110c0,60.7-49.2,110-110,110c-60.7,0-110-49.2-110-110
			C267.3,73.5,316.6,24.3,377.3,24.3 M377.3,1.3c-35.5,0-68.9,13.8-94,38.9c-25.1,25.1-38.9,58.5-38.9,94c0,35.5,13.8,68.9,38.9,94
			c25.1,25.1,58.5,38.9,94,38.9s68.9-13.8,94-38.9c25.1-25.1,38.9-58.5,38.9-94c0-35.5-13.8-68.9-38.9-94
			C446.2,15.1,412.8,1.3,377.3,1.3L377.3,1.3z"/>
	</g>
	<g>
		<polygon fill="#FFFFFF" points="377.3,52.1 402,102.2 457.3,110.3 417.3,149.3 426.8,204.3 377.3,178.3 327.8,204.3 337.3,149.3 
			297.3,110.3 352.6,102.2 		"/>
	</g>
</g>
</svg>
