<?xml version="1.0" encoding="utf-8"?>
<!-- Generator: Adobe Illustrator 22.1.0, SVG Export Plug-In . SVG Version: 6.00 Build 0)  -->
<svg version="1.1" id="Capa_1" xmlns="http://www.w3.org/2000/svg" xmlns:xlink="http://www.w3.org/1999/xlink" x="0px" y="0px"
	 viewBox="0 0 512 512" enable-background="new 0 0 512 512" xml:space="preserve">
<g>
	<path fill-rule="evenodd" clip-rule="evenodd" fill="#255398" d="M479.9,414c10,0,18-8.2,18-18.1c0-10-8.1-18.1-18-18.1
		c-10,0-18.1,8.1-18.1,18.1C461.8,405.8,469.9,414,479.9,414L479.9,414z M479.9,410.6c-8.2,0-14.7-6.5-14.7-14.7
		c0-8.2,6.5-14.7,14.7-14.7c8.2,0,14.6,6.5,14.6,14.6C494.5,404,488.1,410.6,479.9,410.6L479.9,410.6z M484.1,397.5
		c3.5-0.2,5.3-1.7,5.3-5.3c0-2-0.5-4-2.3-5.1c-1.5-0.9-3.6-0.9-5.3-0.9h-9.4v19.5l3.8,0v-8.2h3.9l4.3,8.2l4.5,0L484.1,397.5
		L484.1,397.5z M476.2,394.6V389l4.8,0c1.9,0,4.7,0,4.7,2.6c0,2.5-1.5,3-3.7,3H476.2L476.2,394.6z"/>
	<path fill-rule="evenodd" clip-rule="evenodd" fill="#CC2131" d="M453.4,422.6c0-1.1-0.6-2.2-2.5-2.9
		c-62.3-26.9-139.5-51.8-216.7-51.8c-0.3,0-0.6,0-1,0c-77.2,0-154.5,24.9-216.7,51.8c-1.8,0.7-2.5,1.8-2.5,2.9
		c-0.1,1.5,1.1,2.9,2.4,2.9c0,0,0.1,0,0.3,0c11.9,0,431.8,0,433.9,0c0.1,0,0.2,0,0.2,0C452.2,425.5,453.5,424.2,453.4,422.6
		L453.4,422.6z"/>
	<path fill-rule="evenodd" clip-rule="evenodd" fill="#255398" d="M233.7,323.5c-69.2,0.1-136.8,29.2-208.2,67.1l-3.9,2
		c-0.6,0.3-1.3,0.5-2,0.5c-2.3,0-4.3-2-4.3-4.4c0-0.9,0.3-1.8,0.8-2.5l2-2.9c19.2-28.3,173.3-240.8,208.2-291.8
		c2.3-3.5,4.5-4.9,7.3-4.9c2.8,0,5,1.4,7.4,4.9c34.8,51,188.9,263.5,208.2,291.8l2,2.9c0.5,0.7,0.8,1.6,0.8,2.5c0,2.4-2,4.4-4.4,4.4
		c-0.7,0-1.4-0.2-2-0.5l-3.9-2C370.4,352.8,302.9,323.5,233.7,323.5L233.7,323.5z"/>
</g>
<g>
	<g>
		
			<ellipse transform="matrix(0.7071 -0.7071 0.7071 0.7071 15.5926 306.1137)" fill="#BC042C" cx="377.3" cy="134.2" rx="121.5" ry="121.5"/>
		<path fill="#FFFFFF" d="M377.3,24.3c60.7,0,110,49.2,110,110c0,60.7-49.2,110-110,110c-60.7,0-110-49.2-110-110
			C267.3,73.5,316.6,24.3,377.3,24.3 M377.3,1.3c-35.5,0-68.9,13.8-94,38.9c-25.1,25.1-38.9,58.5-38.9,94c0,35.5,13.8,68.9,38.9,94
			c25.1,25.1,58.5,38.9,94,38.9s68.9-13.8,94-38.9c25.1-25.1,38.9-58.5,38.9-94c0-35.5-13.8-68.9-38.9-94
			C446.2,15.1,412.8,1.3,377.3,1.3L377.3,1.3z"/>
	</g>
	<g>
		<polygon fill="#FFFFFF" points="377.3,52.1 402,102.2 457.3,110.3 417.3,149.3 426.8,204.3 377.3,178.3 327.8,204.3 337.3,149.3 
			297.3,110.3 352.6,102.2 		"/>
	</g>
</g>
<path fill="#FEFEFE" d="M438.5,247.5c0-55.5,0-111,0-166.5"/>
</svg>
