<?xml version="1.0" encoding="utf-8"?>
<!-- Generator: Adobe Illustrator 22.1.0, SVG Export Plug-In . SVG Version: 6.00 Build 0)  -->
<svg version="1.1" id="Capa_1" xmlns="http://www.w3.org/2000/svg" xmlns:xlink="http://www.w3.org/1999/xlink" x="0px" y="0px"
	 viewBox="0 0 512 512" enable-background="new 0 0 512 512" xml:space="preserve">
<g>
	<path fill="#231F20" d="M464,138.2l-93-90.5c-8.7-8.7-12.4-15.5-41.7-15.5h-83.7h-67.5c-29.2,0-33,6.8-41.7,15.5l-88.6,93
		c-8.7,8.7-15.5,12.4-15.5,41.7V252v81.5c0,29.2,6.8,33,15.5,41.7l91.1,89.2c8.7,8.7,12.4,15.5,41.7,15.5H260h71.8
		c29.2,0,33-6.8,41.7-15.5l90.5-91.7c8.7-8.7,15.5-12.4,15.5-41.7v-69v-82.1C479.6,150.6,472.7,146.9,464,138.2 M170.2,41.5
		c4.4-3.7,7.5-5,13.7-5h61.9h80.5c6.2,0,9.3,1.3,13.7,5l47.2,47.9l-41.7-30.5c-5-3.1-11.8-5-20.5-5h-79.3h-60.6
		c-8.7,0-15.5,1.9-20.5,5l-41.7,30.5L170.2,41.5z M412.5,258.2v49.5c0,4.6-0.5,7.4-2.4,10.5c-0.3,1.1-2.2,3.4-3.2,4.5l-32.4,32.1
		l12.7-21.5c0.9-1.4,5-7.9,5.3-9.8c1.6-4.1,2.5-9.3,2.5-15.6v-50.4v-52.2c0-6.3-0.9-11.5-2.5-15.6c-0.3-1.9-4.4-8.4-5.3-9.7
		l-12.7-21.5l32.4,32.1c1,1.1,2.9,3.5,3.2,4.5c1.9,3.1,2.4,5.9,2.4,10.5V258.2z M99.5,251.4v-45.8c0-4.6,0.5-7.3,2.4-10.5
		c0.3-1.1,2.2-3.4,3.2-4.5l32.4-32.1L124.7,180c-0.9,1.4-5,7.9-5.3,9.7c-1.6,4.2-2.5,9.4-2.5,15.6v47.3V308c0,6.3,0.9,11.5,2.5,15.6
		c0.3,1.9,4.4,8.4,5.3,9.8l12.7,21.5L105,322.7c-1-1.1-2.9-3.5-3.2-4.5c-1.9-3.1-2.4-5.9-2.4-10.5V251.4z M391.6,257.6V301
		c0,4.1-0.2,6.7-1.5,9.4c-0.4,1.4-1.8,3.4-3.1,4.9l-28.3,28.2l9.8-18.8c1.2-1.8,3.7-6.4,4.1-8.9c1.1-3.9,1.6-8.5,1.6-14v-44.2v-46
		c0-5.4-0.5-10.1-1.6-14c-0.5-2.5-3-7.1-4.1-8.9l-9.8-18.8L387,198c1.3,1.5,2.7,3.5,3.1,4.9c1.3,2.7,1.5,5.4,1.5,9.4V257.6z
		 M120.4,252.6v-40.3c0-4.1,0.3-6.7,1.5-9.4c0.4-1.4,1.8-3.4,3.1-4.9l28.3-28.2l-9.8,18.8c-1.2,1.8-3.7,6.4-4.1,8.9
		c-1.1,3.9-1.6,8.6-1.6,14v41.1v49.1c0,5.5,0.5,10.1,1.6,14c0.5,2.5,2.9,7.1,4.1,8.9l9.8,18.8L125,315.3c-1.3-1.5-2.7-3.5-3.1-4.9
		c-1.3-2.7-1.5-5.4-1.5-9.4V252.6z M370.7,257.6v36.7c0,6.2,0,9.3-3.7,13.7l-24.3,24.2l6.8-16.2c3.1-5,3.7-11.8,3.7-20.5v-39.8
		v-37.9c0-8.7-0.6-15.5-3.7-20.5l-6.8-16.2l24.3,24.3c3.7,4.4,3.7,7.5,3.7,13.7V257.6z M162.4,253.2V229c0-12.3,0.2-14.5,7.5-21.8
		l37-37.6c7.3-7.2,9.5-7.4,21.8-7.4H247h35.8c12.2,0,14.5,0.2,21.8,7.4l37.6,38.9c7.3,7.3,7.5,9.6,7.5,21.8v24.9v29.3
		c0,12.2-0.2,14.5-7.5,21.7l-38.9,36.4c-7.2,7.2-9.5,7.5-21.8,7.5h-27.7h-26.4c-12.2,0-14.5-0.2-21.8-7.5l-35.8-37.6
		c-7.3-7.3-7.5-9.5-7.5-21.8V253.2z M323.1,143.2c-1.9-1.1-6.5-3.7-9-4.1c-3.9-1.1-8.5-1.6-14-1.6h-53.8H210c-5.5,0-10.1,0.5-14,1.6
		c-2.5,0.5-7.1,3-8.9,4.1l-18.9,9.8l28.2-28.3c1.5-1.3,3.5-2.7,4.9-3.1c2.7-1.3,5.4-1.5,9.4-1.5h35h53.7c4.1,0,6.7,0.2,9.4,1.5
		c1.4,0.4,3.4,1.8,4.9,3.1l28.2,28.3L323.1,143.2z M330.6,169l-16.2-6.8c-5-3.1-11.8-3.7-20.5-3.7H247h-30.8
		c-8.7,0-15.5,0.6-20.5,3.7l-16.2,6.8l24.2-24.3c4.4-3.7,7.5-3.7,13.7-3.7h28.9h46.3c6.2,0,9.3,0,13.7,3.7L330.6,169z M330.6,343.1
		l-24.3,24.2c-4.3,3.7-7.5,3.7-13.7,3.7h-37.6h-37.6c-6.2,0-9.3,0-13.7-3.7l-24.2-24.2l16.2,6.8c5,3.1,11.8,3.7,20.5,3.7h37.6h40.1
		c8.7,0,15.5-0.6,20.5-3.7L330.6,343.1z M187,368.8c1.8,1.1,6.5,3.7,8.9,4.1c3.9,1.2,8.5,1.7,14,1.7h45.1h45.1
		c5.5,0,10.1-0.5,14-1.7c2.5-0.4,7.1-2.9,9-4.1l18.8-9.8l-28.2,28.3c-1.5,1.3-3.5,2.7-4.9,3.1c-2.7,1.3-5.4,1.5-9.4,1.5h-44.3h-44.4
		c-4.1,0-6.7-0.3-9.4-1.5c-1.4-0.4-3.4-1.8-4.9-3.1L168.2,359L187,368.8z M178.4,387.6c1.4,0.9,7.9,5,9.7,5.3
		c4.2,1.6,9.4,2.5,15.6,2.5h51.3h51.3c6.3,0,11.5-0.9,15.6-2.5c1.9-0.3,8.4-4.4,9.8-5.3l21.5-12.7l-32.1,32.3
		c-1.1,1-3.5,2.9-4.5,3.2c-3.1,1.9-5.9,2.4-10.5,2.4h-49.8H204c-4.6,0-7.4-0.5-10.5-2.4c-1.1-0.3-3.4-2.2-4.5-3.2l-32.1-32.3
		L178.4,387.6z M331.8,124.4c-1.4-0.9-7.9-5-9.8-5.3c-4.1-1.6-9.4-2.5-15.6-2.5h-60.6h-42c-6.3,0-11.5,0.9-15.6,2.5
		c-1.9,0.4-8.4,4.5-9.7,5.3l-21.5,12.7l32.1-32.4c1.2-1,3.5-2.9,4.5-3.2c3.1-1.9,5.9-2.4,10.5-2.4h41.7h60.4c4.6,0,7.4,0.5,10.5,2.4
		c1.1,0.3,3.4,2.2,4.5,3.2l32.1,32.4L331.8,124.4z M169.2,181.1l-6.8,16.2c-3.1,5-3.7,11.8-3.7,20.5v35.4v42.3
		c0,8.7,0.6,15.5,3.7,20.5l6.8,16.2L145,308c-3.7-4.4-3.7-7.5-3.7-13.7v-41.7V219c0-6.2,0-9.3,3.7-13.7L169.2,181.1z M169.7,406.5
		c0.9,0.6,9.3,6.3,10.6,6.5c4.4,2.1,10.2,3.3,17.3,3.3h58.8h56.3c7.1,0,12.9-1.2,17.3-3.3c1.2-0.3,9.6-5.9,10.6-6.5l24.2-15.7
		l-36,36.4c-0.7,0.6-3.4,3.1-4.1,3.2c-3.5,2.5-6.4,3.3-11.6,3.3h-55.9h-59.6c-5.2,0-8-0.7-11.6-3.3c-0.7-0.2-3.4-2.6-4.1-3.2
		l-36.1-36.4L169.7,406.5z M340.4,105.5c-0.9-0.6-9.3-6.3-10.6-6.5c-4.4-2.1-10.2-3.3-17.3-3.3h-66.9h-48.2
		c-7.1,0-12.8,1.2-17.3,3.3c-1.3,0.2-9.6,5.9-10.6,6.5l-24.2,15.7l36.1-36.4c0.8-0.7,3.4-3.1,4.1-3.2c3.5-2.5,6.4-3.3,11.6-3.3h48.4
		h67.1c5.1,0,8,0.7,11.6,3.3c0.7,0.2,3.4,2.6,4.1,3.2l36,36.4L340.4,105.5z M349.1,86.7c-0.5-0.3-10.7-7.6-11.4-7.7
		c-4.7-2.6-11-4.2-18.9-4.2h-73.1h-54.4c-7.9,0-14.2,1.5-18.9,4.2c-0.6,0.1-10.9,7.4-11.4,7.7l-26.8,18.6l40-40.5
		c0.4-0.3,3.4-3.2,3.7-3.3c3.9-3.1,6.9-4.1,12.6-4.1h55.2h73.8c5.7,0,8.7,1,12.6,4.1c0.3,0.1,3.4,3,3.7,3.3l40,40.5L349.1,86.7z
		 M161,425.4c0.5,0.3,10.8,7.6,11.4,7.7c4.7,2.6,11,4.2,18.9,4.2h65.6h61.9c7.9,0,14.2-1.5,18.9-4.2c0.6-0.1,10.9-7.4,11.4-7.7
		l26.8-18.6l-40,40.4c-0.4,0.3-3.4,3.2-3.7,3.3c-4,3.1-6.9,4.1-12.6,4.1h-62h-67c-5.7,0-8.7-1-12.6-4.1c-0.3-0.1-3.4-3-3.7-3.3
		l-40-40.4L161,425.4z M41.8,341.5c-3.7-4.4-5-7.5-5-13.7v-76.5v-65.9c0-6.2,1.3-9.3,5-13.7l47.9-47.3l-30.5,41.7
		c-3.1,5-5,11.8-5,20.5v65.9v74c0,8.7,1.9,15.6,5,20.5l30.5,41.7L41.8,341.5z M65.1,337.5c-0.3-0.4-3.2-3.4-3.3-3.7
		c-3.1-3.9-4.1-6.9-4.1-12.6V252v-59.8c0-5.7,1-8.7,4.1-12.6c0.1-0.3,3-3.3,3.3-3.7l40.5-40l-18.6,26.8c-0.3,0.5-7.6,10.8-7.7,11.4
		c-2.6,4.7-4.1,11-4.1,18.9v58.5v69c0,7.9,1.5,14.2,4.1,18.9c0.1,0.7,7.4,10.9,7.7,11.4l18.6,26.8L65.1,337.5z M85.1,330.1
		c-0.7-0.7-3-3.4-3.3-4.1c-2.5-3.5-3.2-6.4-3.2-11.6v-63v-52.5c0-5.1,0.7-8,3.2-11.5c0.2-0.7,2.6-3.4,3.3-4.2l36.4-36.1l-15.7,24.2
		c-0.6,0.9-6.3,9.3-6.5,10.6c-2.1,4.4-3.3,10.2-3.3,17.3V252v62.2c0,7.1,1.2,12.8,3.3,17.2c0.2,1.3,5.9,9.7,6.5,10.6l15.7,24.1
		L85.1,330.1z M340,470.6c-4.4,3.7-7.5,5-13.7,5h-66.9h-75.6c-6.2,0-9.3-1.2-13.7-5l-47.3-47.9l41.7,30.5c5,3.1,11.8,5,20.5,5h73.1
		H325c8.7,0,15.5-1.9,20.5-5l41.7-30.5L340,470.6z M406.2,342c0.6-0.9,6.3-9.3,6.5-10.6c2.1-4.4,3.3-10.2,3.3-17.2v-55.4v-59.7
		c0-7.1-1.2-12.8-3.3-17.3c-0.2-1.2-5.9-9.6-6.5-10.6l-15.7-24.2l36.4,36.1c0.6,0.8,3,3.4,3.3,4.2c2.5,3.5,3.3,6.4,3.3,11.5v61.2
		v54.3c0,5.1-0.7,8-3.3,11.6c-0.2,0.7-2.6,3.4-3.3,4.1l-36.4,36L406.2,342z M425.1,350.6c0.3-0.5,7.6-10.7,7.7-11.4
		c2.6-4.7,4.1-11,4.1-18.9v-60.3v-67.2c0-7.9-1.5-14.2-4.1-18.9c-0.1-0.6-7.4-10.9-7.7-11.4l-18.6-26.8l40.5,40
		c0.3,0.4,3.2,3.4,3.3,3.7c3.1,3.9,4.1,6.9,4.1,12.6v67.9v61.1c0,5.7-1,8.7-4.1,12.6c-0.1,0.3-3,3.3-3.3,3.7l-40.5,40L425.1,350.6z
		 M475.2,327.8c0,6.2-1.2,9.3-5,13.7l-47.9,47.3l30.5-41.7c3.1-5,5-11.8,5-20.5v-65.9v-74c0-8.7-1.9-15.5-5-20.5l-30.5-41.7
		l47.9,47.3c3.7,4.4,5,7.5,5,13.7v75.9V327.8z"/>
</g>
<g>
	<g>
		
			<ellipse transform="matrix(0.7071 -0.7071 0.7071 0.7071 15.5926 306.1137)" fill="#BC042C" cx="377.3" cy="134.2" rx="121.5" ry="121.5"/>
		<path fill="#FFFFFF" d="M377.3,24.3c60.7,0,110,49.2,110,110s-49.2,110-110,110c-60.7,0-110-49.2-110-110S316.6,24.3,377.3,24.3
			 M377.3,1.3c-35.5,0-68.9,13.8-94,38.9s-38.9,58.5-38.9,94c0,35.5,13.8,68.9,38.9,94c25.1,25.1,58.5,38.9,94,38.9
			s68.9-13.8,94-38.9c25.1-25.1,38.9-58.5,38.9-94c0-35.5-13.8-68.9-38.9-94C446.2,15.1,412.8,1.3,377.3,1.3L377.3,1.3z"/>
	</g>
	<g>
		<polygon fill="#FFFFFF" points="377.3,52.1 402,102.2 457.3,110.3 417.3,149.3 426.8,204.3 377.3,178.3 327.8,204.3 337.3,149.3 
			297.3,110.3 352.6,102.2 		"/>
	</g>
</g>
</svg>
