<?xml version="1.0" encoding="utf-8"?>
<!-- Generator: Adobe Illustrator 22.1.0, SVG Export Plug-In . SVG Version: 6.00 Build 0)  -->
<svg version="1.1" id="Capa_1" xmlns="http://www.w3.org/2000/svg" xmlns:xlink="http://www.w3.org/1999/xlink" x="0px" y="0px"
	 viewBox="0 0 512 512" enable-background="new 0 0 512 512" xml:space="preserve">
<g>
	<rect x="71.3" y="10" fill="#FFFFFF" width="364.4" height="492"/>
	<rect x="88.4" y="29.6" fill="#FFFFFF" width="332.5" height="455.9"/>
	<g>
		<path d="M88.6,359.6h16.1v5.5h-9.6v4.7h8.2v5.5h-8.2v9.1h-6.5V359.6z"/>
		<path d="M111.9,359.6h7.9l7.5,24.7h-6.9l-1.2-5.3h-6.9l-1.2,5.3h-6.7L111.9,359.6z M113.4,374.1h4.6l-0.4-1.7
			c-0.6-2.4-1.2-5.4-1.8-7.8h-0.2c-0.5,2.5-1.1,5.5-1.8,7.8L113.4,374.1z"/>
		<path d="M129.7,359.6h8.9c5.2,0,9.4,1.3,9.4,6.2c0,2.1-1.2,4.6-3.1,5.3v0.2c2.4,0.7,4.3,2.5,4.3,5.8c0,5.1-4.4,7.3-9.7,7.3h-9.7
			V359.6z M138.4,369.3c2.1,0,3.1-1,3.1-2.5c0-1.5-1-2.1-3.1-2.1h-2.2v4.6H138.4z M138.9,379.4c2.6,0,3.8-0.9,3.8-2.7
			c0-1.8-1.2-2.5-3.8-2.5h-2.7v5.3H138.9z"/>
		<path d="M153,359.6h9.4c5.3,0,9.9,1.8,9.9,8c0,3.5-1.6,5.9-4,7.2l5.4,9.6h-7.3l-4.3-8.3h-2.5v8.3H153V359.6z M161.9,370.9
			c2.6,0,4-1.1,4-3.3c0-2.1-1.4-2.8-4-2.8h-2.4v6.1H161.9z"/>
		<path d="M176.9,359.6h6.5v24.7h-6.5V359.6z"/>
		<path d="M187.9,372.2c0-8.3,5.7-13,12-13c3.3,0,5.9,1.5,7.7,3.3l-3.4,4.2c-1.2-1.1-2.4-1.8-4.1-1.8c-2.9,0-5.4,2.7-5.4,7.2
			c0,4.6,2.1,7.2,5.3,7.2c1.9,0,3.4-1,4.5-2.1l3.4,4.1c-2.1,2.4-4.9,3.7-8.1,3.7C193.4,384.8,187.9,380.7,187.9,372.2z"/>
		<path d="M215.7,359.6h7.9l7.5,24.7h-6.9l-1.2-5.3h-6.9l-1.2,5.3h-6.7L215.7,359.6z M217.2,374.1h4.6l-0.4-1.7
			c-0.6-2.4-1.2-5.4-1.8-7.8h-0.2c-0.5,2.5-1.1,5.5-1.8,7.8L217.2,374.1z"/>
		<path d="M248.7,359.6h6.7l5.5,11l2.4,5.6h0.2c-0.3-2.7-0.8-6.4-0.8-9.4v-7.2h6.2v24.7h-6.7l-5.5-11.1l-2.4-5.5h-0.2
			c0.3,2.8,0.8,6.4,0.8,9.4v7.2h-6.2V359.6z"/>
		<path d="M278.7,359.6h7.9l7.5,24.7h-6.9l-1.2-5.3h-6.9l-1.2,5.3h-6.7L278.7,359.6z M280.3,374.1h4.6l-0.4-1.7
			c-0.6-2.4-1.2-5.4-1.8-7.8h-0.2c-0.5,2.5-1.1,5.5-1.8,7.8L280.3,374.1z"/>
		<path d="M295.1,372.2c0-8.3,5.7-13,12-13c3.3,0,5.9,1.5,7.7,3.3l-3.4,4.2c-1.2-1.1-2.4-1.8-4.1-1.8c-2.9,0-5.4,2.7-5.4,7.2
			c0,4.6,2.1,7.2,5.3,7.2c1.9,0,3.4-1,4.5-2.1l3.4,4.1c-2.1,2.4-4.9,3.7-8.1,3.7C300.5,384.8,295.1,380.7,295.1,372.2z"/>
		<path d="M318.4,359.6h6.5v24.7h-6.5V359.6z"/>
		<path d="M329.4,371.9c0-8.1,4.6-12.7,11.5-12.7c6.9,0,11.5,4.6,11.5,12.7c0,8.1-4.6,12.9-11.5,12.9
			C334,384.8,329.4,380,329.4,371.9z M345.7,371.9c0-4.5-1.8-7.1-4.8-7.1c-3,0-4.8,2.6-4.8,7.1c0,4.5,1.8,7.3,4.8,7.3
			C343.8,379.2,345.7,376.4,345.7,371.9z"/>
		<path d="M356.8,359.6h6.7l5.5,11l2.4,5.6h0.2c-0.3-2.7-0.8-6.4-0.8-9.4v-7.2h6.2v24.7h-6.7l-5.5-11.1l-2.4-5.5h-0.2
			c0.3,2.8,0.8,6.4,0.8,9.4v7.2h-6.2V359.6z"/>
		<path d="M386.8,359.6h7.9l7.5,24.7h-6.9l-1.2-5.3h-6.9l-1.2,5.3h-6.7L386.8,359.6z M388.3,374.1h4.6l-0.4-1.7
			c-0.6-2.4-1.2-5.4-1.8-7.8h-0.2c-0.5,2.5-1.1,5.5-1.8,7.8L388.3,374.1z"/>
		<path d="M404.6,359.6h6.5v19.3h9.4v5.5h-15.9V359.6z"/>
	</g>
	<g>
		<path d="M88.6,414.5h7.3c7.5,0,12.7,3.5,12.7,12.3c0,8.8-5.2,12.5-12.3,12.5h-7.7V414.5z M95.5,434c3.6,0,6.4-1.4,6.4-7.2
			c0-5.8-2.8-7-6.4-7h-0.4V434H95.5z"/>
		<path d="M113,414.5h16v5.5h-9.4v3.9h8.1v5.5h-8.1v4.4h9.8v5.5H113V414.5z"/>
	</g>
	<polygon points="215.6,210.1 215.6,176.6 88.6,176.6 88.6,210.1 88.6,329.2 128.7,329.2 128.7,270.1 150.8,270.1 150.8,235.5 
		128.7,235.5 128.7,210.1 	"/>
	<polygon points="287.8,176.6 287.8,268.7 216.7,176.6 205.5,176.6 175.7,176.6 175.7,329.2 216.7,329.2 216.7,237.6 287.8,329.2 
		298.3,329.2 328.9,329.2 328.9,176.6 	"/>
	<g>
		<path d="M141.6,420.8c0-12.5,8.6-19.6,18-19.6c4.9,0,9,2.3,11.6,4.9l-5.2,6.3c-1.8-1.6-3.7-2.8-6.2-2.8c-4.4,0-8.2,4-8.2,10.8
			c0,7,3.2,10.9,8,10.9c2.9,0,5.2-1.5,6.8-3.2l5.2,6.2c-3.2,3.7-7.5,5.5-12.3,5.5C149.8,439.9,141.6,433.6,141.6,420.8z"/>
		<path d="M176.8,401.9h24.1v8.3h-14.2v5.9h12.2v8.3h-12.2v6.7h14.8v8.3h-24.7V401.9z"/>
		<path d="M208.7,401.9h10.6l5.6,15.3c0.7,2.1,1.3,4.4,2,6.5h0.2c0.7-2.2,1.3-4.5,2-6.5l5.4-15.3H245v37.3h-9v-11
			c0-3.8,0.8-9.6,1.3-13.3h-0.2l-3.1,9l-4.6,12.3h-5.3l-4.6-12.3l-3-9h-0.2c0.5,3.7,1.3,9.5,1.3,13.3v11h-8.8V401.9z"/>
		<path d="M253.2,401.9h24.1v8.3h-14.2v5.9h12.2v8.3h-12.2v6.7h14.8v8.3h-24.7V401.9z"/>
		<path d="M285.2,401.9h10.1l8.3,16.6l3.6,8.4h0.2c-0.5-4-1.3-9.6-1.3-14.2v-10.8h9.4v37.3h-10.1l-8.3-16.7l-3.6-8.3h-0.2
			c0.5,4.2,1.3,9.6,1.3,14.2v10.8h-9.4V401.9z"/>
		<path d="M330.8,410.2H321v-8.3h29.6v8.3h-9.9v29h-9.9V410.2z"/>
		<path d="M352.8,420.4c0-12.3,7-19.2,17.3-19.2c10.3,0,17.3,6.9,17.3,19.2c0,12.3-7,19.5-17.3,19.5
			C359.8,439.9,352.8,432.7,352.8,420.4z M377.3,420.4c0-6.8-2.8-10.7-7.2-10.7c-4.5,0-7.2,3.9-7.2,10.7s2.8,11,7.2,11
			C374.6,431.4,377.3,427.2,377.3,420.4z"/>
		<path d="M391.8,434.6l5.6-6.8c2.6,2.1,6,3.6,8.7,3.6c3,0,4.2-1,4.2-2.6c0-1.8-1.9-2.4-5.1-3.6l-4.6-2c-4-1.6-7.5-5-7.5-10.4
			c0-6.4,5.7-11.6,13.9-11.6c4.2,0,9,1.6,12.4,5l-4.9,6.2c-2.5-1.8-4.7-2.7-7.5-2.7c-2.4,0-3.9,0.9-3.9,2.5c0,1.8,2.1,2.4,5.5,3.7
			l4.5,1.8c4.7,1.8,7.3,5.1,7.3,10.2c0,6.3-5.3,11.9-14.6,11.9C401.2,439.9,395.8,438.2,391.8,434.6z"/>
	</g>
	<rect x="88.6" y="439.2" width="331.9" height="46.3"/>
	<polygon fill="#FD1F15" points="215.6,194.2 215.6,160.8 88.6,160.8 88.6,194.2 88.6,313.4 128.7,313.4 128.7,254.2 150.8,254.2 
		150.8,219.6 128.7,219.6 128.7,194.2 	"/>
	<path d="M420.5,291.2c-5.6,3-12.1,4.7-18.8,4.7c-22.7,0-41.1-18.8-41.1-42.1c0-23.2,18.4-42.1,41.1-42.1c6.8,0,13.2,1.7,18.8,4.7
		v-41.1c-6.1-1.4-12.5-2.2-19-2.2c-45.7,0-82.8,36.1-82.8,80.6c0,44.5,37.1,80.6,82.8,80.6c6.5,0,12.9-0.8,19-2.2V291.2z"/>
	<path fill="#FD1F15" d="M420.5,275.4c-5.6,3-12.1,4.7-18.8,4.7c-22.7,0-41.1-18.8-41.1-42.1c0-23.2,18.4-42.1,41.1-42.1
		c6.8,0,13.2,1.7,18.8,4.7v-41.1c-6.1-1.4-12.5-2.2-19-2.2c-45.7,0-82.8,36.1-82.8,80.6c0,44.5,37.1,80.6,82.8,80.6
		c6.5,0,12.9-0.8,19-2.2V275.4z"/>
	<polygon fill="#FD1F15" points="287.8,160.8 287.8,252.8 216.7,160.8 205.5,160.8 175.7,160.8 175.7,313.4 216.7,313.4 
		216.7,221.8 287.8,313.4 298.3,313.4 328.9,313.4 328.9,160.8 	"/>
	<path fill="#FD1F15" d="M420.8,131.7L258.7,85c-2.7-0.8-5.5-0.8-8.2,0L88.4,131.7V29.6h332.5V131.7z"/>
</g>
<g>
	<g>
		
			<ellipse transform="matrix(0.7071 -0.7071 0.7071 0.7071 15.5927 306.1138)" fill="#BC042C" cx="377.3" cy="134.2" rx="121.5" ry="121.5"/>
		<path fill="#FFFFFF" d="M377.3,24.3c60.7,0,110,49.2,110,110c0,60.7-49.2,110-110,110s-110-49.2-110-110
			C267.3,73.5,316.6,24.3,377.3,24.3 M377.3,1.3c-35.5,0-68.9,13.8-94,38.9c-25.1,25.1-38.9,58.5-38.9,94c0,35.5,13.8,68.9,38.9,94
			c25.1,25.1,58.5,38.9,94,38.9s68.9-13.8,94-38.9c25.1-25.1,38.9-58.5,38.9-94c0-35.5-13.8-68.9-38.9-94
			C446.2,15.1,412.8,1.3,377.3,1.3L377.3,1.3z"/>
	</g>
	<g>
		<polygon fill="#FFFFFF" points="377.3,52.1 402,102.2 457.3,110.3 417.3,149.3 426.8,204.3 377.3,178.3 327.8,204.3 337.3,149.3 
			297.3,110.3 352.6,102.2 		"/>
	</g>
</g>
</svg>
