<?xml version="1.0" encoding="utf-8"?>
<!-- Generator: Adobe Illustrator 22.1.0, SVG Export Plug-In . SVG Version: 6.00 Build 0)  -->
<svg version="1.1" id="Capa_1" xmlns="http://www.w3.org/2000/svg" xmlns:xlink="http://www.w3.org/1999/xlink" x="0px" y="0px"
	 viewBox="0 0 512 512" enable-background="new 0 0 512 512" xml:space="preserve">
<g>
	<path fill-rule="evenodd" clip-rule="evenodd" fill="#D7282A" d="M60.8,155.6c9.1-20.1,22-37.6,37.2-53.5
		c34.2-35.9,75.7-58.9,124.8-66.7c68.7-11,130.2,5.2,183.3,51c3.4,2.9,4.2,4.6,0.5,8.2c-18.8,18.4-37.2,37-55.8,55.6
		c-1.9,1.9-3.2,4.2-6.6,1.1c-46.8-42.9-123.1-42.4-172.8,3.9c-17.1,15.9-29.2,34.9-37.1,56.7c-1.2-0.8-2.4-1.4-3.5-2.3
		C107.4,191.6,84.1,173.6,60.8,155.6"/>
	<path fill-rule="evenodd" clip-rule="evenodd" fill="#45AC43" d="M133.7,299.3c6.7,17,15,33.1,27.4,46.8
		c31.5,34.8,70.5,49.8,117.3,44.9c21.7-2.3,41.5-9.6,60-20.9c1.8,1.6,3.5,3.3,5.3,4.7c21.6,16.9,43.3,33.8,65,50.6
		c-23.9,22.7-52.1,37.8-83.8,45.8c-74.8,18.9-143.8,7-205-41.4c-25.3-20-45.2-44.7-59.3-73.9C85,337.2,109.3,318.2,133.7,299.3"/>
	<path fill-rule="evenodd" clip-rule="evenodd" fill="#5D7FBE" d="M408.7,425.5c-21.7-16.9-43.3-33.7-65-50.6
		c-1.9-1.5-3.6-3.2-5.3-4.7c14.7-11.2,26.9-24.4,35-41.3c3.2-6.7,5.5-13.7,7.6-20.8c1.5-4.9,1-6.8-5-6.7
		c-36.1,0.3-72.1,0.2-108.2,0.2c-7.6,0-7.6,0-7.6-7.9c0-24.4,0.1-48.9-0.1-73.3c0-4.7,0.8-6.5,6.1-6.5c66.5,0.2,133,0.2,199.6,0.1
		c3.6,0,5.8,0.3,6.5,4.6c8.3,58.2,1.6,113.8-28.8,165.1C434,399.2,422.8,413.6,408.7,425.5"/>
	<path fill-rule="evenodd" clip-rule="evenodd" fill="#F4C300" d="M133.7,299.3c-24.4,18.9-48.7,37.8-73.1,56.8
		c-11.9-22.1-18.8-45.9-22-70.7c-5.5-42.9,0.5-84.2,18.7-123.5c1-2.2,2.3-4.2,3.4-6.3c23.3,18,46.7,35.9,70,53.9
		c1.1,0.8,2.3,1.5,3.5,2.3C124.5,240.9,124.9,270.1,133.7,299.3"/>
</g>
<g>
	<g>
		
			<ellipse transform="matrix(0.7071 -0.7071 0.7071 0.7071 15.5926 306.1138)" fill="#BC042C" cx="377.3" cy="134.2" rx="121.5" ry="121.5"/>
		<path fill="#FFFFFF" d="M377.3,24.3c60.7,0,110,49.2,110,110s-49.2,110-110,110c-60.7,0-110-49.2-110-110S316.6,24.3,377.3,24.3
			 M377.3,1.3c-35.5,0-68.9,13.8-94,38.9c-25.1,25.1-38.9,58.5-38.9,94c0,35.5,13.8,68.9,38.9,94c25.1,25.1,58.5,38.9,94,38.9
			s68.9-13.8,94-38.9c25.1-25.1,38.9-58.5,38.9-94c0-35.5-13.8-68.9-38.9-94C446.2,15.1,412.8,1.3,377.3,1.3L377.3,1.3z"/>
	</g>
	<g>
		<polygon fill="#FFFFFF" points="377.3,52.1 402,102.2 457.3,110.3 417.3,149.3 426.8,204.3 377.3,178.3 327.8,204.3 337.3,149.3 
			297.3,110.3 352.6,102.2 		"/>
	</g>
</g>
</svg>
