<?xml version="1.0" encoding="utf-8"?>
<!-- Generator: Adobe Illustrator 22.1.0, SVG Export Plug-In . SVG Version: 6.00 Build 0)  -->
<svg version="1.1" id="Capa_1" xmlns="http://www.w3.org/2000/svg" xmlns:xlink="http://www.w3.org/1999/xlink" x="0px" y="0px"
	 viewBox="0 0 512 512" enable-background="new 0 0 512 512" xml:space="preserve">
<g>
	<polygon fill-rule="evenodd" clip-rule="evenodd" fill="#FF6A12" points="169.3,250.3 214.1,189.5 463.5,189.5 351.6,334.8 
		499.3,335.9 499.3,400.9 214.1,400.9 323.7,250.3 	"/>
	<path fill-rule="evenodd" clip-rule="evenodd" fill="#FF6A12" d="M164.8,258.8h139.8l-105.1,142h-41.8c-24,0-47.5-7.1-67.4-20.6
		c-33.6-22.7-77.6-64.8-77.6-130c0-46.2,25.3-84.5,53.7-106.3c33-25.4,54.6-32.8,96.3-32.8l336.6,0v70.5h-349
		c0,0-68.2,13.4-68.2,74.4s55.9,79.9,55.9,79.9h31.3l8.9-14.5h-57L164.8,258.8z"/>
</g>
<g>
	<g>
		
			<ellipse transform="matrix(0.7071 -0.7071 0.7071 0.7071 15.5926 306.1137)" fill="#BC042C" cx="377.3" cy="134.2" rx="121.5" ry="121.5"/>
		<path fill="#FFFFFF" d="M377.3,24.3c60.7,0,110,49.2,110,110c0,60.7-49.2,110-110,110s-110-49.2-110-110
			C267.3,73.5,316.6,24.3,377.3,24.3 M377.3,1.3c-35.5,0-68.9,13.8-94,38.9c-25.1,25.1-38.9,58.5-38.9,94c0,35.5,13.8,68.9,38.9,94
			c25.1,25.1,58.5,38.9,94,38.9s68.9-13.8,94-38.9c25.1-25.1,38.9-58.5,38.9-94c0-35.5-13.8-68.9-38.9-94S412.8,1.3,377.3,1.3
			L377.3,1.3z"/>
	</g>
	<g>
		<polygon fill="#FFFFFF" points="377.3,52.1 402,102.2 457.3,110.3 417.3,149.3 426.8,204.3 377.3,178.3 327.8,204.3 337.3,149.3 
			297.3,110.3 352.6,102.2 		"/>
	</g>
</g>
</svg>
