<?xml version="1.0" encoding="utf-8"?>
<!-- Generator: Adobe Illustrator 22.1.0, SVG Export Plug-In . SVG Version: 6.00 Build 0)  -->
<svg version="1.1" id="Capa_1" xmlns="http://www.w3.org/2000/svg" xmlns:xlink="http://www.w3.org/1999/xlink" x="0px" y="0px"
	 viewBox="0 0 512 512" enable-background="new 0 0 512 512" xml:space="preserve">
<path fill="#415171" d="M126,303.6c-19.3,0-28.1-17.5-28.1-33.7c0-21,10.8-34,28.1-34c18.5,0,26.8,17.1,26.8,34
	C152.8,285.4,145.8,303.6,126,303.6 M126,230.1c-12.8,0-22.9,6-28.1,16.3v-43h-5.8v104.3H98v-15c5.4,10.5,15.7,16.7,28.1,16.7
	c19.5,0,32.6-15.9,32.6-39.5C158.6,246.4,145.2,230.1,126,230.1"/>
<path fill="#415171" d="M205.9,230c-12.1,0-21.2,5-26,14v-12.2h-5.8v75.9h5.8v-42.8c0-13.8,7.2-30.1,27.4-29.1l1.5,0.1v-5.8l-1.4,0
	C206.9,230.1,206.4,230,205.9,230"/>
<path fill="#415171" d="M265.6,266.5v10.3c0,13.3-9.6,26.8-28.1,26.8c-17.9,0-19.8-10.8-19.8-15.4c0-13.3,8-16.6,20.9-17.6
	c2.1-0.2,4.3-0.3,6.4-0.4C253.2,269.9,261.1,269.5,265.6,266.5 M275.5,302.2c-3.5,0-4.2-1.3-4.2-3.3v-46.5
	c-0.4-14.6-9.3-22.3-25.6-22.3c-17.3,0-28.5,9.8-29.3,25.7l-0.1,1.5h5.8l0.1-1.4c0.9-12.9,9.3-20.1,23.5-20.1
	c17.4,0,19.8,9,19.8,18.7c0,8.5-5.1,9.1-22.9,10.1l-4.3,0.2c-13.1,0.9-26.5,4.4-26.5,23.3c0,13.1,9.9,21.2,25.9,21.2
	c13,0,22.9-6.4,27.8-13.9v3.6c0,3.3,1.1,5.7,3.4,7.1c1.7,1.1,3.9,1.6,6.9,1.6c1.1,0,2.3-0.1,3.4-0.2l1.4-0.1v-5.8l-1.6,0.2
	C277.8,302,276.6,302.2,275.5,302.2"/>
<path fill="#415171" d="M321.4,230.1c-11.3,0-20.4,5.2-25.1,13.9v-12.2h-5.8v75.9h5.8v-42.8c0-14.5,7.8-29.1,25.1-29.1
	c13.6,0,21.7,8.4,21.7,22.4v49.5h5.8v-49.9C348.9,241,338.1,230.1,321.4,230.1"/>
<path fill="#415171" d="M392,303.6c-19.8,0-26.8-18.2-26.8-33.7c0-16.9,8.3-34,26.8-34c17.3,0,28.1,13,28.1,34
	C420.1,286.1,411.3,303.6,392,303.6 M420.1,246.3c-5.2-10.3-15.3-16.3-28.1-16.3c-19.2,0-32.6,16.4-32.6,39.8
	c0,23.6,13.1,39.5,32.6,39.5c12.4,0,22.6-6.2,28.1-16.7v15h5.8V203.4h-5.8V246.3z"/>
<path fill="#415171" d="M472.6,266.8l-0.6-0.1c-2.2-0.6-4.1-1.1-6-1.6c-5-1.3-8.9-2.3-12.6-3.7c-5-2-7.2-5.4-7.2-11.4
	c0-1.4,0.6-14,20.4-14c14.7,0,22.1,6.4,22.1,19v1.5h5.8v-1.5c0-16-9.9-24.8-27.9-24.8c-18.1,0-26.2,9.9-26.2,19.8
	c0,8.3,3.1,13.6,9.7,16.4c4.1,1.8,9.2,3.2,16.6,5.1c1,0.2,1.9,0.5,2.9,0.7c11.3,2.8,21.1,5.1,21.1,15.9c0,12.4-13.9,15.7-22.1,15.7
	c-16.7,0-25.2-7.5-25.2-22.4v-1.5h-5.8v1.5c0,18.7,10.4,28.2,31,28.2c12.9,0,27.9-5.7,27.9-21.8
	C496.6,272.8,483.9,269.6,472.6,266.8"/>
<polyline fill="#415171" points="22.1,203.4 16.3,203.4 16.3,307.7 81.3,307.7 81.3,301.9 22.1,301.9 "/>
<g>
	<g>
		<circle fill="#BC042C" cx="377.3" cy="134.2" r="121.5"/>
		<path fill="#FFFFFF" d="M377.3,24.3c60.7,0,110,49.2,110,110c0,60.7-49.2,110-110,110s-110-49.2-110-110
			C267.3,73.5,316.6,24.3,377.3,24.3 M377.3,1.3c-35.5,0-68.9,13.8-94,38.9c-25.1,25.1-38.9,58.5-38.9,94c0,35.5,13.8,68.9,38.9,94
			c25.1,25.1,58.5,38.9,94,38.9c35.5,0,68.9-13.8,94-38.9c25.1-25.1,38.9-58.5,38.9-94c0-35.5-13.8-68.9-38.9-94
			S412.8,1.3,377.3,1.3L377.3,1.3z"/>
	</g>
	<g>
		<polygon fill="#FFFFFF" points="377.3,52.1 402,102.2 457.3,110.3 417.3,149.3 426.8,204.3 377.3,178.3 327.8,204.3 337.3,149.3 
			297.3,110.3 352.6,102.2 		"/>
	</g>
</g>
</svg>
