<?xml version="1.0" encoding="utf-8"?>
<!-- Generator: Adobe Illustrator 22.1.0, SVG Export Plug-In . SVG Version: 6.00 Build 0)  -->
<svg version="1.1" id="Capa_1" xmlns="http://www.w3.org/2000/svg" xmlns:xlink="http://www.w3.org/1999/xlink" x="0px" y="0px"
	 viewBox="0 0 512 512" enable-background="new 0 0 512 512" xml:space="preserve">
<g>
	<polygon fill-rule="evenodd" clip-rule="evenodd" fill="#BC0038" points="253.4,346.1 203.7,264.9 150.8,264.9 253.4,432.3 
		356,264.9 303.1,264.9 253.4,346.1 	"/>
	<polygon fill-rule="evenodd" clip-rule="evenodd" fill="#BC0038" points="112.2,115.7 394.5,115.7 377.8,143.1 430.7,143.1 
		469.5,79.7 37.3,79.7 76.1,143.1 129,143.1 112.2,115.7 	"/>
	<polygon fill-rule="evenodd" clip-rule="evenodd" fill="#00529A" points="71.8,240.6 49.4,240.6 49.4,164.6 79.5,164.6 92.9,212 
		106.2,164.6 136.4,164.6 136.4,240.6 113.8,240.6 113.8,197.9 101.5,240.6 84.1,240.6 71.8,197.9 71.8,240.6 	"/>
	<path fill-rule="evenodd" clip-rule="evenodd" fill="#00529A" d="M176.6,215l7.8-27.6l8.1,27.6H176.6L176.6,215z M172,230.6h24.8
		l2.9,9.9h24.8l-27.2-76H172l-27.2,76h24.4L172,230.6L172,230.6z"/>
	<polygon fill-rule="evenodd" clip-rule="evenodd" fill="#00529A" points="259,240.6 235.1,240.6 235.1,164.6 258.3,164.6 
		284.4,205.3 284.4,164.6 308.3,164.6 308.3,240.6 284.6,240.6 259,200.9 259,240.6 	"/>
	<path fill-rule="evenodd" clip-rule="evenodd" fill="#00529A" d="M364.7,184.6c2,1.1,3.1,3.2,3.1,6.1c0,1.9-0.4,3.5-1.3,4.8
		c-0.9,1.3-2,2.2-3.4,2.6c-1.4,0.4-3.9,0.7-7.4,0.7h-9V183h8C359.3,183,362.7,183.5,364.7,184.6L364.7,184.6z M347,217h14.2
		c4.5,0,8.8-0.6,12.8-1.8c2.6-0.8,4.6-1.5,5.9-2.3c1.9-1,3.6-2.5,5.3-4.4c1.7-1.9,3.2-4.4,4.4-7.5c1.2-3.2,1.9-6.7,1.9-10.6
		c0-3.5-0.5-6.6-1.5-9.4c-1-2.8-2.5-5.3-4.5-7.5c-2-2.2-4.2-3.9-6.5-5.1c-2.3-1.2-5.4-2.1-9.1-2.8c-3.7-0.7-9.2-1-16.4-1h-31.1v76
		H347V217L347,217z"/>
	<path fill-rule="evenodd" clip-rule="evenodd" fill="#00529A" d="M426.8,215l7.8-27.6l8.1,27.6H426.8L426.8,215z M422.2,230.6H447
		l2.9,9.9h24.8l-27.2-76h-25.3l-27.2,76h24.4L422.2,230.6L422.2,230.6z"/>
</g>
<g>
	<g>
		
			<ellipse transform="matrix(0.7071 -0.7071 0.7071 0.7071 15.5926 306.1136)" fill="#BC042C" cx="377.3" cy="134.2" rx="121.5" ry="121.5"/>
		<path fill="#FFFFFF" d="M377.3,24.3c60.7,0,110,49.2,110,110c0,60.7-49.2,110-110,110c-60.7,0-110-49.2-110-110
			C267.3,73.5,316.6,24.3,377.3,24.3 M377.3,1.3c-35.5,0-68.9,13.8-94,38.9c-25.1,25.1-38.9,58.5-38.9,94c0,35.5,13.8,68.9,38.9,94
			s58.5,38.9,94,38.9c35.5,0,68.9-13.8,94-38.9c25.1-25.1,38.9-58.5,38.9-94c0-35.5-13.8-68.9-38.9-94
			C446.2,15.1,412.8,1.3,377.3,1.3L377.3,1.3z"/>
	</g>
	<g>
		<polygon fill="#FFFFFF" points="377.3,52.1 402,102.2 457.3,110.3 417.3,149.3 426.8,204.3 377.3,178.3 327.8,204.3 337.3,149.3 
			297.3,110.3 352.6,102.2 		"/>
	</g>
</g>
</svg>
