<?xml version="1.0" encoding="utf-8"?>
<!-- Generator: Adobe Illustrator 22.1.0, SVG Export Plug-In . SVG Version: 6.00 Build 0)  -->
<svg version="1.1" id="Capa_1" xmlns="http://www.w3.org/2000/svg" xmlns:xlink="http://www.w3.org/1999/xlink" x="0px" y="0px"
	 viewBox="0 0 512 512" enable-background="new 0 0 512 512" xml:space="preserve">
<g>
	<path fill="#F9E331" d="M46.8,497.4l89.6-482.8h194c0,0,134.9,1.1,134.9,144.4S311.3,288.7,311.3,288.7v-14.8
		c0,0,82.2-16.9,75.9-112.8C380.9,65.2,403,84.2,403,84.2s-6.3-26.4-47.4-25.3s-36.5,42.3-39,60.1c-6.3,45-68.5,43.2-68.5,43.2
		l-90.9-2.9c0,0-9.3,99.9,88.8,113.6l-36.9,224.5H46.8z"/>
	<circle fill="#F9E331" cx="361.1" cy="100.3" r="10.9"/>
</g>
<g>
	<g>
		
			<ellipse transform="matrix(0.7071 -0.7071 0.7071 0.7071 15.5927 306.1137)" fill="#BC042C" cx="377.3" cy="134.2" rx="121.5" ry="121.5"/>
		<path fill="#FFFFFF" d="M377.3,24.3c60.7,0,110,49.2,110,110c0,60.7-49.2,110-110,110s-110-49.2-110-110
			C267.3,73.5,316.6,24.3,377.3,24.3 M377.3,1.3c-35.5,0-68.9,13.8-94,38.9c-25.1,25.1-38.9,58.5-38.9,94c0,35.5,13.8,68.9,38.9,94
			c25.1,25.1,58.5,38.9,94,38.9s68.9-13.8,94-38.9s38.9-58.5,38.9-94c0-35.5-13.8-68.9-38.9-94C446.2,15.1,412.8,1.3,377.3,1.3
			L377.3,1.3z"/>
	</g>
	<g>
		<polygon fill="#FFFFFF" points="377.3,52.1 402,102.2 457.3,110.3 417.3,149.3 426.8,204.3 377.3,178.3 327.8,204.3 337.3,149.3 
			297.3,110.3 352.6,102.2 		"/>
	</g>
</g>
</svg>
