<?xml version="1.0" encoding="utf-8"?>
<!-- Generator: Adobe Illustrator 22.1.0, SVG Export Plug-In . SVG Version: 6.00 Build 0)  -->
<svg version="1.1" id="Capa_1" xmlns="http://www.w3.org/2000/svg" xmlns:xlink="http://www.w3.org/1999/xlink" x="0px" y="0px"
	 viewBox="0 0 512 512" enable-background="new 0 0 512 512" xml:space="preserve">
<g>
	<g>
		<path fill="#0052B4" d="M469.9,359.2C485,328,493.4,293,493.4,256c0-37-8.5-72-23.6-103.2L256,132.1L42.1,152.8
			C27,184,18.6,219,18.6,256c0,37,8.5,72,23.6,103.2L256,379.9L469.9,359.2z M469.9,359.2"/>
		<path fill="#D80027" d="M256,493.4c94.1,0,175.5-54.8,213.9-134.2H42.1C80.5,438.7,161.9,493.4,256,493.4L256,493.4z M256,493.4"
			/>
		<path fill="#F0F0F0" d="M429.8,302.6l-12.5,9.8l5.4,15l-13.2-8.9l-12.5,9.8l4.4-15.3l-13.2-8.9l15.9-0.6l4.4-15.3l5.4,15
			L429.8,302.6z M429.8,302.6"/>
		<path fill="#F0F0F0" d="M397.7,247l-8.4,13.5l10.2,12.2l-15.4-3.8l-8.4,13.5l-1.1-15.9l-15.4-3.9l14.8-6l-1.1-15.9l10.2,12.2
			L397.7,247z M397.7,247"/>
		<path fill="#F0F0F0" d="M348.5,205.7l-3.3,15.6l13.8,8l-15.8,1.7l-3.3,15.6l-6.5-14.5l-15.8,1.7l11.8-10.7l-6.5-14.5l13.8,8
			L348.5,205.7z M348.5,205.7"/>
		<path fill="#F0F0F0" d="M288.1,183.7l2.2,15.8l15.7,2.8l-14.3,7l2.2,15.8l-11.1-11.4l-14.3,7l7.5-14.1L265,195l15.7,2.8
			L288.1,183.7z M288.1,183.7"/>
		<path fill="#F0F0F0" d="M223.9,183.7l7.5,14.1L247,195L236,206.5l7.5,14.1l-14.3-7L218.1,225l2.2-15.8l-14.3-7l15.7-2.8
			L223.9,183.7z M223.9,183.7"/>
		<path fill="#F0F0F0" d="M163.5,205.7l11.8,10.7l13.8-8l-6.5,14.5l11.8,10.7l-15.8-1.7l-6.5,14.5l-3.3-15.6l-15.8-1.7l13.8-8
			L163.5,205.7z M163.5,205.7"/>
		<path fill="#F0F0F0" d="M114.3,247l14.8,6l10.2-12.2l-1.1,15.9l14.8,6l-15.4,3.8l-1.1,15.9l-8.4-13.5l-15.4,3.9l10.2-12.2
			L114.3,247z M114.3,247"/>
		<path fill="#F0F0F0" d="M82.2,302.6l15.9,0.6l5.4-15l4.4,15.3l15.9,0.6l-13.2,8.9l4.4,15.3l-12.5-9.8l-13.2,8.9l5.4-15L82.2,302.6
			z M82.2,302.6"/>
		<path fill="#FFDA44" d="M469.9,152.8C431.5,73.3,350.1,18.6,256,18.6c-94.1,0-175.5,54.8-213.9,134.2H469.9z M469.9,152.8"/>
	</g>
</g>
<g>
	<g>
		
			<ellipse transform="matrix(0.7071 -0.7071 0.7071 0.7071 15.5927 306.1138)" fill="#BC042C" cx="377.3" cy="134.2" rx="121.5" ry="121.5"/>
		<path fill="#FFFFFF" d="M377.3,24.3c60.7,0,110,49.2,110,110c0,60.7-49.2,110-110,110s-110-49.2-110-110
			C267.3,73.5,316.6,24.3,377.3,24.3 M377.3,1.3c-35.5,0-68.9,13.8-94,38.9c-25.1,25.1-38.9,58.5-38.9,94c0,35.5,13.8,68.9,38.9,94
			c25.1,25.1,58.5,38.9,94,38.9s68.9-13.8,94-38.9c25.1-25.1,38.9-58.5,38.9-94c0-35.5-13.8-68.9-38.9-94
			C446.2,15.1,412.8,1.3,377.3,1.3L377.3,1.3z"/>
	</g>
	<g>
		<polygon fill="#FFFFFF" points="377.3,52.1 402,102.2 457.3,110.3 417.3,149.3 426.8,204.3 377.3,178.3 327.8,204.3 337.3,149.3 
			297.3,110.3 352.6,102.2 		"/>
	</g>
</g>
</svg>
