<?xml version="1.0" encoding="utf-8"?>
<!-- Generator: Adobe Illustrator 22.1.0, SVG Export Plug-In . SVG Version: 6.00 Build 0)  -->
<svg version="1.1" id="Capa_1" xmlns="http://www.w3.org/2000/svg" xmlns:xlink="http://www.w3.org/1999/xlink" x="0px" y="0px"
	 viewBox="0 0 512 512" enable-background="new 0 0 512 512" xml:space="preserve">
<linearGradient id="SVGID_2_" gradientUnits="userSpaceOnUse" x1="10.7201" y1="126.3557" x2="238.2503" y2="126.3557">
	<stop  offset="0" style="stop-color:#2A5C92"/>
	<stop  offset="1" style="stop-color:#7EBCE5"/>
</linearGradient>
<path fill="url(#SVGID_2_)" d="M10.7,39.7c47.7,0,78.7-7.3,113.5,33l114,140.8l-84.6,0c-19.1,0-40.9-5.5-58.7-35.5L10.7,39.7
	L10.7,39.7z"/>
<linearGradient id="SVGID_4_" gradientUnits="userSpaceOnUse" x1="195.5598" y1="381.2675" x2="449.8619" y2="381.2675">
	<stop  offset="0" style="stop-color:#BA2F13"/>
	<stop  offset="1" style="stop-color:#891B1B"/>
</linearGradient>
<path fill="url(#SVGID_4_)" d="M299.1,290.1c-2.1-0.3-4.3-0.4-6.7-0.4c-33.2,0-86.5,27.4-94.4,60.2l40.6,69.1
	c16.4,28,41.3,53.9,85,53.9h126.2L299.1,290.1z"/>
<linearGradient id="SVGID_6_" gradientUnits="userSpaceOnUse" x1="219.9047" y1="268.5377" x2="250.4499" y2="323.6428">
	<stop  offset="0" style="stop-color:#891B1B"/>
	<stop  offset="1" style="stop-color:#BA2F13"/>
</linearGradient>
<path fill="url(#SVGID_6_)" d="M199.3,352l-14.8-25.2l11.1-34.3l9.9-16l64.3-22.1l30.8,37.4c-2.1-0.3-5.5-1.4-7.8-1.4
	c-33.2,0-86.8,26.6-94.7,59.4"/>
<linearGradient id="SVGID_7_" gradientUnits="userSpaceOnUse" x1="150.4256" y1="285.4299" x2="341.4708" y2="285.4299">
	<stop  offset="0" style="stop-color:#A4B0B7"/>
	<stop  offset="1" style="stop-color:#F0F3F7"/>
</linearGradient>
<path fill="url(#SVGID_7_)" d="M197.3,348.7L155,278.4c-12.1-21.8-1.2-47.8,43.2-52.5c44.4-4.8,121.5-12.3,143.3,33
	c-60-6.2-148.8,12-144.2,89.7L197.3,348.7z"/>
<polygon fill="#3C4C72" points="467.2,453.2 460.5,453.2 460.5,450.7 476.8,450.7 476.8,453.2 470.1,453.2 470.1,472.9 467.2,472.9 
	467.2,453.2 "/>
<path fill="#3C4C72" d="M497.9,463.1c-0.2-3.1-0.4-6.8-0.4-9.5h-0.1c-0.8,2.6-1.7,5.4-2.8,8.4l-3.9,10.7h-2.2l-3.6-10.5
	c-1-3.1-1.9-6-2.5-8.6h-0.1c-0.1,2.8-0.2,6.4-0.4,9.8l-0.6,9.5h-2.7l1.5-22.1h3.6l3.8,10.7c0.9,2.7,1.6,5.2,2.2,7.4h0.1
	c0.6-2.2,1.4-4.7,2.4-7.4l3.9-10.7h3.7l1.4,22.1h-2.8L497.9,463.1L497.9,463.1z"/>
</svg>
