<?xml version="1.0" encoding="utf-8"?>
<!-- Generator: Adobe Illustrator 22.1.0, SVG Export Plug-In . SVG Version: 6.00 Build 0)  -->
<svg version="1.1" id="Capa_1" xmlns="http://www.w3.org/2000/svg" xmlns:xlink="http://www.w3.org/1999/xlink" x="0px" y="0px"
	 viewBox="0 0 512 512" enable-background="new 0 0 512 512" xml:space="preserve">
<g>
	<path fill-rule="evenodd" clip-rule="evenodd" fill="#999999" d="M276.2,57.9c31.5-41.5,75.3-41.7,75.3-41.7s6.5,39.1-24.8,76.7
		c-33.4,40.2-71.4,33.6-71.4,33.6S248.2,94.8,276.2,57.9z"/>
	<path fill-rule="evenodd" clip-rule="evenodd" fill="#999999" d="M259.4,153.8c16.2,0,46.3-22.3,85.5-22.3c67.4,0,94,48,94,48
		s-51.9,26.5-51.9,90.9c0,72.6,64.6,97.6,64.6,97.6s-45.2,127.2-106.2,127.2c-28,0-49.8-18.9-79.3-18.9c-30.1,0-60,19.6-79.4,19.6
		c-55.7,0-126.1-120.6-126.1-217.6c0-95.4,59.6-145.4,115.5-145.4C212.3,132.8,240.5,153.8,259.4,153.8z"/>
</g>
<path fill-rule="evenodd" clip-rule="evenodd" fill="#F09B00" d="M104.7,0C46.9,0,0,46.9,0,104.7V0H104.7z"/>
<path fill-rule="evenodd" clip-rule="evenodd" fill="#F09B00" d="M512,0v104.7C512,46.9,465.1,0,407.3,0H512z"/>
<path fill-rule="evenodd" clip-rule="evenodd" fill="#F09B00" d="M104.7,512H0V407.3C0,465.1,46.9,512,104.7,512z"/>
<path fill-rule="evenodd" clip-rule="evenodd" fill="#F09B00" d="M512,407.3V512H407.3C465.1,512,512,465.1,512,407.3z"/>
</svg>
