<?xml version="1.0" encoding="utf-8"?>
<!-- Generator: Adobe Illustrator 22.1.0, SVG Export Plug-In . SVG Version: 6.00 Build 0)  -->
<svg version="1.1" id="Capa_1" xmlns="http://www.w3.org/2000/svg" xmlns:xlink="http://www.w3.org/1999/xlink" x="0px" y="0px"
	 viewBox="0 0 512 512" enable-background="new 0 0 512 512" xml:space="preserve">
<g>
	<circle fill="#359344" cx="256" cy="256" r="223"/>
	<g>
		<path fill="#0052B4" d="M440.5,345c13-26.9,20.3-57.1,20.3-89c0-31.9-7.3-62.1-20.3-89L256,149.1L71.5,167
			c-13,26.9-20.3,57.1-20.3,89c0,31.9,7.3,62.1,20.3,89L256,362.9L440.5,345z M440.5,345"/>
		<path fill="#D80027" d="M256,460.8c81.2,0,151.4-47.3,184.5-115.8h-369C104.6,413.5,174.8,460.8,256,460.8L256,460.8z M256,460.8"
			/>
		<path fill="#F0F0F0" d="M405.9,296.2l-10.8,8.5l4.7,12.9l-11.4-7.7l-10.8,8.5l3.8-13.2l-11.4-7.7l13.7-0.5l3.8-13.2l4.7,12.9
			L405.9,296.2z M405.9,296.2"/>
		<path fill="#F0F0F0" d="M378.2,248.2l-7.3,11.6l8.8,10.5l-13.3-3.3l-7.3,11.6l-1-13.7l-13.3-3.3l12.7-5.1l-1-13.7l8.8,10.5
			L378.2,248.2z M378.2,248.2"/>
		<path fill="#F0F0F0" d="M335.8,212.6l-2.9,13.4l11.9,6.9l-13.7,1.4l-2.9,13.4l-5.6-12.5l-13.7,1.4l10.2-9.2l-5.6-12.5l11.9,6.9
			L335.8,212.6z M335.8,212.6"/>
		<path fill="#F0F0F0" d="M283.7,193.7l1.9,13.6l13.5,2.4l-12.3,6l1.9,13.6l-9.5-9.9l-12.3,6l6.4-12.1l-9.5-9.9l13.5,2.4
			L283.7,193.7z M283.7,193.7"/>
		<path fill="#F0F0F0" d="M228.3,193.7l6.4,12.1l13.5-2.4l-9.5,9.9l6.4,12.1l-12.3-6l-9.5,9.9l1.9-13.6l-12.3-6l13.5-2.4
			L228.3,193.7z M228.3,193.7"/>
		<path fill="#F0F0F0" d="M176.2,212.6l10.2,9.2l11.9-6.9l-5.6,12.5l10.2,9.2l-13.7-1.4l-5.6,12.5l-2.9-13.4l-13.7-1.4l11.9-6.9
			L176.2,212.6z M176.2,212.6"/>
		<path fill="#F0F0F0" d="M133.8,248.2l12.7,5.1l8.8-10.5l-1,13.7l12.7,5.1l-13.3,3.3l-1,13.7l-7.3-11.6l-13.3,3.3l8.8-10.5
			L133.8,248.2z M133.8,248.2"/>
		<path fill="#F0F0F0" d="M106.1,296.2l13.7,0.5l4.7-12.9l3.8,13.2l13.7,0.5l-11.4,7.7l3.8,13.2l-10.8-8.4l-11.4,7.7l4.7-12.9
			L106.1,296.2z M106.1,296.2"/>
		<path fill="#FFDA44" d="M440.5,167C407.4,98.5,337.2,51.2,256,51.2c-81.2,0-151.4,47.3-184.5,115.8H440.5z M440.5,167"/>
	</g>
</g>
</svg>
