<?xml version="1.0" encoding="utf-8"?>
<!-- Generator: Adobe Illustrator 22.1.0, SVG Export Plug-In . SVG Version: 6.00 Build 0)  -->
<svg version="1.1" id="Capa_1" xmlns="http://www.w3.org/2000/svg" xmlns:xlink="http://www.w3.org/1999/xlink" x="0px" y="0px"
	 viewBox="0 0 512 512" enable-background="new 0 0 512 512" xml:space="preserve">
<g>
	<path fill-rule="evenodd" clip-rule="evenodd" fill="#1F5299" d="M184.6,188.8c-17.9,7.6-96.2,42.5-125.5,59.6
		c-12.6-4.9-23.4-8.5-38-13.9c60.8-35.4,126.9-55.6,128-57C161.5,180.6,172.1,185.8,184.6,188.8L184.6,188.8z"/>
	<path fill-rule="evenodd" clip-rule="evenodd" fill="#1F5299" d="M243.4,213.3c-17.9,7.6-96.8,45.6-126,62.7
		c-13.6-6.8-27-13.6-40.6-19.1c60.8-35.4,123.9-59,125-60.5C213.5,200.9,231,208.7,243.4,213.3L243.4,213.3z"/>
	<path fill-rule="evenodd" clip-rule="evenodd" fill="#AF0E16" d="M433.1,200c-17.9,7.6-141.5,47.6-258.6,125.4
		c-14.8-9.1-38.7-22.9-53.3-27.7c60.8-35.4,141.3-88.9,264.1-120.4C403.8,185.4,416.5,192.5,433.1,200L433.1,200z"/>
	<path fill-rule="evenodd" clip-rule="evenodd" fill="#AF0E16" d="M490.9,232.4C472.9,240,322.9,311.7,250.2,375
		c-13.3-7.8-42.2-29.6-55.7-36.8c58.3-37.6,132.4-92.2,253.9-128.9C466.8,217.5,475.9,223.7,490.9,232.4L490.9,232.4z"/>
	<path fill-rule="evenodd" clip-rule="evenodd" fill="#AF0E16" d="M185.7,151.2c32,10.4,78.8,26.7,109.3,42.3
		c-9.7,5.3-22.8,8.9-34.5,13.7c-77.7-32.6-109.2-42.1-110.7-43.3C156.8,160.9,179.7,153.2,185.7,151.2L185.7,151.2z"/>
	<path fill-rule="evenodd" clip-rule="evenodd" fill="#AF0E16" d="M242.4,137c32,10.4,80.9,24.4,111.4,40
		c-10.4,2.6-25.4,5.7-37.3,10.6c-77.7-32.6-106.3-41-107.8-42.2C215.6,142.4,236.4,139,242.4,137L242.4,137z"/>
</g>
</svg>
