<?xml version="1.0" encoding="utf-8"?>
<!-- Generator: Adobe Illustrator 22.1.0, SVG Export Plug-In . SVG Version: 6.00 Build 0)  -->
<svg version="1.1" id="Capa_1" xmlns="http://www.w3.org/2000/svg" xmlns:xlink="http://www.w3.org/1999/xlink" x="0px" y="0px"
	 viewBox="0 0 512 512" enable-background="new 0 0 512 512" xml:space="preserve">
<g>
	<path fill-rule="evenodd" clip-rule="evenodd" fill="#004785" d="M170.6,342.5l-0.8,0.8c-12.6,12.9-27.3,19.7-42.3,19.7
		c-31.5,0-54.3-23.6-54.3-56.2c0-32.5,22.8-56.1,54.3-56.1c15.1,0,29.7,6.8,42.3,19.7l0.8,0.8l20.2-24.5l-0.5-0.7
		c-16.8-19.9-37-29.6-61.8-29.6c-24.9,0-47.7,8.4-64.1,23.5c-17.8,16.4-27.2,39.5-27.2,66.8c0,27.3,9.4,50.5,27.2,66.8
		c16.4,15.2,39.2,23.5,64.1,23.5c24.8,0,45-9.7,61.8-29.6l0.5-0.6L170.6,342.5L170.6,342.5z"/>
	<polygon fill-rule="evenodd" clip-rule="evenodd" fill="#004785" points="211.3,393.8 247,393.8 247,219.3 211.3,219.3 
		211.3,393.8 	"/>
	<path fill-rule="evenodd" clip-rule="evenodd" fill="#004785" d="M387,355.8c-9.6,5.8-18.4,8.7-26.4,8.7
		c-11.5,0-16.8-6.1-16.8-19.7v-92.6h36.4v-32.9h-36.4v-54.3l-35,18.8v35.5h-30.2v32.9h30.2v98.5c0,26.8,15.9,45.1,39.6,45.6
		c16.1,0.3,25.8-4.5,31.7-8l0.4-0.2l8.6-33.6L387,355.8L387,355.8z"/>
	<polygon fill-rule="evenodd" clip-rule="evenodd" fill="#004785" points="416.6,393.8 452.4,393.8 452.4,219.3 416.6,219.3 
		416.6,393.8 	"/>
	<path fill-rule="evenodd" clip-rule="evenodd" fill="#ED1B2E" d="M473.2,188.7c-32.6-46.2-86.9-73.8-142-73.8
		c-55.1,0-109.4,27.6-142,73.8l-1.7,2.4h41.1l0.4-0.5c28-28.9,64.5-44.1,102.1-44.1c37.6,0,74.1,15.3,102.1,44.1l0.5,0.5h41.1
		L473.2,188.7L473.2,188.7z"/>
</g>
</svg>
