<?xml version="1.0" encoding="utf-8"?>
<!-- Generator: Adobe Illustrator 22.1.0, SVG Export Plug-In . SVG Version: 6.00 Build 0)  -->
<svg version="1.1" id="Capa_1" xmlns="http://www.w3.org/2000/svg" xmlns:xlink="http://www.w3.org/1999/xlink" x="0px" y="0px"
	 viewBox="0 0 512 512" enable-background="new 0 0 512 512" xml:space="preserve">
<g>
	<path fill-rule="evenodd" clip-rule="evenodd" fill="#A83635" d="M198.2,316.8c-18.5-11.9-43.7-14-84.3-2.8
		c-43.3,10.2-57.7,16.7-76.6,3.6c-7.3-6.4-9.9-16.8-7.9-31.7c4.5-24.3,16.7-47.7,38.4-73.6c12.1-13.5,23.3-25.1,38.2-29.7
		c11.4-2.9,10.3,6,8.9,7.3c-1.5,0-3.9,0.2-5.8,1.5c-1.5,1.2-5.7,5-6,10.2c-0.3,7.9,7.8,6.2,11.4,1.9c3.8-4.9,9.4-14.2,5-22.9
		c-1.8-3.1-5-5.2-9-6c-13.6-0.8-26.2,5.7-37.9,12.9c-25.5,17.7-46,42.3-57.5,69.2c-6.7,16.2-12.7,39.5-3.7,58.4
		c7,13.1,21.5,20.1,38.8,18.6c12.1-1.3,26.8-5.2,36.7-7.6c9.9-2.4,60.4-19.7,77,10.5c0,0,5.5-10.7,19.3-10.9
		c11.3-1,27.7,3.3,39.6,12C218.8,331.6,207.6,322.8,198.2,316.8L198.2,316.8z"/>
	<path fill-rule="evenodd" clip-rule="evenodd" fill="#A83635" d="M119,215.3c-9.4-6.2-28.4,5.7-43.7,26
		c-13.9,18.2-19.9,39.4-13.4,49.2c9.7,11.5,27.8-5.2,35.5-14.2l1-1c5.2-5.6,9.3-12.4,13.2-18.8c0,0,3.6-5.9,3.8-6.2
		c2.2-0.4,4.9-1,7.9-1.9c0,0.1-11.5,19.4-10.3,29c0.4,2.9,0.1,13.6,10.5,16.8c13.9,2.3,25-8.4,34.7-18c0,0,1.7-1.6,2.6-2.5
		c-0.2,1-0.5,2.2-0.5,2.2c-4.1,14.1,1.4,17.1,4.8,18.2c10.4,3,22.7-12,22.8-12c-0.3,4.7-1.3,8.7,3.7,11.8c4.7,1.7,9.5-0.8,13.1-3.2
		c13.1-9.2,23.6-23.7,32.1-36h-5.4c-0.1,0.1-13.4,19.2-22,23.4c0,0-1.6,0.8-2.5,0.1c-1.1-1-0.7-3.1,0-4.5c0-0.1,33.4-58.1,33.4-58.1
		h-15.7c0,0-1.7,2.9-1.9,3.1c-0.1-0.1-0.4-0.5-0.5-0.7c-9.8-13.5-31.8,7.3-48.5,31.4c-6.4,9.3-14.6,19.7-23,27.2
		c0,0-12.5,11.5-17.9,3.2c-2-3.5-1.4-8.5-0.3-11.9c6.2-17.7,17-33.8,29.2-43.5c3.4-2.7,7.2-3.5,9.1-2.3c1.8,1,2.1,3.6,0.9,5.4
		c-2.8-0.1-5.1,0.8-7,2.7c-3.7,3.8-4.9,7.5-3.8,11c5.6,8,16.9-7.8,16.3-17.5c-0.2-3.5-2-6.7-4.8-8.3c-4.1-2.5-10.4-1.8-14.4,0.1
		c-5.4,2.1-14,9.2-19.1,14.8c-6.3,7-17.2,14.7-20.6,13.9C119.5,241.1,128.7,222.3,119,215.3L119,215.3z M195,243
		c3.1-4.2,12-15.6,14.2-17.5c7.3-6.4,10.2-3.6,10.5-1.6c-6.8,12.2-14.9,26.2-22.4,38.8c0,0-2.4,3.6-2.4,3.6
		c-3.3,5.1-6.7,9.5-12.2,12.5c-0.8,0.2-2.1,0.3-2.9-0.3c-1-0.7-1.4-1.8-1.3-3C178.7,271.6,182.6,259.6,195,243L195,243z
		 M109.3,250.4c0,0-0.1,0.4-0.2,0.5c0,0-6.9,11.2-6.9,11.2c-4.1,5.5-9.3,12.4-15.7,15.8c-1.9,0.6-4.6,1-5.9-0.6
		c-2.9-3.4-1.4-8.2-0.2-12l0.4-1.4c3.4-9.3,8.9-17.5,14.2-25.1c0.1,0,0.2-0.1,0.3-0.1c0,0,0,0,0,0.1c3.3,6.4,9.6,9.3,14.2,10.7
		c0,0,0.1,0,0.1,0.1C109.6,249.8,109.5,250,109.3,250.4L109.3,250.4z M115.8,237.2c0,0.1-3,7-3,7c-0.4,0.4-1.1,0.2-1.9,0l-1.4-0.2
		c-4.3-1.3-7.5-4.1-8.5-7.5c-1.4-6.6,4.2-11.7,6.7-13.6c2.4-1.6,6.1-2.5,8.2-0.8c1.3,1.5,1.8,3.6,1.8,5.7
		C117.7,230.8,116.8,234.1,115.8,237.2L115.8,237.2z"/>
	<path fill-rule="evenodd" clip-rule="evenodd" fill="#A83635" d="M314.9,258.4c-1.5-3.3-5.1-5.4-9-5.2
		c-12.5,1.1-24.7,11.4-31.1,26.1c-3.4,7.6-5.2,13.8-6.4,23.8c3.9-4.5,11.8-11.8,20.8-15.8c0,0,1.2-9.5,7.5-18
		c2.4-3.5,7.1-9.2,12.4-7.7c4.6,1.6,3,14.4-3.1,26.8c-4.6,9.1-11.5,18.2-18.6,24.5c-6.2,5.3-15.4,11.7-23.5,6.7
		c-5.1-3-7.7-9.3-7.1-17.4c2.4-23,12.9-42.6,27.9-65c15.5-20.7,32.5-42,55.5-53.4c4.7-2.4,9-2.9,12.8-1.5c0,0-21.6,11.9-31.8,33.8
		c-2.6,5.6-6.2,13.1-2.6,19.7c1.9,3.5,5.3,3.7,8,3.6c12.6-2.9,20.7-14.7,27.4-25.4c3.9-8.2,7.3-16.3,7.3-25.3c0-1.1-0.1-2.6-0.2-3.6
		c6-3.2,18.4,2.5,18.4,2.5c9.6,3.2,30.2,18.9,37.1,21.9c3.4-3.9,8.9-9.8,12.1-12.8l-4.5-2.8c-7.2-4.4-14.9-8.6-22.4-12.8
		c-17.1-9.3-31.1-6.1-38.1-3.5c-2.8,1-5.3,1.9-5.3,1.9c-5.3-5.7-13.9-5.2-20.3-3.6c-22.9,6.6-44.1,22.6-66.9,50.3
		c-16.7,21.7-27.1,40.5-32.7,59.1c-4.3,12.5-5.6,30.9,4.8,41.8c8.9,9.3,20.6,7.2,28.9,3.9c18-8.8,34.1-27.9,42.1-49.8
		C316,274.6,318.2,265.4,314.9,258.4L314.9,258.4z M356.1,189.7c-2.4,27.3-23.6,43.3-28.8,44.5c-3.2,0.6-8.6-0.8-3.8-12.2
		c7.1-15.4,19.3-28.5,32.4-35.2C356.2,187.9,356.2,188.6,356.1,189.7L356.1,189.7z"/>
	<path fill-rule="evenodd" clip-rule="evenodd" fill="#A83635" d="M481.9,193.1c-11.4,6.5-23.2,10.7-37.5,9.2
		c-4,4.5-7.8,9.1-11.4,13.8c20.1,5.1,41.4-6.2,53.2-17c12.6-10.9,19-24.6,19-24.6S495.8,185.2,481.9,193.1L481.9,193.1z"/>
	<polygon fill-rule="evenodd" clip-rule="evenodd" fill="#A83635" points="266.4,215.5 251.5,215.5 243,229.8 258,229.8 
		266.4,215.5 	"/>
	<path fill-rule="evenodd" clip-rule="evenodd" fill="#A83635" d="M444.3,318.2c-1.6,1.1-3.9,0.2-3-2.3c2.1-6.4,10.5-19.5,10.5-19.5
		l23.3-41.4h-16c-0.8,1.4-2.4,4.2-2.4,4.2c-0.7-1.2-2.9-3.9-3.9-4.5c-3.9-2.5-9.6-1.3-13.6,1c-17.2,10-29.7,29.9-39.5,45.3
		c0,0-10.4,17.2-16.2,18.5c-4.5,0.4-4-5.7-3.8-7.1c1.7-10.2,5.8-19.9,9.9-28.7c8.3-5.7,17.7-13.3,26.3-21.5
		c18.7-17.8,34.4-38,36.7-42.5c0,0-2.5,0.5-5.4,0.6c-14.3,20-43.7,49.1-52.6,53.4c3.9-9.5,29.4-54.8,51.1-76.4l3.4-3.3
		c5.3-5.2,10.7-10.4,15-11.3c0.5,0,1,0,1.5,1c0.2,4-1.3,7-3,10.3l-2.4,4.9c0,0,3.4-0.6,5.6-1.4c2.6-4.9,5.5-10.3,4.4-16.9
		c-0.4-2.1-1.9-3.7-3.9-4.1c-6.5-1.2-13.5,3.6-19.2,7.4l-0.2,0.1c-29.2,22.8-53.8,55.8-75.3,100.7c-1.6,1.2-7.6,2.6-8.6,1.9
		c2.1-4.4,4.8-10.3,6.1-16.6c0.2-1.8,0.4-3.7,0.4-5.5c0-3.9-0.9-7.6-4.5-10.2c-4.1-2.1-9.2-1.1-12.6,0.5
		c-15.4,6.4-26.9,22.2-35.2,35.2c-4.5,8.3-8.9,17.1-10.1,27.2c-0.9,7.9,0.9,13,5.4,15.6c4.6,2.4,10.5-0.1,12.8-1.3
		c15.6-8.2,26.5-24.7,35.1-39.7c0.3,0,5-0.2,8.6-1.1c0,0,0.1,0,0.1,0c-0.2,0.7-2,6.2-2,6.2c-5.4,16-8,26.8-2.8,33.2
		c7.3,9.1,19.5-0.3,29.4-12.7c-2.1,14.9,5.6,17.2,11.5,16c6.7-1.8,14.3-9,17.7-12.7c-1.1,4.3-0.8,12.1,5.3,12.9
		c4.2,0.8,7.4-1.4,11-3.3c13.1-7.1,28.7-31,32.8-37.5h-5.3C460.9,301.3,453.5,312.7,444.3,318.2L444.3,318.2z M327,316.4
		c-0.8-1.2-1.1-2.6-1.1-4.1c-0.2-8.9,9.5-24.8,16.2-33.7c0,0,0,0,0,0c2.8,6.6,9.3,10.3,13.2,12C350.5,301.3,333.9,324.5,327,316.4
		L327,316.4z M358.1,285.8c-0.5,0.3-8.6-2.4-10.2-9.9c-1.3-6.5,3.1-11.5,7.4-14.1c1.8-1.5,4.6-2,6.7-1.2c1.9,1.3,2.4,3.6,2.4,6
		c0,1.5-0.2,3.1-0.4,4.5c0,0,0,0.3,0,0.3C362.7,276.5,360.6,281.4,358.1,285.8L358.1,285.8z M423.2,313.6c0,0-1.5,1.4-1.5,1.4
		c-2.2,2-4.4,4.1-7.2,3c-0.8-0.3-1.3-1.3-1.4-2.1c-0.1-5.6,2.4-10.8,4.9-15.9l0.6-1.3c7-11.8,15.2-25.6,27.3-35.2
		c2-1.5,4.2-2.7,6.5-1.7c0.5,0.5,1.2,1.4,1.2,2.2c0,0.3-0.2,1-0.4,1.2c-3.4,5.4-6.6,11.1-9.7,16.6
		C437.4,292.6,431.1,303.8,423.2,313.6L423.2,313.6z"/>
</g>
</svg>
