<?xml version="1.0" encoding="utf-8"?>
<!-- Generator: Adobe Illustrator 22.1.0, SVG Export Plug-In . SVG Version: 6.00 Build 0)  -->
<svg version="1.1" id="Capa_1" xmlns="http://www.w3.org/2000/svg" xmlns:xlink="http://www.w3.org/1999/xlink" x="0px" y="0px"
	 viewBox="0 0 512 512" enable-background="new 0 0 512 512" xml:space="preserve">
<path fill-rule="evenodd" clip-rule="evenodd" fill="#272525" d="M470.3,85.9c-40.6-37.7-100.5-39.4-133.6-3.7
	c-27.8,30-27.9,76.7-3.2,113.3c-22.9-12.2-49.7-19.3-78.2-19.3c-28.5,0-55.2,7-78.1,19.2c25.8-39.3,23.4-89.3-8.1-118.5
	c-35.7-33.1-95.2-27.1-133,13.6C-1.6,131.2-3.2,191,32.5,224.2c25.3,23.4,62.4,27.2,95.4,13c-17.1,22.5-27.1,49.8-27.1,79.2
	c0,77.3,69.2,140.1,154.5,140.1c85.3,0,154.5-62.7,154.5-140.1c0-30-10.4-57.7-28.1-80.5c36,15.7,76.8,10.3,102.1-16.9
	C517,183.2,510.9,123.7,470.3,85.9z"/>
</svg>
