<?xml version="1.0" encoding="utf-8"?>
<!-- Generator: Adobe Illustrator 22.1.0, SVG Export Plug-In . SVG Version: 6.00 Build 0)  -->
<svg version="1.1" id="Capa_1" xmlns="http://www.w3.org/2000/svg" xmlns:xlink="http://www.w3.org/1999/xlink" x="0px" y="0px"
	 viewBox="0 0 512 512" enable-background="new 0 0 512 512" xml:space="preserve">
<g>
	<path fill="#0052B4" d="M502.7,256c0,136.3-110.5,246.7-246.7,246.7C119.7,502.7,9.3,392.3,9.3,256C9.3,256.1,256,9.3,256,9.3
		C392.3,9.3,502.7,119.7,502.7,256L502.7,256z M502.7,256"/>
	<path fill="#F0F0F0" d="M255.3,256h0.7v-0.7C255.8,255.6,255.6,255.8,255.3,256L255.3,256z M255.3,256"/>
	<path fill="#F0F0F0" d="M256,138V9.3h0C119.7,9.3,9.3,119.7,9.3,256H138v-72.5l72.5,72.5h44.9c0.2-0.2,0.4-0.4,0.7-0.7v-44.9
		L183.5,138H256z M256,138"/>
	<path fill="#D80027" d="M134.1,41.5c-38.6,22-70.7,54.1-92.6,92.6V256h64.4V105.8H256V41.5H134.1z M134.1,41.5"/>
	<path fill="#D80027" d="M256,225.7L168.3,138H138c0,0,0,0,0,0l118,118V225.7z M256,225.7"/>
	<path fill="#F0F0F0" d="M158.1,298.9l13.5,28.3l30.6-7.1l-13.7,28.2l24.6,19.5l-30.6,6.9l0.1,31.4l-24.5-19.6l-24.5,19.6l0.1-31.4
		l-30.6-6.9l24.6-19.5L114,320.2l30.6,7.1L158.1,298.9z M158.1,298.9"/>
	<path fill="#F0F0F0" d="M378.7,352.5l6.8,14.2l15.3-3.5l-6.8,14.1l12.3,9.7l-15.3,3.5l0,15.7l-12.2-9.8l-12.2,9.8l0-15.7l-15.3-3.5
		l12.3-9.7l-6.8-14.1l15.3,3.5L378.7,352.5z M378.7,352.5"/>
	<path fill="#F0F0F0" d="M315.7,202.4l6.8,14.2l15.3-3.5l-6.8,14.1l12.3,9.8l-15.3,3.4l0,15.7l-12.2-9.8l-12.2,9.8l0-15.7l-15.3-3.4
		l12.3-9.8l-6.8-14.1l15.3,3.5L315.7,202.4z M315.7,202.4"/>
	<path fill="#F0F0F0" d="M378.7,116.5l6.8,14.2l15.3-3.5l-6.8,14.1l12.3,9.8l-15.3,3.4l0,15.7l-12.2-9.8l-12.2,9.8l0-15.7l-15.3-3.4
		l12.3-9.8l-6.8-14.1l15.3,3.5L378.7,116.5z M378.7,116.5"/>
	<path fill="#F0F0F0" d="M433.7,180.9l6.8,14.2l15.3-3.5l-6.8,14.1l12.3,9.8l-15.3,3.4l0,15.7l-12.2-9.8l-12.2,9.8l0-15.7l-15.3-3.4
		l12.3-9.8l-6.8-14.1l15.3,3.5L433.7,180.9z M433.7,180.9"/>
	<path fill="#F0F0F0" d="M394.4,256l5.3,16.4h17.2L403,282.5l5.3,16.4l-13.9-10.1l-13.9,10.1l5.3-16.4l-13.9-10.1H389L394.4,256z
		 M394.4,256"/>
</g>
</svg>
