<?xml version="1.0" encoding="utf-8"?>
<!-- Generator: Adobe Illustrator 22.1.0, SVG Export Plug-In . SVG Version: 6.00 Build 0)  -->
<svg version="1.1" id="Capa_1" xmlns="http://www.w3.org/2000/svg" xmlns:xlink="http://www.w3.org/1999/xlink" x="0px" y="0px"
	 viewBox="0 0 512 512" enable-background="new 0 0 512 512" xml:space="preserve">
<g>
	<path fill="#359344" d="M256,6.7C118.6,6.7,6.7,118.6,6.7,256c0,137.4,111.8,249.3,249.3,249.3c137.4,0,249.3-111.8,249.3-249.3
		C505.3,118.6,393.4,6.7,256,6.7L256,6.7z M256,468.3c-117.1,0-212.3-95.3-212.3-212.3c0-117.1,95.3-212.3,212.3-212.3
		c117.1,0,212.3,95.3,212.3,212.3C468.3,373.1,373.1,468.3,256,468.3L256,468.3z M256,468.3"/>
	<path fill="#359344" d="M256,64.9C150.7,64.9,64.9,150.6,64.9,256c0,105.4,85.8,191,191.1,191c105.3,0,191-85.6,191-191
		C447.1,150.6,361.3,64.9,256,64.9z M265.1,352.1v32.6h-19.8v-31.7c-18.2-0.3-37-6-48-13.8l7.5-21c11.3,7.5,27.6,13.5,45.2,13.5
		c22.3,0,37.3-12.9,37.3-30.8c0-17.2-12.2-27.9-35.5-37.3c-32-12.6-51.7-27-51.7-54.3c0-26,18.5-45.8,47.4-50.5v-31.7H267v30.4
		c18.8,0.6,31.7,5.6,40.8,11l-7.8,20.7c-6.6-3.8-19.4-10.7-39.5-10.7c-24.2,0-33.3,14.4-33.3,27c0,16.3,11.6,24.5,38.9,35.8
		c32.3,13.2,48.6,29.5,48.6,57.4C314.6,323.6,297.4,346.8,265.1,352.1z M324.8,184.2v-0.1c0.1,0.1,0.1,0.1,0.1,0.1H324.8z"/>
</g>
</svg>
