<?xml version="1.0" encoding="utf-8"?>
<!-- Generator: Adobe Illustrator 22.1.0, SVG Export Plug-In . SVG Version: 6.00 Build 0)  -->
<svg version="1.1" id="Capa_1" xmlns="http://www.w3.org/2000/svg" xmlns:xlink="http://www.w3.org/1999/xlink" x="0px" y="0px"
	 viewBox="0 0 512 512" enable-background="new 0 0 512 512" xml:space="preserve">
<g>
	<path fill="#359344" d="M256,6.8C118.6,6.8,6.8,118.6,6.8,256c0,137.4,111.8,249.2,249.2,249.2c137.4,0,249.2-111.8,249.2-249.2
		C505.2,118.6,393.4,6.8,256,6.8L256,6.8z M256,468.3c-117.1,0-212.3-95.2-212.3-212.3c0-117.1,95.2-212.3,212.3-212.3
		c117.1,0,212.3,95.2,212.3,212.3C468.3,373.1,373.1,468.3,256,468.3L256,468.3z M256,468.3"/>
	<g>
		<path fill="#359344" d="M199.8,190.3h-0.5c-2.4,9.6-5.1,19.5-8.2,29.4l-15.9,47h48.9L208.3,220
			C204.6,209.4,202.2,199.7,199.8,190.3z"/>
		<path fill="#359344" d="M256,64.9C150.7,64.9,64.9,150.6,64.9,256c0,105.4,85.8,191,191.1,191c105.3,0,191-85.6,191-191
			C447,150.6,361.3,64.9,256,64.9z M245.8,334.1l-17.4-51.1h-57.6l-16.9,51.1h-21.7l55.2-162.4h25.3l55.4,162.4H245.8z M341.5,329.8
			v25h-15.2v-24.3c-14-0.2-28.4-4.6-36.9-10.6l5.8-16.1c8.7,5.8,21.2,10.4,34.7,10.4c17.1,0,28.7-9.9,28.7-23.6
			c0-13.2-9.4-21.4-27.2-28.7c-24.6-9.6-39.7-20.7-39.7-41.7c0-20,14.2-35.2,36.4-38.8v-24.3H343v23.4c14.5,0.5,24.3,4.3,31.3,8.4
			l-6,15.9c-5.1-2.9-14.9-8.2-30.3-8.2c-18.6,0-25.5,11.1-25.5,20.7c0,12.5,8.9,18.8,29.9,27.5c24.8,10.1,37.3,22.6,37.3,44.1
			C379.6,307.9,366.4,325.7,341.5,329.8z"/>
	</g>
</g>
</svg>
