<?xml version="1.0" encoding="utf-8"?>
<!-- Generator: Adobe Illustrator 22.1.0, SVG Export Plug-In . SVG Version: 6.00 Build 0)  -->
<svg version="1.1" id="Capa_1" xmlns="http://www.w3.org/2000/svg" xmlns:xlink="http://www.w3.org/1999/xlink" x="0px" y="0px"
	 viewBox="0 0 512 512" enable-background="new 0 0 512 512" xml:space="preserve">
<g>
	<path fill="#359344" d="M256,14.3C122.7,14.3,14.3,122.7,14.3,256c0,133.3,108.4,241.7,241.7,241.7
		c133.3,0,241.7-108.4,241.7-241.7C497.7,122.7,389.3,14.3,256,14.3L256,14.3z M256,461.9c-113.6,0-205.9-92.4-205.9-205.9
		c0-113.6,92.4-205.9,205.9-205.9c113.6,0,205.9,92.4,205.9,205.9C461.9,369.6,369.6,461.9,256,461.9L256,461.9z M256,461.9"/>
	<path fill="#359344" d="M256,70.7C153.9,70.7,70.7,153.8,70.7,256S153.9,441.3,256,441.3c102.1,0,185.3-83.1,185.3-185.3
		S358.1,70.7,256,70.7z M320.2,376.5h-54.8c-42,0-76.2-34.2-76.2-76.2v-88.6c0-42,34.2-76.2,76.2-76.2h54.8v23.7h-54.8
		c-29,0-52.5,23.6-52.5,52.5v88.6c0,29,23.6,52.5,52.5,52.5h54.8V376.5z M281.7,169.2v173.6h-14.6V169.2H281.7z M263.2,241.4v25.1
		c-21.3-5.1-37.1-24.2-37.1-47.1c0-22.8,15.9-42,37.1-47.1v25.1c-8,4.1-13.4,12.4-13.4,21.9C249.7,229,255.2,237.3,263.2,241.4z
		 M263.2,314.5v25.1c-21.3-5.1-37.1-24.2-37.1-47.1h23.7C249.7,302.1,255.2,310.4,263.2,314.5z M285.7,339.6v-25.1
		c8-4.1,13.4-12.4,13.4-21.9c0-9.6-5.5-17.9-13.4-22v-25.1c21.3,5.1,37.1,24.2,37.1,47.1C322.8,315.3,307,334.5,285.7,339.6z
		 M299.1,219.4c0-9.6-5.5-17.8-13.4-22v-25.1c21.3,5.1,37.1,24.2,37.1,47.1H299.1z M322.7,186.4v-0.1c0.1,0.1,0.1,0.1,0.1,0.1H322.7
		z"/>
</g>
</svg>
