<?xml version="1.0" encoding="utf-8"?>
<!-- Generator: Adobe Illustrator 22.1.0, SVG Export Plug-In . SVG Version: 6.00 Build 0)  -->
<svg version="1.1" id="Capa_1" xmlns="http://www.w3.org/2000/svg" xmlns:xlink="http://www.w3.org/1999/xlink" x="0px" y="0px"
	 viewBox="0 0 512 512" enable-background="new 0 0 512 512" xml:space="preserve">
<g>
	<circle fill="#0070B9" cx="384" cy="127.7" r="96.1"/>
	<path fill="#0070B9" d="M151.9,258.9c0-25,9.1-47.8,24.2-65.5c1-1.6,2.2-3.1,3.6-4.5L314.9,53.8c-16.4-4.9-33.5-7.9-51.3-8.7v-0.3
		H31.9v435.7h231.7v-0.3c80.8-4,150-52,184.1-120.5H252.7C197.1,359.7,151.9,314.5,151.9,258.9z"/>
	<path fill="#2B2523" d="M459.7,194.5L323.3,330.9c-0.7,0.7-1.4,1.4-2.2,2c-18,16.6-42,26.7-68.3,26.7h195.1
		c14.6-29.2,22.8-62.2,22.8-97.1C470.6,238.8,466.8,215.9,459.7,194.5z"/>
</g>
</svg>
