<?xml version="1.0" encoding="utf-8"?>
<!-- Generator: Adobe Illustrator 22.1.0, SVG Export Plug-In . SVG Version: 6.00 Build 0)  -->
<svg version="1.1" id="Capa_1" xmlns="http://www.w3.org/2000/svg" xmlns:xlink="http://www.w3.org/1999/xlink" x="0px" y="0px"
	 viewBox="0 0 512 512" enable-background="new 0 0 512 512" xml:space="preserve">
<g>
	<path fill="#359344" d="M256,14.5C122.8,14.5,14.5,122.8,14.5,256c0,133.2,108.3,241.5,241.5,241.5
		c133.2,0,241.5-108.3,241.5-241.5C497.5,122.8,389.2,14.5,256,14.5L256,14.5z M256,461.7c-113.4,0-205.7-92.3-205.7-205.7
		c0-113.4,92.3-205.7,205.7-205.7c113.4,0,205.7,92.3,205.7,205.7C461.7,369.4,369.4,461.7,256,461.7L256,461.7z M256,461.7"/>
	<path fill="#359344" d="M256,70.9c-102,0-185.1,83-185.1,185.1c0,102.1,83.1,185.1,185.1,185.1c102,0,185.1-83,185.1-185.1
		C441.1,153.9,358,70.9,256,70.9L256,70.9z M322.7,186.4c-12.2-9.6-25.9-14.4-41.3-14.4c-12,0-22.5,3.9-31.5,11.6
		c-9,7.8-15.5,18-19.3,30.8H300v30.4h-74.3c-0.4,6.5-0.6,10.8-0.6,13.4c0,3,0.1,6.1,0.3,9.6h74.5v31h-69.6c8.2,27.3,24.4,41,48.7,41
		c15.3,0,29.9-4.9,43.8-14.7v40.1c-12.7,7.8-29.5,11.7-50.1,11.7c-24.5,0-44.3-6.8-59.7-20.3c-15.4-13.5-25.6-32.8-30.6-57.9h-19.9
		v-31h15.6c-0.2-2.7-0.3-5.9-0.3-9.6c0-2,0.2-6.4,0.6-13.4h-16v-30.4h20.7c5.9-25.1,17.2-44.6,33.8-58.5
		c16.7-13.8,37.3-20.8,62-20.8c18.2,0,32.8,3,43.8,9L322.7,186.4L322.7,186.4z M322.7,186.4"/>
</g>
</svg>
