<?xml version="1.0" encoding="utf-8"?>
<!-- Generator: Adobe Illustrator 22.1.0, SVG Export Plug-In . SVG Version: 6.00 Build 0)  -->
<svg version="1.1" id="Capa_1" xmlns="http://www.w3.org/2000/svg" xmlns:xlink="http://www.w3.org/1999/xlink" x="0px" y="0px"
	 viewBox="0 0 512 512" enable-background="new 0 0 512 512" xml:space="preserve">
<g>
	<path fill="#FFFFFF" d="M399.3,259.8l-6.3,53.2c-0.6,5.1-4.9,8.9-10,8.9h-57l-0.3,165h-72l0.3-165h-42.9c-5.6,0-10.1-4.5-10.1-10.1
		l-0.2-53.2c0-5.6,4.5-10.1,10.1-10.1h42.8v-51.4c0-59.6,36.4-92.1,89.6-92.1H387c5.6,0,10.1,4.5,10.1,10.1v44.9
		c0,5.6-4.5,10.1-10.1,10.1l-26.8,0c-28.9,0-34.5,13.7-34.5,33.9v44.5h63.6C395.3,248.5,400,253.7,399.3,259.8z"/>
	<path fill="#4E5A90" d="M486.9,85.7v340.6c0,33.4-27.1,60.6-60.6,60.6H325.7l0.3-165h57c5.1,0,9.4-3.8,10-8.9l6.3-53.2
		c0.7-6-4-11.3-10-11.3h-63.6V204c0-20.2,5.6-33.9,34.5-33.9l26.8,0c5.6,0,10.1-4.5,10.1-10.1v-44.9c0-5.6-4.5-10.1-10.1-10.1h-43.7
		c-53.2,0-89.6,32.5-89.6,92.1v51.4h-42.8c-5.6,0-10.1,4.6-10.1,10.1l0.2,53.2c0,5.6,4.5,10.1,10.1,10.1H254l-0.3,165h-168
		c-33.5,0-60.6-27.1-60.6-60.6V85.7c0-33.5,27.1-60.6,60.6-60.6h340.6C459.7,25.2,486.9,52.3,486.9,85.7z"/>
</g>
</svg>
