<?xml version="1.0" encoding="utf-8"?>
<!-- Generator: Adobe Illustrator 22.1.0, SVG Export Plug-In . SVG Version: 6.00 Build 0)  -->
<svg version="1.1" id="Capa_1" xmlns="http://www.w3.org/2000/svg" xmlns:xlink="http://www.w3.org/1999/xlink" x="0px" y="0px"
	 viewBox="0 0 512 512" enable-background="new 0 0 512 512" xml:space="preserve">
<g>
	<path fill="#359344" d="M256,9.3C119.9,9.3,9.3,119.9,9.3,256c0,136.1,110.7,246.7,246.7,246.7c136.1,0,246.7-110.7,246.7-246.7
		C502.7,119.9,392.1,9.3,256,9.3L256,9.3z M256,466.2c-115.9,0-210.2-94.3-210.2-210.2c0-115.9,94.3-210.2,210.2-210.2
		c115.9,0,210.2,94.3,210.2,210.2C466.2,371.9,371.9,466.2,256,466.2L256,466.2z M256,466.2"/>
	<g>
		<path fill="#359344" d="M256,66.8C151.7,66.8,66.8,151.7,66.8,256c0,104.3,84.8,189.1,189.1,189.1c104.3,0,189.1-84.8,189.1-189.1
			C445.1,151.7,360.3,66.8,256,66.8L256,66.8z M322.6,194.3c0,1.9-1.5,3.5-3.4,3.5h-76.4v33H300c1.9,0,3.5,1.5,3.5,3.4v26.4
			c0,1.9-1.5,3.4-3.5,3.4h-57.2v26.4h16.7c1.9,0,3.4,1.5,3.4,3.5v20.7c0,1.9-1.5,3.5-3.4,3.5h-16.7v20.3c0,1.9-1.5,3.5-3.4,3.5
			h-26.4c-1.9,0-3.4-1.5-3.4-3.5v-20.3h-16.7c-1.9,0-3.4-1.5-3.4-3.5v-20.7c0-1.9,1.5-3.5,3.4-3.5h16.7V167.8c0-1.9,1.5-3.4,3.4-3.4
			h106.2c1.9,0,3.4,1.5,3.4,3.4V194.3z M322.6,194.3"/>
	</g>
</g>
</svg>
