<?xml version="1.0" encoding="utf-8"?>
<!-- Generator: Adobe Illustrator 22.1.0, SVG Export Plug-In . SVG Version: 6.00 Build 0)  -->
<svg version="1.1" id="Capa_1" xmlns="http://www.w3.org/2000/svg" xmlns:xlink="http://www.w3.org/1999/xlink" x="0px" y="0px"
	 viewBox="0 0 512 512" enable-background="new 0 0 512 512" xml:space="preserve">
<g>
	<path fill="#359344" d="M467.6,388.1l-54.9-271.8c-2.9-14.3-15.7-24.8-30.3-24.8H380l-2.1-7.8c-1.4-5.3-6.3-9-11.8-9h-6v-0.1
		c0-19.1-15.5-34.7-34.7-34.7H78c-19.1,0-34.7,15.5-34.7,34.7v362.7c0,19.1,15.5,34.7,34.7,34.7h247.5c19.1,0,34.7-15.5,34.7-34.7
		v-88.5c6.2,3.6,10.5,10.2,10.5,17.9v31.1c0,27,22,49,49,49c14.8,0,28.6-6.5,37.9-18C466.9,417.4,470.5,402.6,467.6,388.1
		L467.6,388.1z M80,314V99.6C80,89.9,87.9,82,97.6,82h208.3c9.7,0,17.6,7.9,17.6,17.6v214.7c0,9.5-7.7,17.2-17.2,17.2H97.6
		C87.9,331.6,80,323.7,80,314L80,314z M435.2,410.6c-3.8,4.7-9.5,7.4-15.6,7.4c-11.1,0-20.2-9-20.2-20.2v-31.1
		c0-23.8-16.9-43.7-39.3-48.5v-136h36.4l42.8,211.6C440.6,399.8,439.1,405.9,435.2,410.6L435.2,410.6z M435.2,410.6"/>
	<path fill="#359344" d="M187.7,166c-37.2,10.4-47.1,52.7-31.7,82.2c-0.4,0.2-50.5,24.4-50.5,70.1c15.8-23.1,29.8-39.7,57-53.3
		c8-4,52.7-21.2,79.3-62.2c0.5-0.8,1.6-1.1,2.5-0.7c0.9,0.4,1.4,1.4,1.1,2.3c-11.7,43.9-44.4,64.7-54.6,72.4
		c34.6,12.3,71.7-2.6,89.5-41.8c14.6-32.2,0.5-97.3-6.8-125.7c-0.4-1.6-1.8-2.7-3.4-2.7c-1.6-0.1-3.1,0.9-3.6,2.4
		C260.3,126.1,241.8,154.8,187.7,166L187.7,166z M187.7,166"/>
</g>
</svg>
