<?xml version="1.0" encoding="utf-8"?>
<!-- Generator: Adobe Illustrator 22.1.0, SVG Export Plug-In . SVG Version: 6.00 Build 0)  -->
<svg version="1.1" id="Capa_1" xmlns="http://www.w3.org/2000/svg" xmlns:xlink="http://www.w3.org/1999/xlink" x="0px" y="0px"
	 viewBox="0 0 512 512" enable-background="new 0 0 512 512" xml:space="preserve">
<g>
	<g>
		<defs>
			<rect id="SVGID_1_" x="14.1" y="14.1" width="483.9" height="483.9"/>
		</defs>
		<clipPath id="SVGID_2_">
			<use xlink:href="#SVGID_1_"  overflow="visible"/>
		</clipPath>
		<path clip-path="url(#SVGID_2_)" fill="#5772AE" d="M238.4,26.3c-28.4,2-56.3,9.6-81.9,21.9c-41.3,19.9-76.5,52.2-99.4,91.9
			C23,197.4,16.4,269.9,38.8,332.6c14.3,40.8,40.5,77.2,74.3,104c39.3,31.2,89,49.1,139.3,49.6c36.7,0.8,73.5-7.5,106.3-24
			c41.7-20.7,76.8-54.4,99.2-95.2c22.4-40.5,32.2-87.9,27.2-133.9c-6.6-74.7-53.3-143.9-119.1-179.3
			C327.3,32.5,282.4,22.8,238.4,26.3L238.4,26.3z M238.5,14.7c47.7-3.6,96.5,7.5,137.9,31.5c33.2,19.1,61.8,46.1,82.6,78.3
			c25.8,39.3,39.4,86.4,39,133.5c-0.3,49.1-16,98.1-44.5,138.1c-29,41-71.1,72.7-118.7,88.8c-42.2,14.6-88.6,16.9-132.2,7.1
			c-45.7-10.2-88.2-34.2-120.7-68C47.4,388.4,24.1,342,17,292.9c-7-43.7-1.2-89.4,15.9-130.2c15.9-38,41.7-71.6,74-97
			C144.4,36.1,190.8,18,238.5,14.7"/>
	</g>
	<path fill="#5772AE" d="M203.2,129.7c-13.1,7.1-22.1,19.7-28.7,32.7c-7,13.4-9.9,28.3-11.3,43.2c-6.5-0.9-11.7-5.9-13.2-12.2
		c-3-9.2,0.2-18.6,1.8-27.7c0.7-2.6-1.3-4.8-2.3-6.9c-5.5-0.3-11.1,2.4-13.6,7.4c-7.5,14-6.8,32.9,3.5,45.3
		c5.9,7.5,15.3,11.2,24.6,12.2c3.1,9.7,9.3,19.1,19.2,22.9c12.1,4.9,25.3-0.2,35.8-6.6c-0.4,3.9-0.6,7.9-1.9,11.6
		c-3.7,3-8.2,4.7-12.3,7c-20.3,10.7-40.9,21.4-57.9,37c-12.4,11.6-22.1,27.1-24,44.3c-0.9,13.5,4.5,28.3,16.3,35.7
		c12.3,8.2,28.6,7.7,42.1,2.6c17-6.5,29.6-20.8,38-36.6c12.4-22.2,14.5-48.2,16.3-73c0.5-2.9-0.1-7,3.3-8.3
		c20.2-11.4,39.8-23.7,58.6-37.3c2.2,2.7,4.4,5.5,6.5,8.3c-9.7,5.8-19.3,12-26.6,20.7c-27.3,29.8-27.7,81.1,0.9,110.2
		c14.6,15.4,37.1,22,57.9,18.9c19.1-2.7,36.5-14.7,46.2-31.4c12.9-21.2,10.8-50.9-6-69.4c-15.6-17.3-46.1-16.9-61.4,0.6
		c-12,12.7-12.4,35,0.1,47.4c5.1,5.1,14,8.1,20.3,3.8c4.1-3,3.7-9.3,0.4-12.8c-4.3-5.2-9.4-11.2-8.1-18.4
		c1.3-9.4,11.8-15.2,20.7-13.2c7.6,1.2,13.7,7.1,16.5,14.1c6.7,15.8,2.9,35.5-9.1,47.8c-12.7,13.2-34.7,15.3-50,5.5
		c-13.6-8.4-21.3-23.8-23.7-39.2c-2.5-18.5,1.1-38.5,12.5-53.6c7.4-9.6,17.7-17.4,29.6-20.3c10,0.8,20.3,2.6,30.1-0.6
		c4.6-1.6,9.1-6.7,6.7-11.7c-2.5-5.2-8.7-6.7-13.9-7.8c-7.7-1.5-15.4,0.5-23,2c-5.3-1.8-8.1-7.4-10-12.2
		c14.7-11,29.2-22.9,39.1-38.5c5.8-9.4,9.6-20.9,6.8-31.9c-2.1-7.3-8.1-13.5-15.8-14.9c-12.7-3.2-25.7,3.2-34.4,12.3
		c-13.9,15.1-20.9,36-20.3,56.4c-0.2,4.2,1.4,8.6,0.2,12.7c-10.4,8.4-22,15.1-33.3,22.4c-6.4,3.7-12.6,8.1-19.4,11.1
		c0.1-6.5,0.5-13.1,2.3-19.3c4.9-6.7,11.1-12.6,15-20.1c2.9-5.2,5.6-11.7,2.6-17.4c-2.7-4.2-8.8-3.8-12.8-1.7
		c-8.5,4.2-13.1,13.2-16.5,21.6c-2.3,5.4-2.6,12-7.6,15.8c-7,6.1-15.3,12.2-25,11.8c-5.5,0-9.2-5.2-10.4-10.1
		c15.3-5.9,28.1-17,38.4-29.5c9.6-12.3,17.2-26.8,18.5-42.6c0.7-7.9-2.1-16.9-9.4-21.1C223.4,123.7,212,125.1,203.2,129.7
		L203.2,129.7z M197.7,48.2c40.2-11.2,83.7-10.7,123.5,2.1c1.7,0.5,3.1,1.8,4.4,3c-6.6-0.5-12.6-3.5-19-4.6
		c-16.3-3.2-33.1-4.9-49.6-2.4c-10.3,1.9-21.2,5.8-27.7,14.5c-4.9,6.4-5.5,16.5,0.3,22.5c6.3,6.7,17.6,6.3,24.6,0.9
		c8.3-6.1,16.4-13.4,26.7-15.6c21.1-5.2,43.2-1,63.6,5c24.5,6.7,47.7,18.8,66.5,35.9c31.3,27.7,50.2,67.4,57.3,108.2
		c6.2,34.8,4.4,71.1-6.4,104.8c-0.4,1.6-1.4,2.5-3,2.7c6.3-22.9,10.9-47.3,6.2-71c-2.5-11.4-8.1-24.3-20.1-28.2
		c-9.2-3.3-20.4,3.1-21.2,13.1c-1.8,10.7,7,18.4,12.5,26.5c11.7,16.8,10.3,38.6,7.4,57.9c-5.4,26.1-14.1,52.1-29.9,73.9
		c-24.4,35-63.3,58.2-104.4,68.1c-35.7,8.5-73.6,8.5-109.2-0.3c-4.7-1.4-10-2-13.7-5.6c6.8,0,13.1,2.9,19.8,4
		c18.2,3.3,37.2,5.4,55.3,0.8c8.2-2.3,16.6-6.2,21.7-13.2c4.8-6.6,4.7-16.6-1.2-22.5c-5.1-5.4-13.6-6.5-20.1-3.1
		c-7.7,4.2-13.7,11.1-21.6,15.1c-16,7.7-34.5,6.6-51.5,3.7c-28.2-5.5-56.1-15.8-78.9-33.8c-30.2-23.2-51.1-57.1-61.4-93.5
		c-10.8-38.2-10.9-79.2-1-117.6c1.7-4,1-10.2,5.6-12.1c-5.8,21.9-10.4,44.9-6.8,67.6c1.8,10.1,5.3,20.8,13.7,27.3
		c5.8,4.8,14.8,6.5,21.2,1.9c6.8-4,9.1-13.5,5.9-20.5c-3.3-7.9-10.1-13.6-14-21.2c-8.4-15.3-7.5-33.6-5.2-50.3
		c4.7-26.8,13.8-53.4,29.6-75.8C121.1,82.3,158.1,58.9,197.7,48.2"/>
	<path fill="#5772AE" d="M211.9,144.3c3.5-2.7,9.4-1.5,11.1,2.8c1.3,5.4-0.7,10.8-3,15.6c-6.5,13.2-16.2,24.7-27.2,34.3
		c-2.7,2.5-5.9,4.4-9.3,5.9c0.4-11.8,4.5-23.1,9.5-33.6C197.7,159.9,203.1,150.3,211.9,144.3L211.9,144.3z"/>
	<path fill="#5772AE" d="M326.2,148.9c3.1-3.6,8.6-7.2,13.3-4.8c5.3,3.1,2.5,10.1,0.4,14.4c-7.2,13.3-18,24.6-29.6,34.2
		C310.2,176.9,315.9,160.9,326.2,148.9L326.2,148.9z"/>
	<path fill="#5772AE" d="M169.7,302.5c13.6-11.5,28.8-21.3,45-28.8c-1.7,17.9-5.9,35.7-12.7,52.3c-5.8,13.4-14.4,27.2-28.7,32.7
		c-7.4,2.8-17.1,4.5-23.5-1.3c-6.1-5.4-5.7-14.5-3.9-21.7C149.6,322.2,159.5,311.6,169.7,302.5L169.7,302.5z"/>
</g>
</svg>
