<?xml version="1.0" encoding="utf-8"?>
<!-- Generator: Adobe Illustrator 22.1.0, SVG Export Plug-In . SVG Version: 6.00 Build 0)  -->
<svg version="1.1" id="Capa_1" xmlns="http://www.w3.org/2000/svg" xmlns:xlink="http://www.w3.org/1999/xlink" x="0px" y="0px"
	 viewBox="0 0 512 512" enable-background="new 0 0 512 512" xml:space="preserve">
<polygon fill-rule="evenodd" clip-rule="evenodd" fill="#7793C0" points="-0.7,512.4 512,512.4 512,-0.3 -0.7,-0.3 -0.7,512.4 "/>
<g>
	<path fill-rule="evenodd" clip-rule="evenodd" fill="#FFFFFF" d="M454.4,116.5h-18.4V44.1h17.3v8.1c2.2-4.9,7.6-9.2,14.6-9.7
		c11.9-0.5,20,6.5,20,21.6v52.5H469V61.9c0-6.5,0-11.9-4.3-13c-1.6-0.5-4.3,0-6.5,1.6c-2.7,2.7-3.8,5.9-3.8,11.4
		C454.4,63,454.4,116.5,454.4,116.5L454.4,116.5z"/>
	<path fill-rule="evenodd" clip-rule="evenodd" fill="#FFFFFF" d="M141.9,48.9c-4.3-3.8-9.7-6.5-16.2-6.5c-6.5,0-11.4,2.7-16.2,6.5
		C101.8,55.4,97,67.3,97,80.3c0,13.5,4.9,24.9,12.4,31.4c4.9,3.8,9.7,6.5,16.2,6.5c6.5,0,11.9-2.7,16.2-6.5
		c8.1-6.5,12.4-17.8,12.4-31.4C154.3,67.3,150,55.4,141.9,48.9L141.9,48.9z M134.8,80.3c0,13.5,0,24.3-2.2,29.7
		c-1.6,2.7-3.2,4.3-7,4.3c-3.2,0-5.4-1.6-6.5-4.3c-2.7-5.4-2.7-16.2-2.7-29.7c0-13,0-24.3,2.7-29.7c1.1-2.7,3.2-4.3,6.5-4.3
		c3.8,0,5.4,1.6,7,4.3C135.4,56,134.8,67.3,134.8,80.3L134.8,80.3z"/>
	<path fill-rule="evenodd" clip-rule="evenodd" fill="#FFFFFF" d="M330.6,144.1v19.5h-3.8c-2.2-8.1-5.4-15.1-14.1-15.7
		c-5.4-0.5-10.3,2.7-10.8,7.6c-0.5,4.9,1.1,9.2,10.8,14.6c12.4,7,22.2,10.3,22.2,24.9c0,15.7-13.5,23.3-24.9,23.3
		c-4.9,0-21.6,0-21.6,0v-27h3.8c2.7,14.1,7,22.7,17.3,23.3c6.5,0,11.4-3.8,11.4-10.8c0-7-4.3-11.4-14.6-17.3
		c-11.4-7-18.4-11.4-18.4-21.1c0-13,9.2-21.1,23.8-21.1C316.5,144.1,330.6,144.1,330.6,144.1L330.6,144.1z"/>
	<path fill-rule="evenodd" clip-rule="evenodd" fill="#FFFFFF" d="M354.4,116.5V64.1c0-15.1-8.1-22.2-20-21.6
		c-8.1,0.5-13,5.9-15.1,10.3c-2.7-7.6-8.7-10.8-17.3-10.3c-7,0.5-12.4,4.9-14.6,9.7v-8.1h-16.8v72.5H289c0,0,0-53,0-54.6
		c0-5.4,0.5-8.7,3.8-11.4c2.2-1.6,4.3-2.2,5.9-1.6c4.3,1.1,4.3,6.5,4.3,13v54.6h18.4V61.4c0-4.9,1.1-8.1,3.8-10.8
		c2.2-1.6,4.3-2.2,5.9-1.6c4.3,1.1,4.9,6.5,4.9,13v54.6H354.4L354.4,116.5z"/>
	<polygon fill-rule="evenodd" clip-rule="evenodd" fill="#FFFFFF" points="166.7,28.9 185.7,28.9 185.7,116.5 166.7,116.5 
		166.7,28.9 	"/>
	<path fill-rule="evenodd" clip-rule="evenodd" fill="#FFFFFF" d="M252.7,116.5V28.9h-18.9v20.5c-1.6-3.8-5.4-6.5-10.8-6.5
		c-13.5,0-24.3,14.1-24.9,35.7c-0.5,14.6,4.3,38.9,23.3,38.9c7.6,0,11.9-4.3,13.5-8.1v7H252.7L252.7,116.5z M230.6,50
		c3.8,5.4,3.8,18.4,3.8,28.7c0,10.8,0.5,24.9-3.8,30.8c-1.6,2.2-3.2,3.2-5.9,3.2c-3.8,0-5.9-4.3-7-11.4c-0.5-6.5-0.5-14.6-0.5-23.3
		c0-14.6,1.1-30.8,8.1-30.8C227.9,47.3,228.9,48.4,230.6,50L230.6,50z"/>
	<path fill-rule="evenodd" clip-rule="evenodd" fill="#FFFFFF" d="M410.6,46.2c4.9,2.7,8.1,7,8.1,16.8v53.5h-17.8v-8.1
		c-2.2,5.9-8.1,9.7-16.2,9.7c-6.5,0-17.8-3.2-17.8-20c0-15.7,10.3-18.9,21.6-23.8c10.3-4.3,11.4-4.9,11.4-9.2c0-3.8,0-7,0-11.9
		c0-4.9-2.7-7-8.1-7c-2.2,0.5-5.9,1.6-5.9,4.3c-0.5,3.2,3.2,3.2,3.8,8.1c0.5,7.6-5.4,10.3-10.8,9.7c-3.8,0-8.1-2.2-8.7-8.1
		c-0.5-9.7,10.3-17.8,25.4-17.8C402.5,42.5,406.9,44.1,410.6,46.2L410.6,46.2z M399.8,73.3l-5.9,3.8c-5.9,3.8-7,8.7-7.6,14.1
		c-0.5,4.3-0.5,8.1,0,14.6c0.5,5.9,4.3,7,7.6,5.9c3.8-1.6,5.9-8.7,5.9-16.2C399.8,95.4,399.8,76,399.8,73.3L399.8,73.3z"/>
	<path fill-rule="evenodd" clip-rule="evenodd" fill="#FFFFFF" d="M142.9,147.4c4.9,3.2,7.6,7,7.6,16.8v54.1h-17.3v-8.1
		c-2.2,5.4-8.1,9.2-16.2,9.2c-7,0-17.8-2.7-17.8-19.5c0-15.7,10.3-18.9,21.1-23.8c10.8-4.9,11.9-5.4,11.9-9.2c0-3.8,0-7,0-11.9
		c0-5.4-2.7-7.6-8.1-7c-2.2,0-5.9,1.1-5.9,3.8c-0.5,3.8,3.2,3.8,3.8,8.7c0.5,7-5.4,9.7-10.8,9.7c-3.8-0.5-8.1-2.7-8.7-8.7
		c-0.5-9.2,10.3-17.3,25.4-17.3C134.8,144.1,139.2,145.2,142.9,147.4L142.9,147.4z M132.1,174.4l-5.9,3.8c-5.9,3.8-7,8.7-7.6,14.1
		c-0.5,4.3-0.5,8.7,0,14.6c0,6.5,3.8,7.6,7,5.9c4.3-1.6,6.5-8.1,6.5-16.2C132.1,196.6,132.1,177.1,132.1,174.4L132.1,174.4z"/>
	<path fill-rule="evenodd" clip-rule="evenodd" fill="#FFFFFF" d="M273.8,165.8c0-15.1-8.1-22.7-20-21.6c-5.9,0.5-10.8,3.2-13.5,7
		v-21.1h-18.4v49.8c0,18.4-13,35.7-26,35.1c-9.2,0-11.4-7-12.4-14.6c-1.6-10.8-1.6-23.3-0.5-36.8c1.1-8.7,3.2-15.7,9.7-15.7
		c4.9,0,5.4,3.2,3.2,5.4c-2.2,2.7-5.4,5.4-3.8,11.4c1.6,6.5,11.9,7.6,16.8,2.7c3.8-4.3,3.2-11.4,0.5-15.7c-3.2-5.4-8.7-7.6-16.8-7.6
		c-10.3,0-29.7,9.2-29.7,38.4c0,31.4,20,36.8,31.4,36.8c13,0,24.3-11.4,27.6-20.6v19.5h18.4v-54.6c0-5.4,1.1-8.7,3.8-11.4
		c2.2-1.6,4.9-2.2,6.5-1.6c4.3,1.1,4.3,6.5,4.3,13v54.6h18.9V165.8L273.8,165.8z"/>
	<path fill-rule="evenodd" clip-rule="evenodd" fill="#FFFFFF" d="M84.5,27.3v30.8h-3.8c-3.2-15.1-10.3-26.5-20-27
		c-6.5-0.5-10.3,3.2-13.5,8.7c-3.2,6.5-4.9,20-4.9,36.2c0,15.1,0.5,26.5,2.2,34.6c1.1,3.8,3.8,9.7,10.8,9.7c3.8,0,6.5-1.1,8.1-3.2
		c2.7-3.2,3.2-9.7,3.2-14.1c0-7,0-9.2,0-14.6c0-5.4-1.6-8.7-4.3-10.3c-2.2-1.1-5.4-1.1-7-1.6v-3.8h30.3v77.3h-3.8
		c-1.6-5.9-2.7-10.3-5.4-15.1c-2.7-4.9-7.6-10.3-15.7-10.3c-8.7-0.5-15.1,4.9-15.1,13c0,10.8,6.5,13.5,18.4,20
		c11.4,6.5,26,11.9,26,30.8c0,18.4-15.7,29.7-33.5,29.7c-3.8,0-28.7,0-28.7,0v-37.3h3.8c4.9,28.1,16.8,33,24.9,33
		c10.3,0,15.1-6.5,15.1-15.7c-0.5-11.9-8.7-16.2-20-22.2c-16.2-9.2-23.8-13.5-23.8-28.7c0.5-13,10.8-21.1,22.2-24.3
		c-23.8-2.7-30.8-24.3-30.3-47.6c0-23.3,13.5-48.1,40-48.1C71.6,27.3,84.5,27.3,84.5,27.3L84.5,27.3z"/>
</g>
</svg>
