<?xml version="1.0" encoding="utf-8"?>
<!-- Generator: Adobe Illustrator 22.1.0, SVG Export Plug-In . SVG Version: 6.00 Build 0)  -->
<svg version="1.1" id="Capa_1" xmlns="http://www.w3.org/2000/svg" xmlns:xlink="http://www.w3.org/1999/xlink" x="0px" y="0px"
	 viewBox="0 0 512 512" enable-background="new 0 0 512 512" xml:space="preserve">
<g>
	<g>
		<defs>
			<rect id="SVGID_35_" x="36.6" y="32.1" width="438.7" height="447.8"/>
		</defs>
		<clipPath id="SVGID_2_">
			<use xlink:href="#SVGID_35_"  overflow="visible"/>
		</clipPath>
		<g clip-path="url(#SVGID_2_)">
			<defs>
				<rect id="SVGID_37_" x="36.6" y="32.1" width="438.7" height="447.8"/>
			</defs>
			<clipPath id="SVGID_4_">
				<use xlink:href="#SVGID_37_"  overflow="visible"/>
			</clipPath>
			<path clip-path="url(#SVGID_4_)" fill-rule="evenodd" clip-rule="evenodd" fill="#D7282A" d="M60.8,155.6
				c9.1-20.1,22-37.6,37.2-53.5c34.2-35.9,75.7-58.9,124.8-66.7c68.7-11,130.2,5.2,183.3,51c3.4,2.9,4.2,4.6,0.5,8.2
				c-18.8,18.4-37.2,37-55.8,55.6c-1.9,1.9-3.2,4.2-6.6,1.1c-46.8-42.9-123.1-42.4-172.8,3.9c-17.1,15.9-29.2,34.9-37.1,56.7
				c-1.2-0.8-2.4-1.4-3.5-2.3C107.4,191.6,84.1,173.6,60.8,155.6"/>
			<path clip-path="url(#SVGID_4_)" fill-rule="evenodd" clip-rule="evenodd" fill="#45AC43" d="M133.7,299.3
				c6.7,17,15,33.1,27.4,46.8c31.5,34.8,70.5,49.8,117.3,44.9c21.7-2.3,41.5-9.6,60-20.9c1.8,1.6,3.5,3.3,5.3,4.7
				c21.6,16.9,43.3,33.8,65,50.6c-23.9,22.7-52.1,37.8-83.8,45.8c-74.8,18.9-143.8,7-205-41.4c-25.3-20-45.2-44.7-59.3-73.9
				C85,337.2,109.3,318.2,133.7,299.3"/>
			<path clip-path="url(#SVGID_4_)" fill-rule="evenodd" clip-rule="evenodd" fill="#5D7FBE" d="M408.7,425.5
				c-21.7-16.9-43.3-33.7-65-50.6c-1.9-1.5-3.6-3.2-5.3-4.7c14.7-11.2,26.9-24.4,35-41.3c3.2-6.7,5.5-13.7,7.6-20.8
				c1.5-4.9,1-6.8-5-6.7c-36.1,0.3-72.1,0.2-108.2,0.2c-7.6,0-7.6,0-7.6-7.9c0-24.4,0.1-48.9-0.1-73.3c0-4.7,0.8-6.5,6.1-6.5
				c66.5,0.2,133,0.2,199.6,0.1c3.6,0,5.8,0.3,6.5,4.6c8.3,58.2,1.6,113.8-28.8,165.1C434,399.2,422.8,413.6,408.7,425.5"/>
			<path clip-path="url(#SVGID_4_)" fill-rule="evenodd" clip-rule="evenodd" fill="#F4C300" d="M133.7,299.3
				c-24.4,18.9-48.7,37.8-73.1,56.8c-11.9-22.1-18.8-45.9-22-70.7c-5.5-42.9,0.5-84.2,18.7-123.5c1-2.2,2.3-4.2,3.4-6.3
				c23.3,18,46.7,35.9,70,53.9c1.1,0.8,2.3,1.5,3.5,2.3C124.5,240.9,124.9,270.1,133.7,299.3"/>
		</g>
	</g>
</g>
</svg>
