<?xml version="1.0" encoding="utf-8"?>
<!-- Generator: Adobe Illustrator 22.1.0, SVG Export Plug-In . SVG Version: 6.00 Build 0)  -->
<svg version="1.1" id="Capa_1" xmlns="http://www.w3.org/2000/svg" xmlns:xlink="http://www.w3.org/1999/xlink" x="0px" y="0px"
	 viewBox="0 0 512 512" enable-background="new 0 0 512 512" xml:space="preserve">
<g>
	<polygon fill-rule="evenodd" clip-rule="evenodd" fill="#FF6A12" points="169.3,250.3 214.1,189.5 463.5,189.5 351.6,334.8 
		499.3,335.9 499.3,400.9 214.1,400.9 323.7,250.3 	"/>
	<path fill-rule="evenodd" clip-rule="evenodd" fill="#FF6A12" d="M164.8,258.8h139.8l-105.1,142h-41.8c-24,0-47.5-7.1-67.4-20.6
		c-33.6-22.7-77.6-64.8-77.6-130c0-46.2,25.3-84.5,53.7-106.3c33-25.4,54.6-32.8,96.3-32.8l336.6,0v70.5h-349
		c0,0-68.2,13.4-68.2,74.4s55.9,79.9,55.9,79.9h31.3l8.9-14.5h-57L164.8,258.8z"/>
</g>
</svg>
