<?xml version="1.0" encoding="utf-8"?>
<!-- Generator: Adobe Illustrator 22.1.0, SVG Export Plug-In . SVG Version: 6.00 Build 0)  -->
<svg version="1.1" id="Capa_1" xmlns="http://www.w3.org/2000/svg" xmlns:xlink="http://www.w3.org/1999/xlink" x="0px" y="0px"
	 viewBox="0 0 512 512" enable-background="new 0 0 512 512" xml:space="preserve">
<g>
	<g>
		<defs>
			<rect id="SVGID_33_" x="27.3" y="27.2" width="457.5" height="457.6"/>
		</defs>
		<clipPath id="SVGID_2_">
			<use xlink:href="#SVGID_33_"  overflow="visible"/>
		</clipPath>
		<polygon clip-path="url(#SVGID_2_)" fill="#FFFFFF" points="27.2,27.2 484.8,27.2 484.8,484.8 27.2,484.8 27.2,27.2 27.2,27.2 		
			"/>
	</g>
	<path fill="#D48831" d="M38,38c91.2,0,182.3,0,273.4,0c22,0,44,0,66,0c-6.1,6.2-12.3,12.3-18.4,18.5c2.4,2.6,5,4.9,7.4,7.5
		c5.6-3.8,11.9-6.9,18.8-7.4c6.2-0.6,12.4,1,18.1,3.4c2.2,0.9,4.2,2.4,6.6,2.6c2.4-0.1,4.2-2.2,5-4.3c0.7-1.5,0-3.2-1.1-4.3
		c-5.3-5.4-10.7-10.6-15.9-16c25.4-0.1,50.7,0,76,0c0,24.7,0,49.5,0,74.2c-5.2-5.1-10.3-10.3-15.5-15.5c-1.4-1.4-3.6-2.2-5.5-1.3
		c-1.2,0.6-2.4,1.6-3,2.9c-0.7,2.7,0.5,5.3,1.6,7.6c3.2,6.8,4.6,14.4,3.7,21.9c-0.6,5.1-2.5,10.1-5.2,14.4c-0.7,1.1-1.4,2.2-2.1,3.2
		c2.7,2.3,4.9,5,7.6,7.3c6-6.2,12.3-12.3,18.4-18.5c0,41.3,0,82.6,0,124c-1.2,0.4-2.5,1.2-3.8,0.6c-1.6-1.1-2.9-2.6-4.3-3.9
		c-14.8-14.7-29.5-29.6-44.4-44.3c-5.9,5.9-11.7,11.9-17.7,17.6c3.2,3.6,6.7,6.7,10,10.2c11.9,11.9,23.8,23.8,35.7,35.7
		c1,1.1,2.2,2,2.7,3.3c0.2,1.5-0.9,2.8-1.3,4.2c-0.6,1.6,0.7,3.5,2.4,3.6c1.5,0.3,2.8-0.7,3.8-1.7c5.6-5.6,11.2-11.2,16.8-16.8
		c0,69,0,138.1,0,207.1c-69,0-138.1,0-207.1,0c5.3-5.3,10.6-10.6,15.9-15.9c-18.1-18-36.1-36.1-54.1-54.1
		c-5.9,5.7-11.6,11.6-17.4,17.3c-1.2,1.3-2.6,2.5-3.2,4.3c-0.3,1.7,1.3,3.3,2.9,3.4c1.5-0.2,2.7-1.1,4.2-1.5
		c1.3-0.1,2.3,0.9,3.2,1.7c10.7,10.8,21.5,21.5,32.2,32.3c2.7,2.8,5.6,5.4,8.1,8.3c1.1,1.3,0.4,2.9-0.3,4.2c-41.3,0-82.6,0-123.9,0
		c9.7-9.7,19.5-19.5,29.2-29.2c1.8-1.7,3.7-3.8,4-6.4c0.4-3.1-2.7-6.1-5.8-5.5c-2.6,0.5-4.7,2.5-7.3,2.5c-1.7-0.1-3-1.4-4.1-2.5
		c-23.3-23.2-46.5-46.5-69.8-69.8c-1.6-1.6-3.4-3.1-4-5.3c-0.1-2.7,1.8-4.8,2.5-7.2c0.9-3.1-2-6.4-5.1-6.2c-2.2,0.1-4.1,1.4-5.5,2.9
		C58.3,357.2,48,367.3,38,377.5C37.9,264.3,38,151.1,38,38L38,38L38,38z"/>
	<path fill="#FFFFFF" d="M352.3,63.1c0.4-0.5,1.1-0.9,1.6-0.2c31.9,31.8,63.8,63.7,95.6,95.6c-11.2,11.2-22.4,22.4-33.5,33.6
		c-1.5,1.4-3.2,2.5-5.3,2.7c-2.8,0.2-5.6-2.3-5.4-5.1c0.1-2.8,2.5-4.9,2.5-7.8c0.1-1.8-1.3-3.1-2.4-4.3
		c-23.7-23.6-47.3-47.3-70.9-70.9c-1.3-1.3-2.8-2.9-4.8-2.7c-3,0-5.2,2.8-8.2,2.5c-1.7,0-3.2-1.3-4-2.7c-1.2-2.5-0.1-5.4,1.7-7.3
		C330.2,85.2,341.2,74.2,352.3,63.1L352.3,63.1L352.3,63.1z"/>
	<path fill="#FFFFFF" d="M398.2,72.4c0.9-1.7,2.7-3.2,4.7-3c2.3,0.2,3.9,2.1,5.4,3.6c9.2,9.2,18.3,18.3,27.5,27.5
		c1.7,1.7,3.8,3.3,4.2,5.9c0.2,2.6-2.2,4.9-4.7,5.2c-2.1,0-4-1.1-5.9-2.1c-3.9-2.3-8.3-4.1-12.9-3.9c-2.4,0-4.7,0.9-6.8,1.9
		c-2.5-2.7-5.4-5.1-7.8-7.9c0.7-2.1,1.7-4,1.8-6.2c0.3-5-1.7-9.7-4.2-13.9C398.4,77.3,397.3,74.7,398.2,72.4L398.2,72.4L398.2,72.4z
		"/>
	<path fill="#FFFFFF" d="M196.6,96.6c4.9-5.2,10.2-10.1,15.1-15.3c4.7,4.6,9.3,9.2,13.9,13.8c1.5,1.5,0.1,3.9-1.6,4.5
		c-1.4,0.2-2.7-0.8-3.9-1.2c-4.9-2.4-11.1-2.7-16,0c-1.3,0.5-2.3,1.6-3.7,1.9C199,99.2,197.8,97.8,196.6,96.6L196.6,96.6L196.6,96.6
		z"/>
	<path fill="#FFFFFF" d="M193.4,99.5c6.7,6.5,13.2,13.2,19.9,19.8c10.4,10.3,20.7,20.8,31.2,31.1c-5.9,6-11.9,12-17.9,17.9
		c-1.2,1.4-3.7,2-4.9,0.3c-1.5-1.6,0.1-3.5,0.6-5.1c0.5-1.2-0.4-2.2-1.2-3.1c-12-11.9-23.9-23.9-35.9-35.9c-1.1-1-2-2.2-3.3-2.9
		c-1.8-0.4-3.2,1.2-5,1.3c-1.4-0.1-2.7-1.5-2.5-2.9c0.1-1.1,0.7-2.1,1.5-2.8C181.7,111.4,187.6,105.5,193.4,99.5L193.4,99.5
		L193.4,99.5z"/>
	<path fill="#FFFFFF" d="M217.3,106.9c-0.6-1.5,0.5-3.3,2.1-3.6c1.2-0.2,2.2,0.7,3,1.5c4.9,4.9,9.9,9.9,14.9,14.8
		c0.9,1,2.1,1.8,2.2,3.2c0.2,1.4-1.2,2.8-2.7,2.7c-1.9,0-3.4-1.5-5.1-2.2c-2.6-1.2-5.7-1.3-8.2,0.1c-1.3-1.3-2.7-2.7-4-3.9
		c0.6-2,1.1-4.2,0.6-6.3C219.7,110.9,218.1,109.1,217.3,106.9L217.3,106.9L217.3,106.9z"/>
	<path fill="#FFFFFF" d="M305,110.4c1.2-1.2,2.8-2.2,4.5-2.4c3.1-0.5,6.3,2.5,5.7,5.6c-0.4,2.7-2.7,4.9-2.5,7.8
		c0.5,2,2.1,3.4,3.4,4.8c23.4,23.3,46.8,46.6,70.1,70c1.3,1.1,2.6,2.7,4.4,2.7c2.7,0,4.9-2.1,7.5-2.5c3-0.5,6,2.5,5.6,5.5
		c-0.2,2.1-1.4,3.8-2.8,5.3c-11.8,11.7-23.5,23.5-35.2,35.2c-1.5,1.5-3.4,2.9-5.7,2.9c-2.5,0.1-4.9-2-5.2-4.4
		c-0.3-3.2,2.7-5.6,2.6-8.8c-0.1-1.5-1.2-2.7-2.2-3.8c-20.5-20.5-41-41-61.6-61.5c17,31.5,34.1,63,51.1,94.5c0.3,0.5,0.5,1,0.7,1.5
		c-1.2,1.1-2.4,2.4-3.6,3.6c-34-16.7-68-33.7-101.9-50.5c-5.4-2.7-10.7-5.8-16.7-6.5c-2-0.3-3.4,1.4-4.9,2.4
		c-1.5,1.2-3.5,1.9-5.4,1.3c-2.2-1-3.8-3.7-3.1-6.1c0.5-1.6,1.6-3,2.8-4.2c11-10.9,21.9-21.9,32.9-32.8
		c17.1,8.4,34.3,16.6,51.4,24.9c0.5,0.4,1.1,0.8,1.6,1.4c0.3-0.3,0.5-0.6,0.8-1l-0.6,0.1c-9-17.2-18.5-34.1-27.5-51.3
		C282.4,133,293.7,121.7,305,110.4L305,110.4L305,110.4z"/>
	<path fill="#FFFFFF" d="M244.9,118.2c0.8-1.5,3.2-1.7,4.3-0.4c4.6,4.7,9.3,9.3,14,14c-5.2,5.3-10.4,10.5-15.7,15.7
		c-1.2-1.4-2.8-2.5-3.7-4.1c1.5-2.6,3.1-5.2,3.5-8.2c0.8-4.2,0.1-8.6-1.7-12.4C245,121.3,243.9,119.6,244.9,118.2L244.9,118.2
		L244.9,118.2z"/>
	<path fill="#FFFFFF" d="M168,125c0.9-1,1.9-2,3.2-2.3c1.3-0.3,3,0.5,3.2,2c0.3,1.6-0.9,2.9-1.2,4.5c-0.2,1.2,0.8,2.1,1.6,2.9
		c12.2,12.2,24.4,24.4,36.6,36.6c0.8,0.8,1.7,1.7,2.9,2c1.5-0.1,2.7-1.1,4.1-1.4c1.7-0.2,3.3,1.7,2.8,3.3c-0.2,1.2-1.2,2.2-2,3
		c-5.9,5.9-11.9,11.9-17.8,17.8c-1.1,1.1-2.4,2.2-4,1.8c-0.9-0.4-1.6-1.1-1.9-1.9c-0.5-2,1.7-3.7,1.2-5.7c-0.5-0.8-1.1-1.4-1.7-2
		c-5.6-5.5-11.1-11.2-16.7-16.7c-2,2-3.9,4-5.9,5.9c-1.4-1.3-2.7-2.7-4-4.1c2-2,4-4,6-5.9c-4.9-4.9-9.8-9.8-14.7-14.7
		c-1.1-1-2-2.1-3.2-2.8c-2.2-0.7-4.4,2.4-6.5,0.7c-1.7-1.2-1.2-3.7,0.2-5C156,137,162.1,131.1,168,125L168,125L168,125z"/>
	<path fill="#FFFFFF" d="M144.6,148.8c1.4-0.9,3.4-0.3,4.1,1.2c0.6,1.9-1.1,3.5-1.1,5.3c0,1,0.7,1.6,1.3,2.3
		c12.7,12.7,25.3,25.4,38,38c2.3,2.5,5.2-1.8,7.7,0c1.6,1.3,1.1,3.8-0.3,5c-5.9,6-11.9,11.9-17.8,17.9c-1,0.9-1.9,2-3.2,2.4
		c-1.5,0.4-3.2-0.5-3.4-2.1c-0.3-1.8,1.4-3.2,1.3-5c-0.2-0.8-0.7-1.4-1.3-2c-12-11.9-24-23.9-35.9-35.9c-1.1-1.1-2.1-2.4-3.6-2.9
		c-1.6-0.1-3,1.1-4.6,1.3c-1.4,0-2.6-1.2-2.6-2.5c-0.1-1.4,0.9-2.6,1.8-3.5c5.9-5.9,11.9-11.9,17.8-17.8
		C143.2,149.8,143.8,149.2,144.6,148.8L144.6,148.8L144.6,148.8z"/>
	<path fill="#FFFFFF" d="M111.5,181.5c2.7-2.7,5.4-5.4,8.1-8.1c4.8,4.7,9.5,9.5,14.3,14.2c0.8,0.9,1.8,1.7,2.3,2.9
		c0.5,2.2-2,4.7-4.3,3.7c-2.2-1-4-2.8-6.2-4c-3.6-2.2-7.8-3.7-12.1-3.2c-1.2-1.3-2.6-2.5-3.7-3.8C110.4,182.6,111,182.1,111.5,181.5
		L111.5,181.5L111.5,181.5z"/>
	<path fill="#FFFFFF" d="M91.6,201.5c5.1-5,10.2-10.1,15.2-15.2c9.6,9.7,19.3,19.3,28.9,28.9c5.3,5.3,10.5,10.6,15.8,15.8
		c1.5,1.7,3.5,0.3,5.2-0.3c1.6-0.7,3.6,0.7,3.5,2.5c0,1.2-0.7,2.2-1.5,3c-6.2,6.2-12.4,12.4-18.5,18.5c-0.9,0.9-2,1.7-3.2,1.6
		c-1.4,0.1-2.8-1.2-2.7-2.6c0.1-1.5,1.2-2.7,1.2-4.1c0.1-1.2-1-2-1.7-2.8c-14.6-14.5-29.1-29.1-43.7-43.6
		C90.7,202.6,91.1,202,91.6,201.5L91.6,201.5L91.6,201.5z"/>
	<path fill="#FFFFFF" d="M435,197c5.7,5.6,11.3,11.2,16.9,16.9c1.8,1.7,0.5,5.1-1.9,5.4c-2.2,0.3-3.9-1.4-5.6-2.6
		c-4.5-3.1-9.9-6-15.6-5.1c-1.5-1.4-3-2.8-4.2-4.4C428.2,203.9,431.6,200.4,435,197L435,197L435,197z"/>
	<path fill="#FFFFFF" d="M86.9,206.3c1.7,0.6,2.7,2.6,4.1,3.8c-0.7,5.3,1.8,10.3,4.8,14.5c0.9,1.3,1.9,2.6,2.5,4.1
		c0.6,2-1.4,4.1-3.4,3.9c-1.1,0-1.9-1-2.7-1.6c-5-5-10-10-15-15C80.5,212.7,83.6,209.3,86.9,206.3L86.9,206.3L86.9,206.3z"/>
	<path fill="#FFFFFF" d="M188.7,232.1c9.1-2.9,19-3.2,28.4-1.3c15.9,3.4,30,12.7,41.3,24.3c11,11.2,19.8,25.2,22.8,40.8
		c1.6,8.6,1.3,17.5-1.2,25.9c-2.4,8.3-6.8,15.9-12.4,22.5c-2.4-2.5-5-4.9-7.3-7.4c0-1.2,0.8-2.3,1-3.5c1.2-4,0-8.6-3.1-11.5
		c-22.6-22.7-45.3-45.3-67.9-68c-2.1-2.1-4.7-3.8-7.6-4c-2.4-0.3-4.8,0.5-7.1,1.4c-0.9,0.5-1.5-0.6-2.1-1.1c-1.8-2-3.8-3.8-5.7-5.8
		c0-0.1,0-0.4,0-0.5C173.9,238.6,181,234.5,188.7,232.1L188.7,232.1L188.7,232.1z"/>
	<path fill="#FFFFFF" d="M250.4,229.6c2.1,0.7,4,1.7,6,2.7c7.4,3.6,14.7,7.3,22.1,10.9c0.6,0.3,1.2,0.8,1.8,1.3
		c6.2,6.3,12.5,12.5,18.8,18.8c3.4,3.6,7.6,6.4,12.3,8.1c3.2,1.2,6.9,1.2,10.2,0.1c1.6-0.5,3.4-1.2,5.2-0.6c1.7,0.7,3,2.4,3.2,4.3
		c-0.1,2.5-1.7,4.6-3.4,6.4c-5.6,5.7-11.3,11.3-16.9,16.9c-1.5,1.4-3.2,2.8-5.4,3c-3,0.5-6-2.7-5.1-5.7c0.9-3,2.1-6,1.6-9.1
		c-0.7-5.2-3.7-9.8-7-13.8c-12.4-12.4-24.8-24.8-37.3-37.3C254.4,233.5,252.2,231.7,250.4,229.6L250.4,229.6L250.4,229.6z"/>
	<path fill="#FFFFFF" d="M390,242c3.4-3.4,6.9-6.9,10.3-10.3c1.5,1.2,2.8,2.7,4.3,4.1c-0.6,4.6,1,9.1,3.3,12.9
		c1.2,2.2,3,4.1,4.1,6.4c0.6,1.1,0.2,2.3-0.2,3.4c5.8,3.9,10.8,8.8,14.9,14.5c4.6,6.5,7.9,14.3,7.7,22.5c0,7.7-3.3,15.1-8.2,21
		c-1.3-1.4-2.9-2.6-4-4.2c0.2-1.7,1.1-3.3,0.6-5c-0.5-2.2-2.2-3.8-3.7-5.3c-12.1-12-24.1-24.1-36.1-36.1c-1.2-1.2-2.6-2.3-4.3-2.4
		c-1.6-0.2-3.2,0.3-4.7,0.8c-1.4-1.3-2.8-2.7-4.2-4.1c6.1-5.2,14-8.6,22.1-8.1c3.1-0.1,6.1,0.6,9.2,1.3
		C397.4,249.5,393.5,245.9,390,242L390,242L390,242z"/>
	<path fill="#FFFFFF" d="M150.5,268.9c2.5-7,6.5-13.4,11.2-19.1c2.3,2.4,4.8,4.7,7.1,7.1c0.5,1.5-0.7,2.8-1,4.3
		c-1.2,3.9,0.4,8.2,3.2,11.1c22.2,22.3,44.5,44.5,66.8,66.8c2.2,2.3,4.8,4.5,8.1,5c2.9,0.5,5.8-0.5,8.5-1.6c2.5,2.5,4.9,4.9,7.4,7.4
		c-5.4,4.7-11.7,8.4-18.3,11c-10.1,3.9-21.3,4.5-31.9,2.2c-16.1-3.5-30.2-13.2-41.5-24.9c-10.4-10.9-18.9-24.3-21.8-39.3
		C146.3,288.9,147,278.4,150.5,268.9L150.5,268.9L150.5,268.9z"/>
	<path fill="#FFFFFF" d="M358.5,282.1c0.5-7,3.6-13.6,8.2-18.8c1.3,1.4,2.7,2.7,4.1,4.1c-0.5,1.6-1.3,3.4-0.8,5.1
		c0.3,1.6,1.3,2.8,2.4,3.9c12.1,12,24.1,24.1,36.1,36.1c1.4,1.4,2.8,3,4.8,3.6c1.8,0.5,3.7-0.1,5.5-0.7c1.4,1.4,2.8,2.7,4.1,4.2
		c-5.8,4.8-12.9,8.1-20.5,8.1c-7.4,0.3-14.6-2.3-20.7-6.1c-4.4-2.8-8.5-6.3-11.9-10.3c1.6,5.4,1.2,11.3-1.3,16.4
		c-2.5,4.9-6.3,9-10.1,12.9c-1.4-1.4-2.8-2.8-4.2-4.2c1.2-1.9,2-4.2,1.2-6.5c-0.9-2.3-2.7-3.9-4.4-5.7c-3.4-3.4-6.8-6.9-10.3-10.3
		c-2-1.9-4.2-4-7-4.2c-1.7-0.2-3.2,0.7-4.6,1.5c-1.4-1.4-2.8-2.8-4.2-4.2c5.5-5.5,11.8-11.3,19.8-12.3c6.6-1.1,13.2,1.7,17.9,6.3
		C359.7,295.3,357.9,288.7,358.5,282.1L358.5,282.1L358.5,282.1z"/>
	<path fill="#FFFFFF" d="M117.3,298.1c1.4-1.3,3.2-2.3,5.1-2.5c3.2-0.2,6,3.1,5.2,6.2c-0.7,2.3-2.4,4.4-2.5,6.9
		c0.2,2.2,2,3.8,3.5,5.2c23.5,23.5,47,47,70.5,70.5c1.1,1.1,2.3,2.1,3.9,2.2c2.7,0,4.7-2,7.2-2.6c3-0.6,6,2.2,5.9,5.2
		c-0.1,2.1-1.2,3.9-2.7,5.4c-11.8,11.8-23.7,23.7-35.5,35.5c-1.6,1.5-3.5,2.8-5.7,2.8c-2.7,0.1-5.3-2.5-5.1-5.3
		c0.3-2.7,2.6-4.9,2.6-7.8c-0.1-1.7-1.4-3-2.5-4.2c-10.5-10.6-21.1-21-31.6-31.6c-0.4-0.3-1-1.2-1.6-0.6c-3.7,3.5-7.2,7.2-10.8,10.8
		c-2.5-2.5-4.9-4.9-7.4-7.5c3.5-3.7,7.2-7.3,10.9-10.9c0-0.2,0-0.6,0-0.8c-9.9-9.7-19.7-19.6-29.6-29.5c-1.5-1.4-2.9-3.2-5-3.7
		c-2.9-0.2-5.1,2.1-7.8,2.6c-3.5,0.6-6.6-3.3-5.4-6.6c0.6-2.3,2.4-3.9,4-5.5C94.4,320.9,105.9,309.5,117.3,298.1L117.3,298.1
		L117.3,298.1z"/>
	<path fill="#FFFFFF" d="M321.6,310.4c5.5,5.1,10.7,10.6,16.1,15.9c10.3,10.3,20.5,20.6,30.8,30.9c0.7,0.6,1.4,1.4,2.4,1.6
		c2,0.2,3.5-1.7,5.5-1.4c1.2,0.4,2.3,1.6,2.2,2.9c0,1.8-1.5,3-2.6,4.2c-6.5,6.4-12.8,12.8-19.3,19.2c-1.4,1.6-4.1,0.8-4.9-1
		c-1.3-2.2,2.2-4.4,0.4-6.4c-13.3-13.2-26.5-26.5-39.8-39.8c-1-0.9-1.8-2-2.9-2.6c-2-0.5-3.5,1.1-5.4,1.3c-1.4-0.1-2.8-1.4-2.7-2.8
		c-0.1-1.6,1.1-2.8,2.1-3.9C309.5,322.5,315.6,316.4,321.6,310.4L321.6,310.4L321.6,310.4z"/>
	<path fill="#FFFFFF" d="M280.8,351.2c5.4-5.4,10.8-10.9,16.3-16.2c4.9,4.9,9.8,9.8,14.7,14.8c1.6,1.6-0.1,4-1.8,4.8
		c-1.2,0.1-2.3-0.6-3.3-1.1c-4.2-2.1-9.1-3.1-13.7-1.9c-2.9,0.6-5.5,2.2-8.1,3.8C283.6,354,282.2,352.6,280.8,351.2L280.8,351.2
		L280.8,351.2z"/>
	<path fill="#FFFFFF" d="M258.6,373.5c6.3-6.4,12.7-12.7,19-19c10.3,10.1,20.4,20.4,30.7,30.5c7.9,7.8,15.6,15.7,23.6,23.5
		c-6.1,6.3-12.4,12.4-18.6,18.7c-0.9,1-2.1,1.5-3.2,2c-1.1-0.4-2.6-0.8-2.9-2.1c-0.7-2.2,1.6-3.8,1.3-5.9c-0.9-1.8-2.5-3.1-3.9-4.5
		c-11.1-11.1-22.2-22.2-33.4-33.4c-2-1.8-3.6-4-5.9-5.4c-2.3-0.5-4.4,2.5-6.7,0.9C256.5,377.6,257.1,374.8,258.6,373.5L258.6,373.5
		L258.6,373.5z"/>
	<path fill="#FFFFFF" d="M302.9,362.1c-0.7-1.9,1-4.1,3-3.8c0.9,0.2,1.6,0.8,2.2,1.5c4.8,4.9,9.7,9.6,14.4,14.5
		c1.6,1.6,3.6,3,4.2,5.3c-0.6,1-1.2,2.4-2.6,2.5c-2.2,0.2-3.9-1.6-5.9-2.3c-2.7-1.4-6.1-1.4-8.8,0c-1.5-1.5-2.9-2.9-4.3-4.3
		c1-2.2,1.5-4.6,0.7-6.9C305.3,366.2,303.7,364.3,302.9,362.1L302.9,362.1L302.9,362.1z"/>
	<path fill="#FFFFFF" d="M332.4,374.1c1-1.5,3.3-1.7,4.4-0.3c4.9,5,10,9.9,14.9,15c-5.6,5.5-11,11.3-16.8,16.6
		c-1.3-1.4-2.7-2.8-4.1-4.2c4.9-6,5.6-14.8,2.3-21.7C332.5,377.7,331.2,375.7,332.4,374.1L332.4,374.1L332.4,374.1z"/>
	<path fill="#D48831" d="M38,392.3c1.8-0.7,3.6-1.9,5.6-1.8c2.4,0.5,3.9,2.6,5.6,4.2c23,22.9,45.9,45.9,68.9,68.8
		c1.3,1.4,2.9,2.8,3.2,4.9c-0.1,2-1.1,3.7-2,5.4c-27.1,0-54.2,0-81.3,0C38,446.6,37.9,419.4,38,392.3L38,392.3L38,392.3z"/>
	<path fill="#FFFFFF" d="M251,391c8.1-0.7,16.2,2.2,23,6.7c5.3,3.5,10.2,7.6,13.9,12.7c4.5,6,7.2,13.3,7.3,20.9
		c0.1,8.6-3.2,17.3-9.4,23.4c-1.4-1.4-2.8-2.7-4.2-4.2c0.8-1.6,1.8-3.2,1.5-5c-0.5-2.7-2.3-5-4.2-6.9
		c-10.3-10.3-20.6-20.6-30.9-30.9c-2.1-2.1-4.5-4.3-7.6-4.5c-1.7-0.2-3.2,0.7-4.6,1.5c-1.3-1.5-3.2-2.6-4-4.4
		C236.8,395.1,243.7,391.5,251,391L251,391L251,391z"/>
	<path fill="#FFFFFF" d="M450.4,446.9c2.1,0,4-0.2,4-2.7c0-2-1.9-2.4-3.6-2.4h-3.4v5.1H450.4L450.4,446.9z M447.4,456.2h-2.5v-16.5
		h6.3c3.9,0,5.8,1.4,5.8,4.7c0,3-1.9,4.2-4.3,4.5l4.7,7.3h-2.8l-4.4-7.2h-2.9V456.2L447.4,456.2z M450.4,459.8
		c6.5,0,11.6-5.1,11.6-12c0-6.8-5.1-11.9-11.6-11.9c-6.5,0-11.7,5.1-11.7,11.9C438.8,454.8,443.9,459.8,450.4,459.8L450.4,459.8z
		 M435.9,447.9c0-8.2,6.7-14.3,14.5-14.3c7.8,0,14.5,6.1,14.5,14.3c0,8.3-6.7,14.3-14.5,14.3C442.6,462.2,435.9,456.2,435.9,447.9
		L435.9,447.9z"/>
</g>
</svg>
