<?xml version="1.0" encoding="utf-8"?>
<!-- Generator: Adobe Illustrator 22.1.0, SVG Export Plug-In . SVG Version: 6.00 Build 0)  -->
<svg version="1.1" id="Capa_1" xmlns="http://www.w3.org/2000/svg" xmlns:xlink="http://www.w3.org/1999/xlink" x="0px" y="0px"
	 viewBox="0 0 512 512" enable-background="new 0 0 512 512" xml:space="preserve">
<g>
	<polygon fill="#6082C0" points="488.7,175.4 411.2,175.4 416,162.1 488.7,162.1 488.7,175.4 	"/>
	<path fill="#6082C0" d="M282.2,162.1l71.9,0l4.7,13.4c0,0-76.6,0-76.6,0C282.2,175.4,282.2,162.1,282.2,162.1L282.2,162.1z"/>
	<path fill="#6082C0" d="M225.1,162.1c11.9,1.1,22.2,5.4,30.9,13.4c0,0-130.4,0-130.4,0c0,0,0-13.4,0-13.4L225.1,162.1L225.1,162.1z
		"/>
	<polygon fill="#6082C0" points="23.3,162.1 113.9,162.1 113.9,175.4 23.3,175.4 23.3,162.1 	"/>
	<path fill="#6082C0" d="M488.7,200.5h-86.4c0,0,4.7-13.3,4.7-13.3h81.7V200.5L488.7,200.5z"/>
	<polygon fill="#6082C0" points="367.7,200.5 282.2,200.5 282.2,187.2 363,187.2 367.7,200.5 	"/>
	<path fill="#6082C0" d="M266.1,187.2c1.7,4.4,3.8,8.1,3.8,13.3H125.6v-13.3H266.1L266.1,187.2z"/>
	<polygon fill="#6082C0" points="23.3,187.2 113.9,187.2 113.9,200.5 23.3,200.5 23.3,187.2 	"/>
	<polygon fill="#6082C0" points="393.5,225.6 398.3,212.2 463.1,212.3 463.1,225.6 393.5,225.6 	"/>
	<polygon fill="#6082C0" points="371.9,212.2 376.6,225.6 307.7,225.6 307.7,212.2 371.9,212.2 	"/>
	<path fill="#6082C0" d="M271,212.2c0,4.6-0.6,9.4-1.9,13.4h-39.5v-13.4H271L271,212.2z"/>
	<polygon fill="#6082C0" points="48.5,212.3 87.5,212.3 87.5,225.6 48.5,225.6 48.5,212.3 	"/>
	<polygon fill="#6082C0" points="151.8,212.2 190.7,212.2 190.7,225.6 151.8,225.6 151.8,212.2 	"/>
	<path fill="#6082C0" d="M346,240c0,0,0,10.1,0,10.1h-38.3v-13.3h73l4.5,12.4c0,0,4.4-12.4,4.4-12.4h73.5v13.3H425
		c0,0,0-10.1,0-10.1l-3.5,10.1l-72,0L346,240L346,240z"/>
	<path fill="#6082C0" d="M151.8,236.9h111.6v0c-2.4,4.5-6.9,9.9-11.1,13.3c0,0-100.5,0-100.5,0C151.8,250.1,151.8,236.9,151.8,236.9
		L151.8,236.9z"/>
	<polygon fill="#6082C0" points="48.5,236.9 87.5,236.9 87.5,250.2 48.5,250.2 48.5,236.9 	"/>
	<polygon fill="#6082C0" points="425,261.9 463.1,261.9 463.1,275.2 425,275.2 425,261.9 	"/>
	<path fill="#6082C0" d="M346,261.9h-38.3v13.3c0,0,38.3,0,38.3,0C346,275.2,346,261.9,346,261.9L346,261.9z"/>
	<path fill="#6082C0" d="M417.3,261.9c-0.2,0-4.5,13.3-4.6,13.3l-54.3,0c0,0-4.8-13.3-4.8-13.3H417.3L417.3,261.9z"/>
	<path fill="#6082C0" d="M151.8,261.9h100.3c4.6,3.8,8.7,8.5,12,13.3c0.2,0-112.3,0-112.3,0C151.8,275.2,151.8,261.9,151.8,261.9
		L151.8,261.9z"/>
	<path fill="#6082C0" d="M87.5,275.2v-13.3H48.6c0,0,0,13.3,0,13.3C48.6,275.2,87.4,275.2,87.5,275.2L87.5,275.2z"/>
	<polygon fill="#6082C0" points="425,287 463.1,287 463.1,300.3 425,300.3 425,287 	"/>
	<polygon fill="#6082C0" points="307.7,287 346,287 346,300.3 307.7,300.3 307.7,287 	"/>
	<path fill="#6082C0" d="M403.7,300.3c0-0.1,4.7-13.4,4.8-13.4h-46.1c-0.1,0,4.7,13.3,4.7,13.3S403.7,300.4,403.7,300.3L403.7,300.3
		z"/>
	<path fill="#6082C0" d="M151.8,300.3c0,0.1,0-13.3,0-13.3h39.4c0,0,0,13.3,0,13.3C191.2,300.3,151.8,300.3,151.8,300.3L151.8,300.3
		z"/>
	<path fill="#6082C0" d="M269.6,287c1.9,4,2.1,8.8,2.5,13.4h-41.8V287H269.6L269.6,287z"/>
	<polygon fill="#6082C0" points="48.6,287 87.5,287 87.5,300.3 48.6,300.3 48.6,287 	"/>
	<polygon fill="#6082C0" points="425,311.5 488.7,311.5 488.7,324.8 425,324.8 425,311.5 	"/>
	<polygon fill="#6082C0" points="282.2,311.5 346,311.5 346,324.8 282.2,324.8 282.2,311.5 	"/>
	<polygon fill="#6082C0" points="395.2,324.8 375.7,324.8 371,311.5 399.7,311.5 395.2,324.8 	"/>
	<path fill="#6082C0" d="M23.3,311.5v13.3h90.5c0,0,0-13.3,0-13.3C113.8,311.5,23.2,311.5,23.3,311.5L23.3,311.5z"/>
	<path fill="#6082C0" d="M270.5,311.5c-1,4.4-1.8,9.7-5,13.3l-1.2,0H125.6v-13.3H270.5L270.5,311.5z"/>
	<polygon fill="#6082C0" points="386.3,349.9 384.6,349.9 380,336.6 391,336.6 386.3,349.9 	"/>
	<polygon fill="#6082C0" points="425,336.6 488.7,336.6 488.7,350 425,350 425,336.6 	"/>
	<path fill="#6082C0" d="M125.6,349.9v-13.3c0,0,130.8,0,131.1,0C248,345,235.9,349.8,223,350L125.6,349.9"/>
	<polygon fill="#6082C0" points="282.2,336.6 346,336.6 346,350 282.2,350 282.2,336.6 	"/>
	<path fill="#6082C0" d="M113.8,336.7c0,0,0,13.3,0,13.3c0,0-90.5,0.1-90.5,0c0,0,0-13.3,0-13.3C23.3,336.6,113.8,336.7,113.8,336.7
		L113.8,336.7z"/>
</g>
</svg>
