<?xml version="1.0" encoding="utf-8"?>
<!-- Generator: Adobe Illustrator 22.1.0, SVG Export Plug-In . SVG Version: 6.00 Build 0)  -->
<svg version="1.1" id="Capa_1" xmlns="http://www.w3.org/2000/svg" xmlns:xlink="http://www.w3.org/1999/xlink" x="0px" y="0px"
	 viewBox="0 0 512 512" enable-background="new 0 0 512 512" xml:space="preserve">
<g>
	<g>
		<rect x="18.6" y="161.1" fill="#415171" width="474.7" height="189.9"/>
	</g>
	<path fill="#D4D7DF" d="M159.1,291.6c-14.4,0-20.9-13-20.9-25.2c0-15.7,8-25.4,20.9-25.4c13.8,0,20,12.8,20,25.4
		C179.1,278,173.9,291.6,159.1,291.6 M159.1,236.7c-9.5,0-17.1,4.4-20.9,12.1v-32.1h-4.3v77.8h4.3v-11.2
		c4.1,7.8,11.7,12.5,20.9,12.5c14.5,0,24.3-11.8,24.3-29.5C183.4,248.9,173.4,236.7,159.1,236.7"/>
	<path fill="#D4D7DF" d="M218.7,236.7c-9,0-15.8,3.7-19.4,10.4V238H195v56.6h4.3v-31.9c0-10.3,5.4-22.4,20.5-21.7l1.1,0.1v-4.3
		l-1.1,0C219.5,236.7,219.1,236.7,218.7,236.7"/>
	<path fill="#D4D7DF" d="M263.2,263.9v7.7c0,9.9-7.2,20-20.9,20c-13.4,0-14.8-8.1-14.8-11.5c0-9.9,6-12.4,15.6-13.1
		c1.6-0.1,3.2-0.2,4.8-0.3C254,266.4,259.9,266.1,263.2,263.9 M270.7,290.5c-2.6,0-3.1-1-3.1-2.5v-34.7
		c-0.3-10.9-6.9-16.6-19.1-16.6c-12.9,0-21.3,7.3-21.9,19.2l-0.1,1.2h4.3l0.1-1c0.7-9.7,6.9-15,17.6-15c13,0,14.8,6.7,14.8,13.9
		c0,6.3-3.8,6.8-17.1,7.5l-3.2,0.2c-9.8,0.7-19.8,3.3-19.8,17.4c0,9.8,7.4,15.8,19.3,15.8c9.7,0,17.1-4.7,20.7-10.3v2.7
		c0,2.5,0.8,4.2,2.5,5.3c1.2,0.8,2.9,1.2,5.2,1.2c0.8,0,1.7,0,2.5-0.1l1-0.1v-4.4l-1.2,0.1C272.4,290.4,271.5,290.5,270.7,290.5"/>
	<path fill="#D4D7DF" d="M304.9,236.7c-8.4,0-15.2,3.9-18.7,10.4V238h-4.3v56.6h4.3v-31.9c0-10.8,5.8-21.7,18.7-21.7
		c10.1,0,16.2,6.2,16.2,16.7v36.9h4.3v-37.2C325.4,244.8,317.3,236.7,304.9,236.7"/>
	<path fill="#D4D7DF" d="M357.6,291.6c-14.8,0-20-13.6-20-25.2c0-12.6,6.2-25.4,20-25.4c12.9,0,20.9,9.7,20.9,25.4
		C378.5,278.6,371.9,291.6,357.6,291.6 M378.5,248.9c-3.9-7.7-11.4-12.1-20.9-12.1c-14.3,0-24.3,12.2-24.3,29.7
		c0,17.6,9.8,29.5,24.3,29.5c9.2,0,16.9-4.7,20.9-12.4v11.2h4.3v-77.8h-4.3V248.9z"/>
	<path fill="#D4D7DF" d="M417.7,264.1l-0.4-0.1c-1.6-0.4-3.1-0.8-4.5-1.2c-3.7-1-6.7-1.7-9.4-2.8c-3.7-1.5-5.4-4-5.4-8.5
		c0-1.1,0.4-10.5,15.2-10.5c10.9,0,16.5,4.8,16.5,14.2v1.1h4.3v-1.1c0-11.9-7.4-18.5-20.8-18.5c-13.5,0-19.5,7.4-19.5,14.8
		c0,6.2,2.3,10.1,7.2,12.2c3,1.4,6.8,2.4,12.4,3.8c0.7,0.2,1.5,0.4,2.2,0.5c8.4,2.1,15.7,3.8,15.7,11.9c0,9.3-10.4,11.7-16.5,11.7
		c-12.5,0-18.8-5.6-18.8-16.7v-1.1h-4.3v1.1c0,13.9,7.8,21,23.1,21c9.6,0,20.8-4.3,20.8-16.2C435.6,268.6,426.1,266.2,417.7,264.1"
		/>
	<polyline fill="#FFFFFF" points="81.6,216.8 77.3,216.8 77.3,294.6 125.8,294.6 125.8,290.3 81.6,290.3 	"/>
</g>
</svg>
