<?xml version="1.0" encoding="utf-8"?>
<!-- Generator: Adobe Illustrator 22.1.0, SVG Export Plug-In . SVG Version: 6.00 Build 0)  -->
<svg version="1.1" id="Capa_1" xmlns="http://www.w3.org/2000/svg" xmlns:xlink="http://www.w3.org/1999/xlink" x="0px" y="0px"
	 viewBox="0 0 512 512" enable-background="new 0 0 512 512" xml:space="preserve">
<rect fill="#FFFFFF" width="512" height="512"/>
<g>
	<path fill="#359344" d="M256,20.1C125.9,20.1,20.1,125.9,20.1,256c0,130.1,105.8,235.9,235.9,235.9
		c130.1,0,235.9-105.8,235.9-235.9C491.9,125.9,386.1,20.1,256,20.1L256,20.1z M256,457c-110.8,0-201-90.2-201-201
		c0-110.8,90.2-201,201-201c110.8,0,201,90.2,201,201C457,366.8,366.8,457,256,457L256,457z M256,457"/>
	<path fill="#359344" d="M256,75.1c-99.7,0-180.9,81.1-180.9,180.9S156.3,436.8,256,436.8c99.7,0,180.8-81.1,180.8-180.8
		S355.7,75.1,256,75.1z M333.5,368.3h-155v-27.5c18-7.5,38.1-26.8,38.1-49.9c0-4.8-0.3-8.8-1-13.6h-33.3v-35h27.2
		c-1.7-8.5-2.7-18.4-2.7-27.5c0-42.8,31.3-71,76.8-71c18.7,0,32.6,4.1,40.1,8.2l-8.5,39.1c-6.4-3.7-16-6.1-28.5-6.1
		c-24.1,0-31.6,15.6-31.6,31.9c0,8.8,1,17,3,25.5h46.6v35h-42.2c0.4,8.5-0.3,16.3-3,24.1c-3.1,8.5-8.5,17-16.7,24.1v0.7h90.7V368.3z
		 M321.2,188h-0.1v-0.1C321.2,188,321.2,188,321.2,188z"/>
</g>
</svg>
