<?xml version="1.0" encoding="utf-8"?>
<!-- Generator: Adobe Illustrator 22.0.1, SVG Export Plug-In . SVG Version: 6.00 Build 0)  -->
<svg version="1.1" id="Capa_1" xmlns="http://www.w3.org/2000/svg" xmlns:xlink="http://www.w3.org/1999/xlink" x="0px" y="0px"
	 viewBox="0 0 212 62.212" enable-background="new 0 0 212 62.212" xml:space="preserve">
<g>
	<g>
		<polygon fill="#529B4C" points="21.684,15.942 53.949,34.569 53.949,15.567 26.977,0 21.684,3.052 		"/>
		<polygon fill="#529B4C" points="27.086,62.212 10.629,52.713 42.893,34.083 54.054,40.529 54.054,46.635 		"/>
		<polygon fill="#529B4C" points="16.455,6.074 16.455,43.325 5.293,49.772 0.004,46.716 0,15.574 		"/>
		<polygon fill="#529B4C" points="37.74,31.037 21.66,40.319 21.66,21.755 		"/>
	</g>
	<g>
		<path d="M79.603,46.784c-2.062,0-3.412-0.943-3.412-3.983v-0.99c0-3.04,1.351-3.972,3.412-3.972c0.873,0,1.724,0.128,2.003,0.175
			v1.514h-0.617l-0.081-0.932c-0.338-0.023-0.827-0.058-1.304-0.058c-1.794,0-2.632,0.862-2.632,3.273v0.99
			c0,2.411,0.839,3.284,2.632,3.284c0.501,0,0.978-0.035,1.304-0.058l0.081-0.944h0.617v1.514
			C81.316,46.655,80.477,46.784,79.603,46.784z"/>
		<path d="M86.673,46.632v-0.454c-0.431,0.268-1.165,0.606-2.096,0.606c-1.246,0-1.898-0.559-1.898-1.829v-0.163
			c0-1.607,1.025-1.933,2.877-1.933h1.083v-0.536c0-1.235-0.268-1.526-1.677-1.526c-0.326,0-0.699,0.012-1.188,0.047l-0.07,0.711
			H83.11v-1.188c0.431-0.082,1.141-0.221,1.898-0.221c2.026,0,2.399,0.676,2.399,2.178v3.645l0.641,0.035v0.629H86.673z
			 M86.639,43.453h-1.083c-1.526,0-2.12,0.198-2.12,1.339v0.221c0,0.873,0.489,1.165,1.281,1.165c0.792,0,1.572-0.338,1.922-0.559
			V43.453z"/>
		<path d="M90.995,46.784c-0.85,0-1.735-0.151-2.038-0.244v-1.293h0.606l0.07,0.792c0.408,0.047,0.85,0.093,1.339,0.093
			c1.188,0,1.549-0.431,1.549-1.048c0-0.641-0.291-0.838-1.421-1.351l-0.443-0.198c-1.2-0.536-1.77-0.955-1.77-1.852
			c0-1.037,0.722-1.538,2.259-1.538c0.769,0,1.607,0.128,1.91,0.221v1.188h-0.606l-0.07-0.676c-0.349-0.035-0.873-0.07-1.211-0.07
			c-1.036,0-1.526,0.186-1.526,0.873c0,0.582,0.373,0.78,1.339,1.223l0.454,0.21c1.386,0.641,1.852,1.002,1.852,1.957
			C93.289,45.945,92.765,46.784,90.995,46.784z"/>
		<path d="M98.298,46.632v-0.454c-0.431,0.268-1.165,0.606-2.097,0.606c-1.246,0-1.898-0.559-1.898-1.829v-0.163
			c0-1.607,1.025-1.933,2.877-1.933h1.083v-0.536c0-1.235-0.268-1.526-1.677-1.526c-0.326,0-0.699,0.012-1.188,0.047l-0.07,0.711
			h-0.594v-1.188c0.431-0.082,1.142-0.221,1.899-0.221c2.026,0,2.399,0.676,2.399,2.178v3.645l0.641,0.035v0.629H98.298z
			 M98.263,43.453H97.18c-1.526,0-2.12,0.198-2.12,1.339v0.221c0,0.873,0.489,1.165,1.281,1.165c0.792,0,1.572-0.338,1.922-0.559
			V43.453z"/>
		<path d="M107.185,46.632v-0.373c-0.442,0.257-1.095,0.524-1.875,0.524c-1.526,0-2.33-0.85-2.33-2.877v-0.792
			c0-2.283,1.025-2.97,2.632-2.97c0.431,0,0.908,0.035,1.549,0.14v-1.98l-0.734-0.035v-0.641h1.491v8.339l0.641,0.035v0.629H107.185
			z M107.161,40.925c-0.606-0.093-1.176-0.128-1.502-0.128c-1.258,0-1.91,0.443-1.91,2.318v0.792c0,1.596,0.501,2.213,1.689,2.213
			c0.664,0,1.246-0.221,1.723-0.454V40.925z"/>
		<path d="M110.108,43.72v0.151c0,1.444,0.384,2.248,2.12,2.248c0.699,0,1.584-0.082,2.166-0.186v0.617
			c-0.454,0.105-1.246,0.233-2.201,0.233c-2.143,0-2.841-0.967-2.841-3.075v-0.443c0-1.98,0.804-3.121,2.62-3.121
			c1.829,0,2.621,1.118,2.621,3.203v0.373H110.108z M113.812,42.987c0-1.142-0.326-2.178-1.84-2.178
			c-1.549,0-1.852,1.083-1.852,2.178v0.105h3.692V42.987z"/>
		<path d="M124.935,38.643l-2.725,7.99h-1.071l-2.725-7.99l-0.629-0.035v-0.629h2.108v0.617l-0.652,0.035l2.026,6.021
			c0.152,0.466,0.28,0.955,0.408,1.386h0.011c0.128-0.443,0.256-0.92,0.408-1.386l2.015-6.021l-0.629-0.035v-0.617h2.096v0.629
			L124.935,38.643z"/>
		<path d="M129.385,46.632v-0.454c-0.431,0.268-1.165,0.606-2.097,0.606c-1.246,0-1.898-0.559-1.898-1.829v-0.163
			c0-1.607,1.025-1.933,2.876-1.933h1.083v-0.536c0-1.235-0.268-1.526-1.677-1.526c-0.326,0-0.699,0.012-1.187,0.047l-0.07,0.711
			h-0.594v-1.188c0.431-0.082,1.142-0.221,1.899-0.221c2.026,0,2.399,0.676,2.399,2.178v3.645l0.641,0.035v0.629H129.385z
			 M129.35,43.453h-1.083c-1.525,0-2.119,0.198-2.119,1.339v0.221c0,0.873,0.489,1.165,1.281,1.165c0.792,0,1.572-0.338,1.922-0.559
			V43.453z"/>
		<path d="M131.598,46.632v-0.629l0.653-0.035v-7.664l-0.653-0.035v-0.641h1.409v8.339l0.641,0.035v0.629H131.598z"/>
		<path d="M137.107,46.784c-1.782,0-2.62-1.037-2.632-2.993v-0.664c0-1.956,0.85-2.982,2.632-2.982c1.794,0,2.644,1.025,2.644,2.982
			v0.664C139.751,45.747,138.901,46.784,137.107,46.784z M138.995,43.126c0-1.63-0.571-2.306-1.887-2.306
			c-1.304,0-1.864,0.676-1.864,2.306v0.664c0,1.63,0.56,2.329,1.864,2.329c1.316,0,1.875-0.699,1.887-2.329V43.126z"/>
		<path d="M142.139,41.414v4.554l0.687,0.035v0.629h-2.085v-0.629l0.641-0.035v-4.985l-0.641-0.047v-0.629h1.386v0.512
			c0.757-0.536,1.654-0.676,2.388-0.676v0.676C143.817,40.82,142.826,40.984,142.139,41.414z"/>
		<path d="M145.692,43.72v0.151c0,1.444,0.384,2.248,2.12,2.248c0.699,0,1.584-0.082,2.166-0.186v0.617
			c-0.454,0.105-1.246,0.233-2.201,0.233c-2.143,0-2.841-0.967-2.841-3.075v-0.443c0-1.98,0.804-3.121,2.62-3.121
			c1.829,0,2.621,1.118,2.621,3.203v0.373H145.692z M149.396,42.987c0-1.142-0.326-2.178-1.84-2.178
			c-1.549,0-1.852,1.083-1.852,2.178v0.105h3.692V42.987z"/>
		<path d="M153.275,46.784c-0.85,0-1.736-0.151-2.038-0.244v-1.293h0.606l0.07,0.792c0.407,0.047,0.85,0.093,1.339,0.093
			c1.188,0,1.549-0.431,1.549-1.048c0-0.641-0.291-0.838-1.421-1.351l-0.442-0.198c-1.2-0.536-1.771-0.955-1.771-1.852
			c0-1.037,0.722-1.538,2.259-1.538c0.769,0,1.607,0.128,1.91,0.221v1.188h-0.606l-0.07-0.676c-0.349-0.035-0.873-0.07-1.211-0.07
			c-1.037,0-1.526,0.186-1.526,0.873c0,0.582,0.373,0.78,1.339,1.223l0.454,0.21c1.386,0.641,1.852,1.002,1.852,1.957
			C155.569,45.945,155.045,46.784,153.275,46.784z"/>
	</g>
	<g>
		<g>
			<path d="M89.704,31.037h-3.621l-0.837-3.021h-5.18l-0.837,3.021h-3.621l4.715-15.467h4.641L89.704,31.037z M80.858,25.115h3.552
				l-1.765-6.479L80.858,25.115z"/>
			<path d="M96.971,26.229H94.93v4.808h-3.482V15.571h6.432c3.761,0,5.151,1.488,5.151,4.389v1.903c0,1.928-0.693,3.228-2.25,3.878
				l3.738,5.296h-4.131L96.971,26.229z M99.551,20.283c0-1.159-0.443-1.62-1.86-1.62H94.93v4.547h2.762
				c1.487,0,1.86-0.534,1.86-1.695V20.283z"/>
			<path d="M109.164,25.973c0,1.348,0.437,2.136,2.155,2.136c1.116,0,2.645-0.137,3.993-0.372l0.49,3.043
				c-1.534,0.325-2.925,0.487-4.483,0.487c-3.9,0-5.642-1.926-5.642-4.736v-6.457c0-2.81,1.742-4.738,5.642-4.738
				c1.558,0,2.949,0.165,4.483,0.488l-0.49,3.042c-1.348-0.231-2.878-0.37-3.993-0.37c-1.718,0-2.155,0.787-2.155,2.134V25.973z"/>
			<path d="M131.171,31.037h-3.619l-0.837-3.021h-5.178l-0.837,3.021h-3.623l4.716-15.467h4.642L131.171,31.037z M122.326,25.115
				h3.553l-1.765-6.479L122.326,25.115z"/>
		</g>
		<g>
			<path d="M134.945,26.759c0,2.415,1.068,3.275,3.878,3.275c0.998,0,2.392-0.116,3.437-0.302l0.163,1.184
				c-1.162,0.232-2.601,0.348-3.716,0.348c-3.739,0-5.132-1.602-5.132-4.482v-6.967c0-2.88,1.393-4.482,5.132-4.482
				c1.114,0,2.554,0.116,3.716,0.348l-0.163,1.184c-1.045-0.186-2.439-0.302-3.437-0.302c-2.81,0-3.878,0.859-3.878,3.275V26.759z"
				/>
			<path d="M154.568,26.968h-7.199l-1.44,4.064h-1.347l5.387-15.467h2.02l5.388,15.467h-1.347L154.568,26.968z M147.787,25.784
				h6.364l-3.181-9.429L147.787,25.784z"/>
			<path d="M160.282,15.565h5.248c3.112,0,4.25,1.417,4.25,3.576v2.415c0,2.16-1.138,3.576-4.25,3.576h-3.878v5.899h-1.37V15.565z
				 M165.553,16.796h-3.901v7.106h3.901c1.951,0,2.857-0.65,2.857-2.346v-2.415C168.41,17.446,167.504,16.796,165.553,16.796z"/>
			<path d="M174.401,31.032h-1.37V15.565h1.37V31.032z"/>
			<path d="M181.949,16.796h-4.761v-1.231h10.892v1.231h-4.761v14.236h-1.37V16.796z"/>
			<path d="M197.95,26.968h-7.199l-1.44,4.064h-1.347l5.388-15.467h2.02l5.388,15.467h-1.347L197.95,26.968z M191.169,25.784h6.363
				l-3.182-9.429L191.169,25.784z"/>
			<path d="M205.033,29.801H212v1.231h-8.337V15.565h1.37V29.801z"/>
		</g>
	</g>
</g>
</svg>
