<?xml version="1.0" encoding="utf-8"?>
<!-- Generator: Adobe Illustrator 22.1.0, SVG Export Plug-In . SVG Version: 6.00 Build 0)  -->
<svg version="1.1" id="Capa_1" xmlns="http://www.w3.org/2000/svg" xmlns:xlink="http://www.w3.org/1999/xlink" x="0px" y="0px"
	 viewBox="0 0 512 512" enable-background="new 0 0 512 512" xml:space="preserve">
<g>
	<polygon fill-rule="evenodd" clip-rule="evenodd" fill="#BC0038" points="253.2,354 199,265.7 141.5,265.7 253.2,447.9 
		364.8,265.7 307.3,265.7 253.2,354 	"/>
	<polygon fill-rule="evenodd" clip-rule="evenodd" fill="#BC0038" points="99.5,103.3 406.8,103.3 388.6,133.1 446.1,133.1 
		488.4,64.1 17.9,64.1 60.2,133.1 117.7,133.1 99.5,103.3 	"/>
	<polygon fill-rule="evenodd" clip-rule="evenodd" fill="#00529A" points="55.6,239.2 31.1,239.2 31.1,156.5 63.9,156.5 78.5,208.1 
		93,156.5 125.8,156.5 125.8,239.2 101.2,239.2 101.2,192.8 87.9,239.2 69,239.2 55.6,192.8 55.6,239.2 	"/>
	<path fill-rule="evenodd" clip-rule="evenodd" fill="#00529A" d="M169.6,211.4l8.5-30l8.8,30H169.6L169.6,211.4z M164.5,228.4h27
		l3.1,10.8h27l-29.6-82.7h-27.6L135,239.2h26.5L164.5,228.4L164.5,228.4z"/>
	<polygon fill-rule="evenodd" clip-rule="evenodd" fill="#00529A" points="259.3,239.2 233.2,239.2 233.2,156.5 258.5,156.5 
		287,200.8 287,156.5 312.9,156.5 312.9,239.2 287.1,239.2 259.3,196 259.3,239.2 	"/>
	<path fill-rule="evenodd" clip-rule="evenodd" fill="#00529A" d="M374.3,178.3c2.2,1.2,3.3,3.4,3.3,6.7c0,2.1-0.5,3.8-1.5,5.2
		c-1,1.4-2.2,2.4-3.7,2.9c-1.5,0.5-4.2,0.7-8,0.7h-9.7v-17.3h8.7C368.4,176.5,372.1,177.1,374.3,178.3L374.3,178.3z M355.1,213.6
		h15.4c4.9,0,9.6-0.6,14-1.9c2.8-0.8,5-1.7,6.4-2.5c2-1.1,4-2.7,5.8-4.8c1.9-2,3.5-4.8,4.8-8.2c1.3-3.4,2-7.3,2-11.5
		c0-3.8-0.6-7.2-1.7-10.2c-1.1-3-2.7-5.7-4.9-8.1c-2.2-2.4-4.5-4.3-7.1-5.6c-2.6-1.3-5.9-2.3-9.9-3c-4-0.7-10-1.1-17.8-1.1h-33.8
		v82.7h26.7V213.6L355.1,213.6z"/>
	<path fill-rule="evenodd" clip-rule="evenodd" fill="#00529A" d="M441.9,211.4l8.5-30l8.8,30H441.9L441.9,211.4z M436.9,228.4h27
		l3.1,10.8h27l-29.6-82.7h-27.6l-29.6,82.7h26.5L436.9,228.4L436.9,228.4z"/>
</g>
</svg>
