<?xml version="1.0" encoding="utf-8"?>
<!-- Generator: Adobe Illustrator 22.1.0, SVG Export Plug-In . SVG Version: 6.00 Build 0)  -->
<svg version="1.1" id="Capa_1" xmlns="http://www.w3.org/2000/svg" xmlns:xlink="http://www.w3.org/1999/xlink" x="0px" y="0px"
	 viewBox="0 0 512 512" enable-background="new 0 0 512 512" xml:space="preserve">
<g>
	<path fill="#F25022" d="M35,35h210.2c0,70.1,0,140.2,0,210.2c-70.1,0-140.2,0-210.2,0V35L35,35z"/>
	<path fill="#FEFEFE" d="M477,266.7c-70.1,0-140.2,0-210.2,0c0,70.1,0,140.2,0,210.2h-21.5c0-70.1,0-140.2,0-210.2
		c-70.1,0-140.2,0-210.2,0v-21.5c70.1,0,140.2,0,210.2,0c0-70.1,0-140.2,0-210.2l0,0h21.5c0,70.1,0,140.2,0,210.2
		c70.1,0,140.2,0,210.2,0L477,266.7z"/>
	<path fill="#80BA01" d="M266.7,35H477c0,70.1,0,140.2,0,210.2c-70.1,0-140.2,0-210.2,0C266.7,175.2,266.7,105.1,266.7,35L266.7,35z
		"/>
	<path fill="#02A4EF" d="M35,266.7c70.1,0,140.2,0,210.2,0c0,70.1,0,140.2,0,210.2H35V266.7L35,266.7z"/>
	<path fill="#FFB902" d="M266.7,266.7c70.1,0,140.2,0,210.2,0c0,70.1,0,140.2,0,210.2H266.7C266.7,406.9,266.7,336.8,266.7,266.7
		L266.7,266.7z"/>
</g>
</svg>
