<?xml version="1.0" encoding="utf-8"?>
<!-- Generator: Adobe Illustrator 22.1.0, SVG Export Plug-In . SVG Version: 6.00 Build 0)  -->
<svg version="1.1" id="Capa_1" xmlns="http://www.w3.org/2000/svg" xmlns:xlink="http://www.w3.org/1999/xlink" x="0px" y="0px"
	 viewBox="0 0 512 512" enable-background="new 0 0 512 512" xml:space="preserve">
<g>
	<g>
		<path fill-rule="evenodd" clip-rule="evenodd" fill="#6779A2" d="M34.4,285.4c-6.2,6.2-9.3,13.9-9.3,23.6c0,9.3,3.1,16.7,9.4,22.3
			c3.7,3.2,10.5,7,20.4,11c8.7,3.6,14.5,6.5,17.6,9.1c5.1,4.3,7.7,9.9,7.7,16.7c0,6.2-2,11.3-6,15.5c-4,4.2-9,6.2-15,6.2
			c-7.3,0-13.8-2.6-19-8.3c-4.8-4.8-7.7-10.7-9.3-17.6v-0.3l-12.7,3.1v0.3c2.2,10.4,6.8,18.7,14.1,24.9c7.3,5.9,16.2,9,26.7,9
			c10.4,0,18.7-3.1,24.9-9.4c6.3-6.2,9.6-14.4,9.6-24.6c0-10-3.4-18.1-10.2-24.1c-4-3.6-11-7.6-21.2-11.9c-8-3.4-13.6-6.3-16.5-8.7
			c-4.8-4-7.3-9-7.3-14.8c0-5.6,1.9-10.4,5.6-14.2c3.7-3.7,8.2-5.7,13.6-5.7c6.6,0,12.1,2.2,15.9,6.6c3.4,3.6,6.2,9.4,8.5,17.3
			l0.2,0.3l11.9-3.6v-0.5c-2.6-9.7-7-17.3-13.3-22.9c-6.3-5.6-13.8-8.3-22.4-8.3C48.6,276.3,40.6,279.4,34.4,285.4L34.4,285.4z"/>
		<path fill-rule="evenodd" clip-rule="evenodd" fill="#6779A2" d="M158.3,328l-0.3,0.3l9,6.6l0.3-0.3c5.9-8.8,12.7-13.1,20.2-13.1
			c4.9,0,8.8,1.4,11.6,3.9c2.8,2.5,4.2,6,4.2,10.7v4.5l-7,1.9c-12.8,3.4-21.9,6.8-27.4,10c-9,5.7-13.6,13.8-13.6,23.8
			c0,6.6,2.3,12.4,7,17.2c4.6,4.8,10.2,7.3,16.8,7.3c4.5,0,9-1.2,13.4-4c3.1-1.9,6.6-4.8,10.7-8.8l1.2,10.4h13.8l-0.2-0.5
			c-1.4-3.4-2.2-8.7-2.3-15.8v-44.7c0-8.8-3.2-15.6-9.9-20.6c-5.4-4-11.4-6-18.4-6C176.1,310.7,166.4,316.4,158.3,328L158.3,328z
			 M196,353.1l7.3-2v24.1c-2.8,3.2-5.6,6-8.8,8.3c-4.9,3.6-9.9,5.1-14.8,5.1c-3.6,0-6.5-1.4-9-4.3c-2.2-2.8-3.4-5.9-3.4-9.3
			c0-6,3.4-11,10-14.8C181.2,357.9,187.5,355.5,196,353.1L196,353.1z"/>
		<polygon fill-rule="evenodd" clip-rule="evenodd" fill="#6779A2" points="333,278.7 320.3,278.7 320.3,398.2 333,398.2 333,278.7 
					"/>
		<path fill-rule="evenodd" clip-rule="evenodd" fill="#6779A2" d="M406.5,319.1c-5.1-5.6-11.7-8.3-19.8-8.3
			c-10.8,0-19.2,4-25.2,11.7c-5.9,7.9-8.8,19-8.8,33.2c0,14.2,2.9,25.3,8.8,33.2c6,7.7,14.4,11.7,25.2,11.7c7,0,13.1-1.9,18.7-5.3
			c5.6-3.4,9.6-8,12.1-13.9v-0.2l-9-6l-0.3,0.2c-1.9,3.4-4,6-6.6,8.5c-4.3,4-8.8,5.9-13.6,5.9c-7.1,0-12.5-2.6-16.4-8.2
			c-3.7-5.4-5.7-13.3-5.7-23.6h50.8v-0.3l0.3-6c0-6.6-0.9-13-2.8-18.5C412.4,327.4,409.9,322.8,406.5,319.1L406.5,319.1z
			 M385.8,321.5c4,0,7.4,1.5,10.2,4.5c2.5,2.6,4.3,5.9,5.7,9.9c1.2,3.7,1.9,7.3,1.9,10.8v0.6h-37.4c0.2-6.8,1.9-12.7,5.3-17.6
			C375.1,324.3,379.9,321.5,385.8,321.5L385.8,321.5z"/>
		<path fill-rule="evenodd" clip-rule="evenodd" fill="#6779A2" d="M438.3,313.2h-12.8l29.2,83.1c-2,6.3-4,10.8-6.2,13.8
			c-3.1,4-7.3,6.2-12.7,6.2l-6.8-1.2l-0.3-0.2l-1.9,10.8h0.2c3.6,1.1,6.6,1.7,9.3,1.7c8.3,0,15.1-2.9,20.2-8.5c3.6-4,6.5-9.7,9-17.6
			l28.1-88.1h-12.1l-20.7,65.1L438.3,313.2L438.3,313.2z"/>
		<path fill-rule="evenodd" clip-rule="evenodd" fill="#6779A2" d="M125.9,285.8h-12.5v27.4h-12.8V324h12.8v51.6
			c0,5.1,0.2,9,0.8,11.6c0.6,3.9,2,6.8,4.2,8.8c2.9,3.1,7.7,4.6,14.5,4.6c3.6,0,7.6-0.8,11.9-2.5l0.3-0.2v-9.3l-9.9,1.1
			c-3.4,0-5.7-0.6-7.1-2c-1.4-1.4-2.2-4.9-2.2-10.5V324H145v-10.8h-19.2V285.8L125.9,285.8z"/>
		<path fill-rule="evenodd" clip-rule="evenodd" fill="#6779A2" d="M251.8,333.9c2.5-3.1,5.7-5.9,9.6-8.3c4.3-2.8,8.3-4.3,11.7-4.3
			c3.2,0,5.7,0.9,7.6,2.6c1.4,1.5,2.5,4,2.9,7.3l0.3,67.1h12.5v-58.6c0-19.2-7.3-28.9-21.8-28.9c-4.3,0-8.3,1.1-12.4,3.4
			c-2.5,1.4-6,3.9-10.5,7.4v-8.3h-12.7v85h12.7V333.9L251.8,333.9z"/>
	</g>
	<g>
		<path fill-rule="evenodd" clip-rule="evenodd" fill="#6779A2" d="M487.6,146.4V84.6h-61.8L487.6,146.4L487.6,146.4z M478.4,93.7
			v29.1l-28.9-29.1H478.4L478.4,93.7z"/>
		<polygon fill-rule="evenodd" clip-rule="evenodd" fill="#272525" points="112.9,122.3 91.1,122.3 65.8,220.1 39.8,122.3 
			18.3,122.3 18.3,241.8 31.5,241.8 31.5,135.3 60.2,241.8 71,241.8 99.8,135.3 99.8,241.8 112.9,241.8 112.9,122.3 		"/>
		<path fill-rule="evenodd" clip-rule="evenodd" fill="#272525" d="M190.9,166c-6-7.7-14.4-11.7-25.2-11.7c-10.8,0-19.2,4-25.2,11.7
			c-5.9,7.9-9,19-9,33.2c0,14.2,3.1,25.3,9,33.2c6,7.7,14.4,11.7,25.2,11.7c10.8,0,19.2-4,25.2-11.7c5.9-7.9,9-19,9-33.2
			C199.9,185.1,196.8,173.9,190.9,166L190.9,166z M165.8,165.1c8.3,0,14.2,4.2,17.8,12.4c2.5,5.6,3.7,12.8,3.7,21.8
			c0,9-1.2,16.2-3.7,21.9c-3.6,8.2-9.4,12.2-17.8,12.2c-8.2,0-14.2-4-17.8-12.2c-2.5-5.7-3.7-13-3.7-21.9c0-9,1.2-16.2,3.7-21.8
			C151.5,169.3,157.6,165.1,165.8,165.1L165.8,165.1z"/>
		<path fill-rule="evenodd" clip-rule="evenodd" fill="#272525" d="M232.4,174.5v-17.8h-12.7v85h12.7v-48.2
			c3.1-8.2,6.3-14.4,9.9-18.7c5.1-6,11.1-8.7,17.9-7.7h0.3v-11.6h-4.8c-5.7,0-10.5,1.9-14.7,5.7
			C238.1,164.2,235.1,168.7,232.4,174.5L232.4,174.5z"/>
		<path fill-rule="evenodd" clip-rule="evenodd" fill="#272525" d="M319,158.9c-5.6-4-11.9-6-18.5-6c-8.8,0-15.9,2.8-21.6,8.2
			c-5.6,5.6-8.5,12.7-8.5,21.2c0,4.5,0.8,8.5,2.3,11.9c1.2,2.8,3.6,6.3,7,10.2l-4,4.2c-2.3,1.9-3.7,3.6-4.6,4.8
			c-1.2,1.9-1.9,4-1.9,6.5c0,5.1,3.4,9,10,11.7c-9.4,4.3-14.1,9.7-14.1,16.5c0,5.1,1.9,9.6,5.9,13c6,5.7,16.2,8.3,30.4,8.3
			c11.7,0,20.7-1.7,26.9-5.6c6.2-3.9,9.1-9.3,9.1-16.7c0-9.1-4.5-15.5-13.4-19.2c-5.1-2.2-13.8-3.9-26-4.9l-11.9-1.5
			c-3.2-0.8-4.8-1.9-4.8-3.6c0-2.2,1.9-4.6,5.7-7.7l1.2-0.9c4.3,1.7,8.8,2.6,13.4,2.6c8.2,0,15-2.8,20.6-8.3
			c5.4-5.6,8.2-12.5,8.2-20.5v-0.5c-0.2-6.8-1.9-12.7-5.3-17.5c2.3-1.2,5.1-1.9,8.5-1.9h4.5v-10.7C332,152,325.7,154.1,319,158.9
			L319,158.9z M300.8,162.6c5.9,0,10.5,2.2,13.6,6.5c2.6,3.6,3.9,8,3.9,13.4c0,6-1.7,10.8-4.9,14.4c-3.2,3.6-7.9,5.3-13.6,5.3
			c-5.4,0-9.6-2-12.8-6.2c-2.9-3.7-4.3-8-4.3-13.3c0-5.4,1.5-9.9,4.6-13.8C290.6,164.7,295.3,162.6,300.8,162.6L300.8,162.6z
			 M282.3,239.3c2.8-2,6.3-3.2,10.5-4l13,0.8c13,0.8,19.6,4.3,19.6,10.4c0,5.1-2.9,8.5-8.5,10.7c-3.9,1.5-8.8,2.3-14.8,2.3
			c-16.7,0-24.9-4-24.9-11.9C277.2,244.4,278.9,241.6,282.3,239.3L282.3,239.3z"/>
		<path fill-rule="evenodd" clip-rule="evenodd" fill="#272525" d="M349.8,171.6l-0.2,0.3l9,6.6l0.2-0.3c6-8.8,12.7-13.1,20.4-13.1
			c4.8,0,8.7,1.4,11.6,3.9c2.6,2.5,4,6,4,10.7v4.5l-7,1.9c-12.8,3.4-21.9,6.8-27.2,10c-9.1,5.7-13.6,13.8-13.6,23.8
			c0,6.6,2.3,12.4,7,17.2c4.6,4.8,10.2,7.3,16.7,7.3c4.6,0,9.1-1.2,13.4-4c3.2-1.9,6.8-4.8,10.8-8.8l1.1,10.4h13.8l-0.2-0.5
			c-1.2-3.4-2.2-8.7-2.2-15.8v-44.7c0-8.8-3.4-15.6-9.9-20.6c-5.4-4-11.6-6-18.4-6C367.6,154.3,357.8,160,349.8,171.6L349.8,171.6z
			 M387.5,196.6l7.3-2v24.1c-7.4,9-15.3,13.4-23.6,13.4c-3.4,0-6.3-1.4-8.8-4.3c-2.3-2.8-3.6-5.9-3.6-9.3c0-6,3.4-11,10-14.8
			C372.8,201.4,379,199.1,387.5,196.6L387.5,196.6z"/>
		<path fill-rule="evenodd" clip-rule="evenodd" fill="#272525" d="M443,156.8h-12.7v85H443v-64.3c2.5-3.1,5.7-5.9,9.6-8.3
			c4.3-2.8,8.2-4.3,11.7-4.3c3.2,0,5.7,0.9,7.4,2.6c1.5,1.5,2.6,4,3.1,7.3c0.2,1.9,0.3,4.8,0.3,9l-0.2,58.1h12.7v-58.6
			c0-19.2-7.3-28.9-21.9-28.9c-4.2,0-8.3,1.1-12.4,3.4c-2.5,1.2-5.9,3.7-10.4,7.4V156.8L443,156.8z"/>
	</g>
</g>
</svg>
