<?xml version="1.0" encoding="utf-8"?>
<!-- Generator: Adobe Illustrator 22.1.0, SVG Export Plug-In . SVG Version: 6.00 Build 0)  -->
<svg version="1.1" id="Capa_1" xmlns="http://www.w3.org/2000/svg" xmlns:xlink="http://www.w3.org/1999/xlink" x="0px" y="0px"
	 viewBox="0 0 512 512" enable-background="new 0 0 512 512" xml:space="preserve">
<g>
	<path fill="#359344" d="M256,6.8C118.6,6.8,6.8,118.6,6.8,256c0,137.4,111.8,249.2,249.2,249.2S505.2,393.4,505.2,256
		C505.2,118.6,393.4,6.8,256,6.8z M256,468.3c-117.1,0-212.3-95.2-212.3-212.3c0-117.1,95.2-212.3,212.3-212.3
		S468.3,138.9,468.3,256C468.3,373.1,373.1,468.3,256,468.3z"/>
	<path fill="#359344" d="M256,65C150.7,65,65,150.6,65,256c0,105.4,85.8,191,191.1,191c105.3,0,191-85.6,191-191
		C447,150.6,361.3,65,256,65z M187.5,298.6l-2.2-38.9c-0.7-12.4-1.4-27.2-1.3-38.2h-0.4c-3,10.4-6.7,21.4-11.2,33.6l-15.6,42.9h-8.7
		L133.8,256c-4.2-12.5-7.7-23.9-10.2-34.4h-0.3c-0.3,11-0.9,25.9-1.7,39.1l-2.4,37.9h-10.9l6.2-88.5h14.6l15.1,42.8
		c3.7,10.9,6.7,20.6,8.9,29.8h0.4c2.2-8.9,5.4-18.6,9.3-29.8l15.8-42.8h14.6l5.5,88.5H187.5z M266.1,298.6h-49.8v-88.5h47.8v9.6
		h-36.4v28h34.4v9.5h-34.4V289h38.3V298.6z M329.4,298.6l-11.3-19.6c-4.6-7.5-7.5-12.3-10.2-17.5h-0.3c-2.5,5.1-5,9.8-9.6,17.6
		l-10.6,19.4h-13.1l27.1-44.8l-26-43.7h13.3l11.7,20.8c3.3,5.8,5.8,10.2,8.1,15h0.4c2.5-5.3,4.7-9.3,8-15l12.1-20.8h13.1l-26.9,43.1
		l27.6,45.4H329.4z M382.9,296.3v13.7h-8.3v-13.3c-7.6-0.1-15.5-2.5-20.1-5.8l3.1-8.8c4.7,3.1,11.6,5.6,18.9,5.6
		c9.3,0,15.6-5.4,15.6-12.9c0-7.2-5.1-11.7-14.8-15.6c-13.4-5.3-21.7-11.3-21.7-22.7c0-10.9,7.7-19.2,19.8-21.1v-13.3h8.1v12.7
		c7.9,0.3,13.3,2.4,17.1,4.6l-3.3,8.7c-2.8-1.6-8.1-4.5-16.5-4.5c-10.1,0-13.9,6-13.9,11.3c0,6.8,4.9,10.2,16.3,15
		c13.5,5.5,20.4,12.3,20.4,24C403.7,284.3,396.5,294,382.9,296.3z"/>
</g>
</svg>
