<?xml version="1.0" encoding="utf-8"?>
<!-- Generator: Adobe Illustrator 22.1.0, SVG Export Plug-In . SVG Version: 6.00 Build 0)  -->
<svg version="1.1" id="Capa_1" xmlns="http://www.w3.org/2000/svg" xmlns:xlink="http://www.w3.org/1999/xlink" x="0px" y="0px"
	 viewBox="0 0 512 512" enable-background="new 0 0 512 512" xml:space="preserve">
<g>
	<path fill="#359344" d="M189.8,306.8l39.4,11.3l9.1,45.7l-67.4-19.4L189.8,306.8L189.8,306.8z M82.4,276l39.4,11.3l9.1,45.7
		l-67.4-19.3L82.4,276L82.4,276z M136.1,229.4l39.4,11.3l9.1,45.7l-53.3-15.3l0-0.5l-1.9-0.1l-12.2-3.5L136.1,229.4L136.1,229.4z
		 M330.4,144.4l18.4,4.6l-167.5,74.4l-19.1-5.5L330.4,144.4L330.4,144.4z M396.9,201.2l-193.5,86l-9.9-49.4l183.6-81.6L396.9,201.2
		L396.9,201.2z M149.7,333.9l-8.2-40.9l30.4,8.7l-14.3,28.6L149.7,333.9L149.7,333.9z M402.5,226.4L235,300.9l-10.6-3l166.9-74.2
		L402.5,226.4L402.5,226.4z M450.5,278.7l-193.5,86l-9.9-49.4l183.6-81.6L450.5,278.7L450.5,278.7z M443.8,218l-25.5-6.4l2.5-1.1
		l-30.7-70l-61.3-15.3l-206,90.1l-14.8,29.7l-38.8,17l-31.6,63.2L144.9,356l0,0l107.4,30.8L474.5,288L443.8,218L443.8,218z"/>
</g>
</svg>
