<?xml version="1.0" encoding="utf-8"?>
<!-- Generator: Adobe Illustrator 22.1.0, SVG Export Plug-In . SVG Version: 6.00 Build 0)  -->
<svg version="1.1" id="Capa_1" xmlns="http://www.w3.org/2000/svg" xmlns:xlink="http://www.w3.org/1999/xlink" x="0px" y="0px"
	 viewBox="0 0 512 512" enable-background="new 0 0 512 512" xml:space="preserve">
<g>
	<path fill-rule="evenodd" clip-rule="evenodd" fill="#FFFFFF" d="M228.8,25.6c88.9-9.5,152.5,28.3,192.9,72.3
		c31.6,34.5,61.4,97,61.1,155.9c-0.6,123.2-96.4,215.7-212.2,223.5c-38,2.5-73.2-3.9-102.9-16.1C88,428.6,20.4,346.5,27.9,234.6
		c3-45.2,23.4-88.9,35.4-107.7C94.5,77.7,153.6,33.7,228.8,25.6z M90.6,112.5C73.7,132.7,61,154.4,52,180
		c-54.6,155.4,68.9,296.1,217,286.2c103.8-7,193.2-87.9,201-196.1c5.6-77.9-26.8-137.4-61.1-172c-39.8-40.2-96.8-69.4-178.5-61.1
		C162.4,43.8,120.5,76.5,90.6,112.5z"/>
	<path fill-rule="evenodd" clip-rule="evenodd" fill="#FFFFFF" d="M344.6,154.3c-24.8,1.2-35.7-24.3-25.7-43.4
		c-31.8-5.4-35.7,30.6-40.2,57.9c15.8-1.4,29.5-4.8,37-14.5c22.2,24.9-10.6,45.7-40.2,43.4c-16.9,72-5.3,198.1-78.8,209
		c-24.8,3.7-43-4.7-48.2-24.1c12.9-9.6,29.4-1.1,40.2,4.8c33.7-32.9,27.3-129.7,41.8-184.9c-10.5,1.3-14.5,9.1-20.9,14.5
		c-20.3-18.6,2.2-45.5,25.7-45c-6.2-52.3,53.4-111.3,99.7-78.8C347.6,102,358.8,133.3,344.6,154.3z"/>
	<path fill-rule="evenodd" clip-rule="evenodd" fill="#FFFFFF" d="M362.3,231.4c-1.8-33.1,41.5-29,30.6-65.9
		c-19.1,1.2-29.3,18.5-35.4,43.4c-4.4,18.1-11.3,60.8,6.4,65.9c37.1,10.8,18.3-49,61.1-37c-11.7,32.2-29.5,61.9-74,61.1
		c-21-0.4-40.9-14.5-45-37c-10.6-58,39.1-113.4,86.8-119c51.1-5.9,49.1,41.8,24.1,64.3C402.2,220.6,381.3,229.3,362.3,231.4z"/>
	<path fill-rule="evenodd" clip-rule="evenodd" fill="#FFFFFF" d="M124.3,281.3c-5.7-30.7,41.2-28.8,28.9-65.9
		c-30.1,4.7-43.5,56-40.2,88.4c1.1,10.3,5.7,19.3,12.9,20.9c36.4,8.2,17.4-47,59.5-37c-9.5,32.9-30.2,61-72.4,61.1
		c-71.1,0.1-45.1-96.4-12.9-128.6c14.7-14.7,56.1-40.8,85.2-24.1c15.5,8.9,11.8,37.7,1.6,51.4C176.8,261.4,149.1,278.1,124.3,281.3z
		"/>
	<path fill-rule="evenodd" clip-rule="evenodd" fill="#FFFFFF" d="M479.6,178.4c-27.1-66.1-71.3-115.2-138.3-141.5
		c-5.9-5.2,14.3,2.4,19.3,4.8C415.2,68,459.1,119.2,479.6,178.4z"/>
	<path fill-rule="evenodd" clip-rule="evenodd" fill="#FFFFFF" d="M423.4,131.7c-37.7-46.2-97.9-83.5-180.1-85.2
		c-4.2-0.1-20.2,1.3-14.5-1.6C324.3,36.9,385.2,77.1,423.4,131.7z"/>
	<path fill-rule="evenodd" clip-rule="evenodd" fill="#FFFFFF" d="M34.3,321.5C29.4,319.6,36,312.9,34.3,321.5
		c31.9,104.3,157,195.4,295.8,146.3c20.1-7.1,35.4-16.9,53.1-25.7c-3.9,2,6.4-4,1.6,1.6c-37.7,25.1-87.7,43.2-141.5,40.2
		C133.5,477.8,62.9,407.6,34.3,321.5z"/>
	<path fill-rule="evenodd" clip-rule="evenodd" fill="#B01630" d="M225.5,34.7c81.6-8.3,138.7,20.9,178.5,61.1
		c34.3,34.7,66.7,94.1,61.1,172c-7.8,108.3-97.1,189.2-201,196.1C116,473.9-7.5,333.2,47.1,177.8c9-25.6,21.7-47.2,38.6-67.5
		C115.6,74.3,157.5,41.6,225.5,34.7z M223.9,42.7c-5.7,2.9,10.3,1.5,14.5,1.6c82.1,1.7,142.4,39,180.1,85.2
		C380.3,74.9,319.4,34.7,223.9,42.7z M330.1,90.9c-46.3-32.5-105.8,26.4-99.7,78.8c-23.5-0.5-46,26.4-25.7,45
		c6.4-5.3,10.4-13.2,20.9-14.5c-14.5,55.2-8.1,152-41.8,184.9c-10.8-5.9-27.3-14.5-40.2-4.8c5.3,19.4,23.5,27.8,48.2,24.1
		c73.5-10.9,61.9-137,78.8-209c29.6,2.3,62.3-18.5,40.2-43.4c-7.5,9.7-21.2,13.1-37,14.5c4.5-27.3,8.4-63.3,40.2-57.9
		c-10,19.1,1,44.6,25.7,43.4C353.9,131.1,342.7,99.8,330.1,90.9z M412,205.1c25-22.5,27-70.3-24.1-64.3c-47.7,5.5-97.4,61-86.8,119
		c4.1,22.4,24,36.6,45,37c44.5,0.8,62.3-28.9,74-61.1c-42.8-12-24,47.7-61.1,37c-17.7-5.1-10.8-47.9-6.4-65.9
		c6.1-24.9,16.3-42.2,35.4-43.4c11,36.9-32.4,32.8-30.5,65.9C376.4,227.1,397.3,218.4,412,205.1z M182.1,245.3
		c10.2-13.7,13.9-42.6-1.6-51.4c-29.1-16.7-70.5,9.4-85.2,24.1c-32.2,32.2-58.3,128.7,12.9,128.6c42.1-0.1,62.8-28.2,72.4-61.1
		c-42.1-10.1-23.1,45.1-59.5,37c-7.2-1.6-11.8-10.6-12.9-20.9c-3.3-32.4,10.1-83.7,40.2-88.4c12.3,37.1-34.7,35.2-28.9,65.9
		C144.2,275.9,171.9,259.2,182.1,245.3z M230.4,459.1c37.8,3.2,71.4-3.4,94.9-12.9c3.3-1.3,18.4-7.7,6.4-4.8
		c-3.9,0.9-16.4,7.2-19.3,8C200,482,98.3,414.1,64.8,348.2C98.5,406.4,149.1,452.3,230.4,459.1z"/>
	<path fill-rule="evenodd" clip-rule="evenodd" fill="#FFFFFF" d="M69.7,350.4c33.5,66,135.2,133.8,247.6,101.3
		c2.9-0.8,15.4-7.1,19.3-8c12-2.9-3.1,3.5-6.4,4.8c-23.4,9.4-57,16-94.9,12.9C154,454.5,103.4,408.6,69.7,350.4z"/>
	<path fill-rule="evenodd" clip-rule="evenodd" fill="#B01630" d="M235.3,17.6c79.3-6.5,138.9,22.6,180.1,59.5
		c45.5,40.8,86.8,102.2,80.4,197.7c-8,118.9-98.3,204.3-207.4,218.6c-58.6,7.7-120.3-9.4-165.6-40.2
		c-76.3-51.9-141.6-161.9-86.8-291c15.8-37.3,37.5-68.7,74-96.5C142.1,41.3,181.5,22,235.3,17.6z M63.2,126.9
		c-11.9,18.8-32.3,62.5-35.4,107.7c-7.5,111.9,60.2,194,139.9,226.7c29.7,12.2,64.9,18.6,102.9,16.1
		c115.8-7.8,211.6-100.3,212.2-223.5c0.3-58.9-29.5-121.5-61.1-155.9c-40.4-44-104.1-81.8-192.9-72.3
		C153.6,33.7,94.5,77.7,63.2,126.9z M360.7,41.7c-5-2.4-25.2-10.1-19.3-4.8c66.9,26.3,111.1,75.4,138.3,141.5
		C459.1,119.2,415.2,68,360.7,41.7z M243.3,483.8c53.7,3,103.8-15.1,141.5-40.2c4.8-5.6-5.5,0.3-1.6-1.6
		c-17.7,8.8-32.9,18.6-53.1,25.7c-138.8,49.1-263.9-42-295.8-146.3c1.7-8.5-4.9-1.9,0,0C62.9,407.6,133.5,477.8,243.3,483.8z"/>
</g>
</svg>
