<?xml version="1.0" encoding="utf-8"?>
<!-- Generator: Adobe Illustrator 22.1.0, SVG Export Plug-In . SVG Version: 6.00 Build 0)  -->
<svg version="1.1" id="Capa_1" xmlns="http://www.w3.org/2000/svg" xmlns:xlink="http://www.w3.org/1999/xlink" x="0px" y="0px"
	 viewBox="0 0 512 512" enable-background="new 0 0 512 512" xml:space="preserve">
<g>
	<g>
		<g>
			<path fill="#FFFFFF" d="M256.9,370.3c-41.7,0-80.2-22.8-100.3-59.4l-1-1.8H21.4V201.5h135l1-1.8c20.3-35.8,58.4-58,99.4-58
				c41.1,0,79.2,22.2,99.4,58l1,1.8h133.2V309H358.2l-1,1.8C337.1,347.5,298.7,370.3,256.9,370.3z"/>
		</g>
		<g>
			<path fill="#EB1C24" d="M256.9,145.2c20,0,39.5,5.4,56.6,15.5c16.6,9.9,30.3,23.9,39.8,40.7l2,3.5h4.1h127.7v100.5H360.2h-4.1
				l-2,3.6c-19.5,35.5-56.7,57.6-97.2,57.6c-40.5,0-77.7-22.1-97.2-57.6l-2-3.6h-4.1H24.9V205h129.5h4.1l2-3.5
				c9.5-16.8,23.3-30.9,39.8-40.7C217.4,150.6,237,145.2,256.9,145.2 M256.9,138.2c-44,0-82.3,24.1-102.5,59.8H17.9v114.5h135.6
				c20,36.5,58.8,61.2,103.3,61.2c44.6,0,83.3-24.8,103.3-61.2h133.8V198H359.4C339.2,162.3,300.9,138.2,256.9,138.2L256.9,138.2z"
				/>
		</g>
	</g>
	<g>
		<circle fill="#00A451" cx="257.3" cy="255.8" r="71.7"/>
	</g>
	<g>
		<rect x="39.4" y="219.9" fill="#FFFFFF" width="432.8" height="71.5"/>
		<path fill="#00A451" d="M469.7,222.4v66.5H41.9v-66.5H469.7 M474.7,217.4H36.9v76.5h437.8V217.4L474.7,217.4z"/>
	</g>
	<polygon fill="#EB1C24" points="432,269.2 432,186.9 417.4,186.9 417.4,278.3 455.6,278.3 455.6,269.2 	"/>
	<path fill="#EB1C24" d="M398.6,278.3h12l-18-44h-15.9l-18,44h12l3.8-9.4h20.2L398.6,278.3z M377.7,261.3l7-17l7,17H377.7z"/>
	<polygon fill="#EB1C24" points="338.5,235 338.5,259.8 320.8,235 304.6,235 304.6,278.3 316.8,278.3 316.8,247.5 338.5,278.3 
		350.7,278.3 350.7,235 	"/>
	<rect x="281.3" y="235" fill="#EB1C24" width="10.5" height="43.3"/>
	<polygon fill="#EB1C24" points="270.9,235 237.1,235 237.1,242.9 247.6,242.9 247.6,278.3 260.5,278.3 260.5,242.9 270.9,242.9 	
		"/>
	<path fill="#EB1C24" d="M206.8,233.3c-14.2,0-25.7,10.5-25.7,23.4c0,12.9,11.5,23.4,25.7,23.4c14.2,0,25.7-10.5,25.7-23.4
		C232.5,243.8,221,233.3,206.8,233.3z M206.8,268.4c-7.1,0-12.9-5.3-12.9-11.8c0-6.5,5.8-11.8,12.9-11.8c7.1,0,12.9,5.3,12.9,11.8
		C219.7,263.2,213.9,268.4,206.8,268.4z"/>
	<path fill="#EB1C24" d="M164,259.8c0,0,10-3.8,10-11.7c0,0,0-12.6-13.4-13.1v0h-28.3v43.3h11.8v-16.2h7.5l9,16.2h16.5L164,259.8z
		 M151.9,255.1h-7.7v-12.2h8.1c0,0,8.1-0.7,8.1,6.1C160.4,255.7,151.9,255.1,151.9,255.1z"/>
	<path fill="#EB1C24" d="M101.9,235H69.7v7.9h5v81.6H88v-46.2h14c0,0,19.3-1.4,19.3-21.6C121.3,236.4,101.9,235,101.9,235z
		 M98.8,267.6c-5.3,0-10.8,0-10.8,0v-23.8h11.2c0,0,10.3,0.7,10.3,10.7C109.6,264.5,104.2,267.6,98.8,267.6z"/>
</g>
</svg>
