<?xml version="1.0" encoding="utf-8"?>
<!-- Generator: Adobe Illustrator 22.1.0, SVG Export Plug-In . SVG Version: 6.00 Build 0)  -->
<svg version="1.1" id="Capa_1" xmlns="http://www.w3.org/2000/svg" xmlns:xlink="http://www.w3.org/1999/xlink" x="0px" y="0px"
	 viewBox="0 0 512 512" enable-background="new 0 0 512 512" xml:space="preserve">
<g>
	<path fill="#CB000A" d="M253.2,389.6c-30.3-0.3-60.4-2.8-89.8-10.3c-41.4-10.5-81-25.6-116.1-50.6c-45.9-32.8-47-100.2-2.7-135.3
		c25.7-20.4,54.7-34.3,85.2-46c42.7-16.4,87-23.8,132.5-24.9c58.7-1.4,113.5,14.3,166.3,38.5c11.2,5.1,21.6,11.4,31.8,18.3
		c47,31.8,57.7,102.6,1.5,145.9c-43.1,33.2-92.9,50.4-146.1,58.9C295,387.5,274.2,389.6,253.2,389.6z M258.7,375.5
		c17.5-0.1,41.8-2.2,65.9-6.9c44.1-8.6,85.5-23.9,122.5-49.5c15.1-10.4,28.1-23.7,33.8-41.9c10.5-33.4-0.6-65-29.1-85.7
		c-21.8-15.8-45.8-27-71.3-35.4c-36.9-12.3-74.7-20-113.7-19.6c-30.5,0.3-60.8,3.2-90.5,10.9c-42.8,11.1-83.3,27.1-118.7,54.3
		c-27.8,21.3-38,55.9-24.7,86.6c8,18.5,22.7,31,39.9,40.7C128.2,360.3,187.9,375.4,258.7,375.5z"/>
	<path fill="#CB000A" d="M286.9,231.1c0,5.5,0,10,0,14.5c0.1,36.7,0.1,73.5,0.2,110.2c0,5.1-0.1,9.8-7.2,10.4
		c-9.8,0.7-11.3-0.4-11.3-10.5c0-66.1,0.1-132.3,0.2-198.4c0-5.2-1.6-11.4,6.9-12.1c9.9-0.9,12.6,0.4,14.6,9.6
		c8.9,39.5,17.6,79.1,26.4,118.7c0.3,1.3,0.7,2.6,2.2,3.9c0.1-2.2,0.3-4.3,0.3-6.5c0-36.5-0.1-72.9,0-109.4c0-4.3-2.4-10.5,6.3-10.2
		c9.8,0.4,12.2,2,12.3,10.9c0.2,41.1,0.3,82.2,0.4,123.3c0.1,20.9-0.3,41.8,0.3,62.7c0.2,8.8-4.7,10.2-11.4,11.4
		c-7.3,1.3-9.5-2.5-10.9-8.7c-8.5-37.1-17.2-74.2-25.8-111.3C289.7,237.1,289.7,234.2,286.9,231.1z"/>
	<path fill="#CB000A" d="M208.1,159.9c-0.1-8.1,3-11.1,10.7-11.9c10.3-1.1,20.5-2.7,30.8-3c5.1-0.1,8.3,1.3,8.3,7.3
		c0,5.3-1.3,8.6-7.5,9.4c-21.9,2.6-21.9,2.8-21.9,25.2c0,16.6,0.1,33.2-0.1,49.8c-0.1,6.1,2.2,8.5,8.2,8c3.8-0.3,7.6,0.2,11.4-0.1
		c6.8-0.4,9.9,2.3,9.9,9.4c-0.1,7.2-3.3,9.3-10,9.3c-19.3,0.1-19.3,0.4-19.4,19.5c-0.1,18.5,0.1,37-0.2,55.5
		c-0.1,6.3,1.6,9.8,8.5,9.6c4.1-0.1,8.1,1,12.2,0.9c6.4-0.1,8.7,2.9,8.6,9c-0.1,5.8-2.5,8.4-8.5,8.3c-11.2-0.1-22.3-0.4-33.4-2.2
		c-6.5-1.1-9.3-3.7-9.1-10.7C207,335.2,208.4,206.1,208.1,159.9z"/>
	<path fill="#CB000A" d="M167.8,266c4.2-24.9,8.4-49.9,12.6-74.8c1.6-9.7,3.3-19.3,4.9-29c0.6-3.7,1.8-6.9,5.8-8.1
		c3.1-1,6.3-3.1,9.4-1.2c3.4,2.1,1.9,6,1.4,9c-9.3,58-18.7,116.1-28.1,174.1c-0.6,4-0.8,8.1-1.7,12.1c-0.6,2.7-0.3,6.7-4.4,6.7
		c-3.9,0-4.4-3.5-5-6.4c-1.1-5.6-2.2-11.2-3.1-16.9c-8.1-50-16.2-99.9-24.3-149.9c-0.6-3.5-1.6-7.2,0.4-10.4
		c2.2-3.4,6.1-4.7,9.9-4.8c4.5-0.1,4.6,4,5.1,7.1c4.7,28.2,9.3,56.4,13.9,84.6c0.4,2.6,1,5.3,1.6,7.9
		C166.8,266.1,167.3,266,167.8,266z"/>
	<path fill="#CB000A" d="M383.2,309c-0.4-10.5-3.8-20.2-8.1-29.7c-9.6-21.3-21.8-41.5-29.2-63.8c-2.8-8.3-4.4-16.8-3.6-25.7
		c1.4-15.2,11.1-26,25.2-27.9c13.7-1.9,25.7,7.3,27.2,21c0.4,3.3,0.8,7.1-3.3,8.1c-4,1-8.2,1-10.9-3.3c-0.1-0.2-0.3-0.5-0.4-0.7
		c-2.1-5.7-5.1-11.2-12.1-9.5c-7.9,1.9-8.8,9.3-8.5,15.9c0.8,14.1,6.1,27,11.8,39.7c8.2,18.4,19.2,35.6,24.6,55.1
		c4.3,15.5,5.7,31.2-4.4,45.4c-6.3,8.9-18.5,13.2-28.2,10.3c-9.6-2.8-17.7-13.4-18.8-23.7c-0.5-4.9,2-7,6.2-8c4-0.9,6.9,0,8.2,4.4
		c1.9,6.6,3.6,13.8,13,12.5c6.3-0.9,10.9-8,11.4-17C383.3,311.2,383.2,310.1,383.2,309z"/>
	<path fill="#CB000A" d="M456.6,296.5c0,4.3-16,14.9-16,14.9l-0.4-10l-0.6-10.4l-18.9,0.2l-1.1,6.5c0,0-2.3,15-3.1,22.6
		c-0.5,8.9-6.8,11.3-13.4,13c-5.5,1.5-4.6-3-4.1-6.2c2.8-19.4,5.7-38.8,8.5-58.1c3.4-24,6.7-47.9,10.4-71.9c0.6-3.6-0.7-10,4.5-10
		c5.8,0,11.9,3,13.5,9.9c2.7,11.4,5.1,22.8,7.4,34.3c4.3,20.8,8.5,41.6,12.7,62.4C456.3,294.7,456.5,295.7,456.6,296.5z M427.1,243
		c-1.3,9.2-2.8,18.4-3.9,27.7l11-0.2C434.1,270.4,427.6,242.9,427.1,243z"/>
	<path fill="#CB000A" d="M125.3,331.3c0,3.6,1.7,9.9-4.2,9.4c-5.5-0.4-12.5-1.7-13.4-9.5c-0.6-4.8-0.5-9.8-0.2-14.7
		c2-34,0.8-67.9,1.4-101.9c0.2-9.2,0.7-18.5,1.2-27.7c0.3-5.7,7.9-12.2,13.4-11.7c4.5,0.4,3.8,3.9,3.9,6.8
		C127.3,194.9,125.4,294.3,125.3,331.3z"/>
	<path fill="#CB000A" d="M80.2,318.8c-12.7,0-23.4-8.7-26.1-19.8c-1.4-5.9,1-8.6,6.3-10.2c5.1-1.5,8.2-0.5,9.5,5.3
		c1.4,6.3,4.7,11.4,12.3,10.2c5.6-0.9,9.2-8.9,7.6-16.1c-1.9-8.5-6.3-15.5-12.4-21.6c-8.7-8.8-15.9-18.6-18.6-31.1
		c-2.9-13.5,2.3-26,13.3-31.2c9.9-4.7,22.1-1.7,28.5,7.1c2.2,3,4.3,6.2,0.2,9.1c-3.3,2.3-6.8,5.2-10.6,0.5c-2.9-3.6-6-6.7-11.1-4
		c-4.7,2.5-4.5,7.1-4.3,11.5c0.4,8,4.3,14.6,8.8,20.7c4.8,6.6,10.2,12.8,15,19.4c12.1,16.6,9.2,36.4-6.5,46.4
		C88.1,317.6,83.8,319.1,80.2,318.8z"/>
</g>
</svg>
