<?xml version="1.0" encoding="utf-8"?>
<!-- Generator: Adobe Illustrator 22.1.0, SVG Export Plug-In . SVG Version: 6.00 Build 0)  -->
<svg version="1.1" id="Capa_1" xmlns="http://www.w3.org/2000/svg" xmlns:xlink="http://www.w3.org/1999/xlink" x="0px" y="0px"
	 viewBox="0 0 512 512" enable-background="new 0 0 512 512" xml:space="preserve">
<rect fill="#419639" width="512" height="512"/>
<path fill="#FFFFFF" d="M159.3,284c-4.2,8.5-11.5,12.7-19.9,15.5c-6.5,2.2-13.2,3.1-20,3.6c-4,0.3-8,0.5-12.1,0.4
	c-9.5-0.3-19-1.2-27.9-4.9c-6.3-2.6-11.7-6.3-15.4-12.2c-2.5-3.9-3.5-8.3-3.7-12.8c0-1,0.3-1.4,1.3-1.4c10,0,20.1,0,30.1,0
	c0.7,0,1.3,0.1,1.3,1c0,4.4,2.8,6.8,6.4,8.5c4.3,1.9,8.9,2.3,13.6,2.3c3.6,0,7.2-0.2,10.6-1.3c1.2-0.4,2.4-1,3.4-1.9
	c3.1-2.8,2.4-7.3-1.5-9.8c-3.2-2-6.7-2.8-10.3-3.6c-10-2.1-20.1-3.7-30-6.1c-5.8-1.4-11.4-3.7-16.2-7.4c-8.4-6.5-11.2-18-6.4-27
	c2.6-5,6.8-8.4,11.7-11.1c6.5-3.6,13.6-5.3,20.9-6.3c5.8-0.8,11.6-1.1,17.5-0.9c8.2,0.3,16.3,1,24.2,3.4c6.7,2,12.8,5,17.5,10.4
	c2.4,2.8,4,6,5,9.6c0-3.9,0-7.7,0-11.6c0-2.3,0-4.6,0-6.8c0-0.9,0.3-1.3,1.2-1.2c0.2,0,0.5,0,0.7,0c19.6,0,39.1-0.1,58.7,0
	c6.9,0,13.8,1.1,20.1,4.2c5.6,2.7,9.7,6.8,11.9,12.7c0,0.1,0.1,0.2,0.2,0.3c0.2-0.5,0.1-0.9,0.1-1.3c0-4.7,0-9.4,0-14.1
	c0-1.1,0.3-1.5,1.5-1.5c18,0,36-0.2,54,0.1c11,0.2,21.3,3,30.3,9.7c6.7,5,11.1,11.5,13.6,19.4c0.2,0.5,0.3,1,0.7,1.5
	c0-0.4,0-0.8,0-1.3c0-9.3,0-18.6,0-27.9c0-1.1,0.3-1.6,1.5-1.6c21.3,0,42.6-0.1,63.9,0.1c7.1,0,14,1.6,20.1,5.4
	c8,5,12.1,12.3,12.4,21.8c0.2,6-1.1,11.5-4.5,16.5c-2.5,3.7-5.9,6.4-9.9,8.4c-1.2,0.6-2.5,1.1-3.8,1.6c-1,0.3-1.1,0.7-0.6,1.5
	c2.3,3.5,4.4,7.1,6.7,10.6c4.4,7,8.8,14,13.1,21c0.2,0.4,0.7,0.7,0.4,1.2c-0.3,0.5-0.8,0.3-1.2,0.3c-10.7,0-21.5,0-32.2,0
	c-1,0-1.5-0.4-2-1.2c-5.6-10-11.2-19.9-16.8-29.9c-0.4-0.8-0.9-1.1-1.8-1.1c-4,0-8,0.1-12,0c-1.2,0-1.6,0.3-1.6,1.6
	c0,9.6,0,19.1,0,28.7c0,1.9,0,1.9-2,1.9c-9.4,0-18.7,0-28.1,0c-1.8,0-1.8,0-1.8-1.8c0-8.9,0-17.7,0-26.6c0-0.8,0-1.5,0-2.3
	c0,0-0.1,0-0.1,0c-0.5,1.4-0.9,2.8-1.5,4.1c-3.5,9-9.7,15.7-18.2,20.2c-6.5,3.4-13.5,5.2-20.7,6c-3.6,0.4-7.1,0.5-10.7,0.4
	c-15.7,0-31.3,0-47,0c-1.8,0-1.8,0-1.8-1.8c0-15,0-30,0-45c0-0.5,0-1,0-1.4c-0.3,0-0.3,0.2-0.4,0.3c-2.8,7.1-8.2,11.5-15.3,14
	c-5.5,1.9-11.2,2.7-17,2.7c-8.9,0-17.9,0-26.8,0c-1.9,0-1.9,0-1.9,1.8c0,9.2,0,18.5,0,27.7c0,1.6,0,1.7-1.6,1.7
	c-9.4,0-18.9,0-28.3,0c-1.6,0-1.7,0-1.7-1.7c0-4.8,0-9.6,0-14.4C159.3,284.4,159.3,284.2,159.3,284z M283.3,256.6
	C283.3,256.6,283.3,256.6,283.3,256.6c0,7.1,0,14.2,0,21.3c0,2.1,0,2.1,2.1,2.1c3.3,0,6.7,0,10,0c3.3,0,6.6-0.2,9.8-1
	c8.2-1.9,14.2-6.4,16.6-14.9c1.3-4.7,1.3-9.5,0.2-14.2c-1.3-5.8-4.5-10.2-9.7-13.1c-4.2-2.3-8.8-3.4-13.6-3.5
	c-4.6-0.1-9.2-0.1-13.8-0.1c-1.7,0-1.7,0-1.7,1.7C283.3,242.1,283.3,249.3,283.3,256.6z M159.3,263.9c0-0.4,0-0.8,0-1.2
	c0-7.7,0-15.4,0-23c0-1.8,0-1.8-1.8-1.8c-9.6,0-19.2,0-28.8,0c-1.1,0-1.7-0.2-1.6-1.5c0.1-0.5-0.2-1-0.4-1.4
	c-0.9-2.1-2.6-3.4-4.6-4.4c-5.6-3-11.7-3.1-17.8-2.6c-2.3,0.2-4.5,0.7-6.6,1.7c-4.3,2-4.7,6.5-0.9,9.3c0.4,0.3,0.9,0.6,1.4,0.8
	c1.5,0.7,3,1.3,4.6,1.7c5.5,1.4,11,2.3,16.6,3.4c7.6,1.5,15.2,2.6,22.5,5.4C149,253.1,155.4,256.8,159.3,263.9z M396.8,248.5
	c3.7,0,7.3,0,11,0c2.3,0,4.5-0.3,6.6-1.4c2.7-1.4,4-3.5,4-6.6c0-3.1-1.2-5.3-4-6.7c-2.1-1-4.4-1.3-6.6-1.3c-7.4-0.1-14.9,0-22.3,0
	c-1,0-1.4,0.3-1.4,1.4c0,4.4,0,8.8,0,13.2c0,1.1,0.3,1.5,1.4,1.5C389.3,248.5,393.1,248.5,396.8,248.5z M202.4,232.5
	C202.4,232.5,202.4,232.5,202.4,232.5c-3.4,0-6.8,0-10.2-0.1c-0.9,0-1.3,0.3-1.3,1.3c0,4.8,0,9.7,0,14.5c0,1,0.3,1.3,1.3,1.3
	c6.3,0,12.7,0,19,0c2.1,0,4.2-0.4,6.2-1.2c5.2-2.1,6.5-9.1,2.5-13c-2.1-2-4.7-2.6-7.5-2.8C209.1,232.4,205.7,232.5,202.4,232.5z"/>
<rect fill="none" width="512" height="512"/>
<path fill="#3D3D3D" d="M381,492.2H119.6c-7.6,0-13.8-6.2-13.8-13.8v-84.8c0-7.6,6.2-13.8,13.8-13.8H381c7.6,0,13.8,6.2,13.8,13.8
	v84.8C394.8,486,388.6,492.2,381,492.2z"/>
<g>
	<path fill="#FFFFFF" d="M229,460.6l-3.1-19.4h-0.8l-3,19.4h-13.1l6.5-29.6l-6.3-28.7h13.1l2.8,18.6h0.8l2.8-18.6h13.1l-6.3,28.7
		l6.5,29.6H229z"/>
	<path fill="#FFFFFF" d="M267.3,449.4v11.1h-22.6v-58.3h13.4v47.1H267.3z"/>
	<path fill="#FFFFFF" d="M283.6,413.4v12.3h8.1v11h-8.1v12.7h8.3v11.1h-21.7v-58.3h21.7v11.1H283.6z"/>
</g>
</svg>
