<?xml version="1.0" encoding="utf-8"?>
<!-- Generator: Adobe Illustrator 22.1.0, SVG Export Plug-In . SVG Version: 6.00 Build 0)  -->
<svg version="1.1" id="Capa_1" xmlns="http://www.w3.org/2000/svg" xmlns:xlink="http://www.w3.org/1999/xlink" x="0px" y="0px"
	 viewBox="0 0 512 512" enable-background="new 0 0 512 512" xml:space="preserve">
<g>
	<polygon fill="#002C5D" points="234.3,11.4 214.4,13.2 214.4,502.2 234.3,502.2 	"/>
	<rect x="246.1" y="9.8" fill="#002C5D" width="19.9" height="492.3"/>
	<polygon fill="#002C5D" points="297.6,13.3 277.8,11.4 277.8,502.2 297.6,502.2 	"/>
	<g>
		<path fill="#002C5D" d="M160.8,291.8c1.2-0.6,38.6-25.1,38.6-25.1v44.8L160.8,291.8z"/>
		<path fill="#002C5D" d="M174.3,232.1c15.2-18.4,25.2-36.5,25.6-37.3l0.9-1.6V18.6c-5,1.8-9.9,3.9-14.6,6.3v164.6
			c-2.7,4.7-11.3,19.1-23.2,33.4c-13.5,16.4-26.5,27-38.2,31.3c2.8,4.2,5.8,8.2,9,12.1C146.9,260.3,160.5,248.9,174.3,232.1z"/>
		<path fill="#002C5D" d="M200.1,238.9v-24.2c-0.2,0.4-28.7,47.4-61.1,55.7c3.4,4.3,7,8.5,10.7,12.4
			C181.1,272.4,199,240.7,200.1,238.9z"/>
		<path fill="#002C5D" d="M152.1,218.2c11.8-15.1,19.8-30,20.1-30.7l0.9-1.6V32.1c-5.1,3.1-9.9,6.5-14.6,10.2v139.9
			c-2.3,4.1-9.1,15.7-18,27.2c-9.8,12.6-19.1,21-27.1,24.6c2.1,4.4,4.4,8.7,6.9,12.9C130.4,242,141,232.4,152.1,218.2z"/>
		<path fill="#002C5D" d="M125.3,206.6c11.8-13.4,19.9-26.6,20.2-27.2l1.1-1.7v-125c-5.2,5-10.1,10.4-14.6,16.1v104.8
			c-2.5,3.9-9.1,13.8-17.7,23.6c-3.6,4.1-7.1,7.6-10.5,10.7c1.4,5.1,3,10.1,4.9,15C114,218.5,119.6,213.1,125.3,206.6z"/>
		<path fill="#002C5D" d="M117.2,175l1.4-1.9V88.4c-6.2,10.8-11.1,22.5-14.6,34.7v45c-1.2,1.4-3.2,3.6-5.8,6.1
			c0.3,5.9,0.9,11.8,1.9,17.5C110.6,184,116.8,175.6,117.2,175z"/>
	</g>
	<g>
		<path fill="#002C5D" d="M351.2,291.8c-1.2-0.6-38.6-25.1-38.6-25.1v44.8L351.2,291.8z"/>
		<path fill="#002C5D" d="M337.7,232.1c-15.2-18.4-25.2-36.5-25.6-37.3l-0.9-1.6V18.6c5,1.8,9.9,3.9,14.6,6.3v164.6
			c2.7,4.7,11.3,19.1,23.2,33.4c13.5,16.4,26.5,27,38.2,31.3c-2.8,4.2-5.8,8.2-9,12.1C365.1,260.3,351.5,248.9,337.7,232.1z"/>
		<path fill="#002C5D" d="M311.9,238.9v-24.2c0.2,0.4,28.7,47.4,61.1,55.7c-3.4,4.3-7,8.5-10.7,12.4
			C330.9,272.4,313,240.7,311.9,238.9z"/>
		<path fill="#002C5D" d="M359.9,218.2c-11.8-15.1-19.8-30-20.1-30.7l-0.9-1.6V32.1c5.1,3.1,9.9,6.5,14.6,10.2v139.9
			c2.3,4.1,9.1,15.7,18,27.2c9.8,12.6,19.1,21,27.1,24.6c-2.1,4.4-4.4,8.7-6.9,12.9C381.6,242,371,232.4,359.9,218.2z"/>
		<path fill="#002C5D" d="M386.7,206.6c-11.8-13.4-19.9-26.6-20.2-27.2l-1.1-1.7v-125c5.2,5,10.1,10.4,14.6,16.1v104.8
			c2.5,3.9,9.1,13.8,17.7,23.6c3.6,4.1,7.1,7.6,10.5,10.7c-1.4,5.1-3,10.1-4.9,15C398,218.5,392.4,213.1,386.7,206.6z"/>
		<path fill="#002C5D" d="M394.8,175l-1.4-1.9V88.4c6.2,10.8,11.1,22.5,14.6,34.7v45c1.2,1.4,3.2,3.6,5.8,6.1
			c-0.3,5.9-0.9,11.8-1.9,17.5C401.4,184,395.2,175.6,394.8,175z"/>
	</g>
</g>
</svg>
