<?xml version="1.0" encoding="utf-8"?>
<!-- Generator: Adobe Illustrator 22.1.0, SVG Export Plug-In . SVG Version: 6.00 Build 0)  -->
<svg version="1.1" id="Capa_1" xmlns="http://www.w3.org/2000/svg" xmlns:xlink="http://www.w3.org/1999/xlink" x="0px" y="0px"
	 viewBox="0 0 512 512" enable-background="new 0 0 512 512" xml:space="preserve">
<polygon fill="#C2233A" points="0,0 512,0 512,512 0,512 0,0 "/>
<g>
	<path fill="#FFFFFF" d="M256,474.8L317.5,129c58.6,0,77.1,6.4,79.8,32.7c0,0,39.3-14.7,59.1-44.4C379,81.4,301.3,79.8,301.3,79.8
		L255.9,135l0.1,0l-45.4-55.3c0,0-77.7,1.6-155.1,37.5c19.8,29.8,59.1,44.4,59.1,44.4c2.7-26.2,21.1-32.7,79.4-32.7L256,474.8"/>
	<path fill="#FFFFFF" d="M256,63.8c62.5-0.5,134.1,9.7,207.4,41.6c9.8-17.6,12.3-25.4,12.3-25.4C395.6,48.3,320.6,37.5,256,37.2
		C191.4,37.5,116.4,48.3,36.3,80c0,0,3.6,9.6,12.3,25.4C121.8,73.5,193.4,63.4,256,63.8L256,63.8"/>
</g>
</svg>
