<?xml version="1.0" encoding="utf-8"?>
<!-- Generator: Adobe Illustrator 22.1.0, SVG Export Plug-In . SVG Version: 6.00 Build 0)  -->
<svg version="1.1" id="Capa_1" xmlns="http://www.w3.org/2000/svg" xmlns:xlink="http://www.w3.org/1999/xlink" x="0px" y="0px"
	 viewBox="0 0 512 512" enable-background="new 0 0 512 512" xml:space="preserve">
<g>
	<path id="XMLID_78_" fill="#211915" d="M425.5,378.4c-2.3-7.4-5.9-14.5-10.6-20.5c-4.7-6-10.6-11.1-17.4-14.3
		c-6.7-3.2-14.5-4.3-21.5-2.4c-7.1,1.7-12.8,6.8-16.3,12.4c-2,3.1-3.4,6.4-4.5,9.7c-1.8,4.7-3.3,10.9-4.3,16.9
		c-1.3,7.7-2.2,15.5-3.6,20.6c-0.2,0.4-0.3,0.8-0.5,1.3c-1.2-0.8-2.4-1.5-3.6-2.1c-2.4-1-4.8-1.5-7-1.5c-0.5,0-0.9,0-1.4,0
		c-0.9,0-1.7,0.1-2.6,0.3c-7.7-8.7-15.8-16.8-22.8-23c4.9-2.8,8.6-6.7,10.8-9.7c2-2.1,3.1-3.6,3.2-3.6c0.1-0.2,0.1-0.4,0.1-0.6
		c-0.8-1.8-1.4-3.5-1.9-5.1c-1-4.5-2.1-11.1-1.7-17.8c3-4.3,6.2-10,8.1-16.3c1.2-3.6,1.9-7.3,2.3-10.8c1-5.9,1.4-12.2,0.7-18.5
		c1.7,0.4,3.4,0.6,5.2,0.6c0.6,0.6,1.3,1.2,2.1,1.8c3.6,2.6,7.8,3.5,11.8,3.4c3.8,0,7.8-1.1,11.2-3.4c3.8-2.5,6.6-6.6,7.8-10.9
		c3.1,0.4,6.9-0.2,9.9-2.7c2.5-2,3.8-5,4.4-8.1c0.5-0.4,1-0.8,1.5-1.3c0.6-0.6,1.2-1.3,1.7-2c1-1.2,1.9-2.7,2.5-4.4
		c1.6-4.1,1.9-9.1,0.6-14c0.1,0,0.1-0.1,0.2-0.2c1.6-3.4,2.7-6.8,3.2-10.1c0.1-0.7,0.3-1.4,0.4-2.2c0.5-3.8,0.5-8.6-1.7-13.2
		c-2.1-4.6-6.8-8.4-12-9.5c-10.2-2.2-20.4-0.8-27.9-0.6c-1,0.1-2,0.1-2.9,0.2c-2.5,0-4.8,0-7.2-0.1c-3-1.6-6.2-2.9-9.6-3.8
		c-6.3-1.8-12.9,0.3-18.1,3.2c-1,0.5-1.9,1.1-2.9,1.7c-2.9-0.1-5.5-0.3-7.7-0.7c1.3-0.6,2.5-1.3,3.5-2c2.7-1.4,6-3.5,8.8-6.5
		c1.5-0.5,3.1-1,4.6-1.5c12.3-4.3,23.3-14.5,25.8-27.1c1.1-5.1,1-10.2-0.3-15c3.9-3.3,7.2-8.6,8.5-16.2c2.2-13.3-7.5-21.8-15.7-21.5
		c-8.2,0.3-13.1,9.1-13.7,20.7c0,0.5,0,1.2-0.1,2.1c-1.2,0.1-2.3,0.2-3.5,0.5c-0.4-8.2-2.6-17.7-8-26.8c-5.6-9.6-14.9-18.4-26.6-24
		c-9.5-4.6-20.5-7.2-31.8-7c10-9.8,14.4-23.3,10.4-36c-6-19-29.1-28.7-51.4-21.6c-22.4,7.1-35.6,28.3-29.5,47.3
		c4.2,13.2,16.5,21.9,31.1,23.6c-2.2,1.6-4.3,3.5-6.3,5.4c-8.5,8.2-14.5,18.9-17.2,30.2c-7.3-15.4-22-25.1-37.5-22.9
		c-19.8,2.7-33.2,23.8-30,47c3.2,23.2,21.9,39.9,41.6,37.1c13-1.8,23.2-11.4,27.8-24.4c1.2,3.5,2.7,6.8,4.4,9.8
		c11.7,21.4,31.9,32.7,47.9,36.6c-2.1,0.3-4.8,0.5-8.6,1.1c-1.2,0.2-2.6,0.4-4,0.6c-9.8,1.7-22.7,5.6-34.4,11.9
		c-8.4,4.6-16.3,10.2-22.5,15.9c-6.7-1.2-14.1,0.6-18.8,5.1c-0.1,0.1-0.3,0.3-0.4,0.4c-0.7,0-1.4,0-2.1,0c-4.4,0-9.7,0.7-15.1,2.8
		c-7,2.6-13.8,7.8-19,14.3c-5.2,6.5-8.6,14.5-9,22.1c-0.3,5.7,0.9,11.3,3.6,14.8c0.8,1.1,1.6,2,2.6,2.7c0,0.1,0,0.3-0.1,0.4
		c-0.4,3.7-1,8.4,1.4,13.1c2.7,4.7,7.8,6.5,12.6,7.7c0.1,2.7,0.5,5.6,2.1,8.4c2.8,4.9,8.6,7.4,14.1,8c5,0.5,9.9-0.4,14.3-2.1
		c4.1-1.5,8.1-3.9,11.2-7.3c3.2-3.4,5.2-7.9,5.7-12.6c3.5,0.5,8.4,0.8,13.1-1.8c5.4-2.7,9.1-9,10.1-15.4c2.1-11.9-2.6-24-8.2-29.4
		c3.3-3.4,5.5-8.1,5.6-13.2c3.7-2.5,7.4-5.1,11.3-7.2c1.6-0.9,3.1-1.7,4.7-2.5c1.5-0.7,3.1-1.4,4.6-2c10.9-4.8,23.5-5.7,30.5-6.2
		c0,0,0,0,0,0.1c0,0,0.5,1.7,1.1,4.6c1.1,7,1.3,15.9-1.2,25c-2.9,11.1-13.5,21-15.5,34.9c-0.5,2.7-0.8,5.3-0.8,8
		c-8.9,8.2-19.9,14.5-30.9,19.5c-12.1,5.4-24.3,10.1-36.3,14.4c-23.9,8.7-47.8,16.6-64.8,28.6c-8.4,5.9-15.7,12.9-18.4,21.2
		c-1.4,4.1-1.1,8.5,0.5,11.9c1.6,3.4,4.5,5.7,7.3,6.9c5.7,2.3,10.7,1.6,13.8,1.2c3.2-0.5,4.8-1,4.8-1c0,0-1.7,0.4-4.8,0.7
		c-3.1,0.3-8.1,0.8-13.5-1.7c-5.5-2.1-9.7-9.8-6.7-17.6c2.8-7.6,9.9-14.2,18.3-19.7c16.9-11.3,39.1-19.1,63.1-27.4
		c12-4.2,24.4-8.6,36.7-14c10.2-4.5,22.3-8.7,31.1-16.1c0.9,8.3,3.4,16.3,6,23.2c1.2,3.4,2.4,6.7,3.3,9.8c-4.4,4-9.5,6.8-14.4,8.6
		c-0.8-0.7-1.6-1.4-2.5-2c-1.7-1.4-3.7-2.6-6-3.6c-2.1-1-4.6-1.5-7.2-1.6c-3.3-1.1-6.7-1.8-10.1-2c-0.9-0.1-1.9-0.1-2.9-0.1
		c-8.8,0.3-19.9,5.4-28.1,13.6c-3.9,4-7,8.6-9.3,13.2c-5.1,9.6-7.7,21-7.9,32.4c0.1,12,4,24,11.3,32.8c8,8,18.1,11.3,26.5,13.4
		c7.5,2.1,16.5,3.5,26.1,3.6c9.8,0.3,20.4-1.5,30-5.8c5.9-2.7,11.6-6.3,16.2-10.8c3-2.8,5.6-6.1,7.7-9.9c3.7-6.6,3.7-15.2,0.1-21.4
		c-0.6-1.1-1.3-2.2-2-3.1c-1.8-2.7-4.4-5.2-7.5-7c-5.7-3.4-11.9-4.7-16.3-5.2c-0.1,0-0.1,0-0.2,0l-0.5-0.1c-0.7-1-1.4-2-2.1-2.9
		c-0.1-0.2-0.3-0.5-0.4-0.7c-0.7-1.2-1.6-2.6-2.6-4.1c-0.5-0.7-1-1.4-1.5-2.1l0-0.2l-0.2-0.7c0,0-0.3-1.5-0.3-1.5
		c5.9-1.6,11.2-3.8,15.4-6c0.9-0.5,1.8-0.9,2.6-1.4c2.6-1.3,5.1-2.7,7.3-4.1c4,0,8.3-0.4,12.7-1.4c8.2,7.9,20.3,20,31.2,33.1
		c1.6,1.8,3.1,3.6,4.5,5.3c0,0.1,0,0.3,0,0.4c0,1,0.1,2,0.2,3c0.6,6,3,13.4,9.5,18.7c0.6,0.5,1.3,1,2,1.4c0,0.9,0,1.7,0,2.6
		c0,4.3,0.5,9.7,3.4,15c1.8,3.3,4.6,6.4,8.1,8.6c3.5,2.3,7.8,3.2,11.8,3.6c8.9,0.7,17.2-1.5,24.2-4.5c1.6-0.6,3.1-1.3,4.6-2
		c12.6-6.2,24.2-15.9,33.2-28.2c8.8-12.3,15.1-27,16.9-42.5C429,393.8,427.9,385.7,425.5,378.4"/>
	<path id="XMLID_77_" fill="#FFFFFF" d="M180.4,331l0-0.3c0.1-0.1,0.2-0.3,0.4-0.4c3.5-3.8,6.4-8.6,7.6-12.8
		c0.7-2.1,0.8-3.8,0.8-4.9c0-0.6,0-2.1-0.5-2.3c0,0-0.1-0.1-0.3,0c0,0-0.1,0-0.2,0c0,0,0,0,0,0c-0.1,0-0.1,0.1-0.2,0.2c0,0,0,0,0,0
		c0,0.1-0.1,0.2-0.1,0.4c-0.2,1.9-0.9,3.8-1.8,5.6c-1.6,3.3-4.6,7.3-8.1,11.1c-1.4,1.5-2.8,2.9-4.2,4.3l0,0c-1.9,1.9-4.1,4-5.7,6
		c-2.1,2.7-1.2,4.9-0.9,4.4c0.5-1.1,1.1-1.9,2-2.7c1-1,3.2-2,4.6-3.1c0.8-0.6,1.5-1.2,2.2-1.8c-1.5,5.8-6,11.2-12.3,14.2
		c-4.7,2-10,2.9-14.7,2.3c-5.4-0.6-9.9-2.9-11.9-6.2c-2.3-3.6-2.3-8.1-2.4-11.8l0-0.6c0.3-7.4-1-13-1.7-13.7c0-0.1-0.1-0.2-0.3-0.2
		c0,0,0,0-0.1,0c0,0-0.1,0-0.1,0c0,0,0,0,0,0c0,0,0,0,0.1,0h-0.1c0,0,0,0,0,0c0,0-0.1,0-0.1,0c0,0,0,0,0,0c0,0-0.1,0-0.1,0l0,0
		c0,0,0.1,0,0.2,0c0,0,0,0,0,0c0,0,0,0,0,0c-0.1,0-0.2,0.1-0.2,0.1h0c0,0,0,0,0,0v0v0c0,0,0,0.1-0.1,0.2c0,0,0,0,0,0v0h0h0
		c0,0,0,0,0,0c0,0,0,0,0,0c0,0,0,0,0,0c0,0,0,0,0,0c0,0,0,0,0,0v0.1c0,0,0,0,0,0.1c0,0.1,0,0.1,0,0.2c0,0,0,0,0,0
		c0,0.2,0.1,0.4,0.1,0.7c0.1,0.5,0.7,4.9-0.2,12.1c0-0.1,0-0.2,0.1-0.2c-0.1,0.1-0.1,0.1-0.2,1.2c0,0,0,0.6,0,1
		c-5-1.4-8.2-3.2-9.6-5.5c-2.1-3.7-2-8.4-1.9-11.6c0.8-10.4,0.8-12.2,0.5-12.7c0-0.1-0.1,0-0.1-0.1c0,0,0-0.1-0.1-0.2c0,0,0,0-0.1,0
		c0,0,0,0,0,0c0,0,0,0,0,0l0,0h0c0,0,0,0,0,0c0,0,0,0,0,0s0,0,0,0c0,0-0.1-0.1-0.2-0.1c0,0,0,0,0,0c0,0-0.1,0-0.1,0
		c-0.3,0-0.5,0.2-0.5,0.5c0,0.1,0,0.3,0.1,0.4c0,0,0-0.1,0-0.1c0,0.4-0.4,2.8-0.8,5.2l-0.1,0.4l-0.6,3.6c-0.4-0.4-0.7-0.8-1-1.2
		c-2-3.2-2.8-8.2-2.2-13.5c0.7-6.7,3.8-13.8,8.9-20.2c4.9-6.2,11.1-11.1,17.4-13.9c5.3-2.4,10.2-3.2,13.7-3.5
		c-3.1,4.1-4.6,9.3-3.9,13.9c0.2,1.2,0.5,2.5,0.9,3.7c2.6,8.8,10.6,14.5,20.9,14.6c1.1,0.1,2.2,0,3.5,0c4.1-0.2,10.2-1.4,15.6-5.3
		c0.5-0.4,1.1-0.9,1.7-1.4c2.2,2.8,4,6.8,5.1,11.4c1.3,5.3,1.5,10.7,0.6,15.8c-1,6.1-4,11.2-8.1,13.6
		C187.6,330.9,183.6,331.1,180.4,331"/>
	<path id="XMLID_76_" fill="#FFFFFF" d="M172.8,257.8c-1,1.1-2,2.1-2.8,3.2c-1,1.4-1.8,2.8-2.4,4.3c-2.1,4.5-1.9,8.8,0.5,12.5
		c1.7,2.7,6,5.2,11.8,4.9c1.1,0,2.1-0.1,3.1-0.3c4.6-0.9,9.1-3.5,13.2-6.2c-0.9,3.9-3.2,7.7-6.4,10.2c-4.6,3.7-10,5-13.7,5.5
		c-1.2,0.1-2.5,0.2-3.8,0.2c-8.8-0.4-15.5-5-17.9-12.3c-0.4-1.3-0.6-2.6-0.7-3.9c-0.4-4.9,1.9-10.3,6-13.7
		C163.1,259.2,167.9,257.7,172.8,257.8"/>
	<path id="XMLID_75_" fill="#FFFFFF" d="M241.9,412.9c0,0,0.3,0.1,0.9,0.2c3,0.6,12.2,2.6,19.9,7.5c2.7,1.6,5.1,3.6,7,5.9
		c0.6,0.9,1.2,1.9,1.6,2.7c2.9,5.6,2.7,12.7-0.5,18.5c-1.8,3.4-4.3,6.7-7.4,9.6c-4,3.7-9.2,7-14.8,9.6c-18.3,8.4-39.5,6.4-54.2,3.3
		c-7.1-2-17.5-5.6-24.8-13.4c-6.3-8-10.1-19.5-10.2-30.9c0.3-11.4,2.7-22.1,7.1-30.8c2.6-4.8,5.7-9.1,9.2-12.5
		c7.3-7.5,17.4-13,25.8-14c1.2-0.1,2.4-0.1,3.6-0.1c0.8,0,1.8,0.3,2.7,0.4c-0.2,0.1-0.3,0.1-0.5,0.1c-5.4,1.6-10,5.5-12.5,10.5
		c-2.6,5.1-3.2,11.3-1.7,17.1c1.5,5.7,5.1,10.8,10,13.9c5.5,3.5,11.5,4.3,15.6,4.3c5.1,0,10.2-1.8,13.6-4.9c1.8-1.6,3.2-3.4,4.3-5.6
		c0.3-0.6,0.6-1.2,0.8-1.9l0,0.1l0.9,1.9c0,0,0.5,0.5,0.5,0.5c0,0,1,1,1,1l2,2.2l1.4,1.5l0.5,0.6l0.2,0.3c0.3,0.4,0.5,0.8,0.8,1.1
		c-0.8,0-1.7,0-2.8,0C240.7,411.8,241,412.7,241.9,412.9"/>
	<path id="XMLID_74_" fill="#FFFFFF" d="M226.4,375.1c0.5,0.3,0.9,0.7,1.3,1c-2.6,0.9-5.4,1.7-8.2,2.3c-1.6,0.2-3.4,0.4-5.1,0.6
		c-0.8,0.1-1.6,0.2-2.3,0.3c0.5-0.8,1-1.5,1.2-1.7c0,0,0,0,0,0c0,0,0-0.1,0.1-0.1c0-0.1,0.1-0.1,0.1-0.2c0,0.1-0.1,0.1-0.2,0.2
		c0.1,0,0.2-0.2,0.2-0.4c0,0,0-0.1,0-0.1s0,0,0,0c0-0.1-0.1-0.1-0.2-0.2c0,0,0-0.1-0.1-0.1c0,0,0,0,0,0c0,0,0,0,0,0c0,0,0,0,0,0
		c-0.1-0.1-0.3-0.1-0.4,0v0c0.1-0.1,0.2-0.1,0.4,0v0c0,0,0,0,0,0c0,0-0.1-0.1-0.2-0.1c-0.1,0-0.1,0-0.2,0c0,0,0,0,0,0c0,0,0,0,0,0
		c0,0,0,0-0.1,0c0,0,0,0,0,0l0,0c0,0,0,0,0,0c-0.9,0.4-3,1.8-4.2,5.2c-1.3,3.5-1.3,9.3,1.5,14.3c1,1.9,2.5,3.5,4.6,4.7
		c0.7,0.5,1.6,1,2.5,1.4c4.9,1.8,10.2,1.1,14.3,0.6l0,0c1.4-0.2,2.6-0.5,3.8-0.7c-0.1,0.2-0.2,0.4-0.3,0.6c-1.1,2.1-2.6,3.9-4.4,5.3
		c-3.1,2.5-7.4,3.9-11.8,3.7c-3.6-0.1-8.8-0.9-13.5-4.1c-4.1-2.7-7.1-7-8.3-11.8c-1.3-4.8-0.8-10.1,1.3-14.4c2-4.2,5.7-7.5,10.2-9
		C216,369.3,222.9,372.8,226.4,375.1"/>
	<path id="XMLID_73_" fill="#CC2131" d="M307.8,349.7c0,0-0.1,0-0.2,0.1c-1.4,0.9-9.2,4.9-17.2,5.1c-2.6-1.6-5.2-3.2-7.7-4.4
		c-0.2-1.5-0.6-3.3-1.7-4.7c-1-1.5-2.2-2.8-3.3-3.8c-2-1.9-4.3-3.7-7-5.4c-1.8-1.1-3.6-2.1-5.4-3.1c-2.1-1.1-2.3-1-2.5-1
		c-0.1,0-0.1,0-0.2,0.1c0,0-0.2,0.1-0.2,0.3c0,0.1-0.1,0.2,0,0.3c0,0.2,0.1,0.3,0.7,0.7l0.3,0.2c1,0.7,3.1,2.1,5.6,4.1
		c2.3,1.9,4.2,3.6,5.9,5.3v0c0.1,0.1,0.2,0.3,0.4,0.5c1.3,1.4,2.5,3,3.2,4.5c0,0-0.1,0-0.1,0l-0.5-0.3c-3.8-1.7-9.7-3.9-16.3-5.1
		c-0.2,0-0.3,0-0.3,0c0,0,0,0,0,0c0,0,0,0-0.1,0c-0.6,0-0.7,0.6-0.7,0.7h0c0,0.1,0,0.1,0.1,0.2c0,0,0,0-0.1,0c0,0,0,0,0.1,0
		c0,0,0,0,0,0.1c0.1,0.2,0.3,0.2,1.1,0.4l0.1,0c2,0.6,7.4,2.3,14,5.6c4.5,2.2,9.3,5.2,14,8.6c2.6,1.9,5,3.9,7.3,5.8
		c1.2,1,2.4,2.1,3.6,3.2c0.1,0,0.1,0.1,0.2,0.2c-6.6-1.8-16.9,0.2-26.3,5.4c-3.1,1.6-6,3.3-8.9,5.1c-5.4,3.2-10.6,6.3-14.8,7.1
		c-0.4,0.1-0.8,0.1-1.2,0.1c0-0.8,0-1.6-0.1-2.5c-0.1-4.1-0.9-8.8-2.2-14.1c0,0,0,0,0,0c0,0,0,0,0,0c0,0,0,0,0,0c0-0.1,0-0.1,0-0.1
		c0,0,0,0,0,0.1l0,0v0v0c0,0,0,0,0-0.1c-0.9-3.8-2.1-7.9-3.6-12.2c-3.9-11.6-7.1-24.1-4.7-36.6c0.9-6.9,4.3-13.1,7.7-19
		c0,0,0-0.1,0-0.1c2.8-5,5.7-10.1,7-15.6c0.4-1.4,0.6-2.9,0.8-4.4c0.7,1.2,1.5,2.3,2.5,3.2c2.6,2.3,6.1,4.1,10.8,5.5
		c7.7,2.3,17.1,3.1,27,2.3c1.2,2.2,3.3,4.1,5.9,5.3c6.1,2.8,12.5,1.4,15.7,0.3c3.1-1.1,6.1-2.7,9.1-5.1c0.7,0.3,1.2,0.5,1.8,0.7
		c0.7,6.5,0.5,13.3-0.6,20.2c-0.6,3.1-1.4,5.9-2.2,8.4c-1.6,5.5-5.2,14.5-12.8,25.8c0,0-0.2,0.3-0.2,0.3c-0.3,0.4-0.4,0.6-0.4,0.9
		c0.1,0.6,0.6,0.5,0.6,0.5c0,0,0.2,0,0.2,0c0.2-0.1,0.5-0.4,1.7-1.6c0.6-0.7,1.6-1.8,2.8-3.2c0.5,5,1.8,9.5,2.9,12.3
		c0.5,1.8,1.2,3.7,2,5.5c-0.5,0.6-1.3,1.6-2.7,3c-4.1,3.5-8,6.2-11.7,8.1l-0.9-0.8c0-1.6-0.1-3.1-0.8-5c-0.2-0.6-0.8-1.4-1.2-1.7
		c0,0-0.9-0.9-0.9-0.9c-0.3-0.2-0.5-0.5-0.8-0.7c-0.2-0.2-0.4-0.3-0.5-0.5l-0.6-0.5c-1.9-1.6-4-3.3-6.3-4.9c4-1,7.4-2.7,9.5-4.2
		c1.5-1,3.1-2.6,3.7-3.2C308.9,350.2,309.3,349,307.8,349.7"/>
	<path id="XMLID_72_" fill="#FFFFFF" d="M243.8,218.2c0,0,0.2,0.2,0.3,0.5l0.3,0.5l0.3,0.5c0.5,0.9,1.4,2.2,2.4,3.8
		c-5.4-1.4-11-3.6-16.2-6.4c-1.3-0.9-2.4-1.7-3.4-2.4c-1.8-1.5-3.5-3.1-5.1-4.7c-4.4-4.5-7.5-9.3-9.1-14.1c-2.2-6-1.8-12.6,0.9-17.9
		c2.7-5.2,7.7-9.5,13.8-11.8c6.2-2.4,12.5-2.5,16.6-2.2c2.3,0.2,4.5,0.5,6.6,1c3.2,0.8,6.4,2,9.6,3.5l1.7,0.8
		c0.2,0.1,0.5,0.1,0.7-0.1c0.2-0.2,0.2-0.5,0-0.7c0,0-1-1.6-1-1.6c-2-3.3-3.8-6.7-5.3-10c-1.1-2.8-2-5-2.7-7
		c-5.3-15.6-6.4-28.9-3.5-39.7c1-3.6,2.7-6.6,4.9-8.7c2.7-2.7,6.1-3.3,8.6-3.4c5.4-0.2,11.1,1.7,17.1,5.7c2.2,1.5,4.2,3,6,4.6
		c2.7,2.6,5.2,5.3,7.5,8.3l1.2,1.6c0,0,0,0,0,0.1c0.1,0.1,0.4,0.1,0.6,0.1c0.3,0,0.5-0.3,0.4-0.6l-0.2-2c-0.1-1.3-0.3-3.9-0.4-6.1
		c5.9,4.4,11,9.8,14.6,15.6c6,9.5,7.8,18.9,8.3,25.3c-1,0.2-1.9,0.5-2.8,0.9c0-3.2-0.4-6.5-1.2-9.8c-0.6-2.6-1.5-4.9-2.6-7.1
		c-0.5-0.9-1.2-2.2-2.3-3.4c-0.6-0.7-1.8-1.5-3-1.4c-0.9,0-1.6,0.4-2.2,1.1c0.1-0.1,0.2-0.1,0.3-0.1c-0.1,0-0.4,0.1-0.4,0.4
		c0,0,0-0.1,0-0.2c-1.2,2.4-0.9,4.6-0.7,6.6c0,0.2,0,0.4,0.1,0.6c0,0.4,0,0.7,0.1,1c0.3,2.2,0.7,4.4,1,6.5l0.1,0.8c0,0,0,0,0-0.1
		c0,0,0,0,0.7,3.9c0.5,2.8,0.9,5,1.3,6.9c-2.1,2-3.3,3.8-3.8,4.4c-0.1,0.2-0.5,0.9-0.2,1.2c0.1,0.1,0.3,0.2,0.7,0
		c0.1-0.1,0.3-0.2,0.6-0.5c0.8-0.8,3.2-3.2,7-5.4c3.2-2,7.5-3.1,11.8-3.3c0,9,2.5,14.4,7.7,15.9c3.6,1,7.9,0.2,11.7-2.1
		c0.7,3.9,0.6,8-0.4,12.1c-1.2,5.4-4.2,10.6-8.6,15c-4.2,4.2-9.6,7.5-15.5,9.6c-15.1,5.7-32.8,5.8-47.3,0.3
		c-6.2-2.2-11.7-5.8-16.3-10.7c-4.5-4.7-7.1-9.4-8.5-12.6c2.7-0.4,5.3-0.6,8.2-0.6c1.2,0,0.7-0.9,0.7-0.9c-0.3-0.6-3.7-1.3-4.1-1.4
		c-2-0.4-5.1-0.7-8.3,0c-6.3,1.1-10.2,6.3-10.3,6.7c-0.1,0.2,0,0.4,0.1,0.6c0,0,0,0,0.1,0c0.1,0.1,0.3,0.2,0.5,0.2c0,0,0.1,0,0.1,0
		c0.1,0,0.1,0,0.2-0.1l0.1,0c1.9-1.2,5.7-3.3,9.8-4c2.7,3.9,4.5,10.5,5.2,19.6c0.3,4.1,0.8,9,2.3,14c1.7,5.9,4.3,10.3,7.8,13.2
		c3.9,3.3,9.8,4.4,15.4,2.9c5.2-1.4,9.2-4.3,12.7-7c1.9-1.5,3.6-3,5.1-4.2c4.5-3.8,8.7-7.3,12.8-8.6c0,0,0,0,0,0
		c1.6-0.2,2.9-0.5,4.3-0.7c-1.2,1.1-2.5,2.2-4,3.2c-1.4,0.9-2.9,1.7-4.5,2.4c-0.1,0.1-0.3,0.2-0.4,0.3c0,0,0,0,0,0
		c-1.9,2-3.9,3.9-6.1,5.9c-0.7,0.5-1.3,1.1-2.1,1.6c-7.3,5.8-14.4,9.4-21,10.6c-4.1,0.8-8.2,0.3-11.5-1.5c-3.3-1.7-5.9-4.4-8.2-7.1
		c-5.9-7.3-6.9-8.4-7.2-8.7C243.7,216.4,243.4,217.4,243.8,218.2"/>
	<path id="XMLID_71_" fill="#FFFFFF" d="M309.4,146.1c-0.5-0.2-1.2-0.2-1.6,0c0-0.1-0.1-0.6-0.1-0.6c-0.3-2.1-0.6-4.3-0.8-6.5
		l-0.1-0.9c-0.2-2.1-0.4-4.5,0.4-6c0.1-0.2,0.3-0.3,0.6-0.3c1,0.1,2.6,2,3.4,3.6c1,2,1.9,4.2,2.6,6.6c1.3,4.2,1.6,7.9,1.8,10.2
		c-0.8,0.3-1.5,0.7-2.1,1.1C312.2,148.3,310.6,146.6,309.4,146.1"/>
	<path id="XMLID_70_" fill="#CC2131" d="M284.5,222.7c-3,2.1-6.6,4.4-10.7,5.4c-4.5,1.1-9.3,0.2-12.4-2.4c-5.7-5-7.6-12.9-8.7-20
		c5.1,0.5,10.1,2.7,12.8,5.8c1.7,1.8,3,3.9,3.9,6.1c0.2,0.4,0.3,0.6,0.5,0.7c0,0,0.1,0,0.2,0c0.1,0,0.2-0.1,0.2-0.1
		c0.1,0,0.2,0,0.3,0c0.1-0.1,0-0.2,0-0.3c0,0-0.1,0.1-0.1,0.1l0,0c0.1,0,0.1-0.1,0.1-0.1c0,0,0,0,0,0s0,0,0,0s0,0,0-0.1
		c0,0,0-0.1,0-0.1c0,0,0,0,0-0.1c-0.3-2-1.1-3.8-2.1-5.7c3.8,0.3,11.9,1.5,16,6.4C286,219.9,285.1,221.7,284.5,222.7"/>
	<path id="XMLID_69_" fill="#FFFFFF" d="M345,232c0,0,5.7-0.3,10.8,1.6c1.8,0.5,3.7,1.3,5.7,2.4c1.1,1.1,2.1,2.1,3,3
		c-0.9-0.2-1.9-0.4-2.7-0.4c-1.8,0-3.2,0.5-3.7,0.8c0,0-1.2,1.1,0.3,1.1l0,0c0,0,0,0,0,0c0,0,0.1,0,0.1,0c0.8,0,5.6,0.6,9.1,3.3
		c1.1,0.7,2.2,1.7,3.4,2.7c0.9,1.1,1.7,2.2,2.4,3.3c3.9,6.7,6.1,13.2,6.6,19.3c0.4,4.7-0.8,8.7-3.2,10.8c-2.8,2.7-6.9,3-9.7,2.5
		c-0.9-0.2-1.7-0.4-2.5-0.5l-0.9-0.2h-0.1c-1.4-0.3-2.5-0.5-3.6-0.6c2.2-1.9,2.5-2.3,2.5-2.5c0-0.2,0-0.4-0.2-0.6c0,0,0,0,0,0
		c-0.5-0.3-3.7,0-5.9,1.8c-2.6,1.9-2.9,5.3-2.5,5.9c0.1,0.1,0.2,0.2,0.4,0.3c0.1,0,0.3,0,0.4-0.1c0.1,0,0.2-0.1,0.3-0.3
		c0,0,0,0.1,0,0.1c0.1-0.2,1.7-1.9,3.5-3.1c0.1,0,0.2,0,0.3,0c1,0.1,2.1,0.5,3.5,1l0.6,0.2l1.1,0.3c0.5,0.2,1.1,0.4,1.6,0.5
		c-1.8,5.9-7.2,10.5-13.7,11.4c-4.4,0.4-8.5-0.6-11.6-2.9c-3.1-2.2-5.2-5.9-5.6-9.8c-0.4-2.4,0-4.8,0.3-7.1c0.2-1.4,0.4-2.8,0.4-4.1
		c0.1-3.7-0.2-6.6-0.5-8.4c-0.2-1.1-0.4-1.9-0.5-2.3c-0.2-0.8-0.3-1.1-0.6-1.1c0,0-0.6-0.2-0.7,0.8v0.1c0.4,3.5,0.4,7.1-0.2,10.8
		c-0.1,1-0.3,2-0.6,3.1l-0.1,0.3v0.1c-0.6,2.4-1.2,5.2-1,8.2c0.1,2.2,0.8,4.5,1.8,6.7c-4.9-0.8-9.8-3.2-13-6.6
		c-2.1-2.5-3.4-5.3-3.8-8.3c-1.1-5.2-1-10.6-0.8-15.4v-0.8c0-1.5,0.1-2.9,0.1-4.3c0.2-4.8-0.9-8.7-1.6-9.7c-0.5-0.8-1.3-0.5-1.1,0.3
		c0,0,0,0.1,0,0.1c0,0,0,0.1,0,0.1v0c0,0,0,0.1,0,0.1c0,0.1,0.9,3.6,0,8.8c-0.1,0.7-0.1,1.5-0.2,2.2l-0.2,1.3
		c-0.5,4.2-1.3,10-0.5,15.8c-4.3,0.7-8.8-0.9-11.4-4.4c-3.2-3.8-4-8.8-4.5-13.8c-0.5-4.6-0.2-9.1,0.9-13.6c1.2-4.7,3.2-8.9,6-12.6
		c3.3-4.4,7.6-8.1,12.5-10.6c6.1-3.2,11.2-4.1,15.8-2.8c4,1.1,8,2.9,12.2,5.5c-1.7,0-3.5,0.2-3.8,0.6c-0.1,0.2-0.1,0.5,0,0.6
		c0.1,0.2,0.3,0.2,0.3,0.2c0,0-0.1,0-0.1,0l0.3,0.1c4.1,1.1,6.6,2.2,8.1,2.8c1.3,0.5,2.6,1.1,4,1.9c0.8,0.6,1.5,1.2,2.3,1.9
		c-1.9-0.3-3.9-0.4-6-0.1c-1.2,0.2-3.9,0.8-4.2,1.4C344.4,231.1,343.9,231.8,345,232"/>
	<path id="XMLID_68_" fill="#FFFFFF" d="M315.9,294.6c-2.9,0.7-8.4,1.6-13.4-0.7c-2.6-1.1-4.5-3.1-5.1-5.3c-0.4-1.5-0.1-3,0.8-4.3
		c1.8-3,4.3-5.3,6.6-7.3c2.7,1,5.6,1.2,8.2,0.6c1,3.6,2.9,6.8,5.3,9c1.7,1.8,3.7,3.3,5.9,4.5C321.3,292.7,318.6,293.9,315.9,294.6"
		/>
	<path id="XMLID_67_" fill="#CC2131" d="M269.4,380.5c1.2,1,3,2.4,5,4.1c-6.5,1.2-12.9,1.6-17.5,1.6
		C260.9,384.9,265.2,382.7,269.4,380.5"/>
	<path id="XMLID_66_" fill="#FFFFFF" d="M387.1,251.7c1.7,4.7,1.9,9.8,0.5,14.1c-0.6,1.8-1.5,3.4-2.7,4.9c-0.4,0.4-0.7,0.7-1,1.1
		c0,0,0,0,0,0c0.1-1,0.1-2,0-3c-0.6-6.9-3.4-13.8-8.1-20.5c-2.9-4.6-6.6-9.2-11.1-13.8c4.8,0.2,9.7,2,13.8,5.2
		C382.5,243,385.6,247.2,387.1,251.7"/>
	<path id="XMLID_65_" fill="#FFFFFF" d="M349.4,475.5c-7.4-0.3-14.2-4.2-17.8-10.2c-2.4-3.9-3.7-8.5-4-14.1c0,0,0-0.3,0-0.6
		c3.8,1.8,8.1,2.5,12.2,1.8c5.7-1,11.1-4.8,14.5-10.2c5.8-9.7,5.9-22.8,0.2-32.8c-1.5-2.6-3.5-5-5.8-6.9c0.1-0.2,0.2-0.4,0.3-0.6
		l0.1-0.4c2.5-5.5,4.3-14.4,5.4-20.8l0.2-1.1l0.1-0.9c0.9-5.4,1.7-10.4,2.7-14.6c1.1-3.4,2.6-6.5,4.4-9.3c3.8-5.8,9.1-9.7,14.9-11.1
		c13.7-3.5,27.8,5.5,35.8,16.1c4.4,5.9,7.9,12.6,10,19.5c2.3,7.4,3.1,14.8,2.2,21.9c-1.7,14.3-7.3,28.5-16.2,41
		c-8.3,11.7-19.3,21.2-31.8,27.6c-1.2,0.6-2.5,1.2-3.9,1.8C364.5,474.8,356.6,476.1,349.4,475.5"/>
	<path id="XMLID_64_" fill="#FFFFFF" d="M317.2,430.3l1.2,1.4l4.9,5.8c0,0,0,0,0-0.1c0.1,0.2,0.2,0.2,0.4,0.2c-0.1,0-0.1,0-0.2,0
		c3.9,2.2,8.5,1,11.2-1.1c0.9-0.7,1.8-1.5,2.6-2.4c1.8-1.8,3.4-4.2,4.5-6.9c1.8-4.4,2.3-9.3,1.4-13.7c-0.2-1-0.5-2.2-1-3.5
		c0,0,0,0.1,0,0.1c0-0.2-0.1-0.3-0.1-0.3c0,0,0,0,0.1,0.1c-0.7-1.1-1.1-1.6-1.6-2.1l-0.2-0.2c-0.2-0.2-0.4-0.4-0.6-0.7
		c-1.1-1.4-2.3-2.8-3.4-4.2l-0.2-0.2c0,0-0.7-0.9-0.7-0.9s-0.7-0.7-1.1-1.3c0.2,0,0.4,0,0.6,0c0.8,0,1.4,0,2,0
		c4.8,0.7,11.1,3.8,14.5,10.8c2.2,4.1,3.4,9.2,3.4,14.3c0,5.4-1.4,10.5-4,14.7c-2.8,4.5-7.2,7.7-11.8,8.6c-4.6,0.9-9.6-0.2-13.5-3.2
		c-6.5-4.9-8.6-12.2-9.3-16.6"/>
	<path id="XMLID_37_" fill="#211915" d="M286.4,151c0.1,0.3,0.2,0.6,0.3,0.9c2.3,6.5,5.3,11,9.6,9.9c3.7-1,5.4-6.5,4.8-14.3
		c0-0.4,0-0.7-0.1-1.1c-0.4-4.6-1.5-9.9-3.5-15.4c-1-2.7-2.2-5.5-4-8.1c-1.7-2.4-4.3-5.4-8.2-4.7c-2.1,0.5-2.9,2.5-3.3,4
		c-0.4,1.6-0.5,3.1-0.5,4.7c0,3.1,0.3,6.1,0.8,8.9C283.3,141.5,284.8,146.6,286.4,151"/>
	<path id="XMLID_36_" fill="#211915" d="M380.7,425.5c0,0,0.1,0.1,0.1,0.1C380.8,425.6,380.8,425.6,380.7,425.5
		c0.1,0.1,0.2,0.1,0.3,0.1c0,0-0.1,0-0.1,0c0.1,0.1,0.1,0.1,0.2,0.1v0c0,0,0.1,0,0.1,0c0,0,0,0-0.1,0c0.1,0,0.3-0.1,0.3-0.3
		c0-0.1,0-0.3-0.1-0.4c-0.5-0.5-8.7-10.3-13.7-21.4c-5.7-11.3-9.4-23.7-9.4-23.8c0,0.1,0,0.1-0.1,0.2c0-0.1,0.1-0.1,0-0.2
		c0-0.1-0.1-0.2-0.2-0.3c-0.1,0-0.3,0-0.4,0.1c0,0,0,0,0,0c0,0,0,0,0,0h0c0,0.1,0,0.1,0,0.2c0,0,0-0.1,0-0.1c0,0,0,0.2,0,0.3
		c0,0,0,0,0,0c0,0,0,0,0,0.1c-0.1,1.2,0.6,5.3,1.2,8.1c0.9,4.3,2.7,10.8,5.8,16.9C369.4,416.2,378.8,424.5,380.7,425.5"/>
	<path id="XMLID_35_" fill="#605D5A" d="M140.8,294.7c-4,4.2-6.4,9.7-6.3,9.7c0,0,4-4.2,7.9-8.2c3.8-4.1,7.5-8.7,7.5-8.7
		C149.8,287.5,144.7,290.5,140.8,294.7"/>
	<path id="XMLID_34_" fill="#605D5A" d="M145.6,279.2c0-0.1-4.6,0.4-8.5,2.7c-3.9,2.1-6.6,6-6.5,6c0,0,3.9-2.2,7.6-4.1
		C141.9,281.7,145.6,279.3,145.6,279.2"/>
	<path id="XMLID_33_" fill="#605D5A" d="M146.6,312.9c0,0,2.9-4.2,5.2-8.5c2.2-4.4,3.8-9.2,3.8-9.3c0,0-3.5,3.8-5.8,8.3
		C147.5,307.7,146.5,312.8,146.6,312.9"/>
	<path id="XMLID_32_" fill="#211915" d="M293,300.7c-1.9-0.6-4-0.3-6,0.8c-1.5,0.8-3,2.1-4.2,3.7c-0.2,0.2-0.3,0.4-0.5,0.5
		c-2.7,3.4-4.7,8.2-5.5,13.5c-0.6,5.1-0.8,11.7,3.8,16.4c2.5,2.3,6.5,2.2,9,0.4c2.6-1.7,4.2-4.2,5.4-6.5c2.4-4.9,3.3-9.9,3.6-14.1
		c0-0.2,0-0.4,0-0.6C299,308.1,297.4,302,293,300.7"/>
	<path id="XMLID_31_" fill="#211915" d="M317.9,330.4c1.7-1.8,2.8-3.8,3.7-5.8c1.7-4,2.3-8.1,2.1-11.6c-0.1-3.3-0.8-6.5-2.1-8.8
		c-0.9-1.6-2-2.5-3.1-2.8c-1.1-0.3-2.3-0.1-3.5,0.6c-1.8,1.1-3.5,3.4-4.8,6.4c-1.5,3-2.6,6.8-3,10.9c-0.3,2.2-0.3,4.4,0,6.8
		c0.4,2.2,0.8,5,3.6,6.6C313.7,334.1,316.3,332.1,317.9,330.4"/>
	<path id="XMLID_30_" fill="#211915" d="M245.4,416.4C245.4,416.4,245.4,416.4,245.4,416.4c-1.5-0.8-16.6-2.3-30.6,2.4
		c-7.7,2.3-14.6,6.2-19.1,9c-2.6,1.6-4.6,3.1-5.8,4c-2.3,1.7-2.3,1.9-2.2,2.1c0,0.2,0.2,0.3,0.4,0.3c0,0,0.2-0.1,0.3-0.1l0,0
		c0,0,0.1,0,0.1,0c0.1,0,0.2,0,0.5-0.2c12-6.6,21.3-10,26.9-11.6c13.4-4.6,28.4-5.3,29.4-5.1C246.1,417.1,245.9,416.6,245.4,416.4"
		/>
	<path id="XMLID_3_" fill="#FFFFFF" d="M291.5,124.3c1.7,2.4,3,5.3,3.9,7.5c1.9,5,3.3,10.2,3.9,14.8c0.1,0.9,0.2,1.7,0.2,2.4
		c0.2,5.1-0.7,8.7-2.4,10.3c0.2-2,0-4.6-1.2-7.8c-1.4-3.8-3.6-6.6-5.9-7.7c-1.1-0.5-2.2-0.6-3.3-0.2c-0.2,0.1-0.4,0.3-0.5,0.4
		c-0.8-3-1.4-5.9-1.8-8.6c-0.5-3.3-0.7-6.1-0.6-8.6c0.1-1.4,0.3-5.8,2.1-6.3C287.9,120.1,290.2,122.3,291.5,124.3"/>
	<path id="XMLID_2_" fill="#FFFFFF" d="M282.3,333.5c-3.6-3.5-3.5-10.2-3.2-14c0.6-4.9,2.1-9.4,4.5-12.8c0,0,0,0,0,0s0,0,0,0
		c0,0,0-0.1,0.1-0.1c0,0,0,0,0,0v0c1.2-1.6,2.6-2.8,3.9-3.6c1.6-0.9,3.2-1.1,4.7-0.7c3.1,1,4.8,5.8,4.4,12.3c0,0.1,0,0.2,0,0.4
		c0,0.1,0,0.2,0,0.2c-0.4,3.4-1.5,8.4-4.1,13.1c-1.4,2.6-3,4.3-4.7,5.4C286.1,335,283.8,334.9,282.3,333.5"/>
	<path id="XMLID_1_" fill="#FFFFFF" d="M317.9,303.1c0.7,0.2,1.4,0.9,2.1,2c1.1,1.9,1.8,4.9,1.9,8c0,3.4-0.9,7.1-2.6,10.4
		c-1,2.1-2.1,3.7-3.4,5c-1.1,1.2-2.9,2.2-4,1.7c-1.5-0.7-2-3.6-2.1-4.5c-0.3-1.9-0.4-3.9-0.2-6.2c0.3-4.1,1.1-7.9,2.4-10.9
		c1.1-2.4,2.5-4.2,3.9-5.1C316.6,303.1,317.3,302.9,317.9,303.1"/>
</g>
</svg>
