<?xml version="1.0" encoding="utf-8"?>
<!-- Generator: Adobe Illustrator 22.1.0, SVG Export Plug-In . SVG Version: 6.00 Build 0)  -->
<svg version="1.1" id="Capa_1" xmlns="http://www.w3.org/2000/svg" xmlns:xlink="http://www.w3.org/1999/xlink" x="0px" y="0px"
	 viewBox="0 0 512 512" enable-background="new 0 0 512 512" xml:space="preserve">
<g>
	<path fill="#359344" d="M256,6.5C118.4,6.5,6.5,118.4,6.5,256c0,137.6,111.9,249.5,249.5,249.5c137.6,0,249.5-111.9,249.5-249.5
		C505.5,118.4,393.6,6.5,256,6.5L256,6.5z M256,468.6c-117.2,0-212.6-95.4-212.6-212.6c0-117.2,95.4-212.6,212.6-212.6
		c117.2,0,212.6,95.4,212.6,212.6C468.6,373.2,373.2,468.6,256,468.6L256,468.6z M256,468.6"/>
	<path fill="#359344" d="M256,64.7C150.6,64.7,64.7,150.5,64.7,256c0,105.5,85.9,191.3,191.3,191.3c105.4,0,191.3-85.7,191.3-191.3
		C447.3,150.5,361.4,64.7,256,64.7z M286.3,244.6h44v21.6h-55.7v24.1h55.7V312h-55.7v59.2h-41.1V312h-55v-21.6h55v-24.1h-55v-21.6
		h44L164,140.8h46.8l30.1,64.2c6,13.1,10.3,24.1,14.5,35.8h0.7c4.3-10.7,8.9-23.4,14.9-36.5l31.2-63.5H348L286.3,244.6z M325,184.1
		h-0.1V184C324.9,184.1,324.9,184.1,325,184.1z"/>
</g>
</svg>
