<?xml version="1.0" encoding="utf-8"?>
<!-- Generator: Adobe Illustrator 22.1.0, SVG Export Plug-In . SVG Version: 6.00 Build 0)  -->
<svg version="1.1" id="Capa_1" xmlns="http://www.w3.org/2000/svg" xmlns:xlink="http://www.w3.org/1999/xlink" x="0px" y="0px"
	 viewBox="0 0 512 512" enable-background="new 0 0 512 512" xml:space="preserve">
<g>
	<path fill="#F0F0F0" d="M491,256c0,129.8-105.2,235-235,235C126.2,491,21,385.8,21,256C21,126.2,126.2,21,256,21
		C385.8,21,491,126.2,491,256L491,256z M491,256"/>
	<path fill="#D80027" d="M358.2,256c0,56.4-45.7,102.2-102.2,102.2c-56.4,0-102.2-45.7-102.2-102.2c0-56.4,45.7-102.2,102.2-102.2
		C312.4,153.8,358.2,199.6,358.2,256L358.2,256z M358.2,256"/>
</g>
</svg>
