<?xml version="1.0" encoding="utf-8"?>
<!-- Generator: Adobe Illustrator 22.1.0, SVG Export Plug-In . SVG Version: 6.00 Build 0)  -->
<svg version="1.1" id="Capa_1" xmlns="http://www.w3.org/2000/svg" xmlns:xlink="http://www.w3.org/1999/xlink" x="0px" y="0px"
	 viewBox="0 0 512 512" enable-background="new 0 0 512 512" xml:space="preserve">
<g>
	<path fill="#FFDA44" d="M29.8,339.9C63.9,431.7,152.3,497.2,256,497.2c103.7,0,192.1-65.5,226.2-157.3l-226.2-21L29.8,339.9z
		 M29.8,339.9"/>
	<path d="M256,14.8c-103.7,0-192.1,65.5-226.2,157.3l226.2,21l226.2-21C448.1,80.3,359.7,14.8,256,14.8L256,14.8z M256,14.8"/>
	<path fill="#D80027" d="M29.8,172.1c-9.7,26.1-15,54.4-15,83.9c0,29.5,5.3,57.8,15,83.9h452.4c9.7-26.1,15-54.4,15-83.9
		c0-29.5-5.3-57.8-15-83.9H29.8z M29.8,172.1"/>
</g>
</svg>
