<?xml version="1.0" encoding="utf-8"?>
<!-- Generator: Adobe Illustrator 22.1.0, SVG Export Plug-In . SVG Version: 6.00 Build 0)  -->
<svg version="1.1" id="Capa_1" xmlns="http://www.w3.org/2000/svg" xmlns:xlink="http://www.w3.org/1999/xlink" x="0px" y="0px"
	 viewBox="0 0 512 512" enable-background="new 0 0 512 512" xml:space="preserve">
<g>
	<path fill="#FFDA44" d="M487.6,255.6c0,128-103.8,231.8-231.8,231.8C127.8,487.5,24,383.7,24,255.6c0-128,103.8-231.8,231.8-231.8
		C383.9,23.8,487.6,127.6,487.6,255.6L487.6,255.6z M487.6,255.6"/>
	<path fill="#338AF3" d="M165.1,175h308.1C440.5,86.7,355.5,23.8,255.8,23.8c-64,0-122,26-163.9,67.9L165.1,175z M165.1,175"/>
	<g>
		<defs>
			<rect id="SVGID_47_" x="24" y="23.5" width="464" height="465.1"/>
		</defs>
		<clipPath id="SVGID_2_">
			<use xlink:href="#SVGID_47_"  overflow="visible"/>
		</clipPath>
		<path clip-path="url(#SVGID_2_)" fill="#338AF3" d="M165.1,336.3h308.1c-32.8,88.3-117.7,151.2-217.4,151.2
			c-64,0-122-26-163.9-67.9L165.1,336.3z M165.1,336.3"/>
		<path clip-path="url(#SVGID_2_)" d="M91.9,91.7C1.4,182.2,1.4,329,91.9,419.6l163.9-163.9L91.9,91.7z M91.9,91.7"/>
	</g>
</g>
</svg>
