<?xml version="1.0" encoding="utf-8"?>
<!-- Generator: Adobe Illustrator 22.1.0, SVG Export Plug-In . SVG Version: 6.00 Build 0)  -->
<svg version="1.1" id="Capa_1" xmlns="http://www.w3.org/2000/svg" xmlns:xlink="http://www.w3.org/1999/xlink" x="0px" y="0px"
	 viewBox="0 0 512 512" enable-background="new 0 0 512 512" xml:space="preserve">
<g>
	<path fill="#FFDA44" d="M361.1,38.3c-31.8-15.4-67.4-24-105.1-24c-37.7,0-73.3,8.6-105.1,24l-21,217.7l21,217.7
		c31.8,15.4,67.4,24,105.1,24c37.7,0,73.3-8.6,105.1-24l21-217.7L361.1,38.3z M361.1,38.3"/>
	<path fill="#0052B4" d="M150.9,38.3C70.1,77.4,14.3,160.2,14.3,256c0,95.8,55.8,178.6,136.6,217.7V38.3z M150.9,38.3"/>
	<path fill="#0052B4" d="M361.1,38.3v435.5c80.9-39.1,136.6-121.9,136.6-217.7C497.7,160.2,441.9,77.4,361.1,38.3L361.1,38.3z
		 M361.1,38.3"/>
	<path d="M329.6,161.4l14.1,7L329.6,161.4l-14.1-7c-0.8,1.7-19.3,39.2-22.3,96.4h-21.4v-89.3l-15.8-21l-15.8,21v89.3h-21.4
		c-3-57.2-21.4-94.7-22.3-96.4l-28.2,14.1c0.2,0.4,19.4,39.4,19.4,98v15.8h52.5v89.3h31.5v-89.3h52.6v-15.8c0-30.3,5.2-55.3,9.6-71
		c4.8-17.1,9.7-27,9.7-27.1L329.6,161.4z M329.6,161.4"/>
</g>
</svg>
