<?xml version="1.0" encoding="utf-8"?>
<!-- Generator: Adobe Illustrator 22.1.0, SVG Export Plug-In . SVG Version: 6.00 Build 0)  -->
<svg version="1.1" id="Capa_1" xmlns="http://www.w3.org/2000/svg" xmlns:xlink="http://www.w3.org/1999/xlink" x="0px" y="0px"
	 viewBox="0 0 512 512" enable-background="new 0 0 512 512" xml:space="preserve">
<g>
	<path fill="#D80027" d="M491.7,256c0,130.2-105.5,235.7-235.7,235.7C125.8,491.7,20.3,386.2,20.3,256C20.3,256.1,256,20.3,256,20.3
		C386.2,20.3,491.7,125.8,491.7,256L491.7,256z M491.7,256"/>
	<path fill="#0052B4" d="M256,133v79.5L174,133H256z M256,133"/>
	<path fill="#0052B4" d="M143.3,256h69.3l-69.3-92.2L133,235.5L143.3,256z M143.3,256"/>
	<path fill="#F0F0F0" d="M255.4,256h0.6v-0.6C255.8,255.6,255.6,255.8,255.4,256L255.4,256z M255.4,256"/>
	<path fill="#F0F0F0" d="M256,143.3v-123h0C125.8,20.3,20.3,125.8,20.3,256h123v-69.3l69.3,69.3h42.9l0.6-0.6v-42.9l-69.3-69.3H256z
		 M256,143.3"/>
	<path fill="#D80027" d="M139.5,51C102.7,72,72,102.7,51,139.5v126.7h61.5V112.5h153.7V51H139.5z M139.5,51"/>
	<path fill="#D80027" d="M265.4,236.4l-93.1-93.1h-29v0l122.1,122.1h0C265.4,265.4,265.4,245.4,265.4,236.4L265.4,236.4z
		 M265.4,236.4"/>
	<path fill="#F3F3F3" d="M286.7,143.3V256c0,54.9,143.5,54.9,143.5,0V143.3H286.7z M286.7,143.3"/>
	<path fill="#6DA544" d="M286.7,256c0,54.9,71.7,71.7,71.7,71.7s71.7-16.8,71.7-71.7H286.7z M286.7,256"/>
	<path fill="#A2001D" d="M358.5,210.9l-33.3,14.3V256l33.3,20.5l33.3-20.5v-30.7L358.5,210.9z M358.5,210.9"/>
	<rect x="325.2" y="194.5" fill="#338AF3" width="66.6" height="30.7"/>
</g>
</svg>
