<?xml version="1.0" encoding="utf-8"?>
<!-- Generator: Adobe Illustrator 22.1.0, SVG Export Plug-In . SVG Version: 6.00 Build 0)  -->
<svg version="1.1" id="Capa_1" xmlns="http://www.w3.org/2000/svg" xmlns:xlink="http://www.w3.org/1999/xlink" x="0px" y="0px"
	 viewBox="0 0 512 512" enable-background="new 0 0 512 512" xml:space="preserve">
<g>
	<path fill="#6DA544" d="M497.1,256c0,133.2-108,241.1-241.1,241.1c-133.2,0-241.1-108-241.1-241.1C14.9,122.8,122.8,14.9,256,14.9
		C389.2,14.9,497.1,122.8,497.1,256L497.1,256z M497.1,256"/>
	<path fill="#FFDA44" d="M256,109.2L455.2,256L256,402.8L56.8,256L256,109.2z M256,109.2"/>
	<path fill="#F0F0F0" d="M339.9,256c0,46.3-37.5,83.9-83.9,83.9c-46.3,0-83.9-37.5-83.9-83.9c0-46.3,37.5-83.9,83.9-83.9
		C302.3,172.1,339.9,209.7,339.9,256L339.9,256z M339.9,256"/>
	<path fill="#0052B4" d="M214.1,250.8c-14.6,0-28.7,2.2-41.9,6.3c0.6,45.8,37.9,82.8,83.8,82.8c28.4,0,53.5-14.1,68.7-35.8
		C298.7,271.6,258.8,250.8,214.1,250.8L214.1,250.8z M214.1,250.8"/>
	<path fill="#0052B4" d="M338.3,272.1c1-5.2,1.6-10.6,1.6-16.1c0-46.3-37.5-83.9-83.9-83.9c-34.6,0-64.2,20.9-77.1,50.8
		c11.3-2.4,23.1-3.6,35.1-3.6C262.8,219.3,306.8,239.6,338.3,272.1L338.3,272.1z M338.3,272.1"/>
</g>
</svg>
