<?xml version="1.0" encoding="utf-8"?>
<!-- Generator: Adobe Illustrator 22.1.0, SVG Export Plug-In . SVG Version: 6.00 Build 0)  -->
<svg version="1.1" id="Capa_1" xmlns="http://www.w3.org/2000/svg" xmlns:xlink="http://www.w3.org/1999/xlink" x="0px" y="0px"
	 viewBox="0 0 512 512" enable-background="new 0 0 512 512" xml:space="preserve">
<g>
	<path fill="#F0F0F0" d="M497.1,256c0,133.2-108,241.1-241.1,241.1c-133.2,0-241.1-108-241.1-241.1C14.9,122.8,122.8,14.9,256,14.9
		C389.2,14.9,497.1,122.8,497.1,256L497.1,256z M497.1,256"/>
	<path fill="#D80027" d="M482.1,172.1H29.9c-9.7,26.1-15,54.4-15,83.9c0,29.5,5.3,57.7,15,83.9h452.2c9.7-26.1,15-54.4,15-83.9
		C497.1,226.5,491.8,198.3,482.1,172.1L482.1,172.1z M482.1,172.1"/>
	<path fill="#0052B4" d="M256,14.9c-73.1,0-138.6,32.5-182.8,83.9h365.6C394.6,47.4,329.1,14.9,256,14.9L256,14.9z M256,14.9"/>
	<path fill="#0052B4" d="M438.8,413.3H73.2c44.2,51.3,109.7,83.9,182.8,83.9C329.1,497.1,394.6,464.6,438.8,413.3L438.8,413.3z
		 M438.8,413.3"/>
</g>
</svg>
