<?xml version="1.0" encoding="utf-8"?>
<!-- Generator: Adobe Illustrator 22.1.0, SVG Export Plug-In . SVG Version: 6.00 Build 0)  -->
<svg version="1.1" id="Capa_1" xmlns="http://www.w3.org/2000/svg" xmlns:xlink="http://www.w3.org/1999/xlink" x="0px" y="0px"
	 viewBox="0 0 512 512" enable-background="new 0 0 512 512" xml:space="preserve">
<g>
	<path fill="#FFDA44" d="M487.3,255.7c0,127.8-103.6,231.5-231.5,231.5c-127.9,0-231.5-103.6-231.5-231.5
		c0-127.9,103.6-231.5,231.5-231.5C383.6,24.2,487.3,127.8,487.3,255.7L487.3,255.7z M487.3,255.7"/>
	<path fill="#A2001D" d="M125.3,64.4c37.2-25.4,82.1-40.3,130.5-40.3c48.4,0,93.3,14.9,130.5,40.3L255.8,74.5L125.3,64.4z
		 M125.3,64.4"/>
	<g>
		<defs>
			<rect id="SVGID_49_" x="24.3" y="23.8" width="463.4" height="464.4"/>
		</defs>
		<clipPath id="SVGID_2_">
			<use xlink:href="#SVGID_49_"  overflow="visible"/>
		</clipPath>
		<path clip-path="url(#SVGID_2_)" fill="#0052B4" d="M255.8,255.7L241,240.9l-3.9,7L255.8,255.7z M255.8,255.7"/>
		<path clip-path="url(#SVGID_2_)" fill="#496E2D" d="M92.1,92c-90.4,90.4-90.4,237,0,327.4l163.7-163.7L92.1,92z M92.1,92"/>
		<path clip-path="url(#SVGID_2_)" fill="#496E2D" d="M419.5,92c90.4,90.4,90.4,237,0,327.4L255.8,255.7L419.5,92z M419.5,92"/>
	</g>
	<path fill="#A2001D" d="M336.3,255.7c0,44.5-36.1,80.5-80.5,80.5c-44.5,0-80.5-36.1-80.5-80.5c0-44.5,36-80.5,80.5-80.5
		C300.2,175.1,336.3,211.2,336.3,255.7L336.3,255.7z M336.3,255.7"/>
	<path fill="#FFDA44" d="M255.8,175.1l18,55.5h58.4L285,265l18,55.6l-47.3-34.3l-47.3,34.3l18.1-55.6l-47.3-34.3h58.4L255.8,175.1z
		 M255.8,175.1"/>
	<path fill="#A2001D" d="M255.9,24.2h-0.2C191.8,24.2,134,50.1,92.1,92h327.4C377.6,50.1,319.7,24.2,255.9,24.2L255.9,24.2z
		 M255.9,24.2"/>
	<path fill="#A2001D" d="M92.1,419.4c41.9,41.9,99.8,67.8,163.7,67.8s121.8-25.9,163.7-67.8H92.1z M92.1,419.4"/>
	<path fill="#FFDA44" d="M255.8,49.3l3.7,11.5h12.1l-9.8,7.1l3.7,11.5l-9.8-7.1l-9.8,7.1l3.7-11.5l-9.8-7.1H252L255.8,49.3z
		 M255.8,49.3"/>
	<path fill="#FFDA44" d="M199.6,49.3l3.7,11.5h12.1l-9.8,7.1l3.7,11.5l-9.8-7.1l-9.8,7.1l3.7-11.5l-9.8-7.1h12.1L199.6,49.3z
		 M199.6,49.3"/>
	<path fill="#FFDA44" d="M311.9,49.3l3.7,11.5h12.1L318,68l3.7,11.5l-9.8-7.1l-9.8,7.1l3.7-11.5l-9.8-7.1h12.1L311.9,49.3z
		 M311.9,49.3"/>
	<path fill="#FFDA44" d="M255.8,431.8l3.7,11.5h12.1l-9.8,7.1l3.7,11.5l-9.8-7.1L246,462l3.7-11.5l-9.8-7.1H252L255.8,431.8z
		 M255.8,431.8"/>
	<path fill="#FFDA44" d="M199.6,431.8l3.7,11.5h12.1l-9.8,7.1l3.7,11.5l-9.8-7.1l-9.8,7.1l3.7-11.5l-9.8-7.1h12.1L199.6,431.8z
		 M199.6,431.8"/>
	<path fill="#FFDA44" d="M311.9,431.8l3.7,11.5h12.1l-9.8,7.1l3.7,11.5l-9.8-7.1l-9.8,7.1l3.7-11.5l-9.8-7.1h12.1L311.9,431.8z
		 M311.9,431.8"/>
	<path fill="#FFDA44" d="M94.8,251.8c5.9,9.4,3.2,21.8-6.2,27.8c-9.4,5.9-21.8,3.1-27.8-6.2c-10.8-17-4.5-44.8-4.5-44.8
		S84.1,234.8,94.8,251.8L94.8,251.8z M94.8,251.8"/>
	<path fill="#A2001D" d="M93.3,271.1c0,5.6-4.5,10.1-10.1,10.1s-10.1-4.5-10.1-10.1S77.6,261,83.2,261S93.3,265.6,93.3,271.1
		L93.3,271.1z M93.3,271.1"/>
</g>
</svg>
