<?xml version="1.0" encoding="utf-8"?>
<!-- Generator: Adobe Illustrator 22.1.0, SVG Export Plug-In . SVG Version: 6.00 Build 0)  -->
<svg version="1.1" id="Capa_1" xmlns="http://www.w3.org/2000/svg" xmlns:xlink="http://www.w3.org/1999/xlink" x="0px" y="0px"
	 viewBox="0 0 512 512" enable-background="new 0 0 512 512" xml:space="preserve">
<g>
	<path fill="#F0F0F0" d="M497.2,256c0,133.2-108,241.2-241.2,241.2c-133.2,0-241.2-108-241.2-241.2c0-133.2,108-241.2,241.2-241.2
		C389.2,14.8,497.2,122.8,497.2,256L497.2,256z M497.2,256"/>
	<path fill="#FF9811" d="M256,14.8c-95.6,0-178.2,55.6-217.3,136.3h434.5C434.2,70.5,351.6,14.8,256,14.8L256,14.8z M256,14.8"/>
	<path fill="#6DA544" d="M256,497.2c95.6,0,178.2-55.6,217.2-136.3H38.7C77.8,441.5,160.4,497.2,256,497.2L256,497.2z M256,497.2"/>
	<path fill="#0052B4" d="M339.9,256c0,46.3-37.6,83.9-83.9,83.9c-46.3,0-83.9-37.6-83.9-83.9c0-46.3,37.6-83.9,83.9-83.9
		C302.3,172.1,339.9,209.7,339.9,256L339.9,256z M339.9,256"/>
	<path fill="#F0F0F0" d="M308.4,256c0,29-23.5,52.4-52.4,52.4c-29,0-52.4-23.5-52.4-52.4c0-29,23.5-52.4,52.4-52.4
		C285,203.6,308.4,227,308.4,256L308.4,256z M308.4,256"/>
	<path fill="#0052B4" d="M256,191.3l16.2,36.7l39.9-4.3L288.3,256l23.7,32.3l-39.9-4.3L256,320.7L239.8,284l-39.9,4.3l23.7-32.3
		L200,223.7l39.9,4.3L256,191.3z M256,191.3"/>
</g>
</svg>
