<?xml version="1.0" encoding="utf-8"?>
<!-- Generator: Adobe Illustrator 22.1.0, SVG Export Plug-In . SVG Version: 6.00 Build 0)  -->
<svg version="1.1" id="Capa_1" xmlns="http://www.w3.org/2000/svg" xmlns:xlink="http://www.w3.org/1999/xlink" x="0px" y="0px"
	 viewBox="0 0 512 512" enable-background="new 0 0 512 512" xml:space="preserve">
<g>
	<path fill="#0052B4" d="M493.4,256c0,131.1-106.3,237.4-237.4,237.4C124.9,493.4,18.6,387.1,18.6,256C18.6,256.1,256,18.6,256,18.6
		C387.1,18.6,493.4,124.9,493.4,256L493.4,256z M493.4,256"/>
	<path fill="#F0F0F0" d="M255.4,256h0.6v-0.6C255.8,255.6,255.6,255.8,255.4,256L255.4,256z M255.4,256"/>
	<path fill="#F0F0F0" d="M256,142.4V18.6h0C124.8,18.6,18.6,124.9,18.6,256h123.9v-69.8l69.8,69.8h43.2l0.6-0.6v-43.2l-69.8-69.8
		H256z M256,142.4"/>
	<path fill="#6DA544" d="M400.5,152.8c0,22.8-18.5,41.3-41.3,41.3c-22.8,0-41.3-18.5-41.3-41.3s18.5-41.3,41.3-41.3
		C382,111.5,400.5,130,400.5,152.8L400.5,152.8z M400.5,152.8"/>
	<path fill="#D80027" d="M138.7,49.5c-37.1,21.1-68,52-89.2,89.2V256h61.9V111.5H256V49.5H138.7z M138.7,49.5"/>
	<path fill="#D80027" d="M256,226.8l-84.4-84.4h-29.2v0L256,256h0V226.8z M256,226.8"/>
	<rect x="287" y="142.4" fill="#D80027" width="144.5" height="61.9"/>
	<path fill="#FFDA44" d="M287,297.3v41.3h21.7c13,12.8,30.9,20.6,50.5,20.6c19.7,0,37.5-7.9,50.5-20.6h21.7v-41.3H287z M287,297.3"
		/>
	<path fill="#338AF3" d="M287,194.1V256c0,55.3,72.3,72.3,72.3,72.3s72.3-16.9,72.3-72.3v-61.9H287z M287,194.1"/>
	<path fill="#F3F3F3" d="M359.2,227.1c-18.1,0-18.1,16.5-36.1,16.5c-18.1,0-18.1-16.5-36.1-16.5V256c18.1,0,18.1,16.5,36.1,16.5
		c18.1,0,18.1-16.5,36.1-16.5c18.1,0,18.1,16.5,36.1,16.5c18.1,0,18.1-16.5,36.1-16.5v-28.9c-18.1,0-18.1,16.5-36.1,16.5
		C377.3,243.7,377.3,227.1,359.2,227.1L359.2,227.1z M359.2,227.1"/>
	<path fill="#F3F3F3" d="M359.2,169.3c-18.1,0-18.1,16.5-36.1,16.5c-18.1,0-18.1-16.5-36.1-16.5v28.9c18.1,0,18.1,16.5,36.1,16.5
		c18.1,0,18.1-16.5,36.1-16.5c18.1,0,18.1,16.5,36.1,16.5c18.1,0,18.1-16.5,36.1-16.5v-28.9c-18.1,0-18.1,16.5-36.1,16.5
		C377.3,185.8,377.3,169.3,359.2,169.3L359.2,169.3z M359.2,169.3"/>
</g>
</svg>
