<?xml version="1.0" encoding="utf-8"?>
<!-- Generator: Adobe Illustrator 22.1.0, SVG Export Plug-In . SVG Version: 6.00 Build 0)  -->
<svg version="1.1" id="Capa_1" xmlns="http://www.w3.org/2000/svg" xmlns:xlink="http://www.w3.org/1999/xlink" x="0px" y="0px"
	 viewBox="0 0 512 512" enable-background="new 0 0 512 512" xml:space="preserve">
<g>
	<path fill="#F0F0F0" d="M497.2,256c0,133.2-108,241.2-241.2,241.2c-133.2,0-241.2-108-241.2-241.2c0-133.2,108-241.2,241.2-241.2
		C389.2,14.8,497.2,122.8,497.2,256L497.2,256z M497.2,256"/>
	<path fill="#D80027" d="M497.2,256c0-103.7-65.5-192.1-157.3-226.2v452.4C431.7,448.1,497.2,359.7,497.2,256L497.2,256z M497.2,256
		"/>
	<path fill="#6DA544" d="M14.8,256c0,103.7,65.5,192.1,157.3,226.2V29.8C80.3,63.9,14.8,152.3,14.8,256L14.8,256z M14.8,256"/>
</g>
</svg>
