<?xml version="1.0" encoding="utf-8"?>
<!-- Generator: Adobe Illustrator 22.1.0, SVG Export Plug-In . SVG Version: 6.00 Build 0)  -->
<svg version="1.1" id="Capa_1" xmlns="http://www.w3.org/2000/svg" xmlns:xlink="http://www.w3.org/1999/xlink" x="0px" y="0px"
	 viewBox="0 0 512 512" enable-background="new 0 0 512 512" xml:space="preserve">
<g>
	<path fill="#F0F0F0" d="M487.3,255.7c0,127.8-103.6,231.5-231.5,231.5c-127.9,0-231.5-103.6-231.5-231.5
		c0-127.9,103.6-231.5,231.5-231.5C383.6,24.2,487.3,127.8,487.3,255.7L487.3,255.7z M487.3,255.7"/>
	<path fill="#D80027" d="M32.3,316.1c21.4,79.3,83.8,141.8,163.1,163.1V316.1H32.3z M32.3,316.1"/>
	<path fill="#0052B4" d="M195.4,32.1C116.1,53.5,53.6,116,32.3,195.3h163.1V32.1z M195.4,32.1"/>
	<path fill="#D80027" d="M479.3,195.3C457.9,116,395.5,53.5,316.2,32.1v163.1H479.3z M479.3,195.3"/>
	<path fill="#0052B4" d="M316.2,479.2c79.3-21.4,141.8-83.8,163.1-163.1H316.2V479.2z M316.2,479.2"/>
	<path fill="#496E2D" d="M316.2,255.7c0,33.4-27,60.4-60.4,60.4s-60.4-27-60.4-60.4s60.4-60.4,60.4-60.4S316.2,222.3,316.2,255.7
		L316.2,255.7z M316.2,255.7"/>
	<path fill="#0052B4" d="M195.4,255.7c0-33.4,27-60.4,60.4-60.4s60.4,27,60.4,60.4"/>
	<path fill="#D80027" d="M221.8,225.5v37.7c0,18.8,15.2,34,34,34c18.8,0,34-15.2,34-34v-37.7H221.8z M221.8,225.5"/>
</g>
</svg>
