<?xml version="1.0" encoding="utf-8"?>
<!-- Generator: Adobe Illustrator 22.1.0, SVG Export Plug-In . SVG Version: 6.00 Build 0)  -->
<svg version="1.1" id="Capa_1" xmlns="http://www.w3.org/2000/svg" xmlns:xlink="http://www.w3.org/1999/xlink" x="0px" y="0px"
	 viewBox="0 0 512 512" enable-background="new 0 0 512 512" xml:space="preserve">
<g>
	<path fill="#F0F0F0" d="M497.1,256c0,133.2-108,241.1-241.1,241.1c-133.2,0-241.1-108-241.1-241.1C14.9,122.8,122.8,14.9,256,14.9
		C389.2,14.9,497.1,122.8,497.1,256L497.1,256z M497.1,256"/>
	<path fill="#0052B4" d="M256,14.9c-95.6,0-178.2,55.6-217.2,136.3h434.4C434.2,70.5,351.6,14.9,256,14.9L256,14.9z M256,14.9"/>
	<path fill="#0052B4" d="M256,497.1c95.6,0,178.2-55.6,217.2-136.3H38.8C77.8,441.5,160.4,497.1,256,497.1L256,497.1z M256,497.1"/>
	<path fill="#FFDA44" d="M207.6,266.5l48.4-83.9l48.4,83.9H207.6z M207.6,266.5"/>
	<path fill="#6DA544" d="M318.9,294.2L256,325.6l-62.9-31.4v-41.9h125.8V294.2z M318.9,294.2"/>
	<path fill="#FFDA44" d="M315.3,186.2l-22.2,22.2c9.5,9.5,15.4,22.6,15.4,37.1c0,28.9-23.5,52.4-52.4,52.4s-52.4-23.5-52.4-52.4
		c0-14.5,5.9-27.6,15.4-37.1l-22.2-22.2c-15.2,15.2-24.6,36.1-24.6,59.3c0,46.3,37.6,83.9,83.9,83.9s83.9-37.5,83.9-83.9
		C339.9,222.4,330.5,201.4,315.3,186.2L315.3,186.2z M315.3,186.2"/>
</g>
</svg>
