<?xml version="1.0" encoding="utf-8"?>
<!-- Generator: Adobe Illustrator 22.1.0, SVG Export Plug-In . SVG Version: 6.00 Build 0)  -->
<svg version="1.1" id="Capa_1" xmlns="http://www.w3.org/2000/svg" xmlns:xlink="http://www.w3.org/1999/xlink" x="0px" y="0px"
	 viewBox="0 0 512 512" enable-background="new 0 0 512 512" xml:space="preserve">
<rect fill="#419639" width="512" height="512"/>
<g>
	<path fill="#FFFFFF" d="M187.4,123.9c9.1-9.8,21.3-11.9,30.5-5.6c5.6,3.9,8.6,9.5,8.8,16.1c0.4,14.9,0.2,29.7,0.3,44.6
		c0,1.9-0.9,2.2-2.5,2.2c-3.5-0.1-6.9-0.2-10.4,0c-2.5,0.1-2.8-0.9-2.8-3.1c0.1-13,0-26,0-39c0-7.8-3.2-12.3-9.3-13
		c-7-0.8-12.1,3-14.1,10.4c-0.6,2.2-0.6,4.4-0.6,6.6c0,11.6-0.1,23.3,0,34.9c0,2.4-0.7,3.3-3.1,3.1c-3.2-0.2-6.4-0.2-9.7,0
		c-2.3,0.1-3-0.6-2.9-2.9c0.1-7.4,0.1-14.9,0.1-22.3c0-17.8-0.1-35.7,0.1-53.5c0-3.6-0.7-5.5-4.6-5.7c-1.3-0.1-3.6,0.4-3.7-2.5
		c-0.1-2.5,0.7-3.5,3.2-3.7c5.9-0.5,11.8-1,17.7-1.8c2.5-0.3,3,0.5,3,2.7c-0.1,10,0,20.1,0,30.1
		C187.3,122.2,187.4,122.8,187.4,123.9z"/>
	<path fill="#FFFFFF" d="M155.5,104.1c-5.4-3.4-10.6-5.9-16.4-6.6c-4-0.5-7.9-0.6-11.8,0.5c-4.6,1.3-7.9,4.1-8.8,9.1
		c-0.8,4.9,1.1,8.7,5.1,11.6c3.9,2.9,8.4,4.8,12.8,6.7c5.4,2.4,10.9,4.8,15.8,8.2c8.6,6,11.7,14.5,10.6,24.6
		c-1.1,9.9-6.4,17.1-15.6,20.9c-13.3,5.5-26.6,4.2-40,0.2c-1.1-0.3-2.1-0.7-2.1-2.2c0-3.3-0.2-6.7,0.1-10c0.2-2.9,1.8-1,2.7-0.4
		c7.9,5.4,16.7,7.3,26.1,6.4c9.3-0.9,14.2-6.6,13.5-15.6c-0.4-4.3-2.6-7.4-6.1-9.7c-4.6-3.1-9.8-5.2-14.9-7.5
		c-4.1-1.8-8.1-3.6-11.8-6.2c-8.1-5.5-11.9-13.2-10.9-22.9c1.1-10.1,6.6-17.2,16.2-20.8c11.1-4.1,22.4-3,33.6,0
		c1.3,0.4,2.2,0.9,2.2,2.5C155.5,96.4,155.5,100,155.5,104.1z"/>
	<path fill="#FFFFFF" d="M440.2,129.2c-4.6-3.5-9.3-5.2-14.4-5.7c-2.2-0.2-4.2,0-6.2,0.5c-2.6,0.7-4.5,2.3-5.1,4.9
		c-0.7,2.9,0.1,5.4,2.4,7.4c1.7,1.5,3.7,2.5,5.8,3.3c3.5,1.5,7.1,2.9,10.6,4.6c9.2,4.5,13,11,11.8,20.1c-1.2,9.4-6.9,15.4-16.6,17.5
		c-7.9,1.7-15.8,0.8-23.6-0.9c-1.7-0.4-2.5-1.1-2.4-3c0.2-3.2,0-6.4,0-10.1c6.5,4.9,13.4,6.6,20.9,6.1c4.7-0.3,7.8-2.5,8.7-6.2
		c1-4-0.5-7.7-4.7-9.9c-4.9-2.6-10.1-4.6-15.1-7c-4.6-2.3-8.3-5.5-9.8-10.6c-3.8-12.3,4.4-23.6,18.1-25.1c5.8-0.6,11.6,0.1,17.3,1.4
		c2,0.4,2.5,1.5,2.5,3.4C440.1,122.7,440.2,125.6,440.2,129.2z"/>
	<path fill="#FFFFFF" d="M317.7,128.4c1.3-2.4,2.1-3.8,2.9-5.2c2.5-3.9,5.8-6.7,10.4-7.9c4.1-1.1,9-0.4,9-0.4s-0.3,3.7-0.3,6.9
		c0,2.1-0.1,6.3-0.1,6.3s-3.6,0.1-5.6,0.1c-9.9,0.1-15.5,6.1-15.6,17.3c-0.1,10.8-0.1,21.6,0,32.4c0,2.7-0.6,3.8-3.5,3.5
		c-2.6-0.3-5.2-0.3-7.8,0c-3.5,0.4-4.6-0.6-4.5-4.3c0.2-16.2,0-32.5,0.2-48.7c0-2.9-0.7-4.3-3.8-4.4c-1.4,0-3.1-0.4-4.1-1.3
		c-1.6-1.5,0-4.8,2.3-5.1c6-0.7,12.1-1.2,18.1-2c2.3-0.3,2.5,0.7,2.5,2.4C317.7,121.1,317.7,124.3,317.7,128.4z"/>
	<path fill="#FFFFFF" d="M67,123c0-1.7-0.1-3.4-0.1-5c7.1-0.9,14.2-1.8,21.3-2.6c2.6-0.3,1.8,1.9,1.8,3.1c0.1,12,0,24,0,36
		c0,4.8-0.1,9.7,0,14.5c0.1,6.4-1.1,4.9,5.1,6.1c2.3,0.4,3.2,1,3.1,3.4c-0.1,2.1-0.6,2.8-2.8,2.7c-9.5-0.1-19.1-0.1-28.6-0.1
		c0.1-1.9-0.7-4,0.8-5.7c6.7-0.9,6.7-0.9,6.7-7.6c0-12.9-0.1-25.7,0.1-38.6c0.1-3.6-0.6-5.7-4.6-5.6C68.9,123.7,68,123.3,67,123z"/>
	<path fill="#FFFFFF" d="M91.4,99.7c0,5-3.9,9-8.9,9c-4.8,0-8.6-3.9-8.7-8.7c-0.1-5,3.5-8.7,8.5-8.8C87.5,91,91.4,94.7,91.4,99.7z"
		/>
	<path fill="#FFFFFF" d="M288.4,136.5c-0.2-10.9-5.6-18-15.5-20.4c-9.3-2.3-18.4-1.5-27.3,2.1c-5.7,2.3-6.3,3.7-4.8,10.1
		c3.1-0.9,6.1-2,9.2-2.8c3.2-0.9,6.6-1.1,9.9-1c9.1,0.2,12.7,4,13,13c0.1,3.5-0.7,4.7-4.4,4.5c-7.2-0.4-14.4-0.2-21.2,2.8
		c-9.2,4-13.4,12.5-11.5,23.3c1.5,8.5,8.5,14.2,18,14.7c7.7,0.4,14-2.3,18.8-8.5c0.9,1.4,0.6,2.7,0.5,3.8c-0.3,2.6,0.7,3.5,3.3,3.3
		c3.1-0.2,6.2-0.2,9.3,0c2.2,0.1,2.7-0.7,2.7-2.8C288.4,164.5,288.6,150.5,288.4,136.5z M271.2,166.2c-2.6,4.8-7.9,7.2-13.2,5.9
		c-4.6-1.1-7.3-5.2-7.2-11.2c0.1-5.8,2.8-9,8.6-10.5c2.2-0.5,4.4-0.3,6.4-0.4c7.2,0,7.1,0,7.2,7.1
		C272.9,160.3,272.7,163.4,271.2,166.2z"/>
	<path fill="#FFFFFF" d="M359.9,149.9c5.6,0.2,11.1,0.1,16.7,0.1c4.1,0,8.2,0,12.3,0c8.2,0,8.3,0,8-8.1c-0.3-8.5-2-16.6-9.4-22.1
		c-15.3-11.4-39.2-3.7-44.7,14.5c-2.5,8.3-2.8,16.8-0.8,25.3c3,12.6,11,19.8,23.5,22.3c7.9,1.6,15.8,0.8,23.5-1.5
		c5.1-1.5,5.3-1.9,5.1-7.3c-0.1-1.8-0.4-2.3-2.3-1.8c-4.8,1.3-9.7,1.9-14.7,1.8c-13.2-0.3-19.7-6.8-20.2-20
		C356.9,150.8,357.3,149.8,359.9,149.9z M357,138.1c0.9-10.9,6.9-16.4,16.1-14.5c5,1,7,4.4,8.1,9c1.9,8.6,1.4,9.2-7,9.2
		c-1.6,0-3.2,0-4.8,0c-3,0-6-0.2-8.9,0.1C357.2,142.2,356.8,140.8,357,138.1z"/>
</g>
<rect fill="none" width="512" height="512"/>
<rect y="256" fill="#3D3D3D" width="512" height="256"/>
<g>
	<path fill="#FFFFFF" d="M215.2,332.6h-20.6v134.6h-36.4V332.6h-20.6v-31.8h77.6V332.6z"/>
	<path fill="#FFFFFF" d="M284.3,435.4v31.8h-61.9V300.8H259v134.6H284.3z"/>
	<path fill="#FFFFFF" d="M374.5,300.8v166.4h-36.6v-65.1h-9v65.1h-36.6V300.8h36.6v69.5h9v-69.5H374.5z"/>
</g>
<g>
	<g>
		<circle fill="#BC042C" cx="377.3" cy="134.2" r="121.5"/>
		<path fill="#FFFFFF" d="M377.3,24.3c60.7,0,110,49.2,110,110c0,60.7-49.2,110-110,110c-60.7,0-110-49.2-110-110
			C267.3,73.5,316.6,24.3,377.3,24.3 M377.3,1.3c-35.5,0-68.9,13.8-94,38.9c-25.1,25.1-38.9,58.5-38.9,94c0,35.5,13.8,68.9,38.9,94
			s58.5,38.9,94,38.9s68.9-13.8,94-38.9c25.1-25.1,38.9-58.5,38.9-94s-13.8-68.9-38.9-94C446.2,15.1,412.8,1.3,377.3,1.3L377.3,1.3z
			"/>
	</g>
	<g>
		<polygon fill="#FFFFFF" points="377.3,52.1 402,102.2 457.3,110.3 417.3,149.3 426.8,204.3 377.3,178.3 327.8,204.3 337.3,149.3 
			297.3,110.3 352.6,102.2 		"/>
	</g>
</g>
</svg>
