<?xml version="1.0" encoding="utf-8"?>
<!-- Generator: Adobe Illustrator 22.1.0, SVG Export Plug-In . SVG Version: 6.00 Build 0)  -->
<svg version="1.1" id="Capa_1" xmlns="http://www.w3.org/2000/svg" xmlns:xlink="http://www.w3.org/1999/xlink" x="0px" y="0px"
	 viewBox="0 0 512 512" enable-background="new 0 0 512 512" xml:space="preserve">
<path fill="#060800" d="M395.1,324.6c-4.8-6.2-8.2-10.8-10.3-13.6c-2.1-2.8-4.2-7.4-6.5-13.8c-2.2-6.4-3.3-13.5-3.3-21.2V168
	c0-1.2-0.1-5-0.4-11.4c-0.3-6.4-0.7-10.6-1.3-12.5c-0.6-1.9-1.5-5.4-2.7-10.5c-1.2-5.1-2.5-8.9-4-11.6c-1.5-2.7-3.5-5.7-6-9.1
	c-2.5-3.4-5.3-6.6-8.3-9.6c-19-17.5-45.5-26.3-79.4-26.3h-11.1c-26.5,1.5-49.6,8.6-69.3,21.4c-19.8,12.8-32.2,32.4-37.2,58.9
	c-0.3,1.2-0.4,2.2-0.4,3.1c0,4.2,2.5,6.8,7.6,8l51.3,6.2c4.8-0.9,7.7-4.3,8.9-10.3c2.1-9.5,6.7-16.9,13.8-22.3
	c7.1-5.4,15.6-8.5,25.4-9.4h3.6c13.4,0,23.2,4.5,29.4,13.4c4.2,6.5,6.2,19.3,6.2,38.4v7.6c-18.1,1.5-31.2,2.7-39.2,3.6
	c-23.5,3-43.3,7.9-59.3,14.7c-17.5,7.4-31.4,18.4-41.5,33c-10.1,14.6-15.2,32.1-15.2,52.6c0,25.9,7.4,45.9,22.1,60
	c14.7,14.1,33.5,21.2,56.4,21.2c14.9,0,27.4-1.5,37.5-4.5c16.1-4.5,32.4-15.8,49.1-33.9c1.2,1.5,3.3,4.4,6.2,8.7
	c3,4.3,5.1,7.2,6.5,8.7c1.3,1.5,3.6,3.9,6.7,7.1c3.1,3.3,6.8,6.7,10.9,10.3c5.1,2.1,9.4,1.8,12.9-0.9c2.1-1.8,15.5-13.4,40.1-34.8
	c2.4-1.8,3.6-3.9,3.6-6.2C397.8,329.6,396.9,327.2,395.1,324.6z M301,245.2c0,9.5-0.1,16.4-0.2,20.5c-0.1,4.2-1,9.6-2.7,16.3
	c-1.6,6.7-4.1,12.9-7.4,18.5c-6.8,12.8-16.5,20.8-29,24.1c-0.6,0-1.7,0.1-3.3,0.4s-2.9,0.4-3.8,0.4c-9.8,0-17.6-3.5-23.4-10.5
	c-5.8-7-8.7-16.3-8.7-27.9c0-25.6,13.1-42.1,39.2-49.5c8.9-2.4,22-3.6,39.2-3.6V245.2z"/>
<g>
	<path fill="#F09B00" d="M409.9,386.7c0.6-1.2,1.5-2.4,2.7-3.6c7.4-5.1,14.6-8.5,21.4-10.3c11.3-3,22.3-4.6,33-4.9
		c3-0.3,5.8-0.1,8.5,0.4c13.4,1.2,21.4,3.4,24.1,6.7c1.2,1.8,1.8,4.5,1.8,8v3.1c0,10.4-2.8,22.7-8.5,36.8
		c-5.6,14.1-13.5,25.5-23.6,34.1c-1.5,1.2-2.8,1.8-4,1.8c-0.6,0-1.2-0.1-1.8-0.4c-1.8-0.9-2.2-2.5-1.3-4.9
		c11-25.9,16.5-43.9,16.5-54c0-3.3-0.6-5.6-1.8-7.1c-3-3.6-11.3-5.4-25-5.4c-5.1,0-11,0.3-17.8,0.9c-7.4,0.9-14.3,1.8-20.5,2.7
		c-1.8,0-3-0.3-3.6-0.9c-0.6-0.6-0.7-1.2-0.4-1.8C409.4,387.7,409.6,387.3,409.9,386.7L409.9,386.7z"/>
	<path fill="#F09B00" d="M11.6,379.1c1.5-2.4,3.9-2.5,7.1-0.4c74.3,43.1,155.2,64.7,242.6,64.7c58.3,0,115.8-10.9,172.6-32.6
		c1.5-0.6,3.6-1.5,6.5-2.7c2.8-1.2,4.8-2.1,6-2.7c4.5-1.8,8-0.9,10.5,2.7c2.5,3.6,1.7,6.8-2.5,9.8c-5.4,3.9-12.2,8.3-20.5,13.4
		c-25.6,15.2-54.1,26.9-85.6,35.2C316.8,474.8,286,479,256,479c-46.4,0-90.2-8.1-131.6-24.3c-41.3-16.2-78.3-39-111-68.5
		c-1.8-1.5-2.7-3-2.7-4.5C10.7,380.9,11,380,11.6,379.1L11.6,379.1z"/>
</g>
<g>
	<g>
		
			<ellipse transform="matrix(0.7071 -0.7071 0.7071 0.7071 15.5927 306.1137)" fill="#BC042C" cx="377.3" cy="134.2" rx="121.5" ry="121.5"/>
		<path fill="#FFFFFF" d="M377.3,24.3c60.7,0,110,49.2,110,110c0,60.7-49.2,110-110,110c-60.7,0-110-49.2-110-110
			C267.3,73.5,316.6,24.3,377.3,24.3 M377.3,1.3c-35.5,0-68.9,13.8-94,38.9c-25.1,25.1-38.9,58.5-38.9,94c0,35.5,13.8,68.9,38.9,94
			c25.1,25.1,58.5,38.9,94,38.9s68.9-13.8,94-38.9c25.1-25.1,38.9-58.5,38.9-94c0-35.5-13.8-68.9-38.9-94
			C446.2,15.1,412.8,1.3,377.3,1.3L377.3,1.3z"/>
	</g>
	<g>
		<polygon fill="#FFFFFF" points="377.3,52.1 402,102.2 457.3,110.3 417.3,149.3 426.8,204.3 377.3,178.3 327.8,204.3 337.3,149.3 
			297.3,110.3 352.6,102.2 		"/>
	</g>
</g>
</svg>
