<?xml version="1.0" encoding="utf-8"?>
<!-- Generator: Adobe Illustrator 22.1.0, SVG Export Plug-In . SVG Version: 6.00 Build 0)  -->
<svg version="1.1" id="Capa_1" xmlns="http://www.w3.org/2000/svg" xmlns:xlink="http://www.w3.org/1999/xlink" x="0px" y="0px"
	 viewBox="0 0 512 512" enable-background="new 0 0 512 512" xml:space="preserve">
<g>
	<path fill="#599BD5" d="M512,333.5l0-7.2c0,0,0,0,0,0V278v-5.6V267h-36c-7.3,0-12.9,1.7-16.7,4.5V267H423c-5.7,0-12.7,1.4-15.9,4.5
		l0-4.5h-64.8v4.5c-5.2-3.6-13.9-4.5-18-4.5h-42.8v4.5c-4.1-3.9-13.1-4.5-18.6-4.5h-48l-11,11.9L193.8,267h-71.6v77.5h70.2
		l11.2-12.1l10.7,12l43.2,0v-18.3h4.3c5.7,0,12.5-0.1,18.4-2.7v21h35.8v-20.3h1.8c2.2,0,2.3,0.2,2.3,2.2v18h108.4
		c6.8,0,14.1-1.8,18.1-4.9v4.9h34.4c7.1,0,25.6-1.2,30.9-3.7l0-5.1h0V333.5z"/>
	<polygon fill="#FFFFFF" points="75.6,225.5 48,225.5 42.9,238 28.5,238 52.2,182.4 72,182.4 94.5,235 94.5,182.4 116.2,182.4 
		133.5,220.1 149.5,182.4 171.6,182.4 171.6,238 158,238 158,194.5 138.7,238 127.1,238 107.8,194.4 107.8,238 80.8,238 	"/>
	<polygon fill="#FFFFFF" points="225.8,238 181.5,238 181.5,182.4 225.8,182.4 225.8,194 194.8,194 194.8,204 225.1,204 
		225.1,215.4 194.8,215.4 194.8,226.4 225.8,226.4 	"/>
	<path fill="#FFFFFF" d="M248.3,238H235v-55.6h30.6c6.7,0,11.7,0.2,16,2.7c4.3,2.4,6.8,6.1,6.8,12.3c0,8.8-5.9,13.4-9.4,14.8
		c2.9,1.1,5.4,3.1,6.5,4.7c1.9,2.7,2.2,5.3,2.2,10.1l0,11h-13.4v-7c0-3.3,0.3-8.2-2.2-10.8c-1.9-2-4.8-2.4-9.7-2.4l-14.2,0V238z"/>
	<rect x="296.1" y="182.4" fill="#FFFFFF" width="13.6" height="55.6"/>
	<path fill="#FFFFFF" d="M323.2,231.8c-4.7-4.8-7-11.1-7-21.2c0-8.2,1.5-15.8,7.1-21.7c4.3-4.4,11.1-6.5,20.2-6.5h12.7v11.9h-12.4
		c-4.9,0-7.7,0.7-10.3,3.3c-2.4,2.3-3.9,6.8-3.9,12.6c0,5.9,1.2,10.2,3.8,13c2,2.2,5.6,2.8,9.2,2.8h6l18.7-43.7H387l22.5,52.6v-52.6
		h20.3l23.4,38.7l0-38.7h13.7V238h-18.9l-25.1-41.7l0,41.7h-27l-5.1-12.4H363l-5.1,12.4h-15.4C336,238,327.8,236.5,323.2,231.8z"/>
	<path fill="#599BD5" d="M441.7,171.5v9.1l-5.3-9.1h-37.8v9.1l-4.7-9.1h-51.1c-8.6,0-16.2,1.1-22.2,4.5v-4.5h-35.2v4.5
		c-4-3.4-9.2-4.5-15-4.5H141.6l-8.7,20l-8.8-20H83.5v9.1l-4.6-9.1H44.3l-16,36.7l-16.9,40.7H51l5.1-12.4h11.4l5.1,12.4h44.6v-9.4
		l4,9.5h23.1l4-9.6v9.6h110.8v-20.3l2.2,0c1.6,0,2,0.2,2,2.7v17.6h57.3l0-4.8c4.6,2.5,11.7,4.8,21.3,4.8h24.1l5.2-12.4h11.4
		l5.1,12.4h46.4v-11.8l7.1,11.8h37.2v-77.5H441.7z M171.6,238H158v-43.5L138.7,238h-11.7l-19.3-43.6l0,43.6h-27l-5.1-12.4H48
		L42.9,238H28.5l23.8-55.6H72L94.5,235v-52.6h21.7l17.3,37.7l16-37.7h22.1V238z M225.8,194h-31.1v10h30.3v11.4h-30.3v11l31.1,0V238
		h-44.3v-55.6h44.3V194z M285.5,216.9c1.9,2.7,2.2,5.3,2.2,10.1l0,11h-13.4v-7c0-3.3,0.3-8.2-2.2-10.8c-1.9-2-4.8-2.4-9.7-2.4
		l-14.2,0V238H235v-55.6h30.6c6.7,0,11.7,0.2,16,2.7c4.3,2.4,6.8,6.1,6.8,12.3c0,8.8-5.9,13.4-9.4,14.8
		C281.9,213.3,284.4,215.3,285.5,216.9z M309.7,238h-13.6v-55.6h13.6V238z M466.8,238h-18.9l-25.1-41.7l0,41.7h-27l-5.1-12.4H363
		l-5.1,12.4h-15.4c-6.5,0-14.7-1.5-19.3-6.2c-4.7-4.8-7-11.1-7-21.2c0-8.2,1.5-15.8,7.1-21.7c4.3-4.4,11.1-6.5,20.2-6.5h12.7v11.9
		h-12.4c-4.9,0-7.7,0.7-10.3,3.3c-2.4,2.3-3.9,6.8-3.9,12.6c0,5.9,1.2,10.2,3.8,13c2,2.2,5.6,2.8,9.2,2.8h6l18.7-43.7H387l22.5,52.6
		v-52.6h20.3l23.4,38.7l0-38.7h13.7V238z"/>
	<polygon fill="#FFFFFF" points="158,238 158,194.5 138.7,238 127.1,238 107.8,194.4 107.8,238 80.8,238 75.6,225.5 48,225.5 
		42.9,238 28.5,238 52.2,182.4 72,182.4 94.5,235 94.5,182.4 116.2,182.4 133.5,220.1 149.5,182.4 171.6,182.4 171.6,238 	"/>
	<polygon fill="#FFFFFF" points="194.8,194 194.8,204 225.1,204 225.1,215.4 194.8,215.4 194.8,226.4 225.8,226.4 225.8,238 
		181.5,238 181.5,182.4 225.8,182.4 225.8,194 	"/>
	<path fill="#FFFFFF" d="M279,212.2c2.9,1.1,5.4,3.1,6.5,4.7c1.9,2.7,2.2,5.3,2.2,10.1l0,11h-13.4v-7c0-3.3,0.3-8.2-2.2-10.8
		c-1.9-2-4.8-2.4-9.7-2.4l-14.2,0V238H235v-55.6h30.6c6.7,0,11.7,0.2,16,2.7c4.3,2.4,6.8,6.1,6.8,12.3
		C288.4,206.2,282.5,210.8,279,212.2z"/>
	<rect x="296.1" y="182.4" fill="#FFFFFF" width="13.6" height="55.6"/>
	<path fill="#FFFFFF" d="M333.5,197.6c-2.4,2.3-3.9,6.8-3.9,12.6c0,5.9,1.2,10.2,3.8,13c2,2.2,5.6,2.8,9.2,2.8h6l18.7-43.7H387
		l22.5,52.6v-52.6h20.3l23.4,38.7l0-38.7h13.7V238h-18.9l-25.1-41.7l0,41.7h-27l-5.1-12.4H363l-5.1,12.4h-15.4
		c-6.5,0-14.7-1.5-19.3-6.2c-4.7-4.8-7-11.1-7-21.2c0-8.2,1.5-15.8,7.1-21.7c4.3-4.4,11.1-6.5,20.2-6.5h12.7v11.9h-12.4
		C338.9,194.3,336.1,195,333.5,197.6z"/>
	<path fill="#FFFFFF" d="M263.3,278h-42.4l-16.9,18.2L187.6,278h-53.4v55.6h52.6l17-18.3l16.3,18.3h25.9v-18.6h16.5
		c11.6,0,23.1-3.2,23.1-18.6C285.5,280.9,273.7,278,263.3,278z M180.1,321.9h-32.6v-11l29.1,0v-11.4l-29.1,0v-10h33.2l14.6,16.2
		L180.1,321.9z M232.7,328.4l-20.3-22.6l20.3-21.9V328.4z M263.1,303.5h-17.2v-14h17.3c4.8,0,8,2,8,6.8
		C271.3,301.1,268.2,303.5,263.1,303.5z"/>
	<path fill="#FFFFFF" d="M335.8,307.7c3.5-1.4,9.4-5.9,9.4-14.8c0-6.2-2.6-9.9-6.8-12.3c-4.3-2.5-9.3-2.7-16-2.7h-30.6v55.6h13.3
		l0-20.2h14.3c4.8,0,7.7,0.4,9.6,2.4c2.4,2.6,2.2,7.5,2.2,10.8l0,7h13.4v-11c0-4.8-0.3-7.4-2.2-10.1
		C341.2,310.8,338.7,308.8,335.8,307.7z M327.8,300.8c-1.8,1-3.9,1.1-6.5,1.1l-16.2,0v-12.4h16.4c2.4,0,4.7,0.1,6.3,0.9
		c1.7,0.9,2.7,2.7,2.7,5C330.5,297.8,329.5,299.8,327.8,300.8z"/>
	<polygon fill="#FFFFFF" points="365.9,289.5 365.9,299.5 396.2,299.5 396.2,311 365.9,310.9 365.9,321.9 396.9,322 396.9,333.5 
		352.6,333.5 352.6,278 396.9,278 396.9,289.5 	"/>
	<path fill="#FFFFFF" d="M435.9,320.3c0.9-0.8,1.6-2.1,1.6-3.7c0-1.6-0.7-2.9-1.6-3.7c-1-0.8-2.4-1.2-4.6-1.3
		c-12.4-0.3-28,0.4-28-17.2c0-8,5.1-16.5,19-16.5h26.6v11.9h-24.4c-2.4,0-4,0.1-5.3,1c-1.4,0.9-2,2.2-2,4c0,2.1,1.2,3.5,2.9,4.1
		c1.3,0.5,2.9,0.6,5.1,0.7l7.1,0.2c7.4,0.1,12.2,1.4,15.2,4.5c2.7,2.7,4,6,4,11.8c0,11.8-7.4,17.5-20.9,17.5l-25.9,0v-11.9h25.8
		C433.1,321.6,434.8,321.3,435.9,320.3z"/>
	<g>
		<path fill="#FFFFFF" d="M263.3,278h-42.4l-16.9,18.2L187.6,278h-53.4v55.6h52.6l17-18.3l16.3,18.3h25.9v-18.6h16.5
			c11.6,0,23.1-3.2,23.1-18.6C285.5,280.9,273.7,278,263.3,278z"/>
		<polygon fill="#FFFFFF" points="180.1,321.9 147.4,321.9 147.4,310.9 176.5,311 176.5,299.5 147.4,299.5 147.4,289.5 180.7,289.5 
			195.2,305.7 		"/>
		<polygon fill="#FFFFFF" points="232.7,328.4 212.3,305.9 232.7,284 		"/>
		<path fill="#FFFFFF" d="M263.1,303.5h-17.2v-14h17.3c4.8,0,8,2,8,6.8C271.3,301.1,268.2,303.5,263.1,303.5z"/>
	</g>
	<g>
		<path fill="#FFFFFF" d="M335.8,307.7c3.5-1.4,9.4-5.9,9.4-14.8c0-6.2-2.6-9.9-6.8-12.3c-4.3-2.5-9.3-2.7-16-2.7h-30.6v55.6h13.3
			l0-20.2h14.3c4.8,0,7.7,0.4,9.6,2.4c2.4,2.6,2.2,7.5,2.2,10.8l0,7h13.4v-11c0-4.8-0.3-7.4-2.2-10.1
			C341.2,310.8,338.7,308.8,335.8,307.7z"/>
		<path fill="#FFFFFF" d="M327.8,300.8c-1.8,1-3.9,1.1-6.5,1.1l-16.2,0v-12.4h16.4c2.4,0,4.7,0.1,6.3,0.9c1.7,0.9,2.7,2.7,2.7,5
			C330.5,297.8,329.5,299.8,327.8,300.8z"/>
	</g>
	<polygon fill="#FFFFFF" points="396.9,289.5 396.9,278 352.6,278 352.6,333.5 396.9,333.5 396.9,322 365.9,321.9 365.9,310.9 
		396.2,311 396.2,299.5 365.9,299.5 365.9,289.5 	"/>
	<path fill="#FFFFFF" d="M447.6,304.2c-3-3.1-7.8-4.3-15.2-4.5l-7.1-0.2c-2.2-0.1-3.7-0.2-5.1-0.7c-1.7-0.6-2.9-2.1-2.9-4.1
		c0-1.8,0.6-3.1,2-4c1.3-0.9,2.9-1,5.3-1h24.4V278h-26.6c-14,0-19,8.5-19,16.5c0,17.7,15.6,16.9,28,17.2c2.3,0.1,3.6,0.4,4.6,1.3
		c0.9,0.8,1.6,2,1.6,3.7c0,1.6-0.7,2.8-1.6,3.7c-1.1,1-2.8,1.4-5.3,1.4h-25.8v11.9l25.9,0c13.4,0,20.9-5.7,20.9-17.5
		C451.6,310.2,450.2,307,447.6,304.2z"/>
	<path fill="#FFFFFF" d="M500.6,305.5c-0.3-0.5-0.7-0.9-1.1-1.3c-3-3.1-7.8-4.3-15.2-4.5l-7.1-0.2c-2.2-0.1-3.7-0.2-5.1-0.7
		c-1.7-0.6-2.9-2.1-2.9-4.1c0-1.8,0.6-3.1,1.9-4c1.3-0.9,2.9-1,5.3-1h24.2V278h-26.5c-14,0-19,8.5-19,16.5c0,17.7,15.6,16.9,28,17.2
		c2.3,0.1,3.6,0.4,4.6,1.3c0.9,0.8,1.6,2,1.6,3.7c0,1.6-0.7,2.8-1.6,3.7c-1.1,1-2.9,1.4-5.3,1.4h-25.5v11.9l25.6,0
		c8.6,0,14.7-2.3,18-7c1.9-2.7,2.9-6.2,2.9-10.5C503.4,311.1,502.5,308,500.6,305.5z"/>
	<path fill="#599BD5" d="M330.5,295.5c0,2.4-1,4.3-2.7,5.3c-1.8,1-3.9,1.1-6.5,1.1l-16.2,0v-12.4h16.4c2.4,0,4.7,0.1,6.3,0.9
		C329.5,291.4,330.5,293.1,330.5,295.5z"/>
	<path fill="#599BD5" d="M271.3,296.3c0,4.8-3.1,7.2-8.2,7.2h-17.2v-14h17.3C268,289.5,271.3,291.5,271.3,296.3z"/>
	<polygon fill="#599BD5" points="232.7,284 232.7,328.4 212.3,305.9 	"/>
	<polygon fill="#599BD5" points="195.2,305.7 180.1,321.9 147.4,321.9 147.4,310.9 176.5,311 176.5,299.5 147.4,299.5 147.4,289.5 
		180.7,289.5 	"/>
	<path fill="#FFFFFF" d="M453.1,182.4l0,38.7l-23.4-38.7h-20.3V235L387,182.4h-19.8l-18.7,43.7h-6c-3.6,0-7.2-0.7-9.2-2.8
		c-2.6-2.9-3.8-7.1-3.8-13c0-5.8,1.5-10.2,3.9-12.6c2.6-2.6,5.4-3.3,10.3-3.3h12.4v-11.9h-12.7c-9.2,0-15.9,2.1-20.2,6.5
		c-5.7,5.9-7.1,13.5-7.1,21.7c0,10.1,2.4,16.5,7,21.2c4.6,4.7,12.8,6.2,19.3,6.2h15.4l5.1-12.4h27.6l5.1,12.4h27l0-41.7l25.1,41.7
		h18.9v-55.6H453.1z M367.8,214l9-22.1l9.1,22.1H367.8z M296.1,182.4V238h13.6v-55.6H296.1z M285.5,216.9c-1.1-1.6-3.6-3.6-6.5-4.7
		c3.5-1.4,9.4-5.9,9.4-14.8c0-6.2-2.6-9.9-6.8-12.3c-4.3-2.5-9.3-2.7-16-2.7H235V238h13.3v-20.3l14.2,0c4.8,0,7.8,0.4,9.7,2.4
		c2.5,2.6,2.2,7.5,2.2,10.8v7h13.4l0-11C287.7,222.1,287.4,219.6,285.5,216.9z M271,205.2c-1.8,1.1-3.9,1.1-6.5,1.1h-16.2V194h16.4
		c2.3,0,4.7,0.1,6.3,1c1.7,0.9,2.7,2.6,2.7,5C273.7,202.3,272.7,204.2,271,205.2z M225.8,194v-11.6h-44.3V238h44.3v-11.6l-31.1,0
		v-11h30.3V204h-30.3v-10H225.8z M149.5,182.4l-16,37.7l-17.3-37.7H94.5V235L72,182.4H52.2L28.5,238h14.5l5.1-12.4h27.6l5.1,12.4h27
		l0-43.6l19.3,43.6h11.7l19.3-43.5V238h13.6v-55.6H149.5z M52.8,214l9.1-22.1l9.1,22.1H52.8z"/>
	<polygon fill="#599BD5" points="385.9,214 367.8,214 376.8,191.9 	"/>
	<path fill="#599BD5" d="M273.7,199.9c0,2.4-1,4.3-2.7,5.3c-1.8,1.1-3.9,1.1-6.5,1.1h-16.2V194h16.4c2.3,0,4.7,0.1,6.3,1
		C272.7,195.8,273.7,197.6,273.7,199.9z"/>
	<polygon fill="#599BD5" points="70.9,214 52.8,214 61.8,191.9 	"/>
</g>
<g>
	<g>
		
			<ellipse transform="matrix(0.7071 -0.7071 0.7071 0.7071 15.5926 306.1138)" fill="#BC042C" cx="377.3" cy="134.2" rx="121.5" ry="121.5"/>
		<path fill="#FFFFFF" d="M377.3,24.3c60.7,0,110,49.2,110,110s-49.2,110-110,110s-110-49.2-110-110S316.6,24.3,377.3,24.3
			 M377.3,1.3c-35.5,0-68.9,13.8-94,38.9c-25.1,25.1-38.9,58.5-38.9,94c0,35.5,13.8,68.9,38.9,94c25.1,25.1,58.5,38.9,94,38.9
			s68.9-13.8,94-38.9c25.1-25.1,38.9-58.5,38.9-94c0-35.5-13.8-68.9-38.9-94C446.2,15.1,412.8,1.3,377.3,1.3L377.3,1.3z"/>
	</g>
	<g>
		<polygon fill="#FFFFFF" points="377.3,52.1 402,102.2 457.3,110.3 417.3,149.3 426.8,204.3 377.3,178.3 327.8,204.3 337.3,149.3 
			297.3,110.3 352.6,102.2 		"/>
	</g>
</g>
</svg>
