<?xml version="1.0" encoding="utf-8"?>
<!-- Generator: Adobe Illustrator 22.1.0, SVG Export Plug-In . SVG Version: 6.00 Build 0)  -->
<svg version="1.1" id="Capa_1" xmlns="http://www.w3.org/2000/svg" xmlns:xlink="http://www.w3.org/1999/xlink" x="0px" y="0px"
	 viewBox="0 0 512 512" enable-background="new 0 0 512 512" xml:space="preserve">
<g>
	
		<linearGradient id="SVGID_2_" gradientUnits="userSpaceOnUse" x1="-5.0008" y1="13981.4648" x2="247.2588" y2="13858.4297" gradientTransform="matrix(1 0 0 -1 0 14053.417)">
		<stop  offset="0" style="stop-color:#7EBCE5"/>
		<stop  offset="0.1248" style="stop-color:#76B4DE"/>
		<stop  offset="0.3193" style="stop-color:#629ECB"/>
		<stop  offset="0.5577" style="stop-color:#407AAD"/>
		<stop  offset="0.7769" style="stop-color:#1B538B"/>
	</linearGradient>
	<path fill="url(#SVGID_2_)" d="M10.8,39.7c47.7,0,78.7-7.3,113.5,33l114,140.8h-84.6c-19.1,0-40.9-5.5-58.7-35.5L10.8,39.7
		L10.8,39.7z"/>
	
		<linearGradient id="SVGID_4_" gradientUnits="userSpaceOnUse" x1="195.6098" y1="13672.1582" x2="449.9119" y2="13672.1582" gradientTransform="matrix(1 0 0 -1 0 14053.417)">
		<stop  offset="0" style="stop-color:#BA2F13"/>
		<stop  offset="1" style="stop-color:#891B1B"/>
	</linearGradient>
	<path fill="url(#SVGID_4_)" d="M299.2,290.1c-2.1-0.3-4.3-0.4-6.7-0.4c-33.2,0-86.5,27.4-94.4,60.2l40.6,69.1
		c16.4,28,41.3,53.9,85,53.9h126.2L299.2,290.1z"/>
	
		<linearGradient id="SVGID_6_" gradientUnits="userSpaceOnUse" x1="219.9838" y1="13784.959" x2="250.5403" y2="13729.834" gradientTransform="matrix(1 0 0 -1 0 14053.417)">
		<stop  offset="0" style="stop-color:#891B1B"/>
		<stop  offset="1" style="stop-color:#BA2F13"/>
	</linearGradient>
	<path fill="url(#SVGID_6_)" d="M199.4,352l-14.8-25.2l11.1-34.3l9.9-16l64.3-22.1l30.8,37.4c-2.1-0.3-5.5-1.4-7.8-1.4
		c-33.2,0-86.8,26.6-94.7,59.4"/>
	
		<linearGradient id="SVGID_9_" gradientUnits="userSpaceOnUse" x1="150.4515" y1="13767.9854" x2="341.55" y2="13767.9854" gradientTransform="matrix(1 0 0 -1 0 14053.417)">
		<stop  offset="0" style="stop-color:#A4B0B7"/>
		<stop  offset="1" style="stop-color:#F0F3F7"/>
	</linearGradient>
	<path fill="url(#SVGID_9_)" d="M197.4,348.7l-42.3-70.3c-12.1-21.8-1.2-47.8,43.2-52.5c44.4-4.8,121.5-12.3,143.3,33
		c-60-6.2-148.8,12-144.2,89.7V348.7z"/>
	<polygon fill="#3C4C72" points="467.3,453.2 460.6,453.2 460.6,450.7 476.9,450.7 476.9,453.2 470.2,453.2 470.2,472.9 
		467.3,472.9 	"/>
	<path fill="#3C4C72" d="M498,463.1c-0.2-3.1-0.4-6.8-0.4-9.5h-0.1c-0.8,2.6-1.7,5.4-2.8,8.4l-3.9,10.7h-2.2l-3.6-10.5
		c-1-3.1-1.9-6-2.5-8.6h-0.1c-0.1,2.8-0.2,6.4-0.4,9.8l-0.6,9.5h-2.7l1.5-22.1h3.6l3.8,10.7c0.9,2.7,1.6,5.2,2.2,7.4h0.1
		c0.6-2.2,1.4-4.7,2.4-7.4l3.9-10.7h3.7l1.4,22.1h-2.8L498,463.1L498,463.1z"/>
</g>
<g>
	<g>
		
			<ellipse transform="matrix(0.7071 -0.7071 0.7071 0.7071 15.5926 306.1137)" fill="#BC042C" cx="377.3" cy="134.2" rx="121.5" ry="121.5"/>
		<path fill="#FFFFFF" d="M377.3,24.3c60.7,0,110,49.2,110,110c0,60.7-49.2,110-110,110c-60.7,0-110-49.2-110-110
			C267.3,73.5,316.6,24.3,377.3,24.3 M377.3,1.3c-35.5,0-68.9,13.8-94,38.9c-25.1,25.1-38.9,58.5-38.9,94c0,35.5,13.8,68.9,38.9,94
			c25.1,25.1,58.5,38.9,94,38.9s68.9-13.8,94-38.9c25.1-25.1,38.9-58.5,38.9-94c0-35.5-13.8-68.9-38.9-94
			C446.2,15.1,412.8,1.3,377.3,1.3L377.3,1.3z"/>
	</g>
	<g>
		<polygon fill="#FFFFFF" points="377.3,52.1 402,102.2 457.3,110.3 417.3,149.3 426.8,204.3 377.3,178.3 327.8,204.3 337.3,149.3 
			297.3,110.3 352.6,102.2 		"/>
	</g>
</g>
</svg>
