<?xml version="1.0" encoding="utf-8"?>
<!-- Generator: Adobe Illustrator 22.1.0, SVG Export Plug-In . SVG Version: 6.00 Build 0)  -->
<svg version="1.1" id="Capa_1" xmlns="http://www.w3.org/2000/svg" xmlns:xlink="http://www.w3.org/1999/xlink" x="0px" y="0px"
	 viewBox="0 0 512 512" enable-background="new 0 0 512 512" xml:space="preserve">
<g>
	<path fill="#5694D0" d="M256,469.3c-54,0-103.3-20.2-140.9-53.3c45,30.8,103.2,34.9,131.8,34.9c95,0,149.2-35.5,177.2-63.9
		C385.1,437,324.2,469.3,256,469.3L256,469.3z M43,245.5c4.2,32.8,33.9,69,84.6,85.1c61.8,19.7,99.8,20.3,189.7,0.1
		c137.6-31,148.8-91.1,149.7-106.6c1.6,10.4,2.4,21,2.4,31.9c0,3.5-0.1,7-0.3,10.5c-0.2,3.5-1,9.9-1.6,12.8
		c-0.4,2.1-0.8,3.7-1.4,5.3c-11.4,30.2-54,88.1-183.9,92.8c-41.7,1.5-115.1-13.1-161.3-32.1c-35.4-14.6-70.1-42.3-76.8-69.5
		c-0.3-1.3-0.6-3.8-0.7-5.3c-0.3-4.8-0.5-9.6-0.5-14.4C42.7,252.5,42.8,249,43,245.5L43,245.5z M115.2,95.9
		c-11.4,13.3-11.4,25.2-11.4,26.9c0,19.7,28.4,51.2,110.5,51.2c48.7,0,88-9.5,117.7-19.5c47.6-16,71.1-35.6,70.3-50.1
		c-0.1-1.3-0.3-2.7-0.9-4.2c8.8,8.3,17,17.3,24.3,26.9c0,0-0.1,0-0.1-0.1c3.9,5.3,7.2,12.1,7.1,18.5c-0.2,21.4-20.7,54.3-113.9,62.1
		c-46.1,3.9-105.8-4.4-128.3-7.3c-66.5-8.6-115-34.7-115-54.8c0-1.5,1.1-5.1,3.9-9.2C89.6,121.4,101.7,107.8,115.2,95.9L115.2,95.9z
		 M363.7,72c-0.1,0-0.2-0.1-0.3-0.2c8.2,4.9,13.6,8.7,13.6,14.9c0,21.7-52.4,41.6-120.9,43.4c-68.4,1.8-125.2-15.3-126.7-36.9
		c-0.5-7,5.2-12.6,14.9-18.8c32.5-20,70.7-31.6,111.6-31.6C295.2,42.7,332,53.4,363.7,72L363.7,72z M462,208.5
		c0,10.7-13.2,76.3-142.7,88.3c-18.4,1.7-228,4.1-267.7-80.5c-0.6-1.3-1.1-2.6-1.5-4c-0.5-1.8-0.6-3.2-0.7-4.7c0-1.2,0-2.2,0.1-3.2
		c0.2-1.8,1.1-6,1.7-8.4c2.3-7.8,5-15.5,8.2-22.9c-0.3,2.5-0.4,5.3-0.4,8.8c0.1,4.7,1.1,9.9,2.9,14.9
		c16.9,47.5,121.6,88.9,248.5,53.8c53.8-14.9,134.2-43.4,134.2-87.1c0-1.5,0.4-4.2-1.5-9.7c6.9,12.7,12.6,26.1,16.9,40.2
		C462,200.9,462,204.1,462,208.5L462,208.5z M448.3,348.3c-2.2,4.4-4.6,8.4-6.6,11.4c-3.7,5.3-7.5,9.3-12.7,14.5
		c-44.8,45-147.5,94.3-296.8,31.9c-35.4-14.8-58.5-39.5-68.4-57.5c-3.1-6.4-5.8-12.9-8.3-19.6c2.4,4.8,5.1,9.3,8.1,13.6
		c50.2,71.7,165.4,67.3,187.9,64.8c151.5-17,198.3-71.5,212.2-103.2C460.2,319.6,455,334.3,448.3,348.3L448.3,348.3z M256,33.3
		C133.2,33.3,33.3,133.2,33.3,256S133.2,478.7,256,478.7S478.7,378.8,478.7,256S378.8,33.3,256,33.3"/>
</g>
<g>
	<g>
		
			<ellipse transform="matrix(0.7071 -0.7071 0.7071 0.7071 15.5926 306.1137)" fill="#BC042C" cx="377.3" cy="134.2" rx="121.5" ry="121.5"/>
		<path fill="#FFFFFF" d="M377.3,24.3c60.7,0,110,49.2,110,110c0,60.7-49.2,110-110,110c-60.7,0-110-49.2-110-110
			C267.3,73.5,316.6,24.3,377.3,24.3 M377.3,1.3c-35.5,0-68.9,13.8-94,38.9c-25.1,25.1-38.9,58.5-38.9,94c0,35.5,13.8,68.9,38.9,94
			c25.1,25.1,58.5,38.9,94,38.9s68.9-13.8,94-38.9c25.1-25.1,38.9-58.5,38.9-94c0-35.5-13.8-68.9-38.9-94
			C446.2,15.1,412.8,1.3,377.3,1.3L377.3,1.3z"/>
	</g>
	<g>
		<polygon fill="#FFFFFF" points="377.3,52.1 402,102.2 457.3,110.3 417.3,149.3 426.8,204.3 377.3,178.3 327.8,204.3 337.3,149.3 
			297.3,110.3 352.6,102.2 		"/>
	</g>
</g>
</svg>
