<?xml version="1.0" encoding="utf-8"?>
<!-- Generator: Adobe Illustrator 22.1.0, SVG Export Plug-In . SVG Version: 6.00 Build 0)  -->
<svg version="1.1" id="Capa_1" xmlns="http://www.w3.org/2000/svg" xmlns:xlink="http://www.w3.org/1999/xlink" x="0px" y="0px"
	 viewBox="0 0 512 512" enable-background="new 0 0 512 512" xml:space="preserve">
<g>
	<path fill="#FF8E00" d="M99,427.2c5.6,0,9.1,0.6,10.7,1.7c2.9,2.1,4,5.9,3.3,11.6c-0.9,6.6-3.3,11.3-7.3,14
		c-1.9,1.6-5.4,2.4-10.6,2.4H77.9l7.7-29.7H99z M113.6,371.9c2.9,0,4.9,0.2,5.9,0.5c3.8,1.1,5.4,4.5,4.7,10.1
		c-0.7,5.4-2.6,9.5-5.7,12.2c-1.7,1.4-4.7,2.2-8.9,2.2H93.6l6.5-24.9H113.6z M15.6,496.2h82.8c20.1,0,34.7-2.1,43.7-6.3
		c9-4.2,16.4-10.5,22.2-19c5.8-8.5,9.1-17.7,9.7-27.9c1-16.4-5.6-27.2-19.9-32.3c8.8-1.6,16.1-5.7,21.8-12.3
		c5.7-6.6,8.9-14.7,9.4-24.2c1.3-20.6-10-32.3-33.8-35.3c-4.9-0.6-12.6-0.9-23.3-0.9H59.1L15.6,496.2z"/>
	<path fill="#003C80" d="M310.2,496.3L355,338.1l-48.3,0l-15.8,55.5c-2.9,10-5.6,22.3-8,37c-2.2-9.8-12.7-92.6-12.7-92.6l-62.7,0
		l-44.8,158.2l48.3,0l16.8-59.5c3.4-11.7,5.9-23,7.8-33.9c1.2,7.1,12,93.5,12,93.5L310.2,496.3z"/>
	<path fill-rule="evenodd" clip-rule="evenodd" fill="#00B153" d="M432.3,400.2c-0.1-13.3-4-22.6-10.8-22.6
		c-9.4,0-20.5,17.7-24.8,39.6c-4.3,21.9-0.2,39.6,9.1,39.6c5.8,0,12.2-6.7,17.2-17h65.3c-4.8,13.4-12.7,24.5-22.3,33.9
		c-15.3,15-35.7,22.5-61.3,22.5c-22.7,0-39.8-6.1-51.4-18.4c-11.5-12.3-16.6-29.8-15.2-52.5c0.7-11.7,3.4-23.4,8.1-35.1
		c4.7-11.7,10.6-21.5,17.7-29.5c16.8-18.9,39.3-28.4,67.5-28.4c20.8,0,37,5.3,48.8,15.9c11.7,10.6,17.1,24.7,15.9,42.4l0.1,9.6
		H432.3z"/>
	<path fill-rule="evenodd" clip-rule="evenodd" fill="#003C80" d="M43.3,95.8c21.2-25.1,53.4-46,92.7-60.1l-45.6,220L43.3,95.8z"/>
	<path fill-rule="evenodd" clip-rule="evenodd" fill="#003C80" d="M62,253.9c-29-24.8-46.2-55.3-46.2-88.3
		c0-23.5,8.7-45.7,24.1-65.5L62,253.9z"/>
	<path fill-rule="evenodd" clip-rule="evenodd" fill="#003C80" d="M456,248.7c-43.1,40.2-116.6,66.7-199.9,66.7
		c-21,0-41.3-1.7-60.7-4.8L456,248.7z"/>
	<path fill-rule="evenodd" clip-rule="evenodd" fill="#003C80" d="M446.5,74.2c31.3,25.3,49.9,57,49.9,91.4
		c0,29.4-13.6,56.8-37.1,80L147.8,295L446.5,74.2z"/>
	<path fill-rule="evenodd" clip-rule="evenodd" fill="#003C80" d="M293.8,17.6c61.7,6.1,115.7,26.8,152.3,56.3L133.5,280.6
		L293.8,17.6z"/>
	<path fill-rule="evenodd" clip-rule="evenodd" fill="#003C80" d="M256.1,15.7c12.4,0,24.5,0.6,36.4,1.7L117.5,261.3l20.7-226.4
		C173,22.7,213.2,15.7,256.1,15.7z"/>
</g>
<g>
	<g>
		
			<ellipse transform="matrix(0.7071 -0.7071 0.7071 0.7071 15.5926 306.1137)" fill="#BC042C" cx="377.3" cy="134.2" rx="121.5" ry="121.5"/>
		<path fill="#FFFFFF" d="M377.3,24.3c60.7,0,110,49.2,110,110c0,60.7-49.2,110-110,110c-60.7,0-110-49.2-110-110
			C267.3,73.5,316.6,24.3,377.3,24.3 M377.3,1.3c-35.5,0-68.9,13.8-94,38.9c-25.1,25.1-38.9,58.5-38.9,94c0,35.5,13.8,68.9,38.9,94
			c25.1,25.1,58.5,38.9,94,38.9s68.9-13.8,94-38.9c25.1-25.1,38.9-58.5,38.9-94c0-35.5-13.8-68.9-38.9-94
			C446.2,15.1,412.8,1.3,377.3,1.3L377.3,1.3z"/>
	</g>
	<g>
		<polygon fill="#FFFFFF" points="377.3,52.1 402,102.2 457.3,110.3 417.3,149.3 426.8,204.3 377.3,178.3 327.8,204.3 337.3,149.3 
			297.3,110.3 352.6,102.2 		"/>
	</g>
</g>
</svg>
