<?xml version="1.0" encoding="utf-8"?>
<!-- Generator: Adobe Illustrator 22.1.0, SVG Export Plug-In . SVG Version: 6.00 Build 0)  -->
<svg version="1.1" id="Capa_1" xmlns="http://www.w3.org/2000/svg" xmlns:xlink="http://www.w3.org/1999/xlink" x="0px" y="0px"
	 viewBox="0 0 512 512" enable-background="new 0 0 512 512" xml:space="preserve">
<g>
	<path fill="#FFE000" d="M368.5,112.1c0,15.5-12.6,28.1-28.1,28.1c-15.5,0-28.1-12.6-28.1-28.1c0-15.5,12.6-28.1,28.1-28.1
		C355.9,84,368.5,96.6,368.5,112.1z"/>
	<path fill-rule="evenodd" clip-rule="evenodd" fill="#0B6F3D" d="M420.9,82.5V151l-42,48.2c-34.2,48.2-70.8-2.3-70.8-2.3v-63.8
		c0,0,23.3,49,65.3-0.8L420.9,82.5z"/>
</g>
<g>
	<path fill-rule="evenodd" clip-rule="evenodd" fill="#0B6F3D" d="M11.9,158.6v132.5c-0.1,1.8-0.2,3.6-0.2,5.4
		c0,43.9,35.4,79.5,79,79.5c43.6,0,78.9-35.6,78.9-79.5c0-43.9-35.3-79.5-78.9-79.5c-16.2,0-31.2,4.9-43.7,13.3v-71.8H11.9z"/>
	<path fill="#FFFFFF" d="M135.7,296.9c0,25.3-21.2,45.8-47.2,45.8s-47.2-20.5-47.2-45.8c0-25.3,21.2-45.8,47.2-45.8
		S135.7,271.6,135.7,296.9z"/>
	<path fill-rule="evenodd" clip-rule="evenodd" fill="#0B6F3D" d="M334.2,298.6c0,42.9-34.6,77.7-77.2,77.7
		c-42.6,0-77.2-34.8-77.2-77.7c0-42.9,34.6-77.7,77.2-77.7C299.6,220.9,334.2,255.7,334.2,298.6z"/>
	<path fill="#FFFFFF" d="M304.4,300.4c0,25.8-21.6,46.7-48.1,46.7c-26.6,0-48.1-20.9-48.1-46.7c0-25.8,21.6-46.7,48.1-46.7
		C282.9,253.7,304.4,274.6,304.4,300.4z"/>
	<path fill-rule="evenodd" clip-rule="evenodd" fill="#0B6F3D" d="M499,288.6V158.4h-35.1v70.9c-0.1-0.1-0.2-0.1-0.2-0.2l-0.4,67.7
		v2.6H463c-1.4,23.9-21.9,42.9-46.9,42.9c-25.9,0-47-20.4-47-45.5s21-45.5,47-45.5c12,0,22.9,4.4,31.2,11.5V221
		c-8.3-3-17.3-4.7-26.6-4.7c-43.3,0-78.5,35.4-78.5,79c0,43.6,35.2,79.1,78.5,79.1c43.3,0,78.5-35.4,78.5-79.1
		C499.3,293.1,499.2,290.9,499,288.6z"/>
	<path fill="#0B6F3D" d="M189.3,365.1c0,7.4-6,13.4-13.4,13.4c-7.4,0-13.4-6-13.4-13.4c0-7.4,6-13.4,13.4-13.4
		C183.3,351.7,189.3,357.7,189.3,365.1z"/>
	<path fill="#0B6F3D" d="M356.4,365c0,7.4-6,13.4-13.4,13.4c-7.4,0-13.4-6-13.4-13.4c0-7.4,6-13.4,13.4-13.4
		C350.4,351.6,356.4,357.6,356.4,365z"/>
</g>
<g>
	<g>
		
			<ellipse transform="matrix(0.7071 -0.7071 0.7071 0.7071 15.5926 306.1137)" fill="#BC042C" cx="377.3" cy="134.2" rx="121.5" ry="121.5"/>
		<path fill="#FFFFFF" d="M377.3,24.3c60.7,0,110,49.2,110,110c0,60.7-49.2,110-110,110s-110-49.2-110-110
			C267.3,73.5,316.6,24.3,377.3,24.3 M377.3,1.3c-35.5,0-68.9,13.8-94,38.9c-25.1,25.1-38.9,58.5-38.9,94c0,35.5,13.8,68.9,38.9,94
			c25.1,25.1,58.5,38.9,94,38.9s68.9-13.8,94-38.9c25.1-25.1,38.9-58.5,38.9-94c0-35.5-13.8-68.9-38.9-94S412.8,1.3,377.3,1.3
			L377.3,1.3z"/>
	</g>
	<g>
		<polygon fill="#FFFFFF" points="377.3,52.1 402,102.2 457.3,110.3 417.3,149.3 426.8,204.3 377.3,178.3 327.8,204.3 337.3,149.3 
			297.3,110.3 352.6,102.2 		"/>
	</g>
</g>
</svg>
