<?xml version="1.0" encoding="utf-8"?>
<!-- Generator: Adobe Illustrator 22.1.0, SVG Export Plug-In . SVG Version: 6.00 Build 0)  -->
<svg version="1.1" id="Capa_1" xmlns="http://www.w3.org/2000/svg" xmlns:xlink="http://www.w3.org/1999/xlink" x="0px" y="0px"
	 viewBox="0 0 512 512" enable-background="new 0 0 512 512" xml:space="preserve">
<g>
	<g>
		<path d="M48.2,462.4l2.3,0.6c-0.5,1.9-1.3,3.3-2.6,4.3c-1.2,1-2.8,1.5-4.6,1.5c-1.9,0-3.4-0.4-4.5-1.1s-2.1-1.9-2.7-3.3
			c-0.6-1.4-0.9-3-0.9-4.6c0-1.8,0.3-3.4,1-4.7c0.7-1.3,1.7-2.4,2.9-3c1.3-0.7,2.7-1,4.2-1c1.7,0,3.2,0.4,4.4,1.3s2,2.1,2.5,3.7
			l-2.2,0.5c-0.4-1.3-1-2.2-1.7-2.7c-0.8-0.6-1.7-0.9-2.9-0.9c-1.3,0-2.4,0.3-3.3,1c-0.9,0.6-1.5,1.5-1.9,2.6
			c-0.4,1.1-0.5,2.2-0.5,3.3c0,1.5,0.2,2.7,0.6,3.8c0.4,1.1,1.1,1.9,2,2.5c0.9,0.5,1.9,0.8,2.9,0.8c1.3,0,2.4-0.4,3.2-1.1
			C47.3,464.9,47.9,463.8,48.2,462.4z"/>
		<path d="M52.6,460c0-2.9,0.8-5.1,2.3-6.7c1.5-1.6,3.5-2.4,6-2.4c1.6,0,3,0.4,4.3,1.1c1.3,0.8,2.3,1.8,2.9,3.2c0.7,1.4,1,2.9,1,4.6
			c0,1.7-0.4,3.3-1.1,4.7c-0.7,1.4-1.7,2.4-3,3.1c-1.3,0.7-2.7,1.1-4.2,1.1c-1.6,0-3.1-0.4-4.4-1.2c-1.3-0.8-2.2-1.9-2.9-3.2
			C53,463,52.6,461.5,52.6,460z M55,460.1c0,2.1,0.6,3.7,1.7,4.9c1.1,1.2,2.5,1.8,4.2,1.8c1.7,0,3.1-0.6,4.2-1.8
			c1.1-1.2,1.7-2.9,1.7-5.1c0-1.4-0.2-2.6-0.7-3.7c-0.5-1-1.2-1.9-2.1-2.4c-0.9-0.6-1.9-0.9-3.1-0.9c-1.6,0-3,0.6-4.2,1.7
			C55.6,455.6,55,457.5,55,460.1z"/>
		<path d="M72.1,468.4v-17.3h7.6c1.5,0,2.7,0.2,3.5,0.5c0.8,0.3,1.4,0.9,1.9,1.6c0.5,0.8,0.7,1.7,0.7,2.6c0,1.2-0.4,2.3-1.2,3.1
			c-0.8,0.8-2,1.4-3.7,1.6c0.6,0.3,1.1,0.6,1.4,0.9c0.7,0.6,1.3,1.4,1.9,2.3l3,4.7h-2.9l-2.3-3.6c-0.7-1-1.2-1.8-1.6-2.4
			c-0.4-0.5-0.8-0.9-1.2-1.2c-0.3-0.2-0.7-0.4-1-0.5c-0.3-0.1-0.7-0.1-1.3-0.1h-2.6v7.7H72.1z M74.4,458.8h4.9c1,0,1.9-0.1,2.4-0.3
			c0.6-0.2,1-0.6,1.3-1c0.3-0.5,0.5-1,0.5-1.5c0-0.8-0.3-1.5-0.9-2c-0.6-0.5-1.5-0.8-2.8-0.8h-5.5V458.8z"/>
		<path d="M89.5,468.4v-17.3H96c1.1,0,2,0.1,2.6,0.2c0.8,0.1,1.6,0.4,2.1,0.8c0.6,0.4,1,1,1.4,1.7c0.3,0.7,0.5,1.5,0.5,2.4
			c0,1.5-0.5,2.7-1.4,3.7c-0.9,1-2.6,1.5-5.1,1.5h-4.4v7H89.5z M91.8,459.4h4.5c1.5,0,2.5-0.3,3.1-0.8c0.6-0.5,0.9-1.3,0.9-2.3
			c0-0.7-0.2-1.3-0.5-1.9c-0.4-0.5-0.8-0.9-1.4-1c-0.4-0.1-1.1-0.2-2.1-0.2h-4.4V459.4z"/>
		<path d="M104.9,460c0-2.9,0.8-5.1,2.3-6.7c1.5-1.6,3.5-2.4,6-2.4c1.6,0,3,0.4,4.3,1.1c1.3,0.8,2.3,1.8,2.9,3.2
			c0.7,1.4,1,2.9,1,4.6c0,1.7-0.4,3.3-1.1,4.7c-0.7,1.4-1.7,2.4-3,3.1c-1.3,0.7-2.7,1.1-4.2,1.1c-1.6,0-3.1-0.4-4.4-1.2
			c-1.3-0.8-2.2-1.9-2.9-3.2C105.2,463,104.9,461.5,104.9,460z M107.2,460.1c0,2.1,0.6,3.7,1.7,4.9c1.1,1.2,2.5,1.8,4.2,1.8
			c1.7,0,3.1-0.6,4.2-1.8c1.1-1.2,1.7-2.9,1.7-5.1c0-1.4-0.2-2.6-0.7-3.7c-0.5-1-1.2-1.9-2.1-2.4c-0.9-0.6-1.9-0.9-3.1-0.9
			c-1.6,0-3,0.6-4.2,1.7C107.8,455.6,107.2,457.5,107.2,460.1z"/>
		<path d="M124.3,468.4v-17.3h7.6c1.5,0,2.7,0.2,3.5,0.5c0.8,0.3,1.4,0.9,1.9,1.6c0.5,0.8,0.7,1.7,0.7,2.6c0,1.2-0.4,2.3-1.2,3.1
			c-0.8,0.8-2,1.4-3.7,1.6c0.6,0.3,1.1,0.6,1.4,0.9c0.7,0.6,1.3,1.4,1.9,2.3l3,4.7h-2.9l-2.3-3.6c-0.7-1-1.2-1.8-1.6-2.4
			c-0.4-0.5-0.8-0.9-1.2-1.2c-0.3-0.2-0.7-0.4-1-0.5c-0.3-0.1-0.7-0.1-1.3-0.1h-2.6v7.7H124.3z M126.6,458.8h4.9
			c1,0,1.9-0.1,2.4-0.3c0.6-0.2,1-0.6,1.3-1c0.3-0.5,0.5-1,0.5-1.5c0-0.8-0.3-1.5-0.9-2c-0.6-0.5-1.5-0.8-2.8-0.8h-5.5V458.8z"/>
		<path d="M139.8,468.4l6.6-17.3h2.5l7.1,17.3h-2.6l-2-5.2h-7.2l-1.9,5.2H139.8z M144.8,461.3h5.8l-1.8-4.8c-0.5-1.5-1-2.6-1.2-3.6
			c-0.2,1.1-0.5,2.2-0.9,3.3L144.8,461.3z"/>
		<path d="M170.1,462.4l2.3,0.6c-0.5,1.9-1.3,3.3-2.6,4.3c-1.2,1-2.8,1.5-4.6,1.5c-1.9,0-3.4-0.4-4.5-1.1c-1.2-0.8-2.1-1.9-2.7-3.3
			c-0.6-1.4-0.9-3-0.9-4.6c0-1.8,0.3-3.4,1-4.7c0.7-1.3,1.7-2.4,2.9-3c1.3-0.7,2.7-1,4.2-1c1.7,0,3.2,0.4,4.4,1.3s2,2.1,2.5,3.7
			l-2.2,0.5c-0.4-1.3-1-2.2-1.7-2.7c-0.8-0.6-1.7-0.9-2.9-0.9c-1.3,0-2.4,0.3-3.3,1c-0.9,0.6-1.5,1.5-1.9,2.6
			c-0.4,1.1-0.5,2.2-0.5,3.3c0,1.5,0.2,2.7,0.6,3.8c0.4,1.1,1.1,1.9,2,2.5c0.9,0.5,1.9,0.8,2.9,0.8c1.3,0,2.4-0.4,3.2-1.1
			C169.2,464.9,169.8,463.8,170.1,462.4z"/>
		<path d="M175.6,468.4v-17.3h2.3v17.3H175.6z"/>
		<path d="M181.2,460c0-2.9,0.8-5.1,2.3-6.7c1.5-1.6,3.5-2.4,6-2.4c1.6,0,3,0.4,4.3,1.1c1.3,0.8,2.3,1.8,2.9,3.2
			c0.7,1.4,1,2.9,1,4.6c0,1.7-0.4,3.3-1.1,4.7c-0.7,1.4-1.7,2.4-3,3.1c-1.3,0.7-2.7,1.1-4.2,1.1c-1.6,0-3.1-0.4-4.4-1.2
			c-1.3-0.8-2.2-1.9-2.9-3.2C181.5,463,181.2,461.5,181.2,460z M183.5,460.1c0,2.1,0.6,3.7,1.7,4.9c1.1,1.2,2.5,1.8,4.2,1.8
			c1.7,0,3.1-0.6,4.2-1.8c1.1-1.2,1.7-2.9,1.7-5.1c0-1.4-0.2-2.6-0.7-3.7c-0.5-1-1.2-1.9-2.1-2.4c-0.9-0.6-1.9-0.9-3.1-0.9
			c-1.6,0-3,0.6-4.2,1.7C184.1,455.6,183.5,457.5,183.5,460.1z M188,450.1l1.6-3.3h2.8l-2.6,3.3H188z"/>
		<path d="M200.6,468.4v-17.3h2.3l9.1,13.5v-13.5h2.2v17.3h-2.3l-9.1-13.6v13.6H200.6z"/>
		<path d="M232.8,461.7v-2l7.3,0v6.4c-1.1,0.9-2.3,1.6-3.5,2c-1.2,0.5-2.4,0.7-3.7,0.7c-1.7,0-3.2-0.4-4.6-1.1
			c-1.4-0.7-2.4-1.8-3.1-3.1c-0.7-1.4-1.1-2.9-1.1-4.6c0-1.7,0.4-3.2,1.1-4.7c0.7-1.5,1.7-2.5,3-3.2c1.3-0.7,2.8-1.1,4.6-1.1
			c1.2,0,2.4,0.2,3.4,0.6c1,0.4,1.8,1,2.4,1.7c0.6,0.7,1,1.7,1.3,2.8l-2.1,0.6c-0.3-0.9-0.6-1.6-1-2.1c-0.4-0.5-0.9-0.9-1.6-1.2
			c-0.7-0.3-1.5-0.5-2.4-0.5c-1,0-1.9,0.2-2.7,0.5c-0.8,0.3-1.4,0.7-1.8,1.3c-0.5,0.5-0.8,1.1-1.1,1.7c-0.4,1.1-0.7,2.2-0.7,3.5
			c0,1.5,0.3,2.8,0.8,3.9c0.5,1,1.3,1.8,2.3,2.3c1,0.5,2.1,0.8,3.2,0.8c1,0,2-0.2,2.9-0.6c0.9-0.4,1.7-0.8,2.1-1.2v-3.2H232.8z"/>
		<path d="M243.5,468.4v-17.3h7.6c1.5,0,2.7,0.2,3.5,0.5c0.8,0.3,1.4,0.9,1.9,1.6c0.5,0.8,0.7,1.7,0.7,2.6c0,1.2-0.4,2.3-1.2,3.1
			c-0.8,0.8-2,1.4-3.7,1.6c0.6,0.3,1.1,0.6,1.4,0.9c0.7,0.6,1.3,1.4,1.9,2.3l3,4.7h-2.9l-2.3-3.6c-0.7-1-1.2-1.8-1.6-2.4
			c-0.4-0.5-0.8-0.9-1.2-1.2c-0.3-0.2-0.7-0.4-1-0.5c-0.3-0.1-0.7-0.1-1.3-0.1h-2.6v7.7H243.5z M245.8,458.8h4.9
			c1,0,1.9-0.1,2.4-0.3c0.6-0.2,1-0.6,1.3-1c0.3-0.5,0.5-1,0.5-1.5c0-0.8-0.3-1.5-0.9-2c-0.6-0.5-1.5-0.8-2.8-0.8h-5.5V458.8z"/>
		<path d="M272.2,451.2h2.3v10c0,1.7-0.2,3.1-0.6,4.1c-0.4,1-1.1,1.9-2.1,2.5c-1,0.6-2.4,1-4,1c-1.6,0-2.9-0.3-4-0.8
			c-1-0.6-1.8-1.4-2.2-2.4c-0.4-1.1-0.7-2.5-0.7-4.3v-10h2.3v10c0,1.5,0.1,2.6,0.4,3.3c0.3,0.7,0.8,1.3,1.4,1.6
			c0.7,0.4,1.5,0.6,2.5,0.6c1.7,0,2.9-0.4,3.6-1.1c0.7-0.8,1.1-2.2,1.1-4.4V451.2z"/>
		<path d="M278.3,468.4v-17.3h6.5c1.1,0,2,0.1,2.6,0.2c0.8,0.1,1.6,0.4,2.1,0.8c0.6,0.4,1,1,1.4,1.7c0.3,0.7,0.5,1.5,0.5,2.4
			c0,1.5-0.5,2.7-1.4,3.7c-0.9,1-2.6,1.5-5.1,1.5h-4.4v7H278.3z M280.6,459.4h4.5c1.5,0,2.5-0.3,3.1-0.8c0.6-0.5,0.9-1.3,0.9-2.3
			c0-0.7-0.2-1.3-0.5-1.9c-0.4-0.5-0.8-0.9-1.4-1c-0.4-0.1-1.1-0.2-2.1-0.2h-4.4V459.4z"/>
		<path d="M293.7,460c0-2.9,0.8-5.1,2.3-6.7c1.5-1.6,3.5-2.4,6-2.4c1.6,0,3,0.4,4.3,1.1c1.3,0.8,2.3,1.8,2.9,3.2
			c0.7,1.4,1,2.9,1,4.6c0,1.7-0.4,3.3-1.1,4.7c-0.7,1.4-1.7,2.4-3,3.1c-1.3,0.7-2.7,1.1-4.2,1.1c-1.6,0-3.1-0.4-4.4-1.2
			c-1.3-0.8-2.2-1.9-2.9-3.2C294,463,293.7,461.5,293.7,460z M296,460.1c0,2.1,0.6,3.7,1.7,4.9c1.1,1.2,2.5,1.8,4.2,1.8
			c1.7,0,3.1-0.6,4.2-1.8c1.1-1.2,1.7-2.9,1.7-5.1c0-1.4-0.2-2.6-0.7-3.7c-0.5-1-1.2-1.9-2.1-2.4c-0.9-0.6-1.9-0.9-3.1-0.9
			c-1.6,0-3,0.6-4.2,1.7C296.6,455.6,296,457.5,296,460.1z"/>
		<path d="M332.9,466.6c1.1,0.7,2,1.3,2.9,1.6l-0.7,1.6c-1.2-0.4-2.5-1.2-3.7-2.1c-1.3,0.7-2.7,1.1-4.2,1.1c-1.6,0-3-0.4-4.2-1.1
			c-1.3-0.8-2.2-1.8-2.9-3.2c-0.7-1.4-1-2.9-1-4.6c0-1.7,0.3-3.3,1-4.6c0.7-1.4,1.7-2.5,2.9-3.2c1.3-0.7,2.7-1.1,4.3-1.1
			c1.6,0,3,0.4,4.3,1.1c1.3,0.8,2.3,1.8,2.9,3.2c0.7,1.4,1,2.9,1,4.6c0,1.4-0.2,2.7-0.6,3.8C334.4,464.7,333.7,465.7,332.9,466.6z
			 M327.8,463.7c1.3,0.4,2.4,0.9,3.3,1.6c1.3-1.2,2-3.1,2-5.5c0-1.4-0.2-2.6-0.7-3.7c-0.5-1-1.2-1.9-2.1-2.4
			c-0.9-0.6-1.9-0.9-3.1-0.9c-1.7,0-3.1,0.6-4.2,1.7c-1.1,1.2-1.7,2.9-1.7,5.2c0,2.2,0.6,4,1.7,5.2c1.1,1.2,2.5,1.8,4.3,1.8
			c0.8,0,1.6-0.2,2.3-0.5c-0.7-0.5-1.5-0.8-2.3-1L327.8,463.7z"/>
		<path d="M349.9,451.2h2.3v10c0,1.7-0.2,3.1-0.6,4.1c-0.4,1-1.1,1.9-2.1,2.5c-1,0.6-2.4,1-4,1c-1.6,0-2.9-0.3-4-0.8
			c-1-0.6-1.8-1.4-2.2-2.4c-0.4-1.1-0.7-2.5-0.7-4.3v-10h2.3v10c0,1.5,0.1,2.6,0.4,3.3c0.3,0.7,0.8,1.3,1.4,1.6
			c0.7,0.4,1.5,0.6,2.5,0.6c1.7,0,2.9-0.4,3.6-1.1c0.7-0.8,1.1-2.2,1.1-4.4V451.2z"/>
		<path d="M355.7,450.1l1.6-3.3h2.8l-2.6,3.3H355.7z M356.3,468.4v-17.3h2.3v17.3H356.3z"/>
		<path d="M362.6,468.4v-17.3h3.4l4.1,12.2c0.4,1.1,0.7,2,0.8,2.6c0.2-0.6,0.5-1.5,0.9-2.8l4.1-12h3.1v17.3h-2.2V454l-5,14.4h-2.1
			l-5-14.7v14.7H362.6z"/>
		<path d="M383.1,468.4v-17.3h2.3v17.3H383.1z"/>
		<path d="M401.7,462.4l2.3,0.6c-0.5,1.9-1.3,3.3-2.6,4.3c-1.2,1-2.8,1.5-4.6,1.5c-1.9,0-3.4-0.4-4.5-1.1c-1.2-0.8-2.1-1.9-2.7-3.3
			c-0.6-1.4-0.9-3-0.9-4.6c0-1.8,0.3-3.4,1-4.7c0.7-1.3,1.7-2.4,2.9-3c1.3-0.7,2.7-1,4.2-1c1.7,0,3.2,0.4,4.4,1.3
			c1.2,0.9,2,2.1,2.5,3.7l-2.2,0.5c-0.4-1.3-1-2.2-1.7-2.7c-0.8-0.6-1.7-0.9-2.9-0.9c-1.3,0-2.4,0.3-3.3,1c-0.9,0.6-1.5,1.5-1.9,2.6
			c-0.4,1.1-0.5,2.2-0.5,3.3c0,1.5,0.2,2.7,0.6,3.8c0.4,1.1,1.1,1.9,2,2.5s1.9,0.8,2.9,0.8c1.3,0,2.4-0.4,3.2-1.1
			C400.8,464.9,401.4,463.8,401.7,462.4z"/>
		<path d="M406.1,460c0-2.9,0.8-5.1,2.3-6.7c1.5-1.6,3.5-2.4,6-2.4c1.6,0,3,0.4,4.3,1.1c1.3,0.8,2.3,1.8,2.9,3.2
			c0.7,1.4,1,2.9,1,4.6c0,1.7-0.4,3.3-1.1,4.7c-0.7,1.4-1.7,2.4-3,3.1c-1.3,0.7-2.7,1.1-4.2,1.1c-1.6,0-3.1-0.4-4.4-1.2
			c-1.3-0.8-2.2-1.9-2.9-3.2C406.5,463,406.1,461.5,406.1,460z M408.5,460.1c0,2.1,0.6,3.7,1.7,4.9c1.1,1.2,2.5,1.8,4.2,1.8
			c1.7,0,3.1-0.6,4.2-1.8c1.1-1.2,1.7-2.9,1.7-5.1c0-1.4-0.2-2.6-0.7-3.7c-0.5-1-1.2-1.9-2.1-2.4c-0.9-0.6-1.9-0.9-3.1-0.9
			c-1.6,0-3,0.6-4.2,1.7C409.1,455.6,408.5,457.5,408.5,460.1z"/>
		<path d="M425.8,468.4V466h2.4v2.4c0,0.9-0.2,1.6-0.5,2.1c-0.3,0.5-0.8,1-1.5,1.3l-0.6-0.9c0.4-0.2,0.8-0.5,1-0.9
			c0.2-0.4,0.3-0.9,0.4-1.6H425.8z"/>
		<path d="M451.3,462.4l2.3,0.6c-0.5,1.9-1.3,3.3-2.6,4.3c-1.2,1-2.8,1.5-4.6,1.5c-1.9,0-3.4-0.4-4.5-1.1c-1.2-0.8-2.1-1.9-2.7-3.3
			c-0.6-1.4-0.9-3-0.9-4.6c0-1.8,0.3-3.4,1-4.7c0.7-1.3,1.7-2.4,2.9-3c1.3-0.7,2.7-1,4.2-1c1.7,0,3.2,0.4,4.4,1.3s2,2.1,2.5,3.7
			l-2.2,0.5c-0.4-1.3-1-2.2-1.7-2.7c-0.8-0.6-1.7-0.9-2.9-0.9c-1.3,0-2.4,0.3-3.3,1c-0.9,0.6-1.5,1.5-1.9,2.6
			c-0.4,1.1-0.5,2.2-0.5,3.3c0,1.5,0.2,2.7,0.6,3.8c0.4,1.1,1.1,1.9,2,2.5c0.9,0.5,1.9,0.8,2.9,0.8c1.3,0,2.4-0.4,3.2-1.1
			C450.4,464.9,451,463.8,451.3,462.4z"/>
		<path d="M456.7,468.4V466h2.4v2.4H456.7z"/>
		<path d="M461.2,468.4l6.6-17.3h2.5l7.1,17.3h-2.6l-2-5.2h-7.2l-1.9,5.2H461.2z M466.1,461.3h5.8l-1.8-4.8c-0.5-1.5-1-2.6-1.2-3.6
			c-0.2,1.1-0.5,2.2-0.9,3.3L466.1,461.3z"/>
	</g>
	<path fill="#272425" d="M343,363.6v-4.8c4.2,0,7.7-1.5,10.4-4.5s4-7.2,4-12.8c0-3.5-0.6-6.5-1.7-9.1c-1.2-2.5-2.9-4.6-5.2-6
		c-2.3-1.4-4.8-2.2-7.5-2.2H343v-4.9l0,0c4,0,7.5,1,10.6,2.9c3.1,1.9,5.6,4.5,7.2,7.9c1.6,3.3,2.4,7.2,2.4,11.5s-0.8,8.2-2.6,11.6
		c-1.7,3.5-4.2,6-7.3,7.8C350.2,362.8,346.7,363.6,343,363.6L343,363.6z M343,319.3v4.9c-4,0-7.3,1.4-10.3,4.1
		c-2.8,2.7-4.2,7.3-4.2,13.8c0,5.2,1.3,9.2,4,12.1c2.8,3,6.2,4.5,10.4,4.5l0,0v4.8c-4,0-7.6-0.9-10.7-2.9c-3.2-1.9-5.6-4.6-7.2-8
		c-1.6-3.3-2.4-6.9-2.4-10.6c0-7.2,1.9-12.7,5.6-16.7C332.1,321.4,337,319.4,343,319.3L343,319.3z M301,345.6v-5.1h0.5
		c3.6,0,6.2-0.7,7.7-2.1c1.5-1.3,2.3-3.3,2.3-5.7c0-1.8-0.4-3.3-1.3-4.6c-0.9-1.2-2.1-2.1-3.6-2.5c-0.9-0.2-2.6-0.4-5.2-0.4H301v-5
		c2.7,0,4.9,0.1,6.3,0.4c2.1,0.4,3.9,1,5.3,2c1.4,1,2.5,2.4,3.4,4.1c0.8,1.8,1.3,3.8,1.3,5.8c0,3.7-1.1,6.8-3.5,9.2
		c-2.3,2.5-6.4,3.9-12.4,3.9H301z M301,320.1v5h-10.5v15.3H301v5.1h-10.5V363h-5.6v-42.8H301L301,320.1L301,320.1z M215.9,344.7V339
		h0.8c2.5,0,4.6-0.2,6-0.8s2.5-1.4,3.3-2.6c0.8-1.1,1.1-2.4,1.1-3.8c0-2.1-0.8-3.8-2.2-5c-1.5-1.3-3.8-2-7-2h-2.2v-4.7h2
		c3.8,0,6.7,0.4,8.7,1.1c2,0.8,3.5,2.1,4.7,4c1.2,2,1.8,4.1,1.8,6.5c0,3-1,5.6-2.9,7.6c-2,2.1-5,3.5-9,4c1.4,0.7,2.5,1.4,3.4,2.1
		c1.6,1.5,3.2,3.5,4.6,5.7l7.4,11.7h-7.1l-5.6-8.9c-1.7-2.5-3-4.5-4-5.9c-1.1-1.3-2.1-2.3-2.9-2.8
		C216.6,345.1,216.3,344.9,215.9,344.7L215.9,344.7z M269.8,320.1h5.6v24.7c0,4.3-0.5,7.7-1.5,10.3c-0.9,2.5-2.7,4.6-5.2,6.2
		c-2.5,1.6-5.8,2.4-10,2.4c-4,0-7.2-0.7-9.8-2.1c-2.5-1.3-4.3-3.4-5.4-6c-1.1-2.5-1.7-6.1-1.7-10.7v-24.7h5.6v24.7
		c0,3.8,0.4,6.5,1,8.2c0.7,1.8,1.9,3.2,3.6,4.1c1.6,0.9,3.7,1.4,6.1,1.4c4.1,0,7.1-0.9,8.8-2.8c1.7-1.9,2.6-5.6,2.6-10.9V320.1z
		 M172.7,346.1v-5l18.1-0.1V357c-2.8,2.3-5.6,4-8.6,5c-2.9,1.1-6,1.7-9,1.7c-4.2,0-8-0.8-11.4-2.6c-3.5-1.8-6-4.4-7.7-7.8
		c-1.8-3.5-2.6-7.2-2.6-11.5c0-4.1,0.8-8,2.5-11.7c1.8-3.6,4.2-6.3,7.5-8c3.2-1.8,7-2.6,11.2-2.6c3.1,0,5.8,0.5,8.4,1.5
		c2.4,0.9,4.4,2.4,5.8,4.1s2.4,4.1,3.2,7.1l-5.1,1.4c-0.7-2.3-1.4-4-2.4-5.2s-2.4-2.3-4.1-3c-1.7-0.8-3.7-1.1-5.8-1.1
		c-2.5,0-4.8,0.5-6.7,1.2s-3.4,1.8-4.5,3.1c-1.1,1.3-2.1,2.7-2.6,4.2c-1.1,2.6-1.7,5.6-1.7,8.7c0,3.8,0.7,7,2,9.5
		c1.3,2.6,3.2,4.5,5.7,5.7c2.4,1.2,5.1,1.9,7.9,1.9c2.4,0,4.8-0.5,7.2-1.4s4-2,5.3-3v-8H172.7L172.7,346.1z M215.9,320.1v4.7h-11.2
		V339h11.2v5.7c-0.5-0.3-1-0.5-1.6-0.6c-0.7-0.2-1.7-0.2-3-0.2h-6.6v19h-5.6v-42.8H215.9z"/>
	<path fill-rule="evenodd" clip-rule="evenodd" fill="#272425" d="M226.4,197.7V110h-18.8l12.4,9.6l0.2,78.4H220v20.2l-27.3,28.4
		v11.6l34.2-35.2l-0.3-25.4H226.4L226.4,197.7z M192.7,438.2v-7.4H454c16.8,0,24.2-11.3,11.2-24.8L287.8,221.6v-3.3v-24.7v-83.5h19
		l-12.6,9.6l-0.2,98.6l176.6,182.6l1.3,1.4l1.3,1.6l1.1,1.5l1,1.6l0.9,1.5l0.8,1.6l0.7,1.7l0.6,1.6l0.4,1.7l0.3,1.7l0.2,1.8
		l-0.1,1.7L479,422l-0.4,1.7l-0.6,1.6l-0.7,1.5l-0.8,1.5l-1,1.3l-1,1.3l-1.2,1.1l-1.3,1l-1.3,0.9l-1.4,0.8l-1.5,0.8l-1.5,0.7
		l-1.6,0.5l-1.7,0.5l-1.7,0.4l-1.7,0.3l-1.8,0.2l-1.8,0.1l-1.8,0.1H192.7z M192.7,246.7L40.7,404.1l-0.9,0.8l-1,1.2l-1,1.2l-0.9,1.2
		l-0.8,1.3l-0.8,1.3l-0.7,1.3L34,414l-0.5,1.4l-0.4,1.4l-0.2,1.5l-0.2,1.4v1.5l0.1,1.4l0.2,1.5l0.4,1.4l0.5,1.4l0.7,1.3l0.7,1.3
		l0.8,1.2L37,432l1,1l1.2,1l1.2,0.8l1.3,0.8l1.3,0.7l1.4,0.6l1.5,0.5l1.5,0.4l1.6,0.3l1.6,0.1l1.5,0.1h89.5v-7.4H52.4
		c-13.1,0-16.5-12.3-6.4-21.4l146.7-151.1V246.7L192.7,246.7z M192.7,430.8v7.4h-34.2v-7.4H192.7z"/>
	<path fill-rule="evenodd" clip-rule="evenodd" fill="#0000F9" d="M268.9,315.2h6.1V55.6l14.8-15.4h-20.9V315.2L268.9,315.2z
		 M205.1,381.2v-13.3H199v13.3H205.1L205.1,381.2z M205.1,315.2V92.6h-18.7l12.6,13.8v208.7H205.1L205.1,315.2z M241.3,315.2h6.2
		v-275h-21.1l14.9,15.4V315.2z"/>
	<g>
		<rect x="199" y="384.7" fill-rule="evenodd" clip-rule="evenodd" fill="#272425" width="6.1" height="43.2"/>
		<path fill="#272425" d="M138.7,426.3c-3,1.5-6.4,2.3-10.1,2.4v-4.9h0.1c1.5,0,3-0.2,4.4-0.6c-2.4-1.6-4.2-3.2-4.1-5.3h8.3
			c0.7,0.7,1.3,1.1,2,1.7c3-3,4.5-7.4,4.5-13.1c0-3.5-0.7-6.5-1.9-9c-1.1-2.5-2.9-4.6-5.3-6c-2.4-1.4-5-2.1-7.9-2.1h-0.1v-4.9l0,0
			c4.1,0,7.8,0.9,11.1,2.8c3.3,1.9,5.7,4.4,7.5,7.8c1.7,3.4,2.5,7.2,2.5,11.4c0,3.5-0.6,6.7-1.7,9.5c-0.9,2.4-2.3,4.5-4,6.4
			c4.6,2.4,9.1,4.6,11.1,10.7h-8.3C145.7,430.4,142.3,428.3,138.7,426.3L138.7,426.3z M184.3,385.3h5.6V410c0,4.2-0.5,7.6-1.5,10.2
			c-0.9,2.5-2.7,4.6-5.3,6.1c-2.5,1.6-5.8,2.4-10,2.4c-4,0-7.3-0.8-9.9-2.1c-2.5-1.4-4.3-3.4-5.5-6c-1-2.6-1.6-6.1-1.6-10.6v-24.7
			h5.6v24.6c0,3.8,0.4,6.5,1,8.2c0.7,1.8,1.9,3.1,3.6,4c1.7,1,3.8,1.5,6.2,1.5c4.1,0,7.2-0.9,8.8-2.8c1.8-1.9,2.7-5.6,2.7-10.9
			V385.3z M128.7,428.7L128.7,428.7c-4,0-7.7-0.9-11-2.8c-3.2-1.9-5.7-4.5-7.5-7.8c-1.7-3.4-2.6-7.2-2.6-11.5c0-4.1,0.9-8,2.6-11.5
			c1.8-3.4,4.3-6,7.6-7.8s6.9-2.7,10.9-2.7v4.9c-4.3,0-7.9,1.4-10.8,4.2c-2.8,2.9-4.3,7.2-4.3,12.9c0,5.6,1.5,9.9,4.3,12.8
			c2.8,2.9,6.4,4.4,10.8,4.4V428.7z"/>
		<g>
			<path fill="#272425" d="M215.8,427.9v-42.6h8.4l10,30.2c0.9,2.7,1.6,4.9,2.1,6.3c0.5-1.6,1.2-3.9,2.2-6.9l10.1-29.7h7.5v42.6
				h-5.4v-35.7l-12.2,35.7h-5l-12.2-36.3v36.3H215.8z"/>
			<g>
				<path fill="#272425" d="M344.5,384.5L344.5,384.5c4,0,7.5,0.9,10.7,2.8c3.2,1.9,5.6,4.5,7.2,7.9c1.7,3.3,2.5,7.2,2.5,11.4
					c0,4.3-0.9,8.2-2.6,11.6c-1.8,3.5-4.2,6-7.4,7.8c-3.3,1.7-6.8,2.6-10.4,2.6v-4.9c4.2,0,7.7-1.5,10.5-4.4c2.7-3,4.1-7.2,4.1-12.7
					c0-3.5-0.7-6.5-1.8-9.1c-1.2-2.5-2.9-4.6-5.2-6c-2.3-1.4-4.8-2.1-7.6-2.1h-0.1V384.5z M324,407.1c0-7.1,1.9-12.6,5.7-16.6
					c3.9-4,8.8-6,14.8-6v4.9c-4,0-7.4,1.3-10.4,4c-2.8,2.7-4.3,7.3-4.3,13.7c0,5.2,1.4,9.2,4.1,12.1c2.8,3,6.3,4.4,10.5,4.4l0,0v4.9
					c-4,0-7.6-1-10.8-2.9c-3.2-2-5.6-4.6-7.2-8C324.9,414.5,324,410.9,324,407.1z"/>
				<path fill="#272425" d="M312.8,413l5.9,1.4c-1.2,4.6-3.5,8.2-6.8,10.6c-3.2,2.4-7.2,3.7-12,3.7c-4.8,0-8.8-0.9-11.9-2.8
					c-3-1.9-5.4-4.6-7-8.2c-1.5-3.5-2.4-7.3-2.4-11.4c0-4.4,0.9-8.3,2.7-11.6s4.3-5.8,7.6-7.5c3.3-1.8,7-2.6,11-2.6
					c4.5,0,8.3,1.1,11.4,3.3c3,2.2,5.2,5.2,6.4,9.1l-5.8,1.3c-1.1-3.1-2.6-5.4-4.6-6.8c-2-1.4-4.5-2.1-7.5-2.1
					c-3.5,0-6.3,0.8-8.7,2.4c-2.4,1.5-4,3.7-4.9,6.3c-0.9,2.6-1.4,5.4-1.4,8.2c0,3.6,0.5,6.8,1.6,9.5c1.1,2.6,2.9,4.7,5.3,6
					c2.4,1.3,4.9,2,7.6,2c3.4,0,6.2-0.8,8.6-2.7C310.4,419.3,312,416.5,312.8,413z"/>
				<rect x="266.8" y="385.3" fill="#272425" width="5.7" height="42.6"/>
			</g>
		</g>
	</g>
</g>
<g>
	<g>
		
			<ellipse transform="matrix(0.7071 -0.7071 0.7071 0.7071 15.5927 306.1138)" fill="#BC042C" cx="377.3" cy="134.2" rx="121.5" ry="121.5"/>
		<path fill="#FFFFFF" d="M377.3,24.3c60.7,0,110,49.2,110,110s-49.2,110-110,110s-110-49.2-110-110S316.6,24.3,377.3,24.3
			 M377.3,1.3c-35.5,0-68.9,13.8-94,38.9c-25.1,25.1-38.9,58.5-38.9,94s13.8,68.9,38.9,94c25.1,25.1,58.5,38.9,94,38.9
			s68.9-13.8,94-38.9c25.1-25.1,38.9-58.5,38.9-94s-13.8-68.9-38.9-94C446.2,15.1,412.8,1.3,377.3,1.3L377.3,1.3z"/>
	</g>
	<g>
		<polygon fill="#FFFFFF" points="377.3,52.1 402,102.2 457.3,110.3 417.3,149.3 426.8,204.3 377.3,178.3 327.8,204.3 337.3,149.3 
			297.3,110.3 352.6,102.2 		"/>
	</g>
</g>
</svg>
