<?xml version="1.0" encoding="utf-8"?>
<!-- Generator: Adobe Illustrator 22.1.0, SVG Export Plug-In . SVG Version: 6.00 Build 0)  -->
<svg version="1.1" id="Capa_1" xmlns="http://www.w3.org/2000/svg" xmlns:xlink="http://www.w3.org/1999/xlink" x="0px" y="0px"
	 viewBox="0 0 512 512" enable-background="new 0 0 512 512" xml:space="preserve">
<path fill-rule="evenodd" clip-rule="evenodd" fill="#272525" d="M470.3,85.9c-40.6-37.7-100.5-39.4-133.6-3.7
	c-27.8,30-27.9,76.7-3.2,113.3c-22.9-12.2-49.7-19.3-78.2-19.3c-28.5,0-55.2,7-78.1,19.2c25.8-39.3,23.4-89.3-8.1-118.5
	c-35.7-33.1-95.2-27.1-133,13.6C-1.6,131.2-3.2,191,32.5,224.2c25.3,23.4,62.4,27.2,95.4,13c-17.1,22.5-27.1,49.8-27.1,79.2
	c0,77.3,69.2,140.1,154.5,140.1c85.3,0,154.5-62.7,154.5-140.1c0-30-10.4-57.7-28.1-80.5c36,15.7,76.8,10.3,102.1-16.9
	C517,183.2,510.9,123.7,470.3,85.9z"/>
<g>
	<g>
		
			<ellipse transform="matrix(0.7071 -0.7071 0.7071 0.7071 15.5927 306.1138)" fill="#BC042C" cx="377.3" cy="134.2" rx="121.5" ry="121.5"/>
		<path fill="#FFFFFF" d="M377.3,24.3c60.7,0,110,49.2,110,110c0,60.7-49.2,110-110,110s-110-49.2-110-110
			C267.3,73.5,316.6,24.3,377.3,24.3 M377.3,1.3c-35.5,0-68.9,13.8-94,38.9c-25.1,25.1-38.9,58.5-38.9,94c0,35.5,13.8,68.9,38.9,94
			c25.1,25.1,58.5,38.9,94,38.9s68.9-13.8,94-38.9c25.1-25.1,38.9-58.5,38.9-94c0-35.5-13.8-68.9-38.9-94
			C446.2,15.1,412.8,1.3,377.3,1.3L377.3,1.3z"/>
	</g>
	<g>
		<polygon fill="#FFFFFF" points="377.3,52.1 402,102.2 457.3,110.3 417.3,149.3 426.8,204.3 377.3,178.3 327.8,204.3 337.3,149.3 
			297.3,110.3 352.6,102.2 		"/>
	</g>
</g>
</svg>
