<?xml version="1.0" encoding="utf-8"?>
<!-- Generator: Adobe Illustrator 22.1.0, SVG Export Plug-In . SVG Version: 6.00 Build 0)  -->
<svg version="1.1" id="Capa_1" xmlns="http://www.w3.org/2000/svg" xmlns:xlink="http://www.w3.org/1999/xlink" x="0px" y="0px"
	 viewBox="0 0 512 512" enable-background="new 0 0 512 512" xml:space="preserve">
<g>
	<circle fill="#0070B9" cx="384" cy="127.7" r="96.1"/>
	<path fill="#0070B9" d="M151.9,258.9c0-25,9.1-47.8,24.2-65.5c1-1.6,2.2-3.1,3.6-4.5L314.9,53.8c-16.4-4.9-33.5-7.9-51.3-8.7v-0.3
		H31.9v435.7h231.7v-0.3c80.8-4,150-52,184.1-120.5H252.7C197.1,359.7,151.9,314.5,151.9,258.9z"/>
	<path fill="#2B2523" d="M459.7,194.5L323.3,330.9c-0.7,0.7-1.4,1.4-2.2,2c-18,16.6-42,26.7-68.3,26.7h195.1
		c14.6-29.2,22.8-62.2,22.8-97.1C470.6,238.8,466.8,215.9,459.7,194.5z"/>
</g>
<g>
	<g>
		
			<ellipse transform="matrix(0.7071 -0.7071 0.7071 0.7071 15.5926 306.1137)" fill="#BC042C" cx="377.3" cy="134.2" rx="121.5" ry="121.5"/>
		<path fill="#FFFFFF" d="M377.3,24.3c60.7,0,110,49.2,110,110c0,60.7-49.2,110-110,110s-110-49.2-110-110
			C267.3,73.5,316.6,24.3,377.3,24.3 M377.3,1.3c-35.5,0-68.9,13.8-94,38.9c-25.1,25.1-38.9,58.5-38.9,94c0,35.5,13.8,68.9,38.9,94
			c25.1,25.1,58.5,38.9,94,38.9s68.9-13.8,94-38.9c25.1-25.1,38.9-58.5,38.9-94c0-35.5-13.8-68.9-38.9-94S412.8,1.3,377.3,1.3
			L377.3,1.3z"/>
	</g>
	<g>
		<polygon fill="#FFFFFF" points="377.3,52.1 402,102.2 457.3,110.3 417.3,149.3 426.8,204.3 377.3,178.3 327.8,204.3 337.3,149.3 
			297.3,110.3 352.6,102.2 		"/>
	</g>
</g>
</svg>
