<?xml version="1.0" encoding="utf-8"?>
<!-- Generator: Adobe Illustrator 22.1.0, SVG Export Plug-In . SVG Version: 6.00 Build 0)  -->
<svg version="1.1" id="Capa_1" xmlns="http://www.w3.org/2000/svg" xmlns:xlink="http://www.w3.org/1999/xlink" x="0px" y="0px"
	 viewBox="0 0 512 512" enable-background="new 0 0 512 512" xml:space="preserve">
<g>
	<polygon fill="#014288" points="488.8,86.9 488.8,40.1 118.4,40.1 23.2,40.1 23.2,86.9 23.2,119.7 23.2,166.5 23.2,199.3 
		23.2,246.1 118.4,246.1 488.8,246.1 488.8,199.3 118.4,199.3 118.4,166.5 488.8,166.5 488.8,119.7 118.4,119.7 118.4,86.9 	"/>
	<polygon fill="#014288" points="23.2,255.4 258.7,471.9 488.8,255.4 256,306.2 	"/>
</g>
<g>
	<g>
		
			<ellipse transform="matrix(0.7071 -0.7071 0.7071 0.7071 15.5927 306.1138)" fill="#BC042C" cx="377.3" cy="134.2" rx="121.5" ry="121.5"/>
		<path fill="#FFFFFF" d="M377.3,24.3c60.7,0,110,49.2,110,110c0,60.7-49.2,110-110,110s-110-49.2-110-110
			C267.3,73.5,316.6,24.3,377.3,24.3 M377.3,1.3c-35.5,0-68.9,13.8-94,38.9c-25.1,25.1-38.9,58.5-38.9,94c0,35.5,13.8,68.9,38.9,94
			c25.1,25.1,58.5,38.9,94,38.9s68.9-13.8,94-38.9c25.1-25.1,38.9-58.5,38.9-94c0-35.5-13.8-68.9-38.9-94
			C446.2,15.1,412.8,1.3,377.3,1.3L377.3,1.3z"/>
	</g>
	<g>
		<polygon fill="#FFFFFF" points="377.3,52.1 402,102.2 457.3,110.3 417.3,149.3 426.8,204.3 377.3,178.3 327.8,204.3 337.3,149.3 
			297.3,110.3 352.6,102.2 		"/>
	</g>
</g>
</svg>
