<?xml version="1.0" encoding="utf-8"?>
<!-- Generator: Adobe Illustrator 22.1.0, SVG Export Plug-In . SVG Version: 6.00 Build 0)  -->
<svg version="1.1" id="Capa_1" xmlns="http://www.w3.org/2000/svg" xmlns:xlink="http://www.w3.org/1999/xlink" x="0px" y="0px"
	 viewBox="0 0 512 512" enable-background="new 0 0 512 512" xml:space="preserve">
<g>
	<path fill-rule="evenodd" clip-rule="evenodd" fill="#E09142" d="M152.8,225.5c0-18.3-10.4-32.8-29.9-32.8
		c-17,0-27.2,11.3-27.2,27.9c0,18.7,10.9,33.3,30.7,33.3C143.8,254,152.8,242.1,152.8,225.5z"/>
	<path fill-rule="evenodd" clip-rule="evenodd" fill="#E09142" d="M380.2,57.8c-22.3-3.7-42.5-4-64.8-4
		C222.2,53.7,78.3,70,32.1,165.6c-6.9,13.8-11,33.2-11,49.4c0,24.7,3.7,47.1,14.2,70.6c17.8,39.7,49.8,62.4,93.6,62.4
		c12.2,0,23.2-1.2,30-3.7c6.9-2.9,13.8-8.1,13.8-17.8c0-4.8-3.6-10.1-8.9-12.1c-5.7-2-10.6-2.5-25.5-3.3c-15-0.8-20.3-1.2-30.8-2
		c-16.6-1.6-25.1-12.5-25.1-23.1c0-9.3,6.5-17.4,18.7-23.1c-16.3-6.1-27.4-21.5-27.4-38.8c0-25.2,19.6-44.7,51.3-44.7
		c6.9,0,15,1.6,21.9,3.6c5.7,1.6,11.8,2.9,18.3,2.9c7.7,0,16.6-0.4,23.9-2.5v16.2c-4-0.8-17-1.6-23.9-1.6
		c6.5,7.4,10.1,17.4,10.1,27.2c0,22.7-17.8,41.7-49.4,41.7c-2.7,0-5.7-0.1-9.1-0.5c-3.3,0.6-6.3,2-8.6,3.9c-3.4,2.8-5,6.3-5,9.5
		c0,5.2,2.9,9.3,15.8,10.1l28,1.6c27.2,1.6,41.7,12.6,41.3,32c-0.8,22.3-18.7,38.5-61.6,38.5c-11.4,0-26.4-2-39.8-6.1
		c-9.7-2.8-19-8-27.1-14.2C96.1,404.3,160.9,458.3,236,458.3c36.4,0,67.7-13,96.8-34.5c69.7-51.9,158.1-168.3,158.1-258.6
		C490.9,97.5,441.8,67.5,380.2,57.8z M237.5,311.5c-14.2,0-26.7-2.9-39.7-8.1v-18.7c13.4,7.3,30,11.8,40.5,11.8
		c11.4,0,25.5-2.9,25.5-16.2c0-13.4-14.2-19.9-29.6-27.2c-17-8.1-35.3-17-35.3-37.7c0-25.1,24.3-36,46.2-36
		c11.8,0,23.6,2.8,33.6,8.4v18.3c-9.7-7.8-21.5-12.2-34-12.2c-12.2,0-24,4.8-24,15.8c0,13,15.5,20.3,31.7,28.3
		c17,8.6,34.8,18.3,34.8,36.9C287.4,302.2,260.3,311.5,237.5,311.5z M402.1,309.9c-11.4,0-21.2-5.7-32.7-18.4
		c-1.1-1.2-2.2-2.5-3.4-3.9c-20.6-24.7-37.3-44.6-37.3-44.6v32.4c0,2.9,0,5.6,0.1,7.9c0.3,15.8,1.4,19.1,3.1,23.7h-30
		c2.3-6.1,3.5-8.6,3.6-28.3V163.2c0-18.3-1.2-26.4-4.8-31.3l28-7.3v108.6l36.8-34.5c0,0,7.3-6.5,13.8-15h32
		c-1.6,0.4-7.3,1.6-27.6,20.7l-34.5,32.4c0,0,20.7,24.3,40.2,45.8c7.6,8.2,14.2,13.6,19.8,16.8c5.5,3.1,10,4.3,13.4,4.3
		c1.2,0,2.8-0.4,4-0.8C420.8,307.4,411.9,309.9,402.1,309.9z"/>
</g>
<g>
	<g>
		<circle fill="#BC042C" cx="377.3" cy="134.2" r="121.5"/>
		<path fill="#FFFFFF" d="M377.3,24.3c60.7,0,110,49.2,110,110c0,60.7-49.2,110-110,110s-110-49.2-110-110
			C267.3,73.5,316.6,24.3,377.3,24.3 M377.3,1.3c-35.5,0-68.9,13.8-94,38.9c-25.1,25.1-38.9,58.5-38.9,94c0,35.5,13.8,68.9,38.9,94
			c25.1,25.1,58.5,38.9,94,38.9c35.5,0,68.9-13.8,94-38.9c25.1-25.1,38.9-58.5,38.9-94c0-35.5-13.8-68.9-38.9-94
			S412.8,1.3,377.3,1.3L377.3,1.3z"/>
	</g>
	<g>
		<polygon fill="#FFFFFF" points="377.3,52.1 402,102.2 457.3,110.3 417.3,149.3 426.8,204.3 377.3,178.3 327.8,204.3 337.3,149.3 
			297.3,110.3 352.6,102.2 		"/>
	</g>
</g>
</svg>
