<?xml version="1.0" encoding="utf-8"?>
<!-- Generator: Adobe Illustrator 22.1.0, SVG Export Plug-In . SVG Version: 6.00 Build 0)  -->
<svg version="1.1" id="Capa_1" xmlns="http://www.w3.org/2000/svg" xmlns:xlink="http://www.w3.org/1999/xlink" x="0px" y="0px"
	 viewBox="0 0 512 512" enable-background="new 0 0 512 512" xml:space="preserve">
<g>
	<path fill-rule="evenodd" clip-rule="evenodd" fill="#2C72B1" d="M14.1,283.6v12.9c0,22.8,9,43,18.2,56.8
		c10.4,15.6,24.3,24.8,40.2,34.8c12.5,7.9,37.9,16.7,55,20c21.1,4.2,42.4,7.3,67.7,7.3h12.5c77.9,0,157.1-22.6,208.1-49.6v-36.7
		c-13.8,7.3-30.8,16.9-46.7,21.9c-3.4,1-8.7,3.4-12.3,4.7c-4.4,1.6-8.6,2.7-13,4.4c-6.5,2.5-19.5,6-26.7,7.6
		c-9.3,2-18.1,4.5-27.8,6.5c-10,2-19,3.1-29.4,4.9c-9.6,1.7-21,2.3-31.3,3c-10.7,0.7-21.9,1.2-33.5,1.2h-2.4
		c-41.3,0-80.7-6.5-108.3-20.3C57.8,349.7,33,325,33,285.6V282c0-18.5,5.7-32.8,11-46.2c2.4-5.9,6.8-13.4,10.2-18.5
		c2.1-3.2,3.8-5.5,6-8.5c2-2.7,5.1-5.6,6.6-7.9v-12.9c-6.4,4.3-13.2,12.8-18.6,18.5c-6.2,6.4-10.8,13.6-15.9,21.2
		C24.8,239,14.1,265.2,14.1,283.6L14.1,283.6z"/>
	<path fill-rule="evenodd" clip-rule="evenodd" fill="#2C72B1" d="M497.9,213.9v-11.7c-0.1-0.2-1.9-13.1-2.2-14.8
		c-0.8-4.2-2.3-9.6-3.7-13.2c-3.6-9-6.7-15-12.1-22.2c-10.1-13.2-22.1-22.8-37.1-31.1c-27.5-15.2-69.5-24.5-112.2-24.5H327
		c-44.1,0-80.7,7.3-115.2,17.1c-9.1,2.6-16.5,5.2-25,8.1c-7,2.3-17.3,6.2-23.7,9.4c-7.5,3.7-15.1,7-22.4,10.6
		c-3.9,1.9-18.9,11.1-21.4,11.7v9.7c3.3-0.8,15.6-7.5,20.3-9.5c6.5-2.8,14.7-6.9,21.3-8.9c3-0.9,7.9-2.8,10.9-4
		c3.6-1.5,7.4-2.5,11.2-3.7c7.3-2.4,15.4-5.2,23.1-7.1c16.6-4.2,31.2-7.5,49.3-10.7c15.5-2.7,37.2-5.5,54.6-5.5h18.1
		c35.3,0,73.6,8.1,96.2,20.7c13.7,7.6,23,14.1,32.5,26c7.1,9,16.1,26.9,16.1,42.8v6.9c0,16.7-8.7,34.8-16,44.5
		c-4.4,5.9-8.8,11.2-14.2,16.1c-2.6,2.4-14.9,12.1-17.8,12.8v26.6c5.7-0.5,22.8-11.5,27.2-14.8c8.1-6,15.4-13,21.5-20.8
		c7-8.9,10.8-15.5,15.9-26.4c2.3-5,3.7-10,5.3-15.6C495.6,230,497.9,213.9,497.9,213.9L497.9,213.9z"/>
	<path fill-rule="evenodd" clip-rule="evenodd" fill="#2C72B1" d="M280.6,258.6v4.8c0,27.7,17,48,44.8,48h5.2c8.4,0,14.4-2,20.4-4.6
		c6.5-2.8,9.9-7.5,14.8-10.8L350,281.2c-3.1,4.7-11.8,9.3-19.8,9.3h-4.4c-10.5,0-20.2-8.9-20.2-19v-2.8h62.9v-10.9
		c0-12.8-4.6-25.2-10.2-32.6c-5.3-7-16.1-15-28.1-15h-7.7c-12.7,0-24.2,8-30.3,14.8C285.9,232,280.6,245.4,280.6,258.6L280.6,258.6z
		 M305.6,248.9v2.8h37.9v-2c0-10-7.2-19-17.7-19h-2C314.5,230.8,305.6,239.9,305.6,248.9L305.6,248.9z"/>
	<path fill-rule="evenodd" clip-rule="evenodd" fill="#2C72B1" d="M131.8,309.8h24.6V232h22.2c4.9,0,8.9,3.8,8.9,8.5v69.4h25v-69
		c0-16.4-11.1-29-27.4-29h-53.2V309.8L131.8,309.8z"/>
	<path fill-rule="evenodd" clip-rule="evenodd" fill="#2C72B1" d="M230.6,280.8c0,16.6,10.8,29,27,29h16.9v-21H262
		c-3.7,0-6.5-4.3-6.5-8.1V232h19v-20.2h-19v-27h-25V280.8L230.6,280.8z"/>
	<path fill-rule="evenodd" clip-rule="evenodd" fill="#2C72B1" d="M383,286c0,6.7,4.1,12.8,7.6,16.2c1.9,1.9,4.8,3.4,7.6,4.5
		c3.9,1.5,5.8,1.3,9.8,2.2V171.1h-25V286L383,286z"/>
	<path fill-rule="evenodd" clip-rule="evenodd" fill="#2C72B1" d="M84.1,234.8l0.1,48.8c0,16.5,9.7,27.1,25.4,27.4v-99.2l-24.9,0
		L84.1,234.8L84.1,234.8z"/>
	<polygon fill-rule="evenodd" clip-rule="evenodd" fill="#2C72B1" points="84.6,198.1 109.6,198.1 109.6,174.3 84.6,174.3 
		84.6,198.1 	"/>
	<path fill-rule="evenodd" clip-rule="evenodd" fill="#2C72B1" d="M435,171c1.7,0,3.3,0.4,4.9,1.3c1.6,0.9,2.8,2.1,3.7,3.7
		c0.9,1.6,1.3,3.3,1.3,5c0,1.7-0.4,3.4-1.3,5c-0.9,1.6-2.1,2.8-3.7,3.7c-1.6,0.9-3.2,1.3-5,1.3c-1.7,0-3.4-0.4-5-1.3
		c-1.6-0.9-2.8-2.1-3.7-3.7c-0.9-1.6-1.3-3.2-1.3-5c0-1.7,0.4-3.4,1.3-5c0.9-1.6,2.1-2.8,3.7-3.7C431.7,171.4,433.3,171,435,171
		L435,171z M435,172.7c-1.4,0-2.8,0.4-4.1,1.1c-1.3,0.7-2.4,1.8-3.1,3.1c-0.8,1.3-1.1,2.7-1.1,4.2c0,1.4,0.4,2.8,1.1,4.1
		c0.7,1.3,1.8,2.4,3.1,3.1c1.3,0.7,2.7,1.1,4.2,1.1c1.4,0,2.8-0.4,4.2-1.1c1.3-0.7,2.4-1.8,3.1-3.1c0.7-1.3,1.1-2.7,1.1-4.1
		c0-1.5-0.4-2.8-1.1-4.2c-0.7-1.3-1.8-2.4-3.1-3.1C437.8,173,436.4,172.7,435,172.7L435,172.7z M430.6,186.6v-10.8h3.7
		c1.3,0,2.2,0.1,2.7,0.3c0.6,0.2,1,0.5,1.4,1c0.3,0.5,0.5,1,0.5,1.6c0,0.8-0.3,1.5-0.8,2.1c-0.6,0.6-1.3,0.9-2.2,1
		c0.4,0.2,0.7,0.3,0.9,0.6c0.4,0.4,1,1.1,1.6,2.1l1.3,2.1h-2.1l-1-1.7c-0.8-1.3-1.4-2.2-1.8-2.5c-0.3-0.2-0.8-0.4-1.4-0.4h-1v4.6
		H430.6L430.6,186.6z M432.3,180.5h2.1c1,0,1.7-0.2,2.1-0.5c0.4-0.3,0.6-0.7,0.6-1.2c0-0.3-0.1-0.6-0.3-0.9
		c-0.2-0.2-0.4-0.4-0.7-0.6c-0.3-0.1-0.9-0.2-1.7-0.2h-2V180.5L432.3,180.5z"/>
</g>
<g>
	<g>
		
			<ellipse transform="matrix(0.7071 -0.7071 0.7071 0.7071 15.5926 306.1137)" fill="#BC042C" cx="377.3" cy="134.2" rx="121.5" ry="121.5"/>
		<path fill="#FFFFFF" d="M377.3,24.3c60.7,0,110,49.2,110,110c0,60.7-49.2,110-110,110c-60.7,0-110-49.2-110-110
			C267.3,73.5,316.6,24.3,377.3,24.3 M377.3,1.3c-35.5,0-68.9,13.8-94,38.9c-25.1,25.1-38.9,58.5-38.9,94c0,35.5,13.8,68.9,38.9,94
			c25.1,25.1,58.5,38.9,94,38.9s68.9-13.8,94-38.9c25.1-25.1,38.9-58.5,38.9-94c0-35.5-13.8-68.9-38.9-94
			C446.2,15.1,412.8,1.3,377.3,1.3L377.3,1.3z"/>
	</g>
	<g>
		<polygon fill="#FFFFFF" points="377.3,52.1 402,102.2 457.3,110.3 417.3,149.3 426.8,204.3 377.3,178.3 327.8,204.3 337.3,149.3 
			297.3,110.3 352.6,102.2 		"/>
	</g>
</g>
</svg>
