<?xml version="1.0" encoding="utf-8"?>
<!-- Generator: Adobe Illustrator 22.1.0, SVG Export Plug-In . SVG Version: 6.00 Build 0)  -->
<svg version="1.1" id="Capa_1" xmlns="http://www.w3.org/2000/svg" xmlns:xlink="http://www.w3.org/1999/xlink" x="0px" y="0px"
	 viewBox="0 0 512 512" enable-background="new 0 0 512 512" xml:space="preserve">
<g>
	<path fill="#EFC231" d="M328.9,96.9c36.6,0,66.3,154.3,66.3,344.6h53c0-205-53.4-371.1-119.3-371.1c-37.5,0-70.9,49.9-92.8,128
		c-21.9-78.1-55.3-128-92.8-128C77.5,70.4,24,236.6,24,441.6h53c0-190.3,29.7-344.6,66.3-344.6c36.6,0,66.3,142.4,66.3,318.1h53
		C262.6,239.4,292.3,96.9,328.9,96.9"/>
	<path fill="#EFC231" d="M474.7,415.1c7.2,0,13.2,5.7,13.2,13.2c0,7.6-6,13.3-13.2,13.3c-7.2,0-13.3-5.7-13.3-13.3
		C461.5,420.8,467.5,415.1,474.7,415.1 M474.7,439.6c6.1,0,10.8-4.9,10.8-11.4c0-6.4-4.7-11.3-10.8-11.3c-6.2,0-10.9,4.9-10.9,11.3
		C463.9,434.7,468.6,439.6,474.7,439.6L474.7,439.6z M469.6,420.6h6c3.7,0,5.4,1.5,5.4,4.4c0,2.8-1.7,4-4,4.2l4.4,6.8h-2.6l-4.2-6.7
		H472v6.7h-2.4L469.6,420.6L469.6,420.6L469.6,420.6z M472,427.4h2.5c2.1,0,4.1-0.1,4.1-2.6c0-2.1-1.8-2.4-3.4-2.4H472L472,427.4
		L472,427.4L472,427.4z"/>
</g>
<g>
	<g>
		<circle fill="#BC042C" cx="377.3" cy="134.2" r="121.5"/>
		<path fill="#FFFFFF" d="M377.3,24.3c60.7,0,110,49.2,110,110c0,60.7-49.2,110-110,110s-110-49.2-110-110
			C267.3,73.5,316.6,24.3,377.3,24.3 M377.3,1.3c-35.5,0-68.9,13.8-94,38.9c-25.1,25.1-38.9,58.5-38.9,94c0,35.5,13.8,68.9,38.9,94
			c25.1,25.1,58.5,38.9,94,38.9c35.5,0,68.9-13.8,94-38.9c25.1-25.1,38.9-58.5,38.9-94c0-35.5-13.8-68.9-38.9-94
			S412.8,1.3,377.3,1.3L377.3,1.3z"/>
	</g>
	<g>
		<polygon fill="#FFFFFF" points="377.3,52.1 402,102.2 457.3,110.3 417.3,149.3 426.8,204.3 377.3,178.3 327.8,204.3 337.3,149.3 
			297.3,110.3 352.6,102.2 		"/>
	</g>
</g>
</svg>
