<?xml version="1.0" encoding="utf-8"?>
<!-- Generator: Adobe Illustrator 22.1.0, SVG Export Plug-In . SVG Version: 6.00 Build 0)  -->
<svg version="1.1" id="Capa_1" xmlns="http://www.w3.org/2000/svg" xmlns:xlink="http://www.w3.org/1999/xlink" x="0px" y="0px"
	 viewBox="0 0 512 512" enable-background="new 0 0 512 512" xml:space="preserve">
<g>
	<path fill="#F25022" d="M69.7,69.7h177.3c0,59.1,0,118.2,0,177.3c-59.1,0-118.2,0-177.3,0V69.7L69.7,69.7z"/>
	<path fill="#FEFEFE" d="M442.3,265.1c-59.1,0-118.2,0-177.3,0c0,59.1,0,118.2,0,177.3h-18.1c0-59.1,0-118.2,0-177.3
		c-59.1,0-118.2,0-177.3,0v-18.1c59.1,0,118.2,0,177.3,0c0-59.1,0-118.2,0-177.3l0,0H265c0,59.1,0,118.2,0,177.3
		c59.1,0,118.2,0,177.3,0L442.3,265.1z"/>
	<path fill="#80BA01" d="M265,69.7h177.3c0,59.1,0,118.2,0,177.3c-59.1,0-118.2,0-177.3,0C265,187.9,265,128.8,265,69.7L265,69.7z"
		/>
	<path fill="#02A4EF" d="M69.7,265c59.1,0,118.2,0,177.3,0c0,59.1,0,118.2,0,177.3H69.7V265L69.7,265z"/>
	<path fill="#FFB902" d="M265.1,265.1c59.1,0,118.2,0,177.3,0c0,59.1,0,118.2,0,177.3H265C265.1,383.2,265,324.1,265.1,265.1
		L265.1,265.1z"/>
</g>
<g>
	<g>
		
			<ellipse transform="matrix(0.7071 -0.7071 0.7071 0.7071 15.5926 306.1137)" fill="#BC042C" cx="377.3" cy="134.2" rx="121.5" ry="121.5"/>
		<path fill="#FFFFFF" d="M377.3,24.3c60.7,0,110,49.2,110,110c0,60.7-49.2,110-110,110c-60.7,0-110-49.2-110-110
			C267.3,73.5,316.6,24.3,377.3,24.3 M377.3,1.3c-35.5,0-68.9,13.8-94,38.9c-25.1,25.1-38.9,58.5-38.9,94c0,35.5,13.8,68.9,38.9,94
			c25.1,25.1,58.5,38.9,94,38.9s68.9-13.8,94-38.9c25.1-25.1,38.9-58.5,38.9-94c0-35.5-13.8-68.9-38.9-94
			C446.2,15.1,412.8,1.3,377.3,1.3L377.3,1.3z"/>
	</g>
	<g>
		<polygon fill="#FFFFFF" points="377.3,52.1 402,102.2 457.3,110.3 417.3,149.3 426.8,204.3 377.3,178.3 327.8,204.3 337.3,149.3 
			297.3,110.3 352.6,102.2 		"/>
	</g>
</g>
</svg>
