<?xml version="1.0" encoding="utf-8"?>
<!-- Generator: Adobe Illustrator 22.1.0, SVG Export Plug-In . SVG Version: 6.00 Build 0)  -->
<svg version="1.1" id="Capa_1" xmlns="http://www.w3.org/2000/svg" xmlns:xlink="http://www.w3.org/1999/xlink" x="0px" y="0px"
	 viewBox="0 0 512 512" enable-background="new 0 0 512 512" xml:space="preserve">
<g id="layer1" transform="translate(12.495 6.756)">
	<g id="g4182">
		<g id="g5747" transform="translate(81.631 113.771) scale(.29074)">
			<path id="path4155" fill="#B1060F" stroke="#000000" stroke-width="0.1936" d="M687.8-361.5L687.1,4.8l-0.7,366.3l-30.1-85v-0.2
				l-39,815.5c38.4,108.1,58.9,165.9,59.1,166.1s22,1.5,48.4,2.8c79.8,3.9,178.8,12.4,254,21.8c17.4,2.2,32.3,3.3,33.4,2.4
				c1.1-0.9,1.3-373.7,1.1-828.8l-0.7-827.2L687.8-361.5L687.8-361.5z"/>
			<path id="path4157" fill="#B1060F" stroke="#000000" stroke-width="0.1936" d="M100.2-362.6v828.1c0,455.5,0.4,828.5,1.1,829.2
				s28.8-2.2,62.8-5.9c34-3.7,80.9-8.5,104.2-10.5c35.8-3.1,143-9.8,155.2-10c3.7,0,3.9-18.5,4.4-350.8l0.7-350.8l25.9,73.3
				c3.9,11.3,5.2,14.8,9.2,25.9l39-815.2c-8.3-23.3-3.9-11.1-13.3-37.7c-31.8-90-58.9-166.1-60-169.6l-2.2-6.1H100.2L100.2-362.6z"
				/>
			<path id="path5715" fill="#B1060F" stroke="#000000" stroke-width="0.1936" d="M687.8-361.5L687.1,4.8l-0.7,366.3l-30.1-85v-0.2
				l-39,815.5c38.4,108.1,58.9,165.9,59.1,166.1s22,1.5,48.4,2.8c79.8,3.9,178.8,12.4,254,21.8c17.4,2.2,32.3,3.3,33.4,2.4
				c1.1-0.9,1.3-373.7,1.1-828.8l-0.7-827.2L687.8-361.5L687.8-361.5z"/>
			<path id="path5717" fill="#B1060F" stroke="#000000" stroke-width="0.1936" d="M100.2-362.6v828.1c0,455.5,0.4,828.5,1.1,829.2
				s28.8-2.2,62.8-5.9c34-3.7,80.9-8.5,104.2-10.5c35.8-3.1,143-9.8,155.2-10c3.7,0,3.9-18.5,4.4-350.8l0.7-350.8l25.9,73.3
				c3.9,11.3,5.2,14.8,9.2,25.9l39-815.2c-8.3-23.3-3.9-11.1-13.3-37.7c-31.8-90-58.9-166.1-60-169.6l-2.2-6.1H100.2L100.2-362.6z"
				/>
			
				<radialGradient id="path5719_2_" cx="82474.7578" cy="17554.9004" r="71.3897" gradientTransform="matrix(0.2315 -8.018269e-02 2.9369 8.4819 -70111.6328 -141829.1875)" gradientUnits="userSpaceOnUse">
				<stop  offset="0" style="stop-color:#000000"/>
				<stop  offset="1" style="stop-color:#000000;stop-opacity:0"/>
			</radialGradient>
			<path id="path5719" fill="url(#path5719_2_)" d="M100.2-362.6v464.9l327.5,868.7c0-19.8,0-30.7,0.2-53.4l0.7-350.8l25.9,73.3
				c143.9,408.2,221.3,627.1,221.7,627.5c0.2,0.2,22,1.5,48.4,2.8c79.8,3.9,178.8,12.4,254,21.8c17.4,2.2,32.3,3.3,33.4,2.4
				c0.7-0.7,1.1-183.4,1.1-441.3L687.3-84l-0.2,88.7l-0.7,366.3l-30.1-85c-29.4-83.1-49.1-138.7-167.5-473.1
				c-31.8-90-58.9-166.1-60-169.6l-2.2-6.1H100.2V-362.6L100.2-362.6z"/>
			<path id="path5721" fill="#E50914" d="M100.2-362.6l328.1,929.9v-0.4l25.9,73.3c144.1,407.9,221.5,626.9,222,627.3
				c0.2,0.2,22,1.5,48.4,2.8c79.8,3.9,178.8,12.4,254,21.8c17.2,2.2,32.3,3.3,33.1,2.4L686.5,370.8v0.2l-30.1-85
				c-29.4-83.1-49.1-138.7-167.5-473.1c-31.8-90-58.9-166.1-60-169.6l-2.2-6.1H263.5L100.2-362.6L100.2-362.6z"/>
		</g>
	</g>
</g>
<g>
	<g>
		
			<ellipse transform="matrix(0.7071 -0.7071 0.7071 0.7071 15.5927 306.1138)" fill="#BC042C" cx="377.3" cy="134.2" rx="121.5" ry="121.5"/>
		<path fill="#FFFFFF" d="M377.3,24.3c60.7,0,110,49.2,110,110c0,60.7-49.2,110-110,110s-110-49.2-110-110
			C267.3,73.5,316.6,24.3,377.3,24.3 M377.3,1.3c-35.5,0-68.9,13.8-94,38.9c-25.1,25.1-38.9,58.5-38.9,94c0,35.5,13.8,68.9,38.9,94
			c25.1,25.1,58.5,38.9,94,38.9s68.9-13.8,94-38.9c25.1-25.1,38.9-58.5,38.9-94c0-35.5-13.8-68.9-38.9-94
			C446.2,15.1,412.8,1.3,377.3,1.3L377.3,1.3z"/>
	</g>
	<g>
		<polygon fill="#FFFFFF" points="377.3,52.1 402,102.2 457.3,110.3 417.3,149.3 426.8,204.3 377.3,178.3 327.8,204.3 337.3,149.3 
			297.3,110.3 352.6,102.2 		"/>
	</g>
</g>
</svg>
