<?xml version="1.0" encoding="utf-8"?>
<!-- Generator: Adobe Illustrator 22.1.0, SVG Export Plug-In . SVG Version: 6.00 Build 0)  -->
<svg version="1.1" id="Capa_1" xmlns="http://www.w3.org/2000/svg" xmlns:xlink="http://www.w3.org/1999/xlink" x="0px" y="0px"
	 viewBox="0 0 512 512" enable-background="new 0 0 512 512" xml:space="preserve">
<g>
	<path fill-rule="evenodd" clip-rule="evenodd" fill="#BD0811" d="M440.4,412.6l-154-156.8l158.2-154c5.5,8.3,11.7,16.6,18,25.6
		c4.1,7.6,8.3,15.2,13.1,23.5c0,1.4,0,2.8,0,4.1L374.1,257.9l99.5,102.2c0,0.7,0,1.4,0.7,2.8c-2.8,5.5-5.5,11-9,17.3
		c-6.2,8.3-12.4,17.3-18.6,26.2C444.6,408.5,442.5,410.5,440.4,412.6L440.4,412.6z"/>
	<path fill-rule="evenodd" clip-rule="evenodd" fill="#BD0811" d="M68.8,409.2c-5.5-7.6-11.7-15.9-18-24.2
		c-2.8-4.8-6.2-10.4-9.7-15.9c-1.4-3.5-2.8-6.9-4.8-11l100.8-103.9l-100.1-104c2.8-5.5,5.5-11.7,9-18c6.2-9,12.4-18,18.6-27.6
		c2.1-2.1,4.1-4.1,6.2-6.2l154.7,157.5l-156.1,154C69.5,409.9,69.5,409.9,68.8,409.2L68.8,409.2z"/>
	<path fill-rule="evenodd" clip-rule="evenodd" fill="#BD0811" d="M482.5,340.8L401,256.5l82.2-82.2c0.7,0,1.4,0,2.1,0
		c2.8,10.4,5.5,20.7,9,31.8c1.4,9.7,2.8,20,4.1,30.4c0,9.7,0,20,0.7,30.4c-1.4,12.4-2.8,24.9-4.8,38c-2.8,11-5.5,22.1-9,33.2
		c-0.7,0.7-1.4,2.1-2.1,3.5C483.2,341.5,483.2,341.5,482.5,340.8L482.5,340.8z"/>
	<path fill-rule="evenodd" clip-rule="evenodd" fill="#BD0811" d="M26.7,335.9c-8.1-30.6-13.8-55.2-13.8-87
		c2.4-24.2,4.3-45.6,11-69.1c0.7-2.8,2.1-5.5,3.5-9c0,0,0.7,0,1.4-0.7l82.2,85l-83.6,81.5C27.4,336.6,27.4,336.6,26.7,335.9
		L26.7,335.9z"/>
	<path fill-rule="evenodd" clip-rule="evenodd" fill="#BD0811" d="M156.5,39c-0.7-0.7-1.4-2.1-2.1-3.5c0,0,0-0.7,0.7-1.4
		c21.5-7.8,40.5-13.5,62.9-19.3c11.7,11.7,24.2,24.2,36.6,36.6c0.7,0,1.4,0,2.8,0.7c12.4-11.7,24.9-23.5,37.3-35.9
		c3.5,0,6.9,0.7,10.4,1.4c10.4,2.8,21.4,6.2,32.5,9.7c6.9,2.8,13.8,5.5,21.4,9c0,0,0,0.7,0.7,1.4L258.1,137.7L156.5,39L156.5,39z"/>
	<path fill-rule="evenodd" clip-rule="evenodd" fill="#BD0811" d="M255.3,256L86.1,81.8c6.2-6.2,13.1-12.4,20-18.7
		c2.1-1.4,4.1-2.8,6.9-4.1c0.7-0.7,1.4-1.4,2.1-2.8c4.8-2.8,9.7-5.5,14.5-9c1.4-0.7,3.5-1.4,5.5-2.1L253.9,166c1.4,0,2.8,0,4.1-0.7
		L378.2,47.9c1.4,0,2.8,0.7,4.8,1.4c8.3,6.2,16.6,12.4,25.6,18.6c2.8,2.8,5.5,5.5,9,8.3c0.7,0,1.4,0,2.1,0.7
		c2.1,2.8,4.8,5.5,7.6,8.3c-0.7,0-1.4,0.7-2.8,1.4c0,0.7,0,1.4-0.7,2.1L255.3,256L255.3,256z"/>
	<path fill-rule="evenodd" clip-rule="evenodd" fill="#BD0811" d="M154.5,476.5c0,0,0,0.7,0.7,1.4c18.8,9.9,37.4,15.8,62.9,19.3
		l38.6-38.3l38.1,36.9c3.5,0,6.9-0.7,10.4-1.4c10.4-2.8,21.4-6.2,32.5-9.7c6.9-2.8,13.8-5.5,21.4-9c0,0,0-0.7,0.7-1.4L258.1,374.3
		L154.5,476.5L154.5,476.5z"/>
	<path fill-rule="evenodd" clip-rule="evenodd" fill="#BD0811" d="M255.3,256L86.1,430.2c14.9,14.9,27.2,22.9,43.5,34.5
		c1.4,0.7,3.5,1.4,5.5,2.1L253.9,346c1.4,0,2.8,0,4.1,0.7l120.2,117.4c1.4,0,2.8-0.7,4.8-1.4c8.3-6.2,16.6-12.4,25.6-18.6
		c2.8-2.8,5.5-5.5,9-8.3c0.7,0,1.4,0,2.1-0.7c2.1-2.8,4.8-5.5,7.6-8.3c-0.7,0-1.4-0.7-2.8-1.4c0-0.7,0-1.4-0.7-2.1L255.3,256
		L255.3,256z"/>
</g>
<g>
	<g>
		
			<ellipse transform="matrix(0.7071 -0.7071 0.7071 0.7071 15.5927 306.1138)" fill="#BC042C" cx="377.3" cy="134.2" rx="121.5" ry="121.5"/>
		<path fill="#FFFFFF" d="M377.3,24.3c60.7,0,110,49.2,110,110s-49.2,110-110,110s-110-49.2-110-110S316.6,24.3,377.3,24.3
			 M377.3,1.3c-35.5,0-68.9,13.8-94,38.9c-25.1,25.1-38.9,58.5-38.9,94s13.8,68.9,38.9,94c25.1,25.1,58.5,38.9,94,38.9
			s68.9-13.8,94-38.9c25.1-25.1,38.9-58.5,38.9-94s-13.8-68.9-38.9-94C446.2,15.1,412.8,1.3,377.3,1.3L377.3,1.3z"/>
	</g>
	<g>
		<polygon fill="#FFFFFF" points="377.3,52.1 402,102.2 457.3,110.3 417.3,149.3 426.8,204.3 377.3,178.3 327.8,204.3 337.3,149.3 
			297.3,110.3 352.6,102.2 		"/>
	</g>
</g>
</svg>
