<?xml version="1.0" encoding="utf-8"?>
<!-- Generator: Adobe Illustrator 22.1.0, SVG Export Plug-In . SVG Version: 6.00 Build 0)  -->
<svg version="1.1" id="Capa_1" xmlns="http://www.w3.org/2000/svg" xmlns:xlink="http://www.w3.org/1999/xlink" x="0px" y="0px"
	 viewBox="0 0 512 512" enable-background="new 0 0 512 512" xml:space="preserve">
<g>
	<path fill="#C2233A" d="M256,474.8L317.5,129c58.6,0,77.1,6.4,79.8,32.7c0,0,39.3-14.7,59.1-44.4C379,81.4,301.3,79.8,301.3,79.8
		L255.9,135l0.1,0l-45.4-55.3c0,0-77.7,1.6-155.1,37.5c19.8,29.8,59.1,44.4,59.1,44.4c2.7-26.2,21.1-32.7,79.4-32.7L256,474.8"/>
	<path fill="#C2233A" d="M256,63.8c62.5-0.5,134.1,9.7,207.4,41.6c9.8-17.6,12.3-25.4,12.3-25.4C395.6,48.3,320.6,37.5,256,37.2
		C191.4,37.5,116.4,48.3,36.3,80c0,0,3.6,9.6,12.3,25.4C121.8,73.5,193.4,63.4,256,63.8L256,63.8"/>
</g>
<g>
	<g>
		
			<ellipse transform="matrix(0.7071 -0.7071 0.7071 0.7071 15.5927 306.1138)" fill="#BC042C" cx="377.3" cy="134.2" rx="121.5" ry="121.5"/>
		<path fill="#FFFFFF" d="M377.3,24.3c60.7,0,110,49.2,110,110c0,60.7-49.2,110-110,110s-110-49.2-110-110
			C267.3,73.5,316.6,24.3,377.3,24.3 M377.3,1.3c-35.5,0-68.9,13.8-94,38.9c-25.1,25.1-38.9,58.5-38.9,94c0,35.5,13.8,68.9,38.9,94
			c25.1,25.1,58.5,38.9,94,38.9s68.9-13.8,94-38.9c25.1-25.1,38.9-58.5,38.9-94c0-35.5-13.8-68.9-38.9-94
			C446.2,15.1,412.8,1.3,377.3,1.3L377.3,1.3z"/>
	</g>
	<g>
		<polygon fill="#FFFFFF" points="377.3,52.1 402,102.2 457.3,110.3 417.3,149.3 426.8,204.3 377.3,178.3 327.8,204.3 337.3,149.3 
			297.3,110.3 352.6,102.2 		"/>
	</g>
</g>
</svg>
