<?xml version="1.0" encoding="utf-8"?>
<!-- Generator: Adobe Illustrator 22.1.0, SVG Export Plug-In . SVG Version: 6.00 Build 0)  -->
<svg version="1.1" id="Capa_1" xmlns="http://www.w3.org/2000/svg" xmlns:xlink="http://www.w3.org/1999/xlink" x="0px" y="0px"
	 viewBox="0 0 512 512" enable-background="new 0 0 512 512" xml:space="preserve">
<g>
	<polygon fill="#005CA2" points="223.8,331.9 184.3,331.9 209,180.2 248.5,180.2 223.8,331.9 	"/>
	<path fill="#005CA2" d="M151.1,180.2l-37.6,104.3l-4.5-22.5l0,0l-13.3-68.2c0,0-1.6-13.7-18.7-13.7H14.8l-0.7,2.6
		c0,0,19,4,41.3,17.3l34.3,131.8h41.1l62.8-151.7H151.1L151.1,180.2z"/>
	<path fill="#005CA2" d="M418.2,278.2l20.8-56.8l11.7,56.8H418.2L418.2,278.2z M461.7,331.9h36.3l-31.6-151.7h-31.7
		c-14.7,0-18.2,11.3-18.2,11.3l-58.9,140.4h41.2l8.2-22.5h50.2L461.7,331.9L461.7,331.9z"/>
	<path fill="#005CA2" d="M360.6,216.7l5.6-32.6c0,0-17.4-6.6-35.5-6.6c-19.6,0-66.1,8.6-66.1,50.2c0,39.2,54.6,39.7,54.6,60.2
		c0,20.6-49,16.9-65.1,3.9l-5.9,34c0,0,17.6,8.6,44.6,8.6c26.9,0,67.6-14,67.6-51.9c0-39.4-55.1-43.1-55.1-60.2
		C305.2,205.2,343.7,207.4,360.6,216.7L360.6,216.7z"/>
	<path fill="#E0A93B" d="M109,262.1l-13.3-68.2c0,0-1.6-13.7-18.7-13.7H14.8l-0.7,2.6c0,0,29.9,6.2,58.6,29.4
		C100.1,234.4,109,262.1,109,262.1L109,262.1z"/>
</g>
<g>
	<g>
		
			<ellipse transform="matrix(0.7071 -0.7071 0.7071 0.7071 15.5926 306.1137)" fill="#BC042C" cx="377.3" cy="134.2" rx="121.5" ry="121.5"/>
		<path fill="#FFFFFF" d="M377.3,24.3c60.7,0,110,49.2,110,110c0,60.7-49.2,110-110,110c-60.7,0-110-49.2-110-110
			C267.3,73.5,316.6,24.3,377.3,24.3 M377.3,1.3c-35.5,0-68.9,13.8-94,38.9c-25.1,25.1-38.9,58.5-38.9,94c0,35.5,13.8,68.9,38.9,94
			c25.1,25.1,58.5,38.9,94,38.9s68.9-13.8,94-38.9c25.1-25.1,38.9-58.5,38.9-94c0-35.5-13.8-68.9-38.9-94
			C446.2,15.1,412.8,1.3,377.3,1.3L377.3,1.3z"/>
	</g>
	<g>
		<polygon fill="#FFFFFF" points="377.3,52.1 402,102.2 457.3,110.3 417.3,149.3 426.8,204.3 377.3,178.3 327.8,204.3 337.3,149.3 
			297.3,110.3 352.6,102.2 		"/>
	</g>
</g>
</svg>
