<?xml version="1.0" encoding="utf-8"?>
<!-- Generator: Adobe Illustrator 22.1.0, SVG Export Plug-In . SVG Version: 6.00 Build 0)  -->
<svg version="1.1" id="Capa_1" xmlns="http://www.w3.org/2000/svg" xmlns:xlink="http://www.w3.org/1999/xlink" x="0px" y="0px"
	 viewBox="0 0 512 512" enable-background="new 0 0 512 512" xml:space="preserve">
<g>
	<path fill="#F0F0F0" d="M497.1,256c0,133.2-108,241.1-241.1,241.1c-133.2,0-241.1-108-241.1-241.1C14.9,122.8,122.8,14.9,256,14.9
		C389.2,14.9,497.1,122.8,497.1,256L497.1,256z M497.1,256"/>
	<path fill="#D80027" d="M497.1,256c0,133.2-108,241.1-241.1,241.1c-133.2,0-241.1-108-241.1-241.1c0-133.2,241.1,0,241.1,0H497.1z
		 M497.1,256"/>
	<path fill="#0052B4" d="M14.9,256C14.9,122.8,122.8,14.9,256,14.9V256H14.9z M14.9,256"/>
	<path fill="#F0F0F0" d="M158.4,98.7l15.6,48.1h50.5l-40.9,29.7l15.6,48.1l-40.9-29.7l-40.9,29.7l15.6-48.1l-40.9-29.7h50.5
		L158.4,98.7z M158.4,98.7"/>
</g>
</svg>
