<?xml version="1.0" encoding="utf-8"?>
<!-- Generator: Adobe Illustrator 22.1.0, SVG Export Plug-In . SVG Version: 6.00 Build 0)  -->
<svg version="1.1" id="Capa_1" xmlns="http://www.w3.org/2000/svg" xmlns:xlink="http://www.w3.org/1999/xlink" x="0px" y="0px"
	 viewBox="0 0 512 512" enable-background="new 0 0 512 512" xml:space="preserve">
<g>
	<path fill="#F0F0F0" d="M497.1,256c0,133.2-108,241.1-241.1,241.1c-133.2,0-241.1-108-241.1-241.1C14.9,122.8,122.8,14.9,256,14.9
		C389.2,14.9,497.1,122.8,497.1,256L497.1,256z M497.1,256"/>
	<path fill="#338AF3" d="M497.1,256c0-95.6-55.6-178.2-136.3-217.2v434.4C441.5,434.2,497.1,351.6,497.1,256L497.1,256z M497.1,256"
		/>
	<path fill="#338AF3" d="M14.9,256c0,95.6,55.6,178.2,136.3,217.2V38.8C70.5,77.8,14.9,160.4,14.9,256L14.9,256z M14.9,256"/>
	<path fill="#ACABB1" d="M319,296.8L278.2,256l38.8-38.8l-1.8-20.5l-11.1-11.1L256,233.8l-48.2-48.2l-11.1,11.1l-1.8,20.5l38.8,38.8
		L193,296.8l22.2,22.2l40.8-40.8l40.8,40.8L319,296.8z M319,296.8"/>
	<path fill="#6DA544" d="M315.3,196.7l-22.2,22.2c9.5,9.5,15.4,22.6,15.4,37.1c0,29-23.5,52.4-52.4,52.4S203.6,285,203.6,256
		c0-14.5,5.9-27.6,15.4-37.1l-22.2-22.2c-15.2,15.2-24.6,36.1-24.6,59.3c0,46.3,37.5,83.9,83.9,83.9c46.3,0,83.9-37.5,83.9-83.9
		C339.9,232.8,330.5,211.9,315.3,196.7L315.3,196.7z M315.3,196.7"/>
</g>
</svg>
