<?xml version="1.0" encoding="utf-8"?>
<!-- Generator: Adobe Illustrator 22.1.0, SVG Export Plug-In . SVG Version: 6.00 Build 0)  -->
<svg version="1.1" id="Capa_1" xmlns="http://www.w3.org/2000/svg" xmlns:xlink="http://www.w3.org/1999/xlink" x="0px" y="0px"
	 viewBox="0 0 512 512" enable-background="new 0 0 512 512" xml:space="preserve">
<g>
	<path fill="#F0F0F0" d="M497.1,256c0,133.2-108,241.1-241.1,241.1c-133.2,0-241.1-108-241.1-241.1C14.9,122.8,122.8,14.9,256,14.9
		C389.2,14.9,497.1,122.8,497.1,256L497.1,256z M497.1,256"/>
	<path fill="#338AF3" d="M256,497.1c95.6,0,178.2-55.6,217.2-136.3H38.8C77.8,441.5,160.4,497.1,256,497.1L256,497.1z M256,497.1"/>
	<path fill="#338AF3" d="M256,14.9c-95.6,0-178.2,55.6-217.2,136.3h434.4C434.2,70.5,351.6,14.9,256,14.9L256,14.9z M256,14.9"/>
	<path fill="#338AF3" d="M163.3,172.1l7.8,24h25.3L175.9,211l7.8,24l-20.4-14.8L142.8,235l7.8-24l-20.4-14.8h25.3L163.3,172.1z
		 M163.3,172.1"/>
	<path fill="#338AF3" d="M163.3,277l7.8,24h25.3l-20.4,14.8l7.8,24L163.3,325l-20.4,14.8l7.8-24L130.2,301h25.3L163.3,277z
		 M163.3,277"/>
	<path fill="#338AF3" d="M348.7,172.1l7.8,24h25.3L361.4,211l7.8,24l-20.4-14.8L328.3,235l7.8-24l-20.4-14.8h25.3L348.7,172.1z
		 M348.7,172.1"/>
	<path fill="#338AF3" d="M348.7,277l7.8,24h25.3l-20.4,14.8l7.8,24L348.7,325l-20.4,14.8l7.8-24L315.7,301h25.3L348.7,277z
		 M348.7,277"/>
	<path fill="#338AF3" d="M256,224.5l7.8,24h25.3l-20.4,14.8l7.8,24L256,272.6l-20.4,14.8l7.8-24l-20.4-14.8h25.3L256,224.5z
		 M256,224.5"/>
</g>
</svg>
