<?xml version="1.0" encoding="utf-8"?>
<!-- Generator: Adobe Illustrator 22.1.0, SVG Export Plug-In . SVG Version: 6.00 Build 0)  -->
<svg version="1.1" id="Capa_1" xmlns="http://www.w3.org/2000/svg" xmlns:xlink="http://www.w3.org/1999/xlink" x="0px" y="0px"
	 viewBox="0 0 512 512" enable-background="new 0 0 512 512" xml:space="preserve">
<g>
	<path fill="#FFDA44" d="M72.1,324.2c27.7,74.7,99.6,127.9,183.9,127.9c84.3,0,156.2-53.2,183.9-127.9L256,307.2L72.1,324.2z
		 M72.1,324.2"/>
	<path d="M256,59.9c-84.3,0-156.2,53.2-183.9,127.9L256,204.8l183.9-17.1C412.2,113.1,340.3,59.9,256,59.9L256,59.9z M256,59.9"/>
	<path fill="#D80027" d="M72.1,187.8C64.2,209,59.9,232,59.9,256c0,24,4.3,47,12.2,68.2h367.9c7.9-21.2,12.2-44.2,12.2-68.2
		c0-24-4.3-47-12.2-68.2H72.1z M72.1,187.8"/>
</g>
<g>
	<path fill="#359344" d="M256,34.3c122.4,0,221.7,99.2,221.7,221.7S378.4,477.7,256,477.7S34.3,378.4,34.3,256S133.6,34.3,256,34.3
		 M256,7.7c-33.5,0-66,6.6-96.7,19.5c-29.6,12.5-56.1,30.4-78.9,53.2c-22.8,22.8-40.7,49.4-53.2,78.9C14.2,190,7.7,222.5,7.7,256
		s6.6,66,19.5,96.7c12.5,29.6,30.4,56.1,53.2,78.9c22.8,22.8,49.4,40.7,78.9,53.2c30.6,13,63.2,19.5,96.7,19.5s66-6.6,96.7-19.5
		c29.6-12.5,56.1-30.4,78.9-53.2c22.8-22.8,40.7-49.4,53.2-78.9c13-30.6,19.5-63.2,19.5-96.7s-6.6-66-19.5-96.7
		c-12.5-29.6-30.4-56.1-53.2-78.9c-22.8-22.8-49.4-40.7-78.9-53.2C322,14.2,289.5,7.7,256,7.7L256,7.7z"/>
</g>
</svg>
