<?xml version="1.0" encoding="utf-8"?>
<!-- Generator: Adobe Illustrator 22.1.0, SVG Export Plug-In . SVG Version: 6.00 Build 0)  -->
<svg version="1.1" id="Capa_1" xmlns="http://www.w3.org/2000/svg" xmlns:xlink="http://www.w3.org/1999/xlink" x="0px" y="0px"
	 viewBox="0 0 512 512" enable-background="new 0 0 512 512" xml:space="preserve">
<g>
	<path fill="#FFDA44" d="M29.8,339.9C63.9,431.7,152.3,497.2,256,497.2c103.7,0,192.1-65.5,226.2-157.3l-226.2-21L29.8,339.9z
		 M29.8,339.9"/>
	<path d="M256,14.8c-103.7,0-192.1,65.5-226.2,157.3l226.2,21l226.2-21C448.1,80.3,359.7,14.8,256,14.8L256,14.8z M256,14.8"/>
	<path fill="#D80027" d="M29.8,172.1c-9.7,26.1-15,54.4-15,83.9c0,29.5,5.3,57.8,15,83.9h452.4c9.7-26.1,15-54.4,15-83.9
		c0-29.5-5.3-57.8-15-83.9H29.8z M29.8,172.1"/>
</g>
<g>
	<g>
		
			<ellipse transform="matrix(0.7071 -0.7071 0.7071 0.7071 15.5928 306.1136)" fill="#BC042C" cx="377.3" cy="134.2" rx="121.5" ry="121.5"/>
		<path fill="#FFFFFF" d="M377.3,24.3c60.7,0,110,49.2,110,110s-49.2,110-110,110c-60.7,0-110-49.2-110-110S316.6,24.3,377.3,24.3
			 M377.3,1.3c-35.5,0-68.9,13.8-94,38.9c-25.1,25.1-38.9,58.5-38.9,94c0,35.5,13.8,68.9,38.9,94s58.5,38.9,94,38.9
			s68.9-13.8,94-38.9c25.1-25.1,38.9-58.5,38.9-94c0-35.5-13.8-68.9-38.9-94C446.2,15.1,412.8,1.3,377.3,1.3L377.3,1.3z"/>
	</g>
	<g>
		<polygon fill="#FFFFFF" points="377.3,52.1 402,102.2 457.3,110.3 417.3,149.3 426.8,204.3 377.3,178.3 327.8,204.3 337.3,149.3 
			297.3,110.3 352.6,102.2 		"/>
	</g>
</g>
</svg>
