<?xml version="1.0" encoding="utf-8"?>
<!-- Generator: Adobe Illustrator 22.1.0, SVG Export Plug-In . SVG Version: 6.00 Build 0)  -->
<svg version="1.1" id="Capa_1" xmlns="http://www.w3.org/2000/svg" xmlns:xlink="http://www.w3.org/1999/xlink" x="0px" y="0px"
	 viewBox="0 0 512 512" enable-background="new 0 0 512 512" xml:space="preserve">
<g>
	<path fill="#FFDA44" d="M46.6,333.7C78.1,418.7,160,479.3,256,479.3c96,0,177.9-60.6,209.4-145.6L256,314.3L46.6,333.7z
		 M46.6,333.7"/>
	<path d="M256,32.7c-96,0-177.9,60.6-209.4,145.6L256,197.7l209.4-19.4C433.9,93.3,352,32.7,256,32.7L256,32.7z M256,32.7"/>
	<path fill="#D80027" d="M46.6,178.3c-9,24.2-13.9,50.4-13.9,77.7c0,27.3,4.9,53.5,13.9,77.7h418.8c9-24.2,13.9-50.4,13.9-77.7
		c0-27.3-4.9-53.5-13.9-77.7H46.6z M46.6,178.3"/>
</g>
<g>
	<path fill="#F09B00" d="M256,14.8c133.2,0,241.2,108,241.2,241.2S389.2,497.2,256,497.2S14.8,389.2,14.8,256S122.8,14.8,256,14.8
		 M256,2.6c-34.2,0-67.4,6.7-98.7,19.9c-30.2,12.8-57.3,31-80.6,54.3c-23.3,23.3-41.5,50.4-54.3,80.6C9.3,188.6,2.6,221.8,2.6,256
		c0,34.2,6.7,67.4,19.9,98.7c12.8,30.2,31,57.3,54.3,80.6c23.3,23.3,50.4,41.5,80.6,54.3c31.3,13.2,64.4,19.9,98.7,19.9
		s67.4-6.7,98.7-19.9c30.2-12.8,57.3-31,80.6-54.3c23.3-23.3,41.5-50.4,54.3-80.6c13.2-31.3,19.9-64.4,19.9-98.7
		c0-34.2-6.7-67.4-19.9-98.7c-12.8-30.2-31-57.3-54.3-80.6c-23.3-23.3-50.4-41.5-80.6-54.3C323.4,9.3,290.2,2.6,256,2.6L256,2.6z"/>
</g>
</svg>
