<?xml version="1.0" encoding="utf-8"?>
<!-- Generator: Adobe Illustrator 22.1.0, SVG Export Plug-In . SVG Version: 6.00 Build 0)  -->
<svg version="1.1" id="Capa_1" xmlns="http://www.w3.org/2000/svg" xmlns:xlink="http://www.w3.org/1999/xlink" x="0px" y="0px"
	 viewBox="0 0 512 512" enable-background="new 0 0 512 512" xml:space="preserve">
<g>
	<path fill="#F0F0F0" d="M496.9,255.5c0,133.2-108,241.1-241.1,241.1c-133.2,0-241.1-108-241.1-241.1
		c0-133.2,107.9-241.1,241.1-241.1C388.9,14.4,496.9,122.3,496.9,255.5L496.9,255.5z M496.9,255.5"/>
	<path fill="#338AF3" d="M255.8,14.4C160.2,14.4,77.6,70,38.6,150.6H473C434,70,351.4,14.4,255.8,14.4L255.8,14.4z M255.8,14.4"/>
	<path fill="#338AF3" d="M255.8,496.6c95.6,0,178.2-55.6,217.2-136.3H38.6C77.6,441,160.2,496.6,255.8,496.6L255.8,496.6z
		 M255.8,496.6"/>
	<path fill="#FFDA44" d="M327.8,255.5l-29.4,13.9l15.7,28.5l-32-6.1L278,324l-22.3-23.8L233.5,324l-4.1-32.3l-32,6.1l15.7-28.5
		l-29.4-13.9l29.4-13.9l-15.7-28.5l32,6.1l4.1-32.3l22.3,23.8l22.3-23.8l4.1,32.3l32-6.1l-15.7,28.5L327.8,255.5z M327.8,255.5"/>
</g>
<g>
	<g>
		
			<ellipse transform="matrix(0.7071 -0.7071 0.7071 0.7071 15.5928 306.1136)" fill="#BC042C" cx="377.3" cy="134.2" rx="121.5" ry="121.5"/>
		<path fill="#FFFFFF" d="M377.3,24.3c60.7,0,110,49.2,110,110s-49.2,110-110,110c-60.7,0-110-49.2-110-110S316.6,24.3,377.3,24.3
			 M377.3,1.3c-35.5,0-68.9,13.8-94,38.9c-25.1,25.1-38.9,58.5-38.9,94c0,35.5,13.8,68.9,38.9,94c25.1,25.1,58.5,38.9,94,38.9
			s68.9-13.8,94-38.9c25.1-25.1,38.9-58.5,38.9-94c0-35.5-13.8-68.9-38.9-94C446.2,15.1,412.8,1.3,377.3,1.3L377.3,1.3z"/>
	</g>
	<g>
		<polygon fill="#FFFFFF" points="377.3,52.1 402,102.2 457.3,110.3 417.3,149.3 426.8,204.3 377.3,178.3 327.8,204.3 337.3,149.3 
			297.3,110.3 352.6,102.2 		"/>
	</g>
</g>
</svg>
