<?xml version="1.0" encoding="utf-8"?>
<!-- Generator: Adobe Illustrator 22.1.0, SVG Export Plug-In . SVG Version: 6.00 Build 0)  -->
<svg version="1.1" id="Capa_1" xmlns="http://www.w3.org/2000/svg" xmlns:xlink="http://www.w3.org/1999/xlink" x="0px" y="0px"
	 viewBox="0 0 512 512" enable-background="new 0 0 512 512" xml:space="preserve">
<g>
	<path fill="#F0F0F0" d="M496.9,255.5c0,133.2-108,241.1-241.1,241.1c-133.2,0-241.1-108-241.1-241.1
		c0-133.2,107.9-241.1,241.1-241.1C388.9,14.4,496.9,122.3,496.9,255.5L496.9,255.5z M496.9,255.5"/>
	<path fill="#338AF3" d="M255.8,14.4C160.2,14.4,77.6,70,38.6,150.6H473C434,70,351.4,14.4,255.8,14.4L255.8,14.4z M255.8,14.4"/>
	<path fill="#338AF3" d="M255.8,496.6c95.6,0,178.2-55.6,217.2-136.3H38.6C77.6,441,160.2,496.6,255.8,496.6L255.8,496.6z
		 M255.8,496.6"/>
	<path fill="#FFDA44" d="M327.8,255.5l-29.4,13.9l15.7,28.5l-32-6.1L278,324l-22.3-23.8L233.5,324l-4.1-32.3l-32,6.1l15.7-28.5
		l-29.4-13.9l29.4-13.9l-15.7-28.5l32,6.1l4.1-32.3l22.3,23.8l22.3-23.8l4.1,32.3l32-6.1l-15.7,28.5L327.8,255.5z M327.8,255.5"/>
</g>
<g>
	<g>
		<circle fill="#BC042C" cx="442.7" cy="70.8" r="59.5"/>
		<path fill="#FFFFFF" d="M442.7,15.8c30.4,0,55,24.6,55,55c0,30.4-24.6,55-55,55s-55-24.6-55-55C387.7,40.5,412.4,15.8,442.7,15.8
			 M442.7,6.8c-35.3,0-64,28.7-64,64c0,35.3,28.7,64,64,64s64-28.7,64-64C506.7,35.5,478,6.8,442.7,6.8L442.7,6.8z"/>
	</g>
	<g>
		<polygon fill="#FFFFFF" points="442.7,29.8 455.1,54.8 482.8,58.8 462.7,78.4 467.5,105.9 442.7,92.9 418,105.9 422.7,78.4 
			402.7,58.8 430.4,54.8 		"/>
	</g>
</g>
</svg>
