<?xml version="1.0" encoding="utf-8"?>
<!-- Generator: Adobe Illustrator 22.1.0, SVG Export Plug-In . SVG Version: 6.00 Build 0)  -->
<svg version="1.1" id="Capa_1" xmlns="http://www.w3.org/2000/svg" xmlns:xlink="http://www.w3.org/1999/xlink" x="0px" y="0px"
	 viewBox="0 0 512 512" enable-background="new 0 0 512 512" xml:space="preserve">
<g>
	<path fill="#FFDA44" d="M487.7,256c0,128-103.7,231.7-231.7,231.7C128,487.7,24.3,384,24.3,256C24.3,128,128,24.3,256,24.3
		C384,24.3,487.7,128,487.7,256L487.7,256z M487.7,256"/>
	<path fill="#338AF3" d="M256,487.7c70.2,0,133.2-31.3,175.7-80.6H80.3C122.8,456.5,185.8,487.7,256,487.7L256,487.7z M256,487.7"/>
	<path fill="#338AF3" d="M487.7,256C487.7,128,384,24.3,256,24.3C128,24.3,24.3,128,24.3,256c0,20.9,2.8,41.2,8,60.4h447.5
		C484.9,297.2,487.7,276.9,487.7,256L487.7,256z M487.7,256"/>
	<path fill="#338AF3" d="M42.7,346.7c4.5,10.5,9.7,20.6,15.6,30.2h395.4c5.9-9.6,11.1-19.7,15.6-30.2H42.7z M42.7,346.7"/>
	<path fill="#F0F0F0" d="M130.5,170.4l-45.3-20l45.3-20l20-45.3l20,45.3l45.3,20l-45.3,20l-20,45.3L130.5,170.4z M130.5,170.4"/>
	<path fill="#D80027" d="M150.4,110.1l12.3,28l28,12.3l-28,12.3l-12.3,28l-12.3-28l-28-12.3l28-12.3L150.4,110.1z M150.4,110.1"/>
</g>
<g>
	<g>
		
			<ellipse transform="matrix(0.7071 -0.7071 0.7071 0.7071 15.5927 306.1137)" fill="#BC042C" cx="377.3" cy="134.2" rx="121.5" ry="121.5"/>
		<path fill="#FFFFFF" d="M377.3,24.3c60.7,0,110,49.2,110,110s-49.2,110-110,110s-110-49.2-110-110S316.6,24.3,377.3,24.3
			 M377.3,1.3c-35.5,0-68.9,13.8-94,38.9c-25.1,25.1-38.9,58.5-38.9,94s13.8,68.9,38.9,94c25.1,25.1,58.5,38.9,94,38.9
			s68.9-13.8,94-38.9c25.1-25.1,38.9-58.5,38.9-94s-13.8-68.9-38.9-94C446.2,15.1,412.8,1.3,377.3,1.3L377.3,1.3z"/>
	</g>
	<g>
		<polygon fill="#FFFFFF" points="377.3,52.1 402,102.2 457.3,110.3 417.3,149.3 426.8,204.3 377.3,178.3 327.8,204.3 337.3,149.3 
			297.3,110.3 352.6,102.2 		"/>
	</g>
</g>
</svg>
