<?xml version="1.0" encoding="utf-8"?>
<!-- Generator: Adobe Illustrator 22.1.0, SVG Export Plug-In . SVG Version: 6.00 Build 0)  -->
<svg version="1.1" id="Capa_1" xmlns="http://www.w3.org/2000/svg" xmlns:xlink="http://www.w3.org/1999/xlink" x="0px" y="0px"
	 viewBox="0 0 512 512" enable-background="new 0 0 512 512" xml:space="preserve">
<g>
	<path fill="#0052B4" d="M491.7,256c0-80.9-40.8-152.3-102.9-194.7L256,51L123.1,61.3C61,103.7,20.3,175.1,20.3,256
		S61,408.3,123.1,450.7L256,461l132.9-10.2C451,408.3,491.7,336.9,491.7,256L491.7,256z M491.7,256"/>
	<path fill="#A2001D" d="M388.9,61.3c-37.8-25.9-83.6-41-132.9-41c-49.3,0-95,15.1-132.9,41H388.9z M388.9,61.3"/>
	<path fill="#A2001D" d="M123.1,450.7c37.8,25.9,83.6,41,132.9,41c49.3,0,95-15.1,132.9-41H123.1z M123.1,450.7"/>
	<path fill="#F0F0F0" d="M368.7,256c0,62.3-50.5,112.7-112.7,112.7c-62.3,0-112.7-50.5-112.7-112.7c0-62.3,50.5-112.7,112.7-112.7
		C318.3,143.3,368.7,193.7,368.7,256L368.7,256z M368.7,256"/>
	<path fill="#6DA544" d="M348.2,256c0,50.9-41.3,92.2-92.2,92.2c-50.9,0-92.2-41.3-92.2-92.2c0-50.9,41.3-92.2,92.2-92.2
		C306.9,163.8,348.2,205.1,348.2,256L348.2,256z M348.2,256"/>
	<path fill="#F0F0F0" d="M317.5,256c0,34-27.5,61.5-61.5,61.5c-34,0-61.5-27.5-61.5-61.5c0-34,27.5-61.5,61.5-61.5
		C290,194.5,317.5,222,317.5,256L317.5,256z M317.5,256"/>
	<path fill="#0052B4" d="M256,240.6L222.7,256v25.6l33.3,20.5l33.3-20.5V256L256,240.6z M256,240.6"/>
	<rect x="222.7" y="225.3" fill="#FFDA44" width="66.6" height="30.7"/>
</g>
<g>
	<g>
		<circle fill="#BC042C" cx="442.7" cy="70.8" r="59.5"/>
		<path fill="#FFFFFF" d="M442.7,15.8c30.4,0,55,24.6,55,55s-24.6,55-55,55s-55-24.6-55-55S412.4,15.8,442.7,15.8 M442.7,6.8
			c-35.3,0-64,28.7-64,64s28.7,64,64,64s64-28.7,64-64S478,6.8,442.7,6.8L442.7,6.8z"/>
	</g>
	<g>
		<polygon fill="#FFFFFF" points="442.7,29.8 455.1,54.8 482.8,58.8 462.7,78.4 467.5,105.9 442.7,92.9 418,105.9 422.7,78.4 
			402.7,58.8 430.4,54.8 		"/>
	</g>
</g>
</svg>
