<?xml version="1.0" encoding="utf-8"?>
<!-- Generator: Adobe Illustrator 22.1.0, SVG Export Plug-In . SVG Version: 6.00 Build 0)  -->
<svg version="1.1" id="Capa_1" xmlns="http://www.w3.org/2000/svg" xmlns:xlink="http://www.w3.org/1999/xlink" x="0px" y="0px"
	 viewBox="0 0 512 512" enable-background="new 0 0 512 512" xml:space="preserve">
<g>
	<path fill="#0052B4" d="M491.7,256c0-80.9-40.8-152.3-102.9-194.7L256,51L123.1,61.3C61,103.7,20.3,175.1,20.3,256
		S61,408.3,123.1,450.7L256,461l132.9-10.2C451,408.3,491.7,336.9,491.7,256L491.7,256z M491.7,256"/>
	<path fill="#A2001D" d="M388.9,61.3c-37.8-25.9-83.6-41-132.9-41c-49.3,0-95,15.1-132.9,41H388.9z M388.9,61.3"/>
	<path fill="#A2001D" d="M123.1,450.7c37.8,25.9,83.6,41,132.9,41c49.3,0,95-15.1,132.9-41H123.1z M123.1,450.7"/>
	<path fill="#F0F0F0" d="M368.7,256c0,62.3-50.5,112.7-112.7,112.7c-62.3,0-112.7-50.5-112.7-112.7c0-62.3,50.5-112.7,112.7-112.7
		C318.3,143.3,368.7,193.7,368.7,256L368.7,256z M368.7,256"/>
	<path fill="#6DA544" d="M348.2,256c0,50.9-41.3,92.2-92.2,92.2c-50.9,0-92.2-41.3-92.2-92.2c0-50.9,41.3-92.2,92.2-92.2
		C306.9,163.8,348.2,205.1,348.2,256L348.2,256z M348.2,256"/>
	<path fill="#F0F0F0" d="M317.5,256c0,34-27.5,61.5-61.5,61.5c-34,0-61.5-27.5-61.5-61.5c0-34,27.5-61.5,61.5-61.5
		C290,194.5,317.5,222,317.5,256L317.5,256z M317.5,256"/>
	<path fill="#0052B4" d="M256,240.6L222.7,256v25.6l33.3,20.5l33.3-20.5V256L256,240.6z M256,240.6"/>
	<rect x="222.7" y="225.3" fill="#FFDA44" width="66.6" height="30.7"/>
</g>
<g>
	<g>
		<circle fill="#BC042C" cx="377.3" cy="134.2" r="121.5"/>
		<path fill="#FFFFFF" d="M377.3,24.3c60.7,0,110,49.2,110,110s-49.2,110-110,110s-110-49.2-110-110S316.6,24.3,377.3,24.3
			 M377.3,1.3c-35.5,0-68.9,13.8-94,38.9c-25.1,25.1-38.9,58.5-38.9,94s13.8,68.9,38.9,94c25.1,25.1,58.5,38.9,94,38.9
			s68.9-13.8,94-38.9c25.1-25.1,38.9-58.5,38.9-94s-13.8-68.9-38.9-94C446.2,15.1,412.8,1.3,377.3,1.3L377.3,1.3z"/>
	</g>
	<g>
		<polygon fill="#FFFFFF" points="377.3,52.1 402,102.2 457.3,110.3 417.3,149.3 426.8,204.3 377.3,178.3 327.8,204.3 337.3,149.3 
			297.3,110.3 352.6,102.2 		"/>
	</g>
</g>
</svg>
