<?xml version="1.0" encoding="utf-8"?>
<!-- Generator: Adobe Illustrator 22.1.0, SVG Export Plug-In . SVG Version: 6.00 Build 0)  -->
<svg version="1.1" id="Capa_1" xmlns="http://www.w3.org/2000/svg" xmlns:xlink="http://www.w3.org/1999/xlink" x="0px" y="0px"
	 viewBox="0 0 512 512" enable-background="new 0 0 512 512" xml:space="preserve">
<g>
	<path fill="#FFDA44" d="M497.1,256c0-29.5-5.3-57.7-15-83.9L256,161.6L29.9,172.1c-9.7,26.1-15,54.4-15,83.9
		c0,29.5,5.3,57.7,15,83.9L256,350.3l226.1-10.5C491.8,313.7,497.1,285.5,497.1,256L497.1,256z M497.1,256"/>
	<path fill="#6DA544" d="M256,497.1c103.7,0,192.1-65.4,226.1-157.3H29.9C63.9,431.7,152.3,497.1,256,497.1L256,497.1z M256,497.1"
		/>
	<path fill="#D80027" d="M29.9,172.1h452.2C448.1,80.3,359.7,14.9,256,14.9C152.3,14.9,63.9,80.3,29.9,172.1L29.9,172.1z
		 M29.9,172.1"/>
</g>
<g>
	<g>
		<circle fill="#BC042C" cx="442.7" cy="70.8" r="59.5"/>
		<path fill="#FFFFFF" d="M442.7,15.8c30.4,0,55,24.6,55,55c0,30.4-24.6,55-55,55c-30.4,0-55-24.6-55-55
			C387.7,40.5,412.4,15.8,442.7,15.8 M442.7,6.8c-35.3,0-64,28.7-64,64s28.7,64,64,64s64-28.7,64-64S478,6.8,442.7,6.8L442.7,6.8z"
			/>
	</g>
	<g>
		<polygon fill="#FFFFFF" points="442.7,29.8 455.1,54.8 482.8,58.8 462.7,78.4 467.5,105.9 442.7,92.9 418,105.9 422.7,78.4 
			402.7,58.8 430.4,54.8 		"/>
	</g>
</g>
</svg>
