<?xml version="1.0" encoding="utf-8"?>
<!-- Generator: Adobe Illustrator 22.1.0, SVG Export Plug-In . SVG Version: 6.00 Build 0)  -->
<svg version="1.1" id="Capa_1" xmlns="http://www.w3.org/2000/svg" xmlns:xlink="http://www.w3.org/1999/xlink" x="0px" y="0px"
	 viewBox="0 0 512 512" enable-background="new 0 0 512 512" xml:space="preserve">
<g>
	<path fill="#FFDA44" d="M497.1,256c0-29.5-5.3-57.7-15-83.9L256,161.6L29.9,172.1c-9.7,26.1-15,54.4-15,83.9
		c0,29.5,5.3,57.7,15,83.9L256,350.3l226.1-10.5C491.8,313.7,497.1,285.5,497.1,256L497.1,256z M497.1,256"/>
	<path fill="#6DA544" d="M256,497.1c103.7,0,192.1-65.4,226.1-157.3H29.9C63.9,431.7,152.3,497.1,256,497.1L256,497.1z M256,497.1"
		/>
	<path fill="#D80027" d="M29.9,172.1h452.2C448.1,80.3,359.7,14.9,256,14.9C152.3,14.9,63.9,80.3,29.9,172.1L29.9,172.1z
		 M29.9,172.1"/>
</g>
<g>
	<g>
		<circle fill="#BC042C" cx="377.3" cy="134.2" r="121.5"/>
		<path fill="#FFFFFF" d="M377.3,24.3c60.7,0,110,49.2,110,110s-49.2,110-110,110s-110-49.2-110-110S316.6,24.3,377.3,24.3
			 M377.3,1.3c-35.5,0-68.9,13.8-94,38.9c-25.1,25.1-38.9,58.5-38.9,94s13.8,68.9,38.9,94s58.5,38.9,94,38.9
			c35.5,0,68.9-13.8,94-38.9c25.1-25.1,38.9-58.5,38.9-94s-13.8-68.9-38.9-94C446.2,15.1,412.8,1.3,377.3,1.3L377.3,1.3z"/>
	</g>
	<g>
		<polygon fill="#FFFFFF" points="377.3,52.1 402,102.2 457.3,110.3 417.3,149.3 426.8,204.3 377.3,178.3 327.8,204.3 337.3,149.3 
			297.3,110.3 352.6,102.2 		"/>
	</g>
</g>
</svg>
