<?xml version="1.0" encoding="utf-8"?>
<!-- Generator: Adobe Illustrator 22.1.0, SVG Export Plug-In . SVG Version: 6.00 Build 0)  -->
<svg version="1.1" id="Capa_1" xmlns="http://www.w3.org/2000/svg" xmlns:xlink="http://www.w3.org/1999/xlink" x="0px" y="0px"
	 viewBox="0 0 512 512" enable-background="new 0 0 512 512" xml:space="preserve">
<g>
	<path fill="#F0F0F0" d="M497.7,256c0,133.5-108.2,241.7-241.7,241.7C122.5,497.7,14.3,389.5,14.3,256
		C14.3,122.5,122.5,14.3,256,14.3C389.5,14.3,497.7,122.5,497.7,256L497.7,256z M497.7,256"/>
	<path fill="#D80027" d="M497.7,256c0-95.8-55.8-178.6-136.6-217.8v435.5C442,434.6,497.7,351.8,497.7,256L497.7,256z M497.7,256"/>
	<path fill="#D80027" d="M14.3,256c0,95.8,55.8,178.6,136.6,217.7V38.2C70,77.4,14.3,160.2,14.3,256L14.3,256z M14.3,256"/>
	<path fill="#D80027" d="M298,287.5l42-21l-21-10.5v-21l-42,21l21-42h-21l-21-31.5L235,214h-21l21,42l-42-21v21l-21,10.5l42,21
		l-10.5,21h42v31.5h21v-31.5h42L298,287.5z M298,287.5"/>
</g>
<g>
	<g>
		<circle fill="#BC042C" cx="377.3" cy="134.2" r="121.5"/>
		<path fill="#FFFFFF" d="M377.3,24.3c60.7,0,110,49.2,110,110s-49.2,110-110,110c-60.7,0-110-49.2-110-110S316.6,24.3,377.3,24.3
			 M377.3,1.3c-35.5,0-68.9,13.8-94,38.9c-25.1,25.1-38.9,58.5-38.9,94c0,35.5,13.8,68.9,38.9,94c25.1,25.1,58.5,38.9,94,38.9
			s68.9-13.8,94-38.9s38.9-58.5,38.9-94c0-35.5-13.8-68.9-38.9-94C446.2,15.1,412.8,1.3,377.3,1.3L377.3,1.3z"/>
	</g>
	<g>
		<polygon fill="#FFFFFF" points="377.3,52.1 402,102.2 457.3,110.3 417.3,149.3 426.8,204.3 377.3,178.3 327.8,204.3 337.3,149.3 
			297.3,110.3 352.6,102.2 		"/>
	</g>
</g>
</svg>
