<?xml version="1.0" encoding="utf-8"?>
<!-- Generator: Adobe Illustrator 22.1.0, SVG Export Plug-In . SVG Version: 6.00 Build 0)  -->
<svg version="1.1" id="Capa_1" xmlns="http://www.w3.org/2000/svg" xmlns:xlink="http://www.w3.org/1999/xlink" x="0px" y="0px"
	 viewBox="0 0 512 512" enable-background="new 0 0 512 512" xml:space="preserve">
<g>
	<path fill="#D80027" d="M492.6,256c0,130.7-105.9,236.6-236.6,236.6C125.3,492.6,19.4,386.7,19.4,256
		C19.4,125.3,125.3,19.4,256,19.4C386.7,19.4,492.6,125.3,492.6,256L492.6,256z M492.6,256"/>
	<path fill="#FFDA44" d="M148.9,163.4l20.4,62.9h66.1l-53.5,38.9l20.4,62.9l-53.5-38.9L95.4,328l20.4-62.9l-53.5-38.9h66.1
		L148.9,163.4z M148.9,163.4"/>
	<path fill="#FFDA44" d="M277.6,372.5l-20.1-14.6l-20.1,14.6l7.7-23.6l-20.1-14.6h24.8l7.7-23.6l7.7,23.6H290L270,348.9L277.6,372.5
		z M277.6,372.5"/>
	<path fill="#FFDA44" d="M330,300.5h-24.8l-7.7,23.6l-7.7-23.6h-24.8l20.1-14.6l-7.7-23.6l20.1,14.6l20.1-14.6l-7.7,23.6L330,300.5z
		 M330,300.5"/>
	<path fill="#FFDA44" d="M330,211.5l-20.1,14.6l7.7,23.6l-20.1-14.6l-20.1,14.6l7.7-23.6l-20.1-14.6h24.8l7.7-23.6l7.7,23.6H330z
		 M330,211.5"/>
	<path fill="#FFDA44" d="M277.6,139.5l-7.7,23.6l20.1,14.6h-24.8l-7.7,23.6l-7.7-23.6h-24.8l20.1-14.6l-7.7-23.6l20.1,14.6
		L277.6,139.5z M277.6,139.5"/>
</g>
<g>
	<g>
		<circle fill="#BC042C" cx="442.7" cy="70.8" r="59.5"/>
		<path fill="#FFFFFF" d="M442.7,15.8c30.4,0,55,24.6,55,55s-24.6,55-55,55c-30.4,0-55-24.6-55-55S412.4,15.8,442.7,15.8 M442.7,6.8
			c-35.3,0-64,28.7-64,64s28.7,64,64,64s64-28.7,64-64S478,6.8,442.7,6.8L442.7,6.8z"/>
	</g>
	<g>
		<polygon fill="#FFFFFF" points="442.7,29.8 455.1,54.8 482.8,58.8 462.7,78.4 467.5,105.9 442.7,92.9 418,105.9 422.7,78.4 
			402.7,58.8 430.4,54.8 		"/>
	</g>
</g>
</svg>
