<?xml version="1.0" encoding="utf-8"?>
<!-- Generator: Adobe Illustrator 22.1.0, SVG Export Plug-In . SVG Version: 6.00 Build 0)  -->
<svg version="1.1" id="Capa_1" xmlns="http://www.w3.org/2000/svg" xmlns:xlink="http://www.w3.org/1999/xlink" x="0px" y="0px"
	 viewBox="0 0 512 512" enable-background="new 0 0 512 512" xml:space="preserve">
<g>
	<path fill="#D80027" d="M492.6,256c0,130.7-105.9,236.6-236.6,236.6C125.3,492.6,19.4,386.7,19.4,256
		C19.4,125.3,125.3,19.4,256,19.4C386.7,19.4,492.6,125.3,492.6,256L492.6,256z M492.6,256"/>
	<path fill="#FFDA44" d="M148.9,163.4l20.4,62.9h66.1l-53.5,38.9l20.4,62.9l-53.5-38.9L95.4,328l20.4-62.9l-53.5-38.9h66.1
		L148.9,163.4z M148.9,163.4"/>
	<path fill="#FFDA44" d="M277.6,372.5l-20.1-14.6l-20.1,14.6l7.7-23.6l-20.1-14.6h24.8l7.7-23.6l7.7,23.6H290L270,348.9L277.6,372.5
		z M277.6,372.5"/>
	<path fill="#FFDA44" d="M330,300.5h-24.8l-7.7,23.6l-7.7-23.6h-24.8l20.1-14.6l-7.7-23.6l20.1,14.6l20.1-14.6l-7.7,23.6L330,300.5z
		 M330,300.5"/>
	<path fill="#FFDA44" d="M330,211.5l-20.1,14.6l7.7,23.6l-20.1-14.6l-20.1,14.6l7.7-23.6l-20.1-14.6h24.8l7.7-23.6l7.7,23.6H330z
		 M330,211.5"/>
	<path fill="#FFDA44" d="M277.6,139.5l-7.7,23.6l20.1,14.6h-24.8l-7.7,23.6l-7.7-23.6h-24.8l20.1-14.6l-7.7-23.6l20.1,14.6
		L277.6,139.5z M277.6,139.5"/>
</g>
<g>
	<g>
		<circle fill="#BC042C" cx="377.3" cy="134.2" r="121.5"/>
		<path fill="#FFFFFF" d="M377.3,24.3c60.7,0,110,49.2,110,110s-49.2,110-110,110c-60.7,0-110-49.2-110-110S316.6,24.3,377.3,24.3
			 M377.3,1.3c-35.5,0-68.9,13.8-94,38.9c-25.1,25.1-38.9,58.5-38.9,94c0,35.5,13.8,68.9,38.9,94c25.1,25.1,58.5,38.9,94,38.9
			s68.9-13.8,94-38.9s38.9-58.5,38.9-94c0-35.5-13.8-68.9-38.9-94C446.2,15.1,412.8,1.3,377.3,1.3L377.3,1.3z"/>
	</g>
	<g>
		<polygon fill="#FFFFFF" points="377.3,52.1 402,102.2 457.3,110.3 417.3,149.3 426.8,204.3 377.3,178.3 327.8,204.3 337.3,149.3 
			297.3,110.3 352.6,102.2 		"/>
	</g>
</g>
</svg>
