<?xml version="1.0" encoding="utf-8"?>
<!-- Generator: Adobe Illustrator 22.1.0, SVG Export Plug-In . SVG Version: 6.00 Build 0)  -->
<svg version="1.1" id="Capa_1" xmlns="http://www.w3.org/2000/svg" xmlns:xlink="http://www.w3.org/1999/xlink" x="0px" y="0px"
	 viewBox="0 0 512 512" enable-background="new 0 0 512 512" xml:space="preserve">
<g>
	<path fill="#FFDA44" d="M14.9,256C14.9,122.8,122.8,14.9,256,14.9c133.2,0,241.1,108,241.1,241.1L256,277L14.9,256z M14.9,256"/>
	<path fill="#D80027" d="M47.1,376.6C88.8,448.6,166.8,497.1,256,497.1c89.2,0,167.2-48.5,208.9-120.6L256,360.8L47.1,376.6z
		 M47.1,376.6"/>
	<path fill="#0052B4" d="M464.9,376.6c20.5-35.5,32.3-76.6,32.3-120.6H14.9c0,43.9,11.7,85.1,32.3,120.6H464.9z M464.9,376.6"/>
</g>
<g>
	<g>
		<circle fill="#BC042C" cx="442.7" cy="70.8" r="59.5"/>
		<path fill="#FFFFFF" d="M442.7,15.8c30.4,0,55,24.6,55,55c0,30.4-24.6,55-55,55s-55-24.6-55-55C387.7,40.5,412.4,15.8,442.7,15.8
			 M442.7,6.8c-35.3,0-64,28.7-64,64s28.7,64,64,64s64-28.7,64-64S478,6.8,442.7,6.8L442.7,6.8z"/>
	</g>
	<g>
		<polygon fill="#FFFFFF" points="442.7,29.8 455.1,54.8 482.8,58.8 462.7,78.4 467.5,105.9 442.7,92.9 418,105.9 422.7,78.4 
			402.7,58.8 430.4,54.8 		"/>
	</g>
</g>
</svg>
