<?xml version="1.0" encoding="utf-8"?>
<!-- Generator: Adobe Illustrator 22.1.0, SVG Export Plug-In . SVG Version: 6.00 Build 0)  -->
<svg version="1.1" id="Capa_1" xmlns="http://www.w3.org/2000/svg" xmlns:xlink="http://www.w3.org/1999/xlink" x="0px" y="0px"
	 viewBox="0 0 512 512" enable-background="new 0 0 512 512" xml:space="preserve">
<g>
	<path fill="#FFDA44" d="M14.9,256C14.9,122.8,122.8,14.9,256,14.9c133.2,0,241.1,108,241.1,241.1L256,277L14.9,256z M14.9,256"/>
	<path fill="#D80027" d="M47.1,376.6C88.8,448.6,166.8,497.1,256,497.1c89.2,0,167.2-48.5,208.9-120.6L256,360.8L47.1,376.6z
		 M47.1,376.6"/>
	<path fill="#0052B4" d="M464.9,376.6c20.5-35.5,32.3-76.6,32.3-120.6H14.9c0,43.9,11.7,85.1,32.3,120.6H464.9z M464.9,376.6"/>
	<path fill="#FFDA44" d="M339.9,256c0,46.3-37.5,83.9-83.9,83.9c-46.3,0-83.9-37.5-83.9-83.9c0-46.3,37.5-83.9,83.9-83.9
		C302.3,172.1,339.9,209.7,339.9,256L339.9,256z M339.9,256"/>
	<path fill="#338AF3" d="M256,308.4c-28.9,0-52.4-23.5-52.4-52.4v-31.5c0-28.9,23.5-52.4,52.4-52.4c28.9,0,52.4,23.5,52.4,52.4V256
		C308.4,284.9,284.9,308.4,256,308.4L256,308.4z M256,308.4"/>
	<path d="M339.9,130.2H277c0-11.6-9.4-21-21-21c-11.6,0-21,9.4-21,21h-62.9c0,11.6,10.1,21,21.7,21h-0.7c0,11.6,9.4,21,21,21
		c0,11.6,9.4,21,21,21H277c11.6,0,21-9.4,21-21c11.6,0,21-9.4,21-21h-0.7C329.8,151.2,339.9,141.8,339.9,130.2L339.9,130.2z
		 M339.9,130.2"/>
</g>
<g>
	<g>
		<circle fill="#BC042C" cx="442.7" cy="70.8" r="59.5"/>
		<path fill="#FFFFFF" d="M442.7,15.8c30.4,0,55,24.6,55,55c0,30.4-24.6,55-55,55s-55-24.6-55-55C387.7,40.5,412.4,15.8,442.7,15.8
			 M442.7,6.8c-35.3,0-64,28.7-64,64s28.7,64,64,64s64-28.7,64-64S478,6.8,442.7,6.8L442.7,6.8z"/>
	</g>
	<g>
		<polygon fill="#FFFFFF" points="442.7,29.8 455.1,54.8 482.8,58.8 462.7,78.4 467.5,105.9 442.7,92.9 418,105.9 422.7,78.4 
			402.7,58.8 430.4,54.8 		"/>
	</g>
</g>
</svg>
