<?xml version="1.0" encoding="utf-8"?>
<!-- Generator: Adobe Illustrator 22.1.0, SVG Export Plug-In . SVG Version: 6.00 Build 0)  -->
<svg version="1.1" id="Capa_1" xmlns="http://www.w3.org/2000/svg" xmlns:xlink="http://www.w3.org/1999/xlink" x="0px" y="0px"
	 viewBox="0 0 512 512" enable-background="new 0 0 512 512" xml:space="preserve">
<g>
	<path fill="#FFDA44" d="M15.3,252.8c0,29.4,5.3,57.6,15,83.7l225.6,20.9l225.5-20.9c9.7-26.1,15-54.2,15-83.7s-5.3-57.6-15-83.7
		l-225.5-20.9L30.3,169.1C20.6,195.2,15.3,223.3,15.3,252.8L15.3,252.8z M15.3,252.8"/>
	<path fill="#D80027" d="M481.4,169.1c-34-91.6-122.1-156.9-225.5-156.9c-103.4,0-191.6,65.3-225.6,156.9H481.4z M481.4,169.1"/>
	<path fill="#D80027" d="M30.3,336.4c34,91.6,122.1,156.9,225.6,156.9c103.4,0,191.6-65.3,225.5-156.9H30.3z M30.3,336.4"/>
</g>
<g>
	<g>
		
			<ellipse transform="matrix(0.7071 -0.7071 0.7071 0.7071 15.5927 306.1137)" fill="#BC042C" cx="377.3" cy="134.2" rx="121.5" ry="121.5"/>
		<path fill="#FFFFFF" d="M377.3,24.3c60.7,0,110,49.2,110,110s-49.2,110-110,110s-110-49.2-110-110S316.6,24.3,377.3,24.3
			 M377.3,1.3c-35.5,0-68.9,13.8-94,38.9c-25.1,25.1-38.9,58.5-38.9,94s13.8,68.9,38.9,94c25.1,25.1,58.5,38.9,94,38.9
			s68.9-13.8,94-38.9c25.1-25.1,38.9-58.5,38.9-94s-13.8-68.9-38.9-94C446.2,15.1,412.8,1.3,377.3,1.3L377.3,1.3z"/>
	</g>
	<g>
		<polygon fill="#FFFFFF" points="377.3,52.1 402,102.2 457.3,110.3 417.3,149.3 426.8,204.3 377.3,178.3 327.8,204.3 337.3,149.3 
			297.3,110.3 352.6,102.2 		"/>
	</g>
</g>
</svg>
