<?xml version="1.0" encoding="utf-8"?>
<!-- Generator: Adobe Illustrator 22.1.0, SVG Export Plug-In . SVG Version: 6.00 Build 0)  -->
<svg version="1.1" id="Capa_1" xmlns="http://www.w3.org/2000/svg" xmlns:xlink="http://www.w3.org/1999/xlink" x="0px" y="0px"
	 viewBox="0 0 512 512" enable-background="new 0 0 512 512" xml:space="preserve">
<g>
	<path fill="#FFDA44" d="M15.3,252.8c0,29.4,5.3,57.6,15,83.7l225.6,20.9l225.5-20.9c9.7-26.1,15-54.2,15-83.7s-5.3-57.6-15-83.7
		l-225.5-20.9L30.3,169.1C20.6,195.2,15.3,223.3,15.3,252.8L15.3,252.8z M15.3,252.8"/>
	<path fill="#D80027" d="M481.4,169.1c-34-91.6-122.1-156.9-225.5-156.9c-103.4,0-191.6,65.3-225.6,156.9H481.4z M481.4,169.1"/>
	<path fill="#D80027" d="M30.3,336.4c34,91.6,122.1,156.9,225.6,156.9c103.4,0,191.6-65.3,225.5-156.9H30.3z M30.3,336.4"/>
</g>
<g>
	<g>
		<circle fill="#BC042C" cx="442.7" cy="70.8" r="59.5"/>
		<path fill="#FFFFFF" d="M442.7,15.8c30.4,0,55,24.6,55,55s-24.6,55-55,55c-30.4,0-55-24.6-55-55S412.4,15.8,442.7,15.8 M442.7,6.8
			c-35.3,0-64,28.7-64,64s28.7,64,64,64s64-28.7,64-64S478,6.8,442.7,6.8L442.7,6.8z"/>
	</g>
	<g>
		<polygon fill="#FFFFFF" points="442.7,29.8 455.1,54.8 482.8,58.8 462.7,78.4 467.5,105.9 442.7,92.9 418,105.9 422.7,78.4 
			402.7,58.8 430.4,54.8 		"/>
	</g>
</g>
</svg>
