<?xml version="1.0" encoding="utf-8"?>
<!-- Generator: Adobe Illustrator 22.1.0, SVG Export Plug-In . SVG Version: 6.00 Build 0)  -->
<svg version="1.1" id="Capa_1" xmlns="http://www.w3.org/2000/svg" xmlns:xlink="http://www.w3.org/1999/xlink" x="0px" y="0px"
	 viewBox="0 0 512 512" enable-background="new 0 0 512 512" xml:space="preserve">
<g>
	<path fill="#0052B4" d="M499.8,256c0,134.6-109.1,243.8-243.8,243.8C121.4,499.8,12.2,390.6,12.2,256
		C12.2,121.4,121.4,12.2,256,12.2C390.6,12.2,499.8,121.4,499.8,256L499.8,256z M499.8,256"/>
	<path fill="#FFDA44" d="M256,107.6l7.9,24.3h25.5l-20.7,15l7.9,24.3l-20.7-15l-20.7,15l7.9-24.3l-20.7-15h25.5L256,107.6z
		 M256,107.6"/>
	<path fill="#FFDA44" d="M151.1,151.1l22.8,11.6l18.1-18.1l-4,25.2l22.8,11.6l-25.2,4l-4,25.2l-11.6-22.8l-25.2,4l18.1-18.1
		L151.1,151.1z M151.1,151.1"/>
	<path fill="#FFDA44" d="M107.6,256l24.3-7.9v-25.5l15,20.7l24.3-7.9l-15,20.7l15,20.7l-24.3-7.9l-15,20.7v-25.5L107.6,256z
		 M107.6,256"/>
	<path fill="#FFDA44" d="M151.1,360.9l11.6-22.8l-18.1-18.1l25.2,4l11.6-22.8l4,25.2l25.2,4l-22.8,11.6l4,25.2l-18.1-18.1
		L151.1,360.9z M151.1,360.9"/>
	<path fill="#FFDA44" d="M256,404.4l-7.9-24.3h-25.5l20.7-15l-7.9-24.3l20.7,15l20.7-15l-7.9,24.3l20.7,15h-25.5L256,404.4z
		 M256,404.4"/>
	<path fill="#FFDA44" d="M360.9,360.9l-22.8-11.6l-18.1,18.1l4-25.2l-22.8-11.6l25.2-4l4-25.2l11.6,22.8l25.2-4l-18.1,18.1
		L360.9,360.9z M360.9,360.9"/>
	<path fill="#FFDA44" d="M404.4,256l-24.3,7.9v25.5l-15-20.7l-24.3,7.9l15-20.7l-15-20.7l24.3,7.9l15-20.7v25.5L404.4,256z
		 M404.4,256"/>
	<path fill="#FFDA44" d="M360.9,151.1l-11.6,22.8l18.1,18.1l-25.2-4l-11.6,22.8l-4-25.2l-25.2-4l22.8-11.6l-4-25.2l18.1,18.1
		L360.9,151.1z M360.9,151.1"/>
</g>
<g>
	<g>
		
			<ellipse transform="matrix(0.1602 -0.9871 0.9871 0.1602 184.3689 485.1689)" fill="#BC042C" cx="377.3" cy="134.2" rx="121.5" ry="121.5"/>
		<path fill="#FFFFFF" d="M377.3,24.3c60.7,0,110,49.2,110,110s-49.2,110-110,110c-60.7,0-110-49.2-110-110S316.6,24.3,377.3,24.3
			 M377.3,1.3c-35.5,0-68.9,13.8-94,38.9c-25.1,25.1-38.9,58.5-38.9,94s13.8,68.9,38.9,94c25.1,25.1,58.5,38.9,94,38.9
			s68.9-13.8,94-38.9c25.1-25.1,38.9-58.5,38.9-94s-13.8-68.9-38.9-94C446.2,15.1,412.8,1.3,377.3,1.3L377.3,1.3z"/>
	</g>
	<g>
		<polygon fill="#FFFFFF" points="377.3,52.1 402,102.2 457.3,110.3 417.3,149.3 426.8,204.3 377.3,178.3 327.8,204.3 337.3,149.3 
			297.3,110.3 352.6,102.2 		"/>
	</g>
</g>
</svg>
