<?xml version="1.0" encoding="utf-8"?>
<!-- Generator: Adobe Illustrator 22.1.0, SVG Export Plug-In . SVG Version: 6.00 Build 0)  -->
<svg version="1.1" id="Capa_1" xmlns="http://www.w3.org/2000/svg" xmlns:xlink="http://www.w3.org/1999/xlink" x="0px" y="0px"
	 viewBox="0 0 512 512" enable-background="new 0 0 512 512" xml:space="preserve">
<g>
	<path fill="#F0F0F0" d="M476.6,256c0,121.8-98.8,220.6-220.6,220.6c-121.9,0-220.6-98.8-220.6-220.6
		c0-121.9,98.8-220.6,220.6-220.6C377.8,35.4,476.6,134.1,476.6,256L476.6,256z M476.6,256"/>
	<path fill="#D80027" d="M476.6,256c0-94.9-59.9-175.7-143.9-206.9v413.8C416.8,431.7,476.6,350.9,476.6,256L476.6,256z M476.6,256"
		/>
	<path fill="#0052B4" d="M35.4,256c0,94.9,59.9,175.7,143.9,206.9V49.1C95.2,80.3,35.4,161.1,35.4,256L35.4,256z M35.4,256"/>
</g>
<g>
	<path fill="#F09B00" d="M256,14.8c133.2,0,241.2,108,241.2,241.2S389.2,497.2,256,497.2S14.8,389.2,14.8,256S122.8,14.8,256,14.8
		 M256,2.6c-34.2,0-67.4,6.7-98.7,19.9c-30.2,12.8-57.3,31-80.6,54.3c-23.3,23.3-41.5,50.4-54.3,80.6C9.3,188.6,2.6,221.8,2.6,256
		c0,34.2,6.7,67.4,19.9,98.7c12.8,30.2,31,57.3,54.3,80.6c23.3,23.3,50.4,41.5,80.6,54.3c31.3,13.2,64.4,19.9,98.7,19.9
		s67.4-6.7,98.7-19.9c30.2-12.8,57.3-31,80.6-54.3c23.3-23.3,41.5-50.4,54.3-80.6c13.2-31.3,19.9-64.4,19.9-98.7
		c0-34.2-6.7-67.4-19.9-98.7c-12.8-30.2-31-57.3-54.3-80.6c-23.3-23.3-50.4-41.5-80.6-54.3C323.4,9.3,290.2,2.6,256,2.6L256,2.6z"/>
</g>
</svg>
