<?xml version="1.0" encoding="utf-8"?>
<!-- Generator: Adobe Illustrator 22.1.0, SVG Export Plug-In . SVG Version: 6.00 Build 0)  -->
<svg version="1.1" id="Capa_1" xmlns="http://www.w3.org/2000/svg" xmlns:xlink="http://www.w3.org/1999/xlink" x="0px" y="0px"
	 viewBox="0 0 512 512" enable-background="new 0 0 512 512" xml:space="preserve">
<g>
	<path fill="#F0F0F0" d="M449.8,256c0,107-86.8,193.8-193.8,193.8C149,449.8,62.2,363,62.2,256C62.2,149,149,62.2,256,62.2
		C363,62.2,449.8,149,449.8,256L449.8,256z M449.8,256"/>
	<path fill="#D80027" d="M449.8,256c0-83.3-52.6-154.4-126.4-181.7v363.5C397.2,410.4,449.8,339.3,449.8,256L449.8,256z M449.8,256"
		/>
	<path fill="#0052B4" d="M62.2,256c0,83.3,52.6,154.4,126.4,181.7V74.3C114.8,101.6,62.2,172.7,62.2,256L62.2,256z M62.2,256"/>
</g>
<g>
	<path fill="#359344" d="M256,34.3c122.4,0,221.7,99.2,221.7,221.7S378.4,477.7,256,477.7S34.3,378.4,34.3,256S133.6,34.3,256,34.3
		 M256,7.7c-33.5,0-66,6.6-96.7,19.5c-29.6,12.5-56.1,30.4-78.9,53.2c-22.8,22.8-40.7,49.4-53.2,78.9C14.2,190,7.7,222.5,7.7,256
		s6.6,66,19.5,96.7c12.5,29.6,30.4,56.1,53.2,78.9c22.8,22.8,49.4,40.7,78.9,53.2c30.6,13,63.2,19.5,96.7,19.5s66-6.6,96.7-19.5
		c29.6-12.5,56.1-30.4,78.9-53.2c22.8-22.8,40.7-49.4,53.2-78.9c13-30.6,19.5-63.2,19.5-96.7s-6.6-66-19.5-96.7
		c-12.5-29.6-30.4-56.1-53.2-78.9c-22.8-22.8-49.4-40.7-78.9-53.2C322,14.2,289.5,7.7,256,7.7L256,7.7z"/>
</g>
</svg>
