<?xml version="1.0" encoding="utf-8"?>
<!-- Generator: Adobe Illustrator 22.1.0, SVG Export Plug-In . SVG Version: 6.00 Build 0)  -->
<svg version="1.1" id="Capa_1" xmlns="http://www.w3.org/2000/svg" xmlns:xlink="http://www.w3.org/1999/xlink" x="0px" y="0px"
	 viewBox="0 0 512 512" enable-background="new 0 0 512 512" xml:space="preserve">
<g>
	<path fill="#F0F0F0" d="M497.2,256c0,133.2-108,241.2-241.2,241.2c-133.2,0-241.2-108-241.2-241.2c0-133.2,108-241.2,241.2-241.2
		C389.2,14.8,497.2,122.8,497.2,256L497.2,256z M497.2,256"/>
	<path fill="#FF9811" d="M256,14.8c-95.6,0-178.2,55.6-217.3,136.3h434.5C434.2,70.5,351.6,14.8,256,14.8L256,14.8z M256,14.8"/>
	<path fill="#6DA544" d="M256,497.2c95.6,0,178.2-55.6,217.2-136.3H38.7C77.8,441.5,160.4,497.2,256,497.2L256,497.2z M256,497.2"/>
	<path fill="#0052B4" d="M339.9,256c0,46.3-37.6,83.9-83.9,83.9c-46.3,0-83.9-37.6-83.9-83.9c0-46.3,37.6-83.9,83.9-83.9
		C302.3,172.1,339.9,209.7,339.9,256L339.9,256z M339.9,256"/>
	<path fill="#F0F0F0" d="M308.4,256c0,29-23.5,52.4-52.4,52.4c-29,0-52.4-23.5-52.4-52.4c0-29,23.5-52.4,52.4-52.4
		C285,203.6,308.4,227,308.4,256L308.4,256z M308.4,256"/>
	<path fill="#0052B4" d="M256,191.3l16.2,36.7l39.9-4.3L288.3,256l23.7,32.3l-39.9-4.3L256,320.7L239.8,284l-39.9,4.3l23.7-32.3
		L200,223.7l39.9,4.3L256,191.3z M256,191.3"/>
</g>
<g>
	<g>
		<circle fill="#DB0029" cx="377.3" cy="134.2" r="121.5"/>
		<path fill="#FFFFFF" d="M377.3,24.3c60.7,0,110,49.2,110,110c0,60.7-49.2,110-110,110s-110-49.2-110-110
			C267.3,73.5,316.6,24.3,377.3,24.3 M377.3,1.3c-35.5,0-68.9,13.8-94,38.9c-25.1,25.1-38.9,58.5-38.9,94s13.8,68.9,38.9,94
			c25.1,25.1,58.5,38.9,94,38.9s68.9-13.8,94-38.9c25.1-25.1,38.9-58.5,38.9-94s-13.8-68.9-38.9-94C446.2,15.1,412.8,1.3,377.3,1.3
			L377.3,1.3z"/>
	</g>
	<g>
		<polygon fill="#FFFFFF" points="377.3,52.1 402,102.2 457.3,110.3 417.3,149.3 426.8,204.3 377.3,178.3 327.8,204.3 337.3,149.3 
			297.3,110.3 352.6,102.2 		"/>
	</g>
</g>
</svg>
