<?xml version="1.0" encoding="utf-8"?>
<!-- Generator: Adobe Illustrator 22.1.0, SVG Export Plug-In . SVG Version: 6.00 Build 0)  -->
<svg version="1.1" id="Capa_1" xmlns="http://www.w3.org/2000/svg" xmlns:xlink="http://www.w3.org/1999/xlink" x="0px" y="0px"
	 viewBox="0 0 512 512" enable-background="new 0 0 512 512" xml:space="preserve">
<g>
	<path fill="#F0F0F0" d="M495.9,255.7c0,132.6-107.5,240.1-240.1,240.1c-132.6,0-240.1-107.5-240.1-240.1
		c0-132.6,107.5-240.1,240.1-240.1C388.4,15.6,495.9,123.1,495.9,255.7L495.9,255.7z M495.9,255.7"/>
	<path fill="#0052B4" d="M346.2,203.5h-60.3l-30.1-52.2l-30.1,52.2h-60.3l30.1,52.2l-30.1,52.2h60.3l30.1,52.2l30.1-52.2h60.3
		l-30.1-52.2L346.2,203.5z M292.8,255.7l-18.5,32.1h-37l-18.5-32.1l18.5-32.1h37L292.8,255.7z M255.8,191.6l6.9,11.9h-13.8
		L255.8,191.6z M200.3,223.6H214l-6.9,11.9L200.3,223.6z M200.3,287.8l6.9-11.9l6.9,11.9H200.3z M255.8,319.8l-6.9-11.9h13.8
		L255.8,319.8z M311.3,287.8h-13.8l6.9-11.9L311.3,287.8z M297.6,223.6h13.8l-6.9,11.9L297.6,223.6z M297.6,223.6"/>
	<path fill="#0052B4" d="M405.3,67.8H106.3c-21.9,17.4-40.7,38.6-55.4,62.6h409.7C446,106.4,427.2,85.2,405.3,67.8L405.3,67.8z
		 M405.3,67.8"/>
	<path fill="#0052B4" d="M106.3,443.6h298.9c21.9-17.5,40.7-38.7,55.4-62.6H50.9C65.6,405,84.4,426.2,106.3,443.6L106.3,443.6z
		 M106.3,443.6"/>
</g>
<g>
	<g>
		<circle fill="#BC042C" cx="377.3" cy="134.2" r="121.5"/>
		<path fill="#FFFFFF" d="M377.3,24.3c60.7,0,110,49.2,110,110s-49.2,110-110,110s-110-49.2-110-110S316.6,24.3,377.3,24.3
			 M377.3,1.3c-35.5,0-68.9,13.8-94,38.9c-25.1,25.1-38.9,58.5-38.9,94s13.8,68.9,38.9,94c25.1,25.1,58.5,38.9,94,38.9
			c35.5,0,68.9-13.8,94-38.9s38.9-58.5,38.9-94s-13.8-68.9-38.9-94C446.2,15.1,412.8,1.3,377.3,1.3L377.3,1.3z"/>
	</g>
	<g>
		<polygon fill="#FFFFFF" points="377.3,52.1 402,102.2 457.3,110.3 417.3,149.3 426.8,204.3 377.3,178.3 327.8,204.3 337.3,149.3 
			297.3,110.3 352.6,102.2 		"/>
	</g>
</g>
</svg>
