<?xml version="1.0" encoding="utf-8"?>
<!-- Generator: Adobe Illustrator 22.1.0, SVG Export Plug-In . SVG Version: 6.00 Build 0)  -->
<svg version="1.1" id="Capa_1" xmlns="http://www.w3.org/2000/svg" xmlns:xlink="http://www.w3.org/1999/xlink" x="0px" y="0px"
	 viewBox="0 0 512 512" enable-background="new 0 0 512 512" xml:space="preserve">
<g>
	<path fill="#FFDA44" d="M493.7,255.7c0,131.4-106.5,237.9-237.9,237.9C124.4,493.6,17.9,387,17.9,255.7
		c0-131.4,106.5-237.9,237.9-237.9C387.2,17.8,493.7,124.3,493.7,255.7L493.7,255.7z M493.7,255.7"/>
	<path fill="#6DA544" d="M400.6,66.9c-40.1-30.8-90.3-49.2-144.8-49.2c-54.5,0-104.7,18.3-144.8,49.2l144.8,144.8L400.6,66.9z
		 M400.6,66.9"/>
	<path d="M67,110.8c-30.8,40.1-49.2,90.3-49.2,144.8c0,54.5,18.3,104.7,49.2,144.8l144.8-144.8L67,110.8z M67,110.8"/>
	<path fill="#6DA544" d="M110.9,444.4c40.1,30.8,90.3,49.2,144.8,49.2c54.5,0,104.7-18.3,144.8-49.2L255.8,299.5L110.9,444.4z
		 M110.9,444.4"/>
	<path d="M444.5,400.5c30.8-40.1,49.2-90.3,49.2-144.8c0-54.5-18.3-104.7-49.2-144.8L299.7,255.7L444.5,400.5z M444.5,400.5"/>
</g>
<g>
	<g>
		<circle fill="#BC042C" cx="442.7" cy="70.8" r="59.5"/>
		<path fill="#FFFFFF" d="M442.7,15.8c30.4,0,55,24.6,55,55c0,30.4-24.6,55-55,55c-30.4,0-55-24.6-55-55
			C387.7,40.5,412.4,15.8,442.7,15.8 M442.7,6.8c-35.3,0-64,28.7-64,64s28.7,64,64,64s64-28.7,64-64S478,6.8,442.7,6.8L442.7,6.8z"
			/>
	</g>
	<g>
		<polygon fill="#FFFFFF" points="442.7,29.8 455.1,54.8 482.8,58.8 462.7,78.4 467.5,105.9 442.7,92.9 418,105.9 422.7,78.4 
			402.7,58.8 430.4,54.8 		"/>
	</g>
</g>
</svg>
