<?xml version="1.0" encoding="utf-8"?>
<!-- Generator: Adobe Illustrator 22.1.0, SVG Export Plug-In . SVG Version: 6.00 Build 0)  -->
<svg version="1.1" id="Capa_1" xmlns="http://www.w3.org/2000/svg" xmlns:xlink="http://www.w3.org/1999/xlink" x="0px" y="0px"
	 viewBox="0 0 512 512" enable-background="new 0 0 512 512" xml:space="preserve">
<g>
	<path fill="#F0F0F0" d="M491,256c0,129.8-105.2,235-235,235C126.2,491,21,385.8,21,256C21,126.2,126.2,21,256,21
		C385.8,21,491,126.2,491,256L491,256z M491,256"/>
	<path fill="#D80027" d="M358.2,256c0,56.4-45.7,102.2-102.2,102.2c-56.4,0-102.2-45.7-102.2-102.2c0-56.4,45.7-102.2,102.2-102.2
		C312.4,153.8,358.2,199.6,358.2,256L358.2,256z M358.2,256"/>
</g>
<g>
	<g>
		<circle fill="#BC042C" cx="377.3" cy="134.2" r="121.5"/>
		<path fill="#FFFFFF" d="M377.3,24.3c60.7,0,110,49.2,110,110s-49.2,110-110,110s-110-49.2-110-110S316.6,24.3,377.3,24.3
			 M377.3,1.3c-35.5,0-68.9,13.8-94,38.9c-25.1,25.1-38.9,58.5-38.9,94c0,35.5,13.8,68.9,38.9,94c25.1,25.1,58.5,38.9,94,38.9
			c35.5,0,68.9-13.8,94-38.9s38.9-58.5,38.9-94c0-35.5-13.8-68.9-38.9-94C446.2,15.1,412.8,1.3,377.3,1.3L377.3,1.3z"/>
	</g>
	<g>
		<polygon fill="#FFFFFF" points="377.3,52.1 402,102.2 457.3,110.3 417.3,149.3 426.8,204.3 377.3,178.3 327.8,204.3 337.3,149.3 
			297.3,110.3 352.6,102.2 		"/>
	</g>
</g>
</svg>
