<?xml version="1.0" encoding="utf-8"?>
<!-- Generator: Adobe Illustrator 22.1.0, SVG Export Plug-In . SVG Version: 6.00 Build 0)  -->
<svg version="1.1" id="Capa_1" xmlns="http://www.w3.org/2000/svg" xmlns:xlink="http://www.w3.org/1999/xlink" x="0px" y="0px"
	 viewBox="0 0 512 512" enable-background="new 0 0 512 512" xml:space="preserve">
<g>
	<path fill="#F0F0F0" d="M497.7,256c0,133.5-108.2,241.7-241.7,241.7C122.5,497.7,14.3,389.5,14.3,256
		C14.3,122.5,122.5,14.3,256,14.3C389.5,14.3,497.7,122.5,497.7,256L497.7,256z M497.7,256"/>
	<path fill="#D80027" d="M497.7,256c0-95.8-55.8-178.6-136.6-217.8v435.5C442,434.6,497.7,351.8,497.7,256L497.7,256z M497.7,256"/>
	<path fill="#6DA544" d="M14.3,256c0,95.8,55.8,178.6,136.6,217.7V38.2C70,77.4,14.3,160.2,14.3,256L14.3,256z M14.3,256"/>
	<path fill="#6DA544" d="M192.9,256c0,34.8,28.2,63.1,63.1,63.1c34.8,0,63.1-28.2,63.1-63.1v-21H192.9V256z M192.9,256"/>
	<path fill="#FF9811" d="M340.1,214H277c0-11.6-9.4-21-21-21c-11.6,0-21,9.4-21,21h-63.1c0,11.6,10.1,21,21.7,21h-0.7
		c0,11.6,9.4,21,21,21c0,11.6,9.4,21,21,21h42c11.6,0,21-9.4,21-21c11.6,0,21-9.4,21-21h-0.7C330,235,340.1,225.6,340.1,214
		L340.1,214z M340.1,214"/>
</g>
<g>
	<circle fill="#BC042C" cx="442.7" cy="70.8" r="59.5"/>
	<path fill="#FFFFFF" d="M442.7,15.8c30.4,0,55,24.6,55,55c0,30.4-24.6,55-55,55c-30.4,0-55-24.6-55-55
		C387.7,40.5,412.4,15.8,442.7,15.8 M442.7,6.8c-35.3,0-64,28.7-64,64s28.7,64,64,64s64-28.7,64-64S478,6.8,442.7,6.8L442.7,6.8z"/>
</g>
<g>
	<polygon fill="#FFFFFF" points="442.7,29.8 455.1,54.8 482.8,58.8 462.7,78.4 467.5,105.9 442.7,92.9 418,105.9 422.7,78.4 
		402.7,58.8 430.4,54.8 	"/>
</g>
</svg>
