<?xml version="1.0" encoding="utf-8"?>
<!-- Generator: Adobe Illustrator 22.1.0, SVG Export Plug-In . SVG Version: 6.00 Build 0)  -->
<svg version="1.1" id="Capa_1" xmlns="http://www.w3.org/2000/svg" xmlns:xlink="http://www.w3.org/1999/xlink" x="0px" y="0px"
	 viewBox="0 0 512 512" enable-background="new 0 0 512 512" xml:space="preserve">
<g>
	<path fill="#F0F0F0" d="M495.7,255.7c0,132.5-107.4,239.9-239.9,239.9c-132.5,0-239.9-107.4-239.9-239.9
		c0-132.5,107.4-239.9,239.9-239.9C388.3,15.7,495.7,123.1,495.7,255.7L495.7,255.7z M495.7,255.7"/>
	<path fill="#D80027" d="M24.1,318.3C38,369.8,68.6,414.4,109.7,446V318.3H24.1z M24.1,318.3"/>
	<path fill="#D80027" d="M234.9,494.7c6.9,0.6,13.8,0.9,20.9,0.9c110.9,0,204.1-75.2,231.7-177.4H234.9V494.7z M234.9,494.7"/>
	<path fill="#D80027" d="M487.5,193.1C459.9,90.9,366.6,15.7,255.8,15.7c-7,0-14,0.3-20.9,0.9v176.4H487.5z M487.5,193.1"/>
	<path fill="#D80027" d="M109.7,65.3C68.6,96.9,38,141.6,24.1,193.1h85.6V65.3z M109.7,65.3"/>
	<path fill="#0052B4" d="M493.7,224.4H203.6V21.4c-22.2,4.9-43.2,12.9-62.6,23.5v179.5H17.9c-1.3,10.2-2,20.7-2,31.3
		c0,10.6,0.7,21.1,2,31.3H141v179.5c19.4,10.6,40.4,18.6,62.6,23.5V287h290.1c1.3-10.2,2-20.7,2-31.3
		C495.7,245.1,495,234.6,493.7,224.4L493.7,224.4z M493.7,224.4"/>
</g>
<g>
	<g>
		<circle fill="#BC042C" cx="442.7" cy="70.8" r="59.5"/>
		<path fill="#FFFFFF" d="M442.7,15.8c30.4,0,55,24.6,55,55c0,30.4-24.6,55-55,55s-55-24.6-55-55C387.7,40.5,412.4,15.8,442.7,15.8
			 M442.7,6.8c-35.3,0-64,28.7-64,64s28.7,64,64,64s64-28.7,64-64S478,6.8,442.7,6.8L442.7,6.8z"/>
	</g>
	<g>
		<polygon fill="#FFFFFF" points="442.7,29.8 455.1,54.8 482.8,58.8 462.7,78.4 467.5,105.9 442.7,92.9 418,105.9 422.7,78.4 
			402.7,58.8 430.4,54.8 		"/>
	</g>
</g>
</svg>
