<?xml version="1.0" encoding="utf-8"?>
<!-- Generator: Adobe Illustrator 22.1.0, SVG Export Plug-In . SVG Version: 6.00 Build 0)  -->
<svg version="1.1" id="Capa_1" xmlns="http://www.w3.org/2000/svg" xmlns:xlink="http://www.w3.org/1999/xlink" x="0px" y="0px"
	 viewBox="0 0 512 512" enable-background="new 0 0 512 512" xml:space="preserve">
<g>
	<path fill="#F0F0F0" d="M497.1,256c0,133.2-108,241.1-241.1,241.1c-133.2,0-241.1-108-241.1-241.1C14.9,122.8,122.8,14.9,256,14.9
		C389.2,14.9,497.1,122.8,497.1,256L497.1,256z M497.1,256"/>
	<path fill="#D80027" d="M256,14.9c-95.6,0-178.2,55.6-217.2,136.3h434.4C434.2,70.5,351.6,14.9,256,14.9L256,14.9z M256,14.9"/>
	<path fill="#0052B4" d="M256,497.1c95.6,0,178.2-55.6,217.2-136.3H38.8C77.8,441.5,160.4,497.1,256,497.1L256,497.1z M256,497.1"/>
	<path fill="#6DA544" d="M315.3,186.2l-22.2,22.2c9.5,9.5,15.4,22.6,15.4,37.1c0,28.9-23.5,52.4-52.4,52.4s-52.4-23.5-52.4-52.4
		c0-14.5,5.9-27.6,15.4-37.1l-22.2-22.2c-15.2,15.2-24.6,36.1-24.6,59.3c0,46.3,37.6,83.9,83.9,83.9s83.9-37.5,83.9-83.9
		C339.9,222.4,330.5,201.4,315.3,186.2L315.3,186.2z M315.3,186.2"/>
	<path fill="#FFDA44" d="M256,214.1l7.8,24h25.3l-20.4,14.8l7.8,24L256,262.1L235.6,277l7.8-24l-20.4-14.8h25.3L256,214.1z
		 M256,214.1"/>
</g>
<g>
	<g>
		<circle fill="#BC042C" cx="442.7" cy="70.8" r="59.5"/>
		<path fill="#FFFFFF" d="M442.7,15.8c30.4,0,55,24.6,55,55c0,30.4-24.6,55-55,55s-55-24.6-55-55C387.7,40.5,412.4,15.8,442.7,15.8
			 M442.7,6.8c-35.3,0-64,28.7-64,64s28.7,64,64,64s64-28.7,64-64S478,6.8,442.7,6.8L442.7,6.8z"/>
	</g>
	<g>
		<polygon fill="#FFFFFF" points="442.7,29.8 455.1,54.8 482.8,58.8 462.7,78.4 467.5,105.9 442.7,92.9 418,105.9 422.7,78.4 
			402.7,58.8 430.4,54.8 		"/>
	</g>
</g>
</svg>
