<?xml version="1.0" encoding="utf-8"?>
<!-- Generator: Adobe Illustrator 22.1.0, SVG Export Plug-In . SVG Version: 6.00 Build 0)  -->
<svg version="1.1" id="Capa_1" xmlns="http://www.w3.org/2000/svg" xmlns:xlink="http://www.w3.org/1999/xlink" x="0px" y="0px"
	 viewBox="0 0 512 512" enable-background="new 0 0 512 512" xml:space="preserve">
<g>
	<path fill="#F0F0F0" d="M497.1,256c0,133.2-108,241.1-241.1,241.1c-133.2,0-241.1-108-241.1-241.1C14.9,122.8,122.8,14.9,256,14.9
		C389.2,14.9,497.1,122.8,497.1,256L497.1,256z M497.1,256"/>
	<path fill="#D80027" d="M497.1,256c0-103.7-65.4-192.1-157.3-226.1v452.2C431.7,448.1,497.1,359.7,497.1,256L497.1,256z M497.1,256
		"/>
	<path fill="#D80027" d="M14.9,256c0,103.7,65.4,192.1,157.3,226.1V29.9C80.3,63.9,14.9,152.3,14.9,256L14.9,256z M14.9,256"/>
</g>
<g>
	<g>
		<circle fill="#BC042C" cx="377.3" cy="134.2" r="121.5"/>
		<path fill="#FFFFFF" d="M377.3,24.3c60.7,0,110,49.2,110,110s-49.2,110-110,110s-110-49.2-110-110S316.6,24.3,377.3,24.3
			 M377.3,1.3c-35.5,0-68.9,13.8-94,38.9c-25.1,25.1-38.9,58.5-38.9,94c0,35.5,13.8,68.9,38.9,94c25.1,25.1,58.5,38.9,94,38.9
			c35.5,0,68.9-13.8,94-38.9c25.1-25.1,38.9-58.5,38.9-94c0-35.5-13.8-68.9-38.9-94S412.8,1.3,377.3,1.3L377.3,1.3z"/>
	</g>
	<g>
		<polygon fill="#FFFFFF" points="377.3,52.1 402,102.2 457.3,110.3 417.3,149.3 426.8,204.3 377.3,178.3 327.8,204.3 337.3,149.3 
			297.3,110.3 352.6,102.2 		"/>
	</g>
</g>
</svg>
