<?xml version="1.0" encoding="utf-8"?>
<!-- Generator: Adobe Illustrator 22.1.0, SVG Export Plug-In . SVG Version: 6.00 Build 0)  -->
<svg version="1.1" id="Capa_1" xmlns="http://www.w3.org/2000/svg" xmlns:xlink="http://www.w3.org/1999/xlink" x="0px" y="0px"
	 viewBox="0 0 512 512" enable-background="new 0 0 512 512" xml:space="preserve">
<rect y="0" fill="#FFFFFF" width="512" height="512"/>
<g>
	<path fill="#F0F0F0" d="M499.4,256c0,134.4-109,243.4-243.4,243.4c-134.4,0-243.4-109-243.4-243.4c0-134.4,109-243.4,243.4-243.4
		C390.4,12.6,499.4,121.6,499.4,256L499.4,256z M499.4,256"/>
	<path fill="#0052B4" d="M62.9,107.8c-19.1,24.9-33.5,53.5-41.9,84.7h126.6L62.9,107.8z M62.9,107.8"/>
	<path fill="#0052B4" d="M491,192.5c-8.4-31.1-22.8-59.8-41.9-84.7l-84.7,84.7H491z M491,192.5"/>
	<path fill="#0052B4" d="M21,319.5c8.4,31.1,22.8,59.8,41.9,84.7l84.7-84.7H21z M21,319.5"/>
	<path fill="#0052B4" d="M404.2,62.9c-24.9-19.1-53.5-33.5-84.7-41.9v126.6L404.2,62.9z M404.2,62.9"/>
	<path fill="#0052B4" d="M107.8,449.1c24.9,19.1,53.5,33.5,84.7,41.9V364.4L107.8,449.1z M107.8,449.1"/>
	<path fill="#0052B4" d="M192.5,21c-31.1,8.4-59.8,22.8-84.7,41.9l84.7,84.7V21z M192.5,21"/>
	<path fill="#0052B4" d="M319.5,491c31.1-8.4,59.8-22.8,84.7-41.9l-84.7-84.7V491z M319.5,491"/>
	<path fill="#0052B4" d="M364.4,319.5l84.7,84.7c19.1-24.9,33.5-53.5,41.9-84.7H364.4z M364.4,319.5"/>
	<path fill="#D80027" d="M497.3,224.3H287.7V14.7c-10.4-1.4-21-2.1-31.7-2.1c-10.8,0-21.4,0.7-31.7,2.1v209.6H14.7
		c-1.4,10.4-2.1,21-2.1,31.7c0,10.8,0.7,21.4,2.1,31.7h209.6v209.6c10.4,1.4,21,2.1,31.7,2.1c10.8,0,21.4-0.7,31.7-2.1V287.7h209.6
		c1.4-10.4,2.1-21,2.1-31.7C499.4,245.2,498.7,234.6,497.3,224.3L497.3,224.3z M497.3,224.3"/>
	<path fill="#D80027" d="M319.5,319.5l108.6,108.6c5-5,9.8-10.2,14.3-15.6l-93-93H319.5z M319.5,319.5"/>
	<path fill="#D80027" d="M192.5,319.5L192.5,319.5L83.9,428.1c5,5,10.2,9.8,15.6,14.3l93-93V319.5z M192.5,319.5"/>
	<path fill="#D80027" d="M192.5,192.5L83.9,83.9c-5,5-9.8,10.2-14.3,15.6l93,93H192.5z M192.5,192.5"/>
	<path fill="#D80027" d="M319.5,192.5L428.1,83.9c-5-5-10.2-9.8-15.6-14.3l-93,93V192.5z M319.5,192.5"/>
</g>
<g>
	<g>
		<circle fill="#BC042C" cx="377.3" cy="134.2" r="121.5"/>
		<path fill="#FFFFFF" d="M377.3,24.3c60.7,0,110,49.2,110,110s-49.2,110-110,110s-110-49.2-110-110S316.6,24.3,377.3,24.3
			 M377.3,1.3c-35.5,0-68.9,13.8-94,38.9c-25.1,25.1-38.9,58.5-38.9,94s13.8,68.9,38.9,94c25.1,25.1,58.5,38.9,94,38.9
			c35.5,0,68.9-13.8,94-38.9c25.1-25.1,38.9-58.5,38.9-94s-13.8-68.9-38.9-94C446.2,15.1,412.8,1.3,377.3,1.3L377.3,1.3z"/>
	</g>
	<g>
		<polygon fill="#FFFFFF" points="377.3,52.1 402,102.2 457.3,110.3 417.3,149.3 426.8,204.3 377.3,178.3 327.8,204.3 337.3,149.3 
			297.3,110.3 352.6,102.2 		"/>
	</g>
</g>
</svg>
