<?xml version="1.0" encoding="utf-8"?>
<!-- Generator: Adobe Illustrator 22.1.0, SVG Export Plug-In . SVG Version: 6.00 Build 0)  -->
<svg version="1.1" id="Capa_1" xmlns="http://www.w3.org/2000/svg" xmlns:xlink="http://www.w3.org/1999/xlink" x="0px" y="0px"
	 viewBox="0 0 512 512" enable-background="new 0 0 512 512" xml:space="preserve">
<g>
	<path fill="#FFDA44" d="M479.3,256c0,123.3-100,223.3-223.3,223.3c-123.3,0-223.3-100-223.3-223.3c0-123.3,100-223.3,223.3-223.3
		C379.3,32.7,479.3,132.7,479.3,256L479.3,256z M479.3,256"/>
	<path fill="#0052B4" d="M207.5,226.9h269.9C463.1,117.3,369.5,32.7,256,32.7c-16.7,0-32.9,1.8-48.5,5.3V226.9z M207.5,226.9"/>
	<path fill="#0052B4" d="M149.2,226.9v-167C87.9,93.3,44,154.7,34.6,226.9H149.2z M149.2,226.9"/>
	<path fill="#0052B4" d="M149.2,285.1H34.6c9.4,72.2,53.3,133.6,114.6,167V285.1z M149.2,285.1"/>
	<path fill="#0052B4" d="M207.5,285.1V474c15.6,3.5,31.9,5.3,48.5,5.3c113.5,0,207.1-84.6,221.4-194.2H207.5z M207.5,285.1"/>
</g>
<g>
	<path fill="#F09B00" d="M256,14.8c133.2,0,241.2,108,241.2,241.2S389.2,497.2,256,497.2S14.8,389.2,14.8,256S122.8,14.8,256,14.8
		 M256,2.6c-34.2,0-67.4,6.7-98.7,19.9c-30.2,12.8-57.3,31-80.6,54.3c-23.3,23.3-41.5,50.4-54.3,80.6C9.3,188.6,2.6,221.8,2.6,256
		c0,34.2,6.7,67.4,19.9,98.7c12.8,30.2,31,57.3,54.3,80.6c23.3,23.3,50.4,41.5,80.6,54.3c31.3,13.2,64.4,19.9,98.7,19.9
		c34.2,0,67.4-6.7,98.7-19.9c30.2-12.8,57.3-31,80.6-54.3c23.3-23.3,41.5-50.4,54.3-80.6c13.2-31.3,19.9-64.4,19.9-98.7
		c0-34.2-6.7-67.4-19.9-98.7c-12.8-30.2-31-57.3-54.3-80.6c-23.3-23.3-50.4-41.5-80.6-54.3C323.4,9.3,290.2,2.6,256,2.6L256,2.6z"/>
</g>
</svg>
