<?xml version="1.0" encoding="utf-8"?>
<!-- Generator: Adobe Illustrator 22.1.0, SVG Export Plug-In . SVG Version: 6.00 Build 0)  -->
<svg version="1.1" id="Capa_1" xmlns="http://www.w3.org/2000/svg" xmlns:xlink="http://www.w3.org/1999/xlink" x="0px" y="0px"
	 viewBox="0 0 512 512" enable-background="new 0 0 512 512" xml:space="preserve">
<g>
	<path fill="#FFDA44" d="M497.2,256c0,133.2-108,241.2-241.2,241.2c-133.2,0-241.2-108-241.2-241.2c0-133.2,108-241.2,241.2-241.2
		C389.2,14.8,497.2,122.8,497.2,256L497.2,256z M497.2,256"/>
	<path fill="#0052B4" d="M203.6,224.5h291.6C479.7,106.2,378.5,14.8,256,14.8c-18,0-35.6,2-52.4,5.7V224.5z M203.6,224.5"/>
	<path fill="#0052B4" d="M140.6,224.5V44.1C74.4,80.3,27,146.6,16.9,224.5H140.6z M140.6,224.5"/>
	<path fill="#0052B4" d="M140.6,287.5H16.9c10.2,78,57.6,144.3,123.8,180.4V287.5z M140.6,287.5"/>
	<path fill="#0052B4" d="M203.6,287.5v204c16.9,3.7,34.4,5.7,52.4,5.7c122.5,0,223.7-91.4,239.1-209.7H203.6z M203.6,287.5"/>
</g>
<g>
	<g>
		<circle fill="#BC042C" cx="442.7" cy="70.8" r="59.5"/>
		<path fill="#FFFFFF" d="M442.7,15.8c30.4,0,55,24.6,55,55c0,30.4-24.6,55-55,55c-30.4,0-55-24.6-55-55
			C387.7,40.5,412.4,15.8,442.7,15.8 M442.7,6.8c-35.3,0-64,28.7-64,64s28.7,64,64,64s64-28.7,64-64S478,6.8,442.7,6.8L442.7,6.8z"
			/>
	</g>
	<g>
		<polygon fill="#FFFFFF" points="442.7,29.8 455.1,54.8 482.8,58.8 462.7,78.4 467.5,105.9 442.7,92.9 418,105.9 422.7,78.4 
			402.7,58.8 430.4,54.8 		"/>
	</g>
</g>
</svg>
