<?xml version="1.0" encoding="utf-8"?>
<!-- Generator: Adobe Illustrator 22.1.0, SVG Export Plug-In . SVG Version: 6.00 Build 0)  -->
<svg version="1.1" id="Capa_1" xmlns="http://www.w3.org/2000/svg" xmlns:xlink="http://www.w3.org/1999/xlink" x="0px" y="0px"
	 viewBox="0 0 512 512" enable-background="new 0 0 512 512" xml:space="preserve">
<g>
	<path fill="#FFDA44" d="M452.1,256c0,108.3-87.8,196.1-196.1,196.1c-108.3,0-196.1-87.8-196.1-196.1
		c0-108.3,87.8-196.1,196.1-196.1C364.3,59.9,452.1,147.7,452.1,256L452.1,256z M452.1,256"/>
	<path fill="#0052B4" d="M213.4,230.4h237.1C437.9,134.2,355.7,59.9,256,59.9c-14.6,0-28.9,1.6-42.6,4.7V230.4z M213.4,230.4"/>
	<path fill="#0052B4" d="M162.2,230.4V83.7C108.3,113.1,69.8,167,61.5,230.4H162.2z M162.2,230.4"/>
	<path fill="#0052B4" d="M162.2,281.6H61.5c8.3,63.4,46.8,117.3,100.7,146.7V281.6z M162.2,281.6"/>
	<path fill="#0052B4" d="M213.4,281.6v165.9c13.7,3,28,4.7,42.6,4.7c99.7,0,181.9-74.3,194.5-170.6H213.4z M213.4,281.6"/>
</g>
<g>
	<path fill="#359344" d="M256,34.3c122.4,0,221.7,99.2,221.7,221.7S378.4,477.7,256,477.7S34.3,378.4,34.3,256S133.6,34.3,256,34.3
		 M256,7.7c-33.5,0-66,6.6-96.7,19.5c-29.6,12.5-56.1,30.4-78.9,53.2c-22.8,22.8-40.7,49.4-53.2,78.9C14.2,190,7.7,222.5,7.7,256
		s6.6,66,19.5,96.7c12.5,29.6,30.4,56.1,53.2,78.9c22.8,22.8,49.4,40.7,78.9,53.2c30.6,13,63.2,19.5,96.7,19.5s66-6.6,96.7-19.5
		c29.6-12.5,56.1-30.4,78.9-53.2c22.8-22.8,40.7-49.4,53.2-78.9c13-30.6,19.5-63.2,19.5-96.7s-6.6-66-19.5-96.7
		c-12.5-29.6-30.4-56.1-53.2-78.9c-22.8-22.8-49.4-40.7-78.9-53.2C322,14.2,289.5,7.7,256,7.7L256,7.7z"/>
</g>
</svg>
