<?xml version="1.0" encoding="utf-8"?>
<!-- Generator: Adobe Illustrator 22.1.0, SVG Export Plug-In . SVG Version: 6.00 Build 0)  -->
<svg version="1.1" id="Capa_1" xmlns="http://www.w3.org/2000/svg" xmlns:xlink="http://www.w3.org/1999/xlink" x="0px" y="0px"
	 viewBox="0 0 512 512" enable-background="new 0 0 512 512" xml:space="preserve">
<g>
	<path fill="#FFDA44" d="M497.2,256c0,133.2-108,241.2-241.2,241.2c-133.2,0-241.2-108-241.2-241.2c0-133.2,108-241.2,241.2-241.2
		C389.2,14.8,497.2,122.8,497.2,256L497.2,256z M497.2,256"/>
	<path fill="#0052B4" d="M203.6,224.5h291.6C479.7,106.2,378.5,14.8,256,14.8c-18,0-35.6,2-52.4,5.7V224.5z M203.6,224.5"/>
	<path fill="#0052B4" d="M140.6,224.5V44.1C74.4,80.3,27,146.6,16.9,224.5H140.6z M140.6,224.5"/>
	<path fill="#0052B4" d="M140.6,287.5H16.9c10.2,78,57.6,144.3,123.8,180.4V287.5z M140.6,287.5"/>
	<path fill="#0052B4" d="M203.6,287.5v204c16.9,3.7,34.4,5.7,52.4,5.7c122.5,0,223.7-91.4,239.1-209.7H203.6z M203.6,287.5"/>
</g>
<g>
	<g>
		
			<ellipse transform="matrix(0.7071 -0.7071 0.7071 0.7071 15.5928 306.1136)" fill="#BC042C" cx="377.3" cy="134.2" rx="121.5" ry="121.5"/>
		<path fill="#FFFFFF" d="M377.3,24.3c60.7,0,110,49.2,110,110s-49.2,110-110,110c-60.7,0-110-49.2-110-110S316.6,24.3,377.3,24.3
			 M377.3,1.3c-35.5,0-68.9,13.8-94,38.9c-25.1,25.1-38.9,58.5-38.9,94c0,35.5,13.8,68.9,38.9,94c25.1,25.1,58.5,38.9,94,38.9
			c35.5,0,68.9-13.8,94-38.9c25.1-25.1,38.9-58.5,38.9-94c0-35.5-13.8-68.9-38.9-94C446.2,15.1,412.8,1.3,377.3,1.3L377.3,1.3z"/>
	</g>
	<g>
		<polygon fill="#FFFFFF" points="377.3,52.1 402,102.2 457.3,110.3 417.3,149.3 426.8,204.3 377.3,178.3 327.8,204.3 337.3,149.3 
			297.3,110.3 352.6,102.2 		"/>
	</g>
</g>
</svg>
