<?xml version="1.0" encoding="utf-8"?>
<!-- Generator: Adobe Illustrator 22.1.0, SVG Export Plug-In . SVG Version: 6.00 Build 0)  -->
<svg version="1.1" id="Capa_1" xmlns="http://www.w3.org/2000/svg" xmlns:xlink="http://www.w3.org/1999/xlink" x="0px" y="0px"
	 viewBox="0 0 512 512" enable-background="new 0 0 512 512" xml:space="preserve">
<g>
	<path fill="#F0F0F0" d="M493.7,255.7c0,131.4-106.5,237.9-237.9,237.9C124.4,493.6,17.9,387,17.9,255.7
		c0-131.4,106.5-237.9,237.9-237.9C387.2,17.8,493.7,124.3,493.7,255.7L493.7,255.7z M493.7,255.7"/>
	<path fill="#A2001D" d="M478.9,172.9H32.7c-9.6,25.8-14.8,53.6-14.8,82.7s5.2,57,14.8,82.7h446.2c9.6-25.8,14.8-53.6,14.8-82.7
		S488.4,198.7,478.9,172.9L478.9,172.9z M478.9,172.9"/>
	<path fill="#6DA544" d="M256.5,493.6c81.5,0,153.4-41,196.3-103.4H60.2C103.1,452.6,175,493.6,256.5,493.6L256.5,493.6z
		 M256.5,493.6"/>
	<path fill="#6DA544" d="M256.5,17.8c81.5,0,153.4,41,196.3,103.4H60.2C103.1,58.7,175,17.8,256.5,17.8L256.5,17.8z M256.5,17.8"/>
	<path fill="#FFDA44" d="M255.8,172.9l20.5,63.2h66.5L289,275.2l20.5,63.2l-53.8-39.1L202,338.4l20.5-63.2l-53.8-39.1h66.5
		L255.8,172.9z M255.8,172.9"/>
</g>
<g>
	<g>
		
			<ellipse transform="matrix(0.7071 -0.7071 0.7071 0.7071 15.5928 306.1136)" fill="#BC042C" cx="377.3" cy="134.2" rx="121.5" ry="121.5"/>
		<path fill="#FFFFFF" d="M377.3,24.3c60.7,0,110,49.2,110,110s-49.2,110-110,110s-110-49.2-110-110S316.6,24.3,377.3,24.3
			 M377.3,1.3c-35.5,0-68.9,13.8-94,38.9c-25.1,25.1-38.9,58.5-38.9,94c0,35.5,13.8,68.9,38.9,94c25.1,25.1,58.5,38.9,94,38.9
			s68.9-13.8,94-38.9c25.1-25.1,38.9-58.5,38.9-94c0-35.5-13.8-68.9-38.9-94C446.2,15.1,412.8,1.3,377.3,1.3L377.3,1.3z"/>
	</g>
	<g>
		<polygon fill="#FFFFFF" points="377.3,52.1 402,102.2 457.3,110.3 417.3,149.3 426.8,204.3 377.3,178.3 327.8,204.3 337.3,149.3 
			297.3,110.3 352.6,102.2 		"/>
	</g>
</g>
</svg>
