<?xml version="1.0" encoding="utf-8"?>
<!-- Generator: Adobe Illustrator 22.1.0, SVG Export Plug-In . SVG Version: 6.00 Build 0)  -->
<svg version="1.1" id="Capa_1" xmlns="http://www.w3.org/2000/svg" xmlns:xlink="http://www.w3.org/1999/xlink" x="0px" y="0px"
	 viewBox="0 0 512 512" enable-background="new 0 0 512 512" xml:space="preserve">
<g>
	<path fill="#F0F0F0" d="M493.7,255.7c0,131.4-106.5,237.9-237.9,237.9C124.4,493.6,17.9,387,17.9,255.7
		c0-131.4,106.5-237.9,237.9-237.9C387.2,17.8,493.7,124.3,493.7,255.7L493.7,255.7z M493.7,255.7"/>
	<path fill="#A2001D" d="M478.9,172.9H32.7c-9.6,25.8-14.8,53.6-14.8,82.7s5.2,57,14.8,82.7h446.2c9.6-25.8,14.8-53.6,14.8-82.7
		S488.4,198.7,478.9,172.9L478.9,172.9z M478.9,172.9"/>
	<path fill="#6DA544" d="M256.5,493.6c81.5,0,153.4-41,196.3-103.4H60.2C103.1,452.6,175,493.6,256.5,493.6L256.5,493.6z
		 M256.5,493.6"/>
	<path fill="#6DA544" d="M256.5,17.8c81.5,0,153.4,41,196.3,103.4H60.2C103.1,58.7,175,17.8,256.5,17.8L256.5,17.8z M256.5,17.8"/>
	<path fill="#FFDA44" d="M255.8,172.9l20.5,63.2h66.5L289,275.2l20.5,63.2l-53.8-39.1L202,338.4l20.5-63.2l-53.8-39.1h66.5
		L255.8,172.9z M255.8,172.9"/>
</g>
<g>
	<g>
		<circle fill="#BC042C" cx="442.7" cy="70.8" r="59.5"/>
		<path fill="#FFFFFF" d="M442.7,15.8c30.4,0,55,24.6,55,55c0,30.4-24.6,55-55,55c-30.4,0-55-24.6-55-55
			C387.7,40.5,412.4,15.8,442.7,15.8 M442.7,6.8c-35.3,0-64,28.7-64,64s28.7,64,64,64s64-28.7,64-64S478,6.8,442.7,6.8L442.7,6.8z"
			/>
	</g>
	<g>
		<polygon fill="#FFFFFF" points="442.7,29.8 455.1,54.8 482.8,58.8 462.7,78.4 467.5,105.9 442.7,92.9 418,105.9 422.7,78.4 
			402.7,58.8 430.4,54.8 		"/>
	</g>
</g>
</svg>
