<?xml version="1.0" encoding="utf-8"?>
<!-- Generator: Adobe Illustrator 22.1.0, SVG Export Plug-In . SVG Version: 6.00 Build 0)  -->
<svg version="1.1" id="Capa_1" xmlns="http://www.w3.org/2000/svg" xmlns:xlink="http://www.w3.org/1999/xlink" x="0px" y="0px"
	 viewBox="0 0 512 512" enable-background="new 0 0 512 512" xml:space="preserve">
<g>
	<path fill="#F0F0F0" d="M147,44.8c-21.2,11-41.2,25.3-59,43.1c-17.8,17.8-32.2,37.7-43.1,59L197.4,314l167.1,152.5
		c21.2-11,41.2-25.3,59-43.1c17.8-17.8,32.2-37.7,43.1-59L314.1,197.3L147,44.8z M147,44.8"/>
	<g>
		<defs>
			<rect id="SVGID_47_" x="18.6" y="18.1" width="474.8" height="475.9"/>
		</defs>
		<clipPath id="SVGID_2_">
			<use xlink:href="#SVGID_47_"  overflow="visible"/>
		</clipPath>
		<path clip-path="url(#SVGID_2_)" d="M423.5,423.4c9.9-9.9,18.8-20.6,26.6-31.7L119.7,61.3C108.6,69.1,98,78,88,87.9
			c-10,10-18.8,20.6-26.6,31.7L391.8,450C402.9,442.2,413.6,433.3,423.5,423.4L423.5,423.4z M423.5,423.4"/>
		<path clip-path="url(#SVGID_2_)" fill="#D80027" d="M88,423.4c74.8,74.8,187.2,89.2,276.5,43.1L44.9,146.9
			C-1.2,236.2,13.2,348.6,88,423.4L88,423.4z M88,423.4"/>
		<path clip-path="url(#SVGID_2_)" fill="#D80027" d="M423.5,87.9C348.7,13.1,236.3-1.3,147,44.8l319.6,319.6
			C512.7,275.1,498.3,162.7,423.5,87.9L423.5,87.9z M423.5,87.9"/>
	</g>
</g>
<g>
	<g>
		<circle fill="#BC042C" cx="442.7" cy="70.8" r="59.5"/>
		<path fill="#FFFFFF" d="M442.7,15.8c30.4,0,55,24.6,55,55c0,30.4-24.6,55-55,55s-55-24.6-55-55C387.7,40.5,412.4,15.8,442.7,15.8
			 M442.7,6.8c-35.3,0-64,28.7-64,64s28.7,64,64,64s64-28.7,64-64S478,6.8,442.7,6.8L442.7,6.8z"/>
	</g>
	<g>
		<polygon fill="#FFFFFF" points="442.7,29.8 455.1,54.8 482.8,58.8 462.7,78.4 467.5,105.9 442.7,92.9 418,105.9 422.7,78.4 
			402.7,58.8 430.4,54.8 		"/>
	</g>
</g>
</svg>
