<?xml version="1.0" encoding="utf-8"?>
<!-- Generator: Adobe Illustrator 22.1.0, SVG Export Plug-In . SVG Version: 6.00 Build 0)  -->
<svg version="1.1" id="Capa_1" xmlns="http://www.w3.org/2000/svg" xmlns:xlink="http://www.w3.org/1999/xlink" x="0px" y="0px"
	 viewBox="0 0 512 512" enable-background="new 0 0 512 512" xml:space="preserve">
<g>
	<path fill="#F0F0F0" d="M497.1,256c0,133.2-108,241.1-241.1,241.1c-133.2,0-241.1-108-241.1-241.1C14.9,122.8,122.8,14.9,256,14.9
		C389.2,14.9,497.1,122.8,497.1,256L497.1,256z M497.1,256"/>
	<path fill="#338AF3" d="M256,193.1h232.8c-6-22.4-15.2-43.6-27.1-62.9H256V193.1z M256,193.1"/>
	<path fill="#338AF3" d="M105.9,444.7h300.2c22-17.5,40.9-38.8,55.6-62.9H50.3C65,405.9,83.9,427.2,105.9,444.7L105.9,444.7z
		 M105.9,444.7"/>
	<path fill="#338AF3" d="M256,14.9v52.4h150.1C364.9,34.5,312.7,14.9,256,14.9L256,14.9z M256,14.9"/>
	<path fill="#338AF3" d="M256,193.1h232.8c-6-22.4-15.2-43.6-27.1-62.9H256V193.1z M256,193.1"/>
	<path fill="#338AF3" d="M14.9,256c0,21.8,2.9,42.8,8.3,62.9h465.6c5.4-20.1,8.3-41.1,8.3-62.9H14.9z M14.9,256"/>
	<path fill="#FFDA44" d="M224.5,156l-29.4,13.9l15.7,28.5l-32-6.1l-4.1,32.3l-22.3-23.8l-22.3,23.8l-4.1-32.3l-32,6.1l15.7-28.5
		L80.4,156l29.4-13.8l-15.7-28.5l32,6.1l4.1-32.3l22.3,23.8l22.3-23.8l4.1,32.3l32-6.1l-15.7,28.5L224.5,156z M224.5,156"/>
</g>
<g>
	<g>
		<circle fill="#BC042C" cx="442.7" cy="70.8" r="59.5"/>
		<path fill="#FFFFFF" d="M442.7,15.8c30.4,0,55,24.6,55,55c0,30.4-24.6,55-55,55c-30.4,0-55-24.6-55-55
			C387.7,40.5,412.4,15.8,442.7,15.8 M442.7,6.8c-35.3,0-64,28.7-64,64s28.7,64,64,64s64-28.7,64-64S478,6.8,442.7,6.8L442.7,6.8z"
			/>
	</g>
	<g>
		<polygon fill="#FFFFFF" points="442.7,29.8 455.1,54.8 482.8,58.8 462.7,78.4 467.5,105.9 442.7,92.9 418,105.9 422.7,78.4 
			402.7,58.8 430.4,54.8 		"/>
	</g>
</g>
</svg>
