<?xml version="1.0" encoding="utf-8"?>
<!-- Generator: Adobe Illustrator 22.1.0, SVG Export Plug-In . SVG Version: 6.00 Build 0)  -->
<svg version="1.1" id="Capa_1" xmlns="http://www.w3.org/2000/svg" xmlns:xlink="http://www.w3.org/1999/xlink" x="0px" y="0px"
	 viewBox="0 0 512 512" enable-background="new 0 0 512 512" xml:space="preserve">
<g>
	<path fill="#F0F0F0" d="M497.1,256c0,133.2-108,241.1-241.1,241.1c-133.2,0-241.1-108-241.1-241.1C14.9,122.8,122.8,14.9,256,14.9
		C389.2,14.9,497.1,122.8,497.1,256L497.1,256z M497.1,256"/>
	<path fill="#338AF3" d="M256,193.1h232.8c-6-22.4-15.2-43.6-27.1-62.9H256V193.1z M256,193.1"/>
	<path fill="#338AF3" d="M105.9,444.7h300.2c22-17.5,40.9-38.8,55.6-62.9H50.3C65,405.9,83.9,427.2,105.9,444.7L105.9,444.7z
		 M105.9,444.7"/>
	<path fill="#338AF3" d="M256,14.9v52.4h150.1C364.9,34.5,312.7,14.9,256,14.9L256,14.9z M256,14.9"/>
	<path fill="#338AF3" d="M256,193.1h232.8c-6-22.4-15.2-43.6-27.1-62.9H256V193.1z M256,193.1"/>
	<path fill="#338AF3" d="M14.9,256c0,21.8,2.9,42.8,8.3,62.9h465.6c5.4-20.1,8.3-41.1,8.3-62.9H14.9z M14.9,256"/>
	<path fill="#FFDA44" d="M224.5,156l-29.4,13.9l15.7,28.5l-32-6.1l-4.1,32.3l-22.3-23.8l-22.3,23.8l-4.1-32.3l-32,6.1l15.7-28.5
		L80.4,156l29.4-13.8l-15.7-28.5l32,6.1l4.1-32.3l22.3,23.8l22.3-23.8l4.1,32.3l32-6.1l-15.7,28.5L224.5,156z M224.5,156"/>
</g>
<g>
	<g>
		<circle fill="#BC042C" cx="377.3" cy="134.2" r="121.5"/>
		<path fill="#FFFFFF" d="M377.3,24.3c60.7,0,110,49.2,110,110s-49.2,110-110,110c-60.7,0-110-49.2-110-110S316.6,24.3,377.3,24.3
			 M377.3,1.3c-35.5,0-68.9,13.8-94,38.9c-25.1,25.1-38.9,58.5-38.9,94c0,35.5,13.8,68.9,38.9,94c25.1,25.1,58.5,38.9,94,38.9
			s68.9-13.8,94-38.9c25.1-25.1,38.9-58.5,38.9-94c0-35.5-13.8-68.9-38.9-94S412.8,1.3,377.3,1.3L377.3,1.3z"/>
	</g>
	<g>
		<polygon fill="#FFFFFF" points="377.3,52.1 402,102.2 457.3,110.3 417.3,149.3 426.8,204.3 377.3,178.3 327.8,204.3 337.3,149.3 
			297.3,110.3 352.6,102.2 		"/>
	</g>
</g>
</svg>
