<?xml version="1.0" encoding="utf-8"?>
<!-- Generator: Adobe Illustrator 22.1.0, SVG Export Plug-In . SVG Version: 6.00 Build 0)  -->
<svg version="1.1" id="Capa_1" xmlns="http://www.w3.org/2000/svg" xmlns:xlink="http://www.w3.org/1999/xlink" x="0px" y="0px"
	 viewBox="0 0 512 512" enable-background="new 0 0 512 512" xml:space="preserve">
<g>
	<path fill="#F0F0F0" d="M492.6,256c0,130.7-105.9,236.6-236.6,236.6C125.3,492.6,19.4,386.7,19.4,256
		C19.4,125.3,125.3,19.4,256,19.4C386.7,19.4,492.6,125.3,492.6,256L492.6,256z M492.6,256"/>
	<path fill="#D80027" d="M245.7,256h246.9c0-21.4-2.8-42-8.2-61.7H245.7V256z M245.7,256"/>
	<path fill="#D80027" d="M245.7,132.6h212.2c-14.5-23.6-33-44.5-54.6-61.7H245.7V132.6z M245.7,132.6"/>
	<path fill="#D80027" d="M256,492.6c55.7,0,106.9-19.2,147.3-51.4H108.7C149.1,473.4,200.3,492.6,256,492.6L256,492.6z M256,492.6"
		/>
	<path fill="#D80027" d="M54.1,379.4h403.8c11.6-19,20.6-39.7,26.6-61.7H27.5C33.5,339.7,42.5,360.5,54.1,379.4L54.1,379.4z
		 M54.1,379.4"/>
	<path fill="#0052B4" d="M129,56.3h21.6l-20.1,14.6l7.7,23.6l-20.1-14.6L98,94.5l6.6-20.4C87,88.8,71.5,106.1,58.8,125.3h6.9
		l-12.8,9.3c-2,3.3-3.9,6.7-5.7,10.1l6.1,18.8l-11.4-8.3c-2.8,6-5.4,12.1-7.7,18.4l6.7,20.7h24.8l-20.1,14.6l7.7,23.6l-20.1-14.6
		l-12,8.7c-1.2,9.7-1.8,19.5-1.8,29.5H256V19.4C209.3,19.4,165.7,32.9,129,56.3L129,56.3z M138.2,232.3l-20.1-14.6L98,232.3
		l7.7-23.6l-20.1-14.6h24.8l7.7-23.6l7.7,23.6h24.8l-20.1,14.6L138.2,232.3z M130.5,139.8l7.7,23.6l-20.1-14.6L98,163.4l7.7-23.6
		l-20.1-14.6h24.8l7.7-23.6l7.7,23.6h24.8L130.5,139.8z M223,232.3L203,217.8l-20.1,14.6l7.7-23.6l-20.1-14.6h24.8l7.7-23.6
		l7.7,23.6h24.8l-20.1,14.6L223,232.3z M215.4,139.8l7.7,23.6L203,148.8l-20.1,14.6l7.7-23.6l-20.1-14.6h24.8l7.7-23.6l7.7,23.6
		h24.8L215.4,139.8z M215.4,70.9l7.7,23.6L203,79.9l-20.1,14.6l7.7-23.6l-20.1-14.6h24.8l7.7-23.6l7.7,23.6h24.8L215.4,70.9z
		 M215.4,70.9"/>
</g>
<g>
	<circle fill="#BC042C" cx="442.7" cy="70.8" r="59.5"/>
	<path fill="#FFFFFF" d="M442.7,15.8c30.4,0,55,24.6,55,55c0,30.4-24.6,55-55,55c-30.4,0-55-24.6-55-55
		C387.7,40.5,412.4,15.8,442.7,15.8 M442.7,6.8c-35.3,0-64,28.7-64,64s28.7,64,64,64s64-28.7,64-64S478,6.8,442.7,6.8L442.7,6.8z"/>
</g>
<g>
	<polygon fill="#FFFFFF" points="442.7,29.8 455.1,54.8 482.8,58.8 462.7,78.4 467.5,105.9 442.7,92.9 418,105.9 422.7,78.4 
		402.7,58.8 430.4,54.8 	"/>
</g>
</svg>
