<?xml version="1.0" encoding="utf-8"?>
<!-- Generator: Adobe Illustrator 22.1.0, SVG Export Plug-In . SVG Version: 6.00 Build 0)  -->
<svg version="1.1" id="Capa_1" xmlns="http://www.w3.org/2000/svg" xmlns:xlink="http://www.w3.org/1999/xlink" x="0px" y="0px"
	 viewBox="0 0 512 512" enable-background="new 0 0 512 512" xml:space="preserve">
<g>
	<path fill="#359344" d="M34.2,345c9.5-29.8,37.6-37.3,60.9-50.5c3.3-1.9,5.7-1.4,7.1,2.6c1,3,2.7,5.6-1.5,7.6c-2,1-4.7,1.5-5.5,4.1
		c12.2,7.9,26.8,10.5,39.4,17.7c5,2.9,8.4,3.6,3.3,10.6c-7.9,10.9-7.8,24.5-7,37.5c0.4,6-1.2,9.4-6.8,11.9
		c-6.5,2.9-12.5,7-18.9,10.3c-26.4,13.4-56.9,1.4-67.5-26.2c-0.9-2.4-0.6-5.6-3.4-7.1C34.2,357.3,34.2,351.2,34.2,345z M83.1,319.8
		c-20.4-0.4-36.3,14.6-36.6,34.5C46.2,373.8,62,390,81.8,390.4c20.2,0.3,36.4-15,36.6-34.6C118.6,335.9,103.2,320.1,83.1,319.8z"/>
	<path fill="#359344" d="M440.4,145.2c-1.2,14.5-8.3,28.9-24.7,37.5c-75.8,40-151.8,79.7-227.5,120c-13.2,7-26.1,13.7-41.6,10.9
		c-21.2-3.8-36.1-19-39.8-40.2c-3.3-18.8,7.1-39.1,26.2-49.2C212,182.7,290.9,141.1,370,100.1C402.7,83.2,440.4,106,440.4,145.2z
		 M165.6,220.5c5.4,2.7,10.1,4.2,13.8,7.1c5.1,4,9.1,3.5,14.5,0.4c51.9-29,104-57.6,156-86.4c19-10.5,38-20.9,58-32
		c-13.3-6.7-24.5-4.1-35.5,1.7c-41.7,22-83.5,43.9-125.2,65.9C220.4,191.5,193.6,205.7,165.6,220.5z M154,302.4
		c20.1,0.1,36.1-15.4,36.1-35.1c0-19.5-16.1-35.4-36-35.5c-20.4-0.1-35.9,15.1-36,35.1C118.2,286.7,133.8,302.3,154,302.4z"/>
	<path fill="#359344" d="M477.7,243.1c0.9,22.4-9.4,35.9-26.9,45.1c-73.8,38.7-147.6,77.4-221.2,116.3c-12.7,6.7-24.8,14-40.2,12.9
		c-19.9-1.4-36.9-14.6-42.7-34.2c-5.5-18.8,1.2-39.9,17.8-50.6c12-7.8,25-14,37.7-20.7c68.3-36,136.5-72.1,204.9-107.7
		c26.5-13.8,55.7-3.9,67.5,21.8C477.5,232.1,477.9,238.5,477.7,243.1z M205.7,323.4c11.8,10.6,21.7,11.7,35.7,3.5
		c45.6-26.8,92.4-51.6,138.7-77.2c21.7-12,43.5-23.9,66.6-36.6c-13.9-5.9-25.1-3.7-36.5,2.3c-59.8,31.6-119.7,63-179.5,94.4
		C222.5,314.2,214.3,318.7,205.7,323.4z M156.7,369.4c-0.5,20.2,15.5,36.8,35.6,37.1c19.2,0.3,36.3-16.5,36.4-35.6
		c0.1-19-16.7-35.7-36.2-35.9C172.9,334.7,157.2,349.8,156.7,369.4z"/>
</g>
<g>
	<g>
		<circle fill="#BC042C" cx="377.3" cy="134.2" r="121.5"/>
		<path fill="#FFFFFF" d="M377.3,24.3c60.7,0,110,49.2,110,110s-49.2,110-110,110c-60.7,0-110-49.2-110-110S316.6,24.3,377.3,24.3
			 M377.3,1.3c-35.5,0-68.9,13.8-94,38.9c-25.1,25.1-38.9,58.5-38.9,94s13.8,68.9,38.9,94s58.5,38.9,94,38.9s68.9-13.8,94-38.9
			c25.1-25.1,38.9-58.5,38.9-94s-13.8-68.9-38.9-94C446.2,15.1,412.8,1.3,377.3,1.3L377.3,1.3z"/>
	</g>
	<g>
		<polygon fill="#FFFFFF" points="377.3,52.1 402,102.2 457.3,110.3 417.3,149.3 426.8,204.3 377.3,178.3 327.8,204.3 337.3,149.3 
			297.3,110.3 352.6,102.2 		"/>
	</g>
</g>
</svg>
