<?xml version="1.0" encoding="utf-8"?>
<!-- Generator: Adobe Illustrator 22.1.0, SVG Export Plug-In . SVG Version: 6.00 Build 0)  -->
<svg version="1.1" id="Capa_1" xmlns="http://www.w3.org/2000/svg" xmlns:xlink="http://www.w3.org/1999/xlink" x="0px" y="0px"
	 viewBox="0 0 512 512" enable-background="new 0 0 512 512" xml:space="preserve">
<g>
	<path fill="#359344" d="M189.8,306.8l39.4,11.3l9.1,45.7l-67.4-19.4L189.8,306.8L189.8,306.8z M82.4,276l39.4,11.3l9.1,45.7
		l-67.4-19.3L82.4,276L82.4,276z M136.1,229.4l39.4,11.3l9.1,45.7l-53.3-15.3l0-0.5l-1.9-0.1l-12.2-3.5L136.1,229.4L136.1,229.4z
		 M330.4,144.4l18.4,4.6l-167.5,74.4l-19.1-5.5L330.4,144.4L330.4,144.4z M396.9,201.2l-193.5,86l-9.9-49.4l183.6-81.6L396.9,201.2
		L396.9,201.2z M149.7,333.9l-8.2-40.9l30.4,8.7l-14.3,28.6L149.7,333.9L149.7,333.9z M402.5,226.4L235,300.9l-10.6-3l166.9-74.2
		L402.5,226.4L402.5,226.4z M450.5,278.7l-193.5,86l-9.9-49.4l183.6-81.6L450.5,278.7L450.5,278.7z M443.8,218l-25.5-6.4l2.5-1.1
		l-30.7-70l-61.3-15.3l-206,90.1l-14.8,29.7l-38.8,17l-31.6,63.2L144.9,356l0,0l107.4,30.8L474.5,288L443.8,218L443.8,218z"/>
</g>
<g>
	<g>
		
			<ellipse transform="matrix(0.9239 -0.3827 0.3827 0.9239 -22.6486 154.6078)" fill="#BC042C" cx="377.3" cy="134.2" rx="121.5" ry="121.5"/>
		<path fill="#FFFFFF" d="M377.3,24.3c60.7,0,110,49.2,110,110s-49.2,110-110,110s-110-49.2-110-110S316.6,24.3,377.3,24.3
			 M377.3,1.3c-35.5,0-68.9,13.8-94,38.9c-25.1,25.1-38.9,58.5-38.9,94s13.8,68.9,38.9,94s58.5,38.9,94,38.9s68.9-13.8,94-38.9
			s38.9-58.5,38.9-94s-13.8-68.9-38.9-94C446.2,15.1,412.8,1.3,377.3,1.3L377.3,1.3z"/>
	</g>
	<g>
		<polygon fill="#FFFFFF" points="377.3,52.1 402,102.2 457.3,110.3 417.3,149.3 426.8,204.3 377.3,178.3 327.8,204.3 337.3,149.3 
			297.3,110.3 352.6,102.2 		"/>
	</g>
</g>
</svg>
