<?xml version="1.0" encoding="utf-8"?>
<!-- Generator: Adobe Illustrator 22.0.1, SVG Export Plug-In . SVG Version: 6.00 Build 0)  -->
<svg version="1.1" id="Capa_1" xmlns="http://www.w3.org/2000/svg" xmlns:xlink="http://www.w3.org/1999/xlink" x="0px" y="0px"
	 viewBox="0 0 480 332" enable-background="new 0 0 480 332" xml:space="preserve">
<rect x="-0.5" fill="#010101" width="481" height="332"/>
<g>
	<path fill="#FFFFFF" d="M104.84,193.901V228h-3.643c-0.547,0-1.01-0.09-1.385-0.271c-0.377-0.18-0.746-0.489-1.105-0.928
		l-16.99-21.62c0.047,0.549,0.082,1.089,0.105,1.621c0.023,0.533,0.035,1.026,0.035,1.48V228h-6.227v-34.099h3.713
		c0.297,0,0.551,0.012,0.764,0.035c0.211,0.023,0.402,0.079,0.574,0.165c0.174,0.086,0.338,0.199,0.494,0.341
		c0.156,0.141,0.33,0.329,0.518,0.563l17.107,21.714c-0.062-0.595-0.109-1.171-0.141-1.727c-0.031-0.557-0.047-1.085-0.047-1.587
		v-19.505H104.84z"/>
	<path fill="#FFFFFF" d="M121.291,203.396c1.818,0,3.471,0.29,4.959,0.869c1.488,0.58,2.766,1.406,3.83,2.479
		c1.066,1.073,1.889,2.378,2.469,3.913c0.578,1.535,0.869,3.267,0.869,5.193s-0.291,3.662-0.869,5.205
		c-0.58,1.543-1.402,2.855-2.469,3.937c-1.064,1.081-2.342,1.911-3.83,2.491c-1.488,0.579-3.141,0.869-4.959,0.869
		c-1.832,0-3.498-0.29-4.994-0.869c-1.496-0.58-2.775-1.41-3.842-2.491c-1.064-1.081-1.891-2.394-2.479-3.937
		s-0.881-3.278-0.881-5.205s0.293-3.658,0.881-5.193s1.414-2.84,2.479-3.913c1.066-1.073,2.346-1.899,3.842-2.479
		C117.793,203.686,119.459,203.396,121.291,203.396z M121.291,223.488c1.85,0,3.221-0.639,4.113-1.916
		c0.893-1.276,1.34-3.176,1.34-5.698c0-2.507-0.447-4.398-1.34-5.675c-0.893-1.277-2.264-1.916-4.113-1.916
		c-1.895,0-3.289,0.639-4.182,1.916c-0.895,1.276-1.34,3.168-1.34,5.675c0,2.522,0.445,4.422,1.34,5.698
		C118.002,222.85,119.396,223.488,121.291,223.488z"/>
	<path fill="#FFFFFF" d="M162.275,228h-6.463v-19.575h-10.74v12.643c0,0.674,0.16,1.207,0.482,1.598
		c0.32,0.393,0.779,0.588,1.375,0.588c0.312,0,0.58-0.035,0.799-0.105s0.406-0.148,0.564-0.235c0.156-0.086,0.301-0.164,0.434-0.234
		c0.133-0.071,0.271-0.106,0.412-0.106c0.188,0,0.344,0.044,0.471,0.13c0.125,0.086,0.25,0.23,0.375,0.435l1.951,3.102
		c-0.895,0.705-1.904,1.238-3.031,1.599c-1.129,0.359-2.297,0.54-3.502,0.54c-1.098,0-2.068-0.161-2.914-0.481
		c-0.846-0.321-1.559-0.779-2.139-1.375s-1.02-1.316-1.316-2.162s-0.445-1.802-0.445-2.867v-13.065h-2.281
		c-0.344,0-0.639-0.109-0.881-0.329s-0.363-0.549-0.363-0.987v-2.538l3.877-0.705l1.316-6.274c0.172-0.705,0.65-1.058,1.434-1.058
		h3.383v7.379h17.203V228z M163.285,196.839c0,0.533-0.109,1.038-0.328,1.516c-0.221,0.479-0.514,0.894-0.883,1.246
		c-0.367,0.353-0.799,0.634-1.291,0.846c-0.494,0.212-1.023,0.317-1.586,0.317c-0.533,0-1.039-0.105-1.516-0.317
		c-0.479-0.212-0.898-0.493-1.258-0.846c-0.361-0.353-0.646-0.768-0.857-1.246c-0.213-0.478-0.318-0.982-0.318-1.516
		c0-0.548,0.105-1.062,0.318-1.539c0.211-0.478,0.496-0.896,0.857-1.257c0.359-0.36,0.779-0.646,1.258-0.858
		c0.477-0.211,0.982-0.317,1.516-0.317c0.562,0,1.092,0.106,1.586,0.317c0.492,0.212,0.924,0.498,1.291,0.858
		c0.369,0.36,0.662,0.779,0.883,1.257C163.176,195.777,163.285,196.291,163.285,196.839z"/>
	<path fill="#FFFFFF" d="M185.398,209.177c-0.188,0.251-0.375,0.442-0.562,0.575c-0.189,0.134-0.455,0.2-0.801,0.2
		c-0.312,0-0.613-0.09-0.904-0.271c-0.289-0.18-0.623-0.376-0.998-0.587c-0.377-0.212-0.822-0.407-1.34-0.588
		c-0.518-0.18-1.16-0.271-1.928-0.271c-0.971,0-1.812,0.177-2.525,0.529s-1.305,0.857-1.773,1.516
		c-0.471,0.658-0.82,1.457-1.047,2.396c-0.227,0.94-0.34,1.998-0.34,3.173c0,2.476,0.496,4.371,1.492,5.687
		c0.994,1.316,2.354,1.975,4.076,1.975c0.596,0,1.109-0.051,1.539-0.153c0.432-0.102,0.807-0.23,1.129-0.388
		c0.32-0.156,0.6-0.329,0.834-0.517c0.234-0.188,0.459-0.36,0.67-0.518c0.211-0.156,0.424-0.285,0.635-0.388
		c0.211-0.102,0.449-0.152,0.717-0.152c0.5,0,0.893,0.188,1.174,0.564l1.857,2.35c-0.689,0.799-1.426,1.461-2.209,1.985
		c-0.783,0.525-1.594,0.94-2.432,1.246c-0.84,0.306-1.689,0.517-2.551,0.634c-0.861,0.118-1.715,0.177-2.561,0.177
		c-1.49,0-2.898-0.278-4.23-0.834c-1.332-0.557-2.5-1.367-3.502-2.433s-1.797-2.373-2.385-3.925
		c-0.588-1.551-0.881-3.321-0.881-5.311c0-1.771,0.258-3.415,0.775-4.936c0.516-1.519,1.275-2.835,2.279-3.947
		c1.002-1.112,2.244-1.986,3.725-2.62c1.48-0.635,3.191-0.952,5.135-0.952c1.848,0,3.469,0.298,4.865,0.893
		c1.393,0.596,2.646,1.457,3.76,2.585L185.398,209.177z"/>
	<path fill="#FFFFFF" d="M198.02,196.886c0,0.549-0.111,1.058-0.33,1.527c-0.219,0.471-0.514,0.886-0.881,1.246
		c-0.369,0.36-0.799,0.643-1.293,0.846c-0.494,0.204-1.021,0.306-1.586,0.306c-0.533,0-1.039-0.102-1.516-0.306
		c-0.479-0.203-0.896-0.485-1.258-0.846c-0.359-0.36-0.646-0.775-0.857-1.246c-0.211-0.47-0.316-0.979-0.316-1.527
		c0-0.548,0.105-1.061,0.316-1.539c0.211-0.478,0.498-0.896,0.857-1.257c0.361-0.36,0.779-0.643,1.258-0.847
		c0.477-0.203,0.982-0.305,1.516-0.305c0.564,0,1.092,0.102,1.586,0.305c0.494,0.204,0.924,0.486,1.293,0.847
		c0.367,0.36,0.662,0.779,0.881,1.257C197.908,195.825,198.02,196.338,198.02,196.886z M197.242,203.771V228h-6.484v-24.229H197.242
		z"/>
	<path fill="#FFFFFF" d="M202.248,207.132c1.426-1.284,3-2.244,4.725-2.879c1.723-0.634,3.586-0.951,5.592-0.951
		c1.441,0,2.73,0.234,3.865,0.705c1.137,0.47,2.1,1.124,2.891,1.962s1.398,1.837,1.822,2.996c0.422,1.16,0.635,2.429,0.635,3.808
		V228h-2.961c-0.611,0-1.078-0.086-1.398-0.259c-0.322-0.172-0.584-0.532-0.787-1.081l-0.518-1.551
		c-0.611,0.533-1.203,1.003-1.773,1.41c-0.572,0.407-1.164,0.748-1.775,1.022s-1.266,0.481-1.961,0.622
		c-0.697,0.142-1.479,0.212-2.34,0.212c-1.064,0-2.035-0.141-2.914-0.423c-0.877-0.282-1.633-0.701-2.268-1.258
		c-0.635-0.556-1.123-1.249-1.469-2.079c-0.344-0.83-0.516-1.786-0.516-2.867c0-0.893,0.227-1.786,0.682-2.679
		c0.453-0.894,1.232-1.704,2.338-2.433c1.104-0.729,2.576-1.331,4.418-1.81c1.84-0.478,4.146-0.748,6.92-0.811v-1.245
		c0-1.52-0.32-2.636-0.963-3.35c-0.643-0.712-1.566-1.069-2.773-1.069c-0.893,0-1.637,0.106-2.232,0.317
		c-0.596,0.212-1.117,0.439-1.562,0.682c-0.447,0.243-0.865,0.47-1.258,0.682c-0.391,0.212-0.846,0.317-1.363,0.317
		c-0.453,0-0.834-0.113-1.139-0.341c-0.307-0.227-0.561-0.497-0.764-0.811L202.248,207.132z M215.455,217.871
		c-1.582,0.079-2.898,0.216-3.947,0.412c-1.051,0.195-1.885,0.45-2.504,0.764s-1.057,0.669-1.314,1.069
		c-0.26,0.399-0.389,0.834-0.389,1.304c0,0.94,0.262,1.606,0.787,1.998s1.258,0.587,2.197,0.587c1.082,0,2.018-0.191,2.809-0.575
		s1.578-0.983,2.361-1.798V217.871z"/>
	<path fill="#FFFFFF" d="M241.916,208.754c-0.172,0.267-0.35,0.458-0.529,0.575s-0.426,0.177-0.74,0.177
		c-0.312,0-0.635-0.078-0.963-0.235c-0.33-0.156-0.697-0.325-1.105-0.505c-0.406-0.181-0.873-0.349-1.398-0.506
		c-0.523-0.156-1.131-0.234-1.82-0.234c-1.051,0-1.865,0.215-2.443,0.646c-0.58,0.432-0.871,0.999-0.871,1.704
		c0,0.485,0.166,0.893,0.494,1.222c0.33,0.329,0.764,0.615,1.305,0.858s1.154,0.47,1.844,0.682c0.689,0.211,1.398,0.442,2.127,0.692
		c0.729,0.251,1.438,0.541,2.127,0.87s1.305,0.74,1.846,1.233c0.539,0.493,0.975,1.089,1.305,1.786
		c0.328,0.697,0.492,1.539,0.492,2.526c0,1.175-0.215,2.26-0.646,3.255c-0.43,0.995-1.061,1.853-1.891,2.573
		c-0.832,0.721-1.865,1.284-3.102,1.691c-1.238,0.407-2.664,0.611-4.277,0.611c-0.832,0-1.654-0.074-2.469-0.224
		c-0.814-0.148-1.59-0.359-2.326-0.634s-1.426-0.592-2.068-0.952s-1.197-0.752-1.668-1.175l1.504-2.421
		c0.172-0.281,0.389-0.501,0.646-0.657c0.258-0.157,0.592-0.235,0.998-0.235c0.393,0,0.752,0.098,1.082,0.294
		c0.328,0.195,0.697,0.407,1.104,0.634c0.408,0.228,0.889,0.439,1.445,0.635c0.557,0.196,1.25,0.294,2.08,0.294
		c0.627,0,1.168-0.07,1.621-0.212c0.455-0.141,0.822-0.332,1.105-0.575c0.281-0.243,0.488-0.518,0.623-0.822
		c0.133-0.306,0.199-0.623,0.199-0.952c0-0.532-0.168-0.967-0.506-1.305c-0.336-0.336-0.775-0.63-1.316-0.881
		c-0.539-0.25-1.162-0.478-1.867-0.682c-0.705-0.203-1.422-0.431-2.15-0.682c-0.729-0.25-1.441-0.548-2.139-0.893
		s-1.316-0.779-1.855-1.305c-0.541-0.524-0.98-1.171-1.316-1.938c-0.338-0.768-0.506-1.699-0.506-2.797
		c0-1.002,0.195-1.954,0.588-2.854c0.391-0.901,0.979-1.696,1.762-2.386s1.76-1.237,2.926-1.645c1.168-0.407,2.52-0.611,4.055-0.611
		c1.723,0,3.289,0.282,4.699,0.846c1.41,0.564,2.57,1.301,3.479,2.209L241.916,208.754z"/>
	<path fill="#FFFFFF" d="M280.268,192.962V228h-3.996c-0.83,0-1.363-0.376-1.598-1.128l-0.541-2.115
		c-0.484,0.533-0.998,1.019-1.539,1.457s-1.123,0.819-1.75,1.14c-0.627,0.321-1.301,0.568-2.021,0.74
		c-0.721,0.173-1.504,0.259-2.35,0.259c-1.301,0-2.492-0.274-3.572-0.822c-1.082-0.549-2.018-1.352-2.809-2.409
		s-1.406-2.354-1.844-3.889c-0.439-1.535-0.658-3.29-0.658-5.265c0-1.801,0.246-3.478,0.74-5.028
		c0.492-1.552,1.193-2.891,2.104-4.019c0.908-1.128,2.004-2.014,3.289-2.656c1.285-0.642,2.711-0.963,4.277-0.963
		c1.316,0,2.424,0.196,3.324,0.587c0.902,0.393,1.721,0.925,2.457,1.599v-12.525H280.268z M273.781,210.069
		c-0.611-0.705-1.273-1.198-1.986-1.48s-1.469-0.423-2.268-0.423c-0.783,0-1.496,0.149-2.139,0.446
		c-0.643,0.298-1.195,0.764-1.656,1.398c-0.463,0.635-0.818,1.445-1.07,2.433c-0.25,0.986-0.375,2.162-0.375,3.524
		c0,1.348,0.102,2.491,0.305,3.432c0.203,0.939,0.498,1.699,0.881,2.279c0.385,0.579,0.852,0.999,1.398,1.257
		c0.549,0.259,1.16,0.388,1.834,0.388c1.143,0,2.104-0.227,2.879-0.682c0.775-0.454,1.508-1.096,2.197-1.927V210.069z"/>
	<path fill="#FFFFFF" d="M290.818,216.885c0.203,2.271,0.85,3.933,1.939,4.981c1.088,1.05,2.51,1.575,4.264,1.575
		c0.895,0,1.666-0.106,2.316-0.317c0.648-0.212,1.221-0.446,1.715-0.705s0.939-0.494,1.34-0.705
		c0.398-0.212,0.795-0.317,1.186-0.317c0.502,0,0.895,0.188,1.176,0.564l1.879,2.35c-0.689,0.799-1.449,1.461-2.279,1.985
		c-0.83,0.525-1.691,0.94-2.584,1.246s-1.795,0.517-2.703,0.634c-0.908,0.118-1.785,0.177-2.631,0.177
		c-1.693,0-3.271-0.278-4.736-0.834c-1.465-0.557-2.742-1.379-3.83-2.468c-1.09-1.089-1.947-2.44-2.574-4.054
		c-0.625-1.613-0.939-3.485-0.939-5.616c0-1.646,0.271-3.196,0.811-4.653c0.541-1.457,1.32-2.726,2.338-3.807
		c1.02-1.081,2.256-1.939,3.713-2.573c1.457-0.635,3.104-0.952,4.936-0.952c1.551,0,2.98,0.247,4.289,0.74s2.436,1.21,3.385,2.15
		c0.947,0.939,1.684,2.096,2.209,3.466c0.523,1.371,0.787,2.935,0.787,4.688c0,0.486-0.023,0.886-0.07,1.198
		c-0.047,0.313-0.127,0.564-0.236,0.752c-0.109,0.188-0.258,0.317-0.445,0.388c-0.189,0.071-0.432,0.106-0.729,0.106H290.818z
		 M301.018,213.03c0-0.673-0.09-1.315-0.271-1.927c-0.18-0.611-0.465-1.151-0.857-1.621c-0.391-0.471-0.885-0.843-1.48-1.116
		c-0.596-0.274-1.309-0.412-2.139-0.412c-1.551,0-2.764,0.439-3.643,1.316c-0.877,0.878-1.449,2.131-1.715,3.76H301.018z"/>
	<path fill="#FFFFFF" d="M317.373,192.962V228h-6.486v-35.038H317.373z"/>
	<path fill="#FFFFFF" d="M355.396,192.962V228H351.4c-0.83,0-1.363-0.376-1.598-1.128l-0.541-2.115
		c-0.484,0.533-0.998,1.019-1.539,1.457s-1.123,0.819-1.75,1.14c-0.627,0.321-1.301,0.568-2.021,0.74
		c-0.721,0.173-1.504,0.259-2.35,0.259c-1.301,0-2.492-0.274-3.572-0.822c-1.082-0.549-2.018-1.352-2.809-2.409
		s-1.406-2.354-1.844-3.889c-0.439-1.535-0.658-3.29-0.658-5.265c0-1.801,0.246-3.478,0.74-5.028
		c0.492-1.552,1.193-2.891,2.104-4.019c0.908-1.128,2.004-2.014,3.289-2.656c1.285-0.642,2.711-0.963,4.277-0.963
		c1.316,0,2.424,0.196,3.324,0.587c0.902,0.393,1.721,0.925,2.457,1.599v-12.525H355.396z M348.91,210.069
		c-0.611-0.705-1.273-1.198-1.986-1.48s-1.469-0.423-2.268-0.423c-0.783,0-1.496,0.149-2.139,0.446
		c-0.643,0.298-1.195,0.764-1.656,1.398c-0.463,0.635-0.818,1.445-1.07,2.433c-0.25,0.986-0.375,2.162-0.375,3.524
		c0,1.348,0.102,2.491,0.305,3.432c0.203,0.939,0.498,1.699,0.881,2.279c0.385,0.579,0.852,0.999,1.398,1.257
		c0.549,0.259,1.16,0.388,1.834,0.388c1.143,0,2.104-0.227,2.879-0.682c0.775-0.454,1.508-1.096,2.197-1.927V210.069z"/>
	<path fill="#FFFFFF" d="M367.475,203.771V228h-6.486v-24.229H367.475z M373.092,193.525l-5.945,6.157
		c-0.314,0.329-0.623,0.561-0.93,0.693c-0.305,0.133-0.701,0.199-1.186,0.199h-3.902l3.291-5.733
		c0.234-0.438,0.52-0.768,0.857-0.987c0.336-0.219,0.85-0.329,1.539-0.329H373.092z"/>
	<path fill="#FFFFFF" d="M372.48,207.132c1.424-1.284,3-2.244,4.723-2.879c1.723-0.634,3.588-0.951,5.594-0.951
		c1.441,0,2.729,0.234,3.865,0.705c1.135,0.47,2.1,1.124,2.891,1.962s1.398,1.837,1.82,2.996c0.424,1.16,0.635,2.429,0.635,3.808
		V228h-2.961c-0.611,0-1.076-0.086-1.398-0.259c-0.32-0.172-0.584-0.532-0.787-1.081l-0.516-1.551
		c-0.611,0.533-1.203,1.003-1.775,1.41s-1.162,0.748-1.773,1.022s-1.266,0.481-1.963,0.622c-0.697,0.142-1.477,0.212-2.338,0.212
		c-1.066,0-2.037-0.141-2.914-0.423s-1.633-0.701-2.268-1.258c-0.635-0.556-1.125-1.249-1.469-2.079
		c-0.346-0.83-0.518-1.786-0.518-2.867c0-0.893,0.227-1.786,0.682-2.679c0.455-0.894,1.234-1.704,2.338-2.433
		c1.105-0.729,2.578-1.331,4.418-1.81c1.842-0.478,4.148-0.748,6.922-0.811v-1.245c0-1.52-0.322-2.636-0.965-3.35
		c-0.643-0.712-1.566-1.069-2.771-1.069c-0.895,0-1.639,0.106-2.232,0.317c-0.596,0.212-1.117,0.439-1.564,0.682
		c-0.445,0.243-0.865,0.47-1.256,0.682c-0.393,0.212-0.846,0.317-1.363,0.317c-0.455,0-0.834-0.113-1.141-0.341
		c-0.305-0.227-0.561-0.497-0.764-0.811L372.48,207.132z M385.688,217.871c-1.584,0.079-2.898,0.216-3.949,0.412
		c-1.049,0.195-1.883,0.45-2.502,0.764s-1.059,0.669-1.316,1.069c-0.258,0.399-0.387,0.834-0.387,1.304
		c0,0.94,0.262,1.606,0.787,1.998c0.523,0.392,1.256,0.587,2.197,0.587c1.08,0,2.016-0.191,2.807-0.575s1.578-0.983,2.363-1.798
		V217.871z"/>
</g>
<g>
	<polygon fill="#009C45" points="230.61,67.35 287.315,100.086 287.315,66.69 239.912,39.332 230.61,44.695 	"/>
	<polygon fill="#009C45" points="240.103,148.668 211.181,131.974 267.883,99.233 287.5,110.56 287.5,121.293 	"/>
	<polygon fill="#009C45" points="221.42,50.006 221.42,115.475 201.803,126.806 192.508,121.435 192.5,66.703 	"/>
	<polygon fill="#009C45" points="258.828,93.879 230.568,110.193 230.568,77.566 	"/>
</g>
</svg>
