<?xml version="1.0" encoding="utf-8"?>
<!-- Generator: Adobe Illustrator 22.0.1, SVG Export Plug-In . SVG Version: 6.00 Build 0)  -->
<svg version="1.1" id="Capa_1" xmlns="http://www.w3.org/2000/svg" xmlns:xlink="http://www.w3.org/1999/xlink" x="0px" y="0px"
	 viewBox="0 0 480 332" enable-background="new 0 0 480 332" xml:space="preserve">
<rect x="-0.5" fill="#010101" width="481" height="332"/>
<g>
	<polygon fill="#009C45" points="230.61,67.35 287.315,100.086 287.315,66.69 239.912,39.332 230.61,44.695 	"/>
	<polygon fill="#009C45" points="240.103,148.668 211.181,131.974 267.883,99.233 287.5,110.56 287.5,121.293 	"/>
	<polygon fill="#009C45" points="221.42,50.006 221.42,115.475 201.803,126.806 192.508,121.435 192.5,66.703 	"/>
	<polygon fill="#009C45" points="258.828,93.879 230.568,110.193 230.568,77.566 	"/>
</g>
<g>
	<path fill="#FFFFFF" d="M121.457,228.464h-5.711c-1.081,0-1.864-0.423-2.35-1.269l-7.145-10.881
		c-0.267-0.407-0.561-0.697-0.881-0.869c-0.321-0.173-0.796-0.259-1.422-0.259h-2.702v13.277h-6.322v-33.981h10.364
		c2.303,0,4.28,0.239,5.934,0.717c1.652,0.479,3.008,1.148,4.065,2.01s1.837,1.892,2.338,3.09c0.501,1.199,0.752,2.519,0.752,3.96
		c0,1.144-0.168,2.225-0.505,3.243s-0.822,1.942-1.457,2.772c-0.635,0.831-1.418,1.56-2.351,2.186
		c-0.932,0.627-1.993,1.121-3.184,1.48c0.407,0.235,0.783,0.514,1.128,0.835s0.658,0.701,0.939,1.14L121.457,228.464z
		 M105.194,210.65c1.19,0,2.229-0.148,3.114-0.446c0.885-0.297,1.613-0.708,2.186-1.233c0.571-0.524,0.998-1.147,1.28-1.868
		s0.423-1.512,0.423-2.374c0-1.723-0.567-3.047-1.703-3.971c-1.137-0.925-2.871-1.387-5.205-1.387h-4.042v11.279H105.194z"/>
	<path fill="#FFFFFF" d="M127.12,217.137c0.094,1.238,0.313,2.308,0.658,3.208c0.344,0.901,0.799,1.645,1.362,2.232
		c0.564,0.588,1.234,1.026,2.01,1.316s1.633,0.435,2.573,0.435s1.751-0.109,2.433-0.329c0.681-0.22,1.276-0.462,1.785-0.729
		c0.51-0.267,0.956-0.509,1.34-0.729s0.756-0.329,1.116-0.329c0.485,0,0.846,0.181,1.081,0.54l1.669,2.115
		c-0.643,0.752-1.363,1.383-2.162,1.892c-0.799,0.51-1.634,0.917-2.503,1.223s-1.755,0.521-2.655,0.646
		c-0.901,0.126-1.774,0.188-2.62,0.188c-1.677,0-3.235-0.278-4.677-0.834c-1.441-0.557-2.695-1.379-3.76-2.468
		c-1.066-1.089-1.904-2.436-2.515-4.042c-0.611-1.605-0.917-3.466-0.917-5.581c0-1.646,0.267-3.192,0.799-4.642
		c0.533-1.449,1.297-2.71,2.292-3.783c0.994-1.073,2.209-1.923,3.643-2.55c1.433-0.627,3.051-0.94,4.853-0.94
		c1.52,0,2.922,0.243,4.206,0.729c1.284,0.486,2.389,1.195,3.313,2.127c0.925,0.933,1.648,2.076,2.174,3.431
		c0.524,1.355,0.787,2.902,0.787,4.642c0,0.878-0.094,1.469-0.281,1.774c-0.188,0.306-0.549,0.458-1.081,0.458H127.12z
		 M138.188,213.636c0-0.752-0.105-1.461-0.317-2.127c-0.211-0.666-0.528-1.249-0.951-1.751c-0.423-0.501-0.96-0.896-1.61-1.187
		s-1.406-0.435-2.268-0.435c-1.677,0-2.996,0.478-3.96,1.434c-0.963,0.955-1.578,2.311-1.845,4.065H138.188z"/>
	<path fill="#FFFFFF" d="M153.251,207.643c0.986-1.112,2.106-2.013,3.36-2.702c1.253-0.689,2.726-1.034,4.418-1.034
		c1.316,0,2.519,0.274,3.607,0.822c1.089,0.549,2.028,1.344,2.819,2.386s1.402,2.326,1.833,3.854
		c0.432,1.528,0.646,3.278,0.646,5.253c0,1.802-0.243,3.47-0.729,5.005c-0.485,1.536-1.179,2.867-2.079,3.995
		c-0.901,1.128-1.99,2.01-3.267,2.644c-1.277,0.635-2.707,0.952-4.289,0.952c-1.348,0-2.499-0.208-3.454-0.623
		c-0.956-0.415-1.81-0.99-2.562-1.727v9.869h-5.805v-31.983h3.548c0.753,0,1.246,0.353,1.481,1.058L153.251,207.643z
		 M153.557,222.213c0.657,0.799,1.374,1.363,2.149,1.692c0.776,0.328,1.618,0.493,2.526,0.493c0.878,0,1.669-0.165,2.374-0.493
		c0.705-0.329,1.304-0.831,1.798-1.505c0.493-0.673,0.873-1.523,1.14-2.549c0.266-1.026,0.399-2.236,0.399-3.631
		c0-1.41-0.114-2.604-0.341-3.584c-0.228-0.979-0.553-1.774-0.976-2.386c-0.423-0.61-0.936-1.057-1.539-1.339
		s-1.289-0.423-2.056-0.423c-1.207,0-2.233,0.255-3.079,0.764s-1.645,1.226-2.396,2.15V222.213z"/>
	<path fill="#FFFFFF" d="M185.117,203.977c1.786,0,3.411,0.29,4.876,0.87c1.465,0.579,2.718,1.402,3.76,2.467
		c1.042,1.066,1.845,2.366,2.409,3.901c0.563,1.535,0.846,3.251,0.846,5.146c0,1.911-0.282,3.635-0.846,5.17
		c-0.564,1.536-1.367,2.844-2.409,3.925s-2.295,1.911-3.76,2.491c-1.465,0.579-3.09,0.869-4.876,0.869
		c-1.802,0-3.439-0.29-4.912-0.869c-1.473-0.58-2.729-1.41-3.771-2.491s-1.849-2.389-2.42-3.925
		c-0.572-1.535-0.858-3.259-0.858-5.17c0-1.896,0.286-3.611,0.858-5.146c0.571-1.535,1.378-2.835,2.42-3.901
		c1.042-1.064,2.299-1.888,3.771-2.467C181.677,204.267,183.315,203.977,185.117,203.977z M185.117,224.352
		c2.005,0,3.489-0.674,4.453-2.021c0.964-1.347,1.445-3.321,1.445-5.922s-0.481-4.582-1.445-5.945s-2.448-2.045-4.453-2.045
		c-2.037,0-3.545,0.686-4.523,2.057c-0.979,1.371-1.469,3.349-1.469,5.934s0.489,4.556,1.469,5.91
		C181.572,223.674,183.08,224.352,185.117,224.352z"/>
	<path fill="#FFFFFF" d="M206.925,208.536c0.752-1.441,1.645-2.573,2.679-3.396c1.034-0.822,2.256-1.233,3.666-1.233
		c1.113,0,2.006,0.243,2.68,0.729l-0.377,4.348c-0.078,0.282-0.191,0.481-0.34,0.6c-0.148,0.117-0.35,0.176-0.6,0.176
		c-0.234,0-0.584-0.039-1.045-0.117c-0.463-0.078-0.914-0.118-1.352-0.118c-0.643,0-1.214,0.095-1.715,0.282
		c-0.502,0.188-0.952,0.458-1.352,0.811s-0.752,0.78-1.058,1.281s-0.592,1.073-0.857,1.716v14.852h-5.805v-24.111h3.407
		c0.596,0,1.011,0.106,1.245,0.317c0.235,0.212,0.392,0.592,0.471,1.14L206.925,208.536z"/>
	<path fill="#FFFFFF" d="M227.018,228.84c-2.1,0-3.711-0.591-4.83-1.774c-1.121-1.183-1.68-2.815-1.68-4.899V208.7h-2.469
		c-0.312,0-0.578-0.102-0.799-0.306c-0.219-0.203-0.328-0.509-0.328-0.916v-2.303l3.877-0.635l1.223-6.58
		c0.078-0.313,0.227-0.556,0.445-0.729c0.221-0.172,0.502-0.259,0.848-0.259h3.008v7.591h6.438v4.136h-6.438v13.066
		c0,0.752,0.184,1.339,0.551,1.763c0.369,0.423,0.873,0.634,1.516,0.634c0.361,0,0.662-0.043,0.906-0.129
		c0.242-0.086,0.453-0.177,0.635-0.271c0.18-0.094,0.34-0.184,0.48-0.271c0.141-0.086,0.283-0.129,0.424-0.129
		c0.172,0,0.312,0.043,0.422,0.129c0.109,0.087,0.229,0.216,0.354,0.389l1.738,2.819c-0.846,0.705-1.816,1.238-2.914,1.599
		C229.328,228.659,228.191,228.84,227.018,228.84z"/>
	<path fill="#FFFFFF" d="M240.74,217.137c0.094,1.238,0.314,2.308,0.658,3.208c0.344,0.901,0.799,1.645,1.363,2.232
		s1.234,1.026,2.01,1.316s1.633,0.435,2.572,0.435c0.941,0,1.752-0.109,2.434-0.329c0.68-0.22,1.275-0.462,1.785-0.729
		s0.955-0.509,1.34-0.729c0.383-0.22,0.756-0.329,1.115-0.329c0.486,0,0.846,0.181,1.082,0.54l1.668,2.115
		c-0.643,0.752-1.363,1.383-2.162,1.892c-0.799,0.51-1.633,0.917-2.502,1.223s-1.756,0.521-2.656,0.646
		c-0.9,0.126-1.773,0.188-2.619,0.188c-1.678,0-3.236-0.278-4.678-0.834c-1.441-0.557-2.695-1.379-3.76-2.468
		c-1.066-1.089-1.904-2.436-2.514-4.042c-0.611-1.605-0.918-3.466-0.918-5.581c0-1.646,0.268-3.192,0.799-4.642
		c0.533-1.449,1.297-2.71,2.293-3.783c0.994-1.073,2.209-1.923,3.643-2.55c1.432-0.627,3.051-0.94,4.852-0.94
		c1.52,0,2.922,0.243,4.207,0.729c1.283,0.486,2.389,1.195,3.312,2.127c0.926,0.933,1.648,2.076,2.174,3.431
		c0.525,1.355,0.787,2.902,0.787,4.642c0,0.878-0.094,1.469-0.281,1.774s-0.549,0.458-1.08,0.458H240.74z M251.809,213.636
		c0-0.752-0.105-1.461-0.316-2.127s-0.529-1.249-0.951-1.751c-0.424-0.501-0.961-0.896-1.611-1.187s-1.406-0.435-2.268-0.435
		c-1.676,0-2.996,0.478-3.959,1.434c-0.963,0.955-1.578,2.311-1.846,4.065H251.809z"/>
	<path fill="#FFFFFF" d="M293.732,193.543v34.921h-3.549c-0.768,0-1.252-0.353-1.457-1.058l-0.492-2.326
		c-0.973,1.112-2.088,2.013-3.35,2.702s-2.73,1.034-4.406,1.034c-1.316,0-2.521-0.274-3.619-0.822
		c-1.096-0.549-2.041-1.344-2.832-2.386c-0.791-1.041-1.402-2.33-1.832-3.865c-0.432-1.535-0.646-3.29-0.646-5.265
		c0-1.786,0.242-3.446,0.729-4.981c0.484-1.535,1.182-2.867,2.092-3.995c0.908-1.128,1.998-2.01,3.266-2.644
		c1.27-0.635,2.695-0.952,4.277-0.952c1.348,0,2.498,0.212,3.455,0.635c0.955,0.423,1.809,0.995,2.561,1.716v-12.714H293.732z
		 M287.928,210.51c-0.658-0.799-1.375-1.363-2.15-1.692c-0.775-0.328-1.609-0.493-2.502-0.493c-0.877,0-1.668,0.165-2.373,0.493
		c-0.705,0.329-1.309,0.827-1.811,1.493s-0.885,1.512-1.15,2.537c-0.268,1.026-0.4,2.237-0.4,3.631c0,1.41,0.113,2.605,0.342,3.584
		c0.227,0.979,0.551,1.778,0.975,2.397c0.422,0.619,0.939,1.065,1.551,1.339c0.611,0.274,1.293,0.411,2.045,0.411
		c1.205,0,2.232-0.25,3.078-0.752c0.846-0.501,1.645-1.214,2.396-2.138V210.51z"/>
	<path fill="#FFFFFF" d="M306.281,197.326c0,0.502-0.102,0.972-0.305,1.41c-0.205,0.438-0.475,0.822-0.812,1.151
		c-0.336,0.329-0.732,0.592-1.186,0.787c-0.455,0.196-0.939,0.294-1.457,0.294c-0.502,0-0.977-0.098-1.422-0.294
		c-0.447-0.195-0.834-0.458-1.164-0.787c-0.328-0.329-0.592-0.713-0.787-1.151s-0.293-0.908-0.293-1.41
		c0-0.517,0.098-1.002,0.293-1.457c0.195-0.454,0.459-0.846,0.787-1.175c0.33-0.329,0.717-0.591,1.164-0.787
		c0.445-0.196,0.92-0.294,1.422-0.294c0.518,0,1.002,0.098,1.457,0.294c0.453,0.196,0.85,0.458,1.186,0.787
		c0.338,0.329,0.607,0.721,0.812,1.175C306.18,196.324,306.281,196.81,306.281,197.326z M305.482,204.353v24.111h-5.828v-24.111
		H305.482z"/>
	<path fill="#FFFFFF" d="M310.84,207.713c2.773-2.537,6.109-3.807,10.012-3.807c1.408,0,2.67,0.231,3.783,0.693
		c1.111,0.462,2.051,1.104,2.82,1.927c0.766,0.822,1.35,1.806,1.75,2.949c0.398,1.145,0.6,2.397,0.6,3.761v15.228h-2.633
		c-0.549,0-0.971-0.082-1.27-0.247c-0.297-0.164-0.531-0.497-0.705-0.998l-0.516-1.739c-0.611,0.549-1.207,1.03-1.787,1.445
		s-1.182,0.764-1.809,1.046c-0.627,0.281-1.297,0.497-2.01,0.646c-0.713,0.149-1.5,0.224-2.361,0.224
		c-1.02,0-1.959-0.138-2.82-0.411c-0.861-0.274-1.605-0.686-2.232-1.233c-0.627-0.549-1.113-1.23-1.457-2.045
		c-0.346-0.814-0.518-1.763-0.518-2.844c0-0.61,0.102-1.218,0.307-1.821c0.203-0.603,0.535-1.179,0.998-1.727
		c0.463-0.549,1.061-1.065,1.799-1.552c0.734-0.485,1.641-0.908,2.713-1.269c1.074-0.36,2.322-0.654,3.748-0.882
		c1.426-0.227,3.057-0.364,4.889-0.411v-1.409c0-1.614-0.346-2.809-1.033-3.584c-0.689-0.775-1.686-1.163-2.984-1.163
		c-0.941,0-1.721,0.109-2.34,0.328c-0.619,0.22-1.162,0.467-1.633,0.741c-0.471,0.273-0.896,0.521-1.281,0.74
		c-0.383,0.219-0.811,0.328-1.279,0.328c-0.408,0-0.752-0.105-1.035-0.316c-0.281-0.212-0.51-0.459-0.682-0.74L310.84,207.713z
		 M324.141,218.171c-1.676,0.078-3.086,0.224-4.23,0.435c-1.143,0.212-2.061,0.481-2.75,0.811s-1.182,0.714-1.48,1.151
		c-0.297,0.439-0.445,0.917-0.445,1.434c0,1.019,0.301,1.747,0.904,2.186c0.604,0.439,1.391,0.658,2.361,0.658
		c1.191,0,2.221-0.215,3.092-0.646c0.869-0.431,1.719-1.084,2.549-1.962V218.171z"/>
	<path fill="#FFFFFF" d="M340.732,208.536c0.752-1.441,1.645-2.573,2.678-3.396c1.035-0.822,2.256-1.233,3.666-1.233
		c1.113,0,2.006,0.243,2.68,0.729l-0.377,4.348c-0.078,0.282-0.191,0.481-0.34,0.6c-0.148,0.117-0.35,0.176-0.6,0.176
		c-0.234,0-0.584-0.039-1.045-0.117c-0.463-0.078-0.914-0.118-1.352-0.118c-0.643,0-1.215,0.095-1.715,0.282
		c-0.502,0.188-0.953,0.458-1.352,0.811c-0.4,0.353-0.752,0.78-1.059,1.281c-0.305,0.501-0.592,1.073-0.857,1.716v14.852h-5.805
		v-24.111h3.408c0.596,0,1.01,0.106,1.244,0.317c0.236,0.212,0.393,0.592,0.471,1.14L340.732,208.536z"/>
	<path fill="#FFFFFF" d="M359.602,197.326c0,0.502-0.102,0.972-0.305,1.41c-0.205,0.438-0.475,0.822-0.812,1.151
		c-0.336,0.329-0.732,0.592-1.186,0.787c-0.455,0.196-0.939,0.294-1.457,0.294c-0.502,0-0.977-0.098-1.422-0.294
		c-0.447-0.195-0.834-0.458-1.164-0.787c-0.328-0.329-0.592-0.713-0.787-1.151s-0.293-0.908-0.293-1.41
		c0-0.517,0.098-1.002,0.293-1.457c0.195-0.454,0.459-0.846,0.787-1.175c0.33-0.329,0.717-0.591,1.164-0.787
		c0.445-0.196,0.92-0.294,1.422-0.294c0.518,0,1.002,0.098,1.457,0.294c0.453,0.196,0.85,0.458,1.186,0.787
		c0.338,0.329,0.607,0.721,0.812,1.175C359.5,196.324,359.602,196.81,359.602,197.326z M358.803,204.353v24.111h-5.828v-24.111
		H358.803z"/>
	<path fill="#FFFFFF" d="M375.393,203.977c1.787,0,3.412,0.29,4.877,0.87c1.465,0.579,2.717,1.402,3.76,2.467
		c1.041,1.066,1.844,2.366,2.408,3.901s0.846,3.251,0.846,5.146c0,1.911-0.281,3.635-0.846,5.17
		c-0.564,1.536-1.367,2.844-2.408,3.925c-1.043,1.081-2.295,1.911-3.76,2.491c-1.465,0.579-3.09,0.869-4.877,0.869
		c-1.801,0-3.439-0.29-4.912-0.869c-1.473-0.58-2.729-1.41-3.771-2.491c-1.041-1.081-1.848-2.389-2.42-3.925
		c-0.572-1.535-0.857-3.259-0.857-5.17c0-1.896,0.285-3.611,0.857-5.146s1.379-2.835,2.42-3.901
		c1.043-1.064,2.299-1.888,3.771-2.467C371.953,204.267,373.592,203.977,375.393,203.977z M375.393,224.352
		c2.006,0,3.49-0.674,4.453-2.021c0.965-1.347,1.445-3.321,1.445-5.922s-0.48-4.582-1.445-5.945
		c-0.963-1.363-2.447-2.045-4.453-2.045c-2.037,0-3.545,0.686-4.523,2.057s-1.469,3.349-1.469,5.934s0.49,4.556,1.469,5.91
		C371.848,223.674,373.355,224.352,375.393,224.352z"/>
</g>
</svg>
