<?xml version="1.0" encoding="utf-8"?>
<!-- Generator: Adobe Illustrator 22.0.1, SVG Export Plug-In . SVG Version: 6.00 Build 0)  -->
<svg version="1.1" id="Capa_1" xmlns="http://www.w3.org/2000/svg" xmlns:xlink="http://www.w3.org/1999/xlink" x="0px" y="0px"
	 viewBox="0 0 480 332" enable-background="new 0 0 480 332" xml:space="preserve">
<g>
	<polygon fill="#009C45" points="228.255,57.667 299.18,98.612 299.18,56.842 239.89,22.622 228.255,29.33 	"/>
	<polygon fill="#009C45" points="240.129,159.378 203.954,138.497 274.876,97.545 299.412,111.713 299.412,125.137 	"/>
	<polygon fill="#009C45" points="216.761,35.974 216.761,117.861 192.224,132.032 180.598,125.315 180.588,56.857 	"/>
	<polygon fill="#009C45" points="263.55,90.848 228.203,111.254 228.203,70.445 	"/>
</g>
<rect x="-0.5" fill="#010101" width="481" height="332"/>
<g>
	<polygon fill="#009C45" points="230.61,67.35 287.315,100.086 287.315,66.69 239.912,39.332 230.61,44.695 	"/>
	<polygon fill="#009C45" points="240.103,148.668 211.181,131.974 267.883,99.233 287.5,110.56 287.5,121.293 	"/>
	<polygon fill="#009C45" points="221.42,50.006 221.42,115.475 201.803,126.806 192.508,121.435 192.5,66.703 	"/>
	<polygon fill="#009C45" points="258.828,93.879 230.568,110.193 230.568,77.566 	"/>
</g>
<g>
	<path fill="#FFFFFF" d="M94.736,228h-6.369c-1.189,0-2.051-0.454-2.584-1.363l-6.486-10.457c-0.266-0.407-0.561-0.705-0.881-0.894
		c-0.322-0.188-0.795-0.281-1.422-0.281h-2.396V228h-7.051v-34.099h10.717c2.381,0,4.418,0.247,6.109,0.74s3.078,1.179,4.16,2.057
		c1.08,0.877,1.871,1.923,2.373,3.137c0.502,1.215,0.752,2.55,0.752,4.007c0,1.128-0.16,2.197-0.482,3.208
		c-0.32,1.011-0.787,1.931-1.398,2.761c-0.609,0.831-1.361,1.567-2.256,2.209c-0.893,0.643-1.91,1.16-3.055,1.552
		c0.455,0.251,0.877,0.552,1.27,0.904c0.391,0.353,0.744,0.772,1.057,1.258L94.736,228z M78.217,210.046
		c1.143,0,2.129-0.145,2.961-0.435c0.83-0.29,1.512-0.689,2.043-1.198c0.533-0.509,0.926-1.108,1.176-1.798s0.377-1.441,0.377-2.256
		c0-1.614-0.537-2.867-1.611-3.761c-1.072-0.893-2.705-1.339-4.898-1.339h-3.666v10.786H78.217z"/>
	<path fill="#FFFFFF" d="M100.752,216.885c0.203,2.271,0.85,3.933,1.939,4.981c1.088,1.05,2.51,1.575,4.264,1.575
		c0.895,0,1.666-0.106,2.316-0.317c0.648-0.212,1.221-0.446,1.715-0.705s0.939-0.494,1.34-0.705
		c0.398-0.212,0.795-0.317,1.186-0.317c0.502,0,0.895,0.188,1.176,0.564l1.879,2.35c-0.689,0.799-1.449,1.461-2.279,1.985
		c-0.83,0.525-1.691,0.94-2.584,1.246s-1.795,0.517-2.703,0.634c-0.908,0.118-1.785,0.177-2.631,0.177
		c-1.693,0-3.271-0.278-4.736-0.834c-1.465-0.557-2.742-1.379-3.83-2.468c-1.09-1.089-1.947-2.44-2.574-4.054
		c-0.625-1.613-0.939-3.485-0.939-5.616c0-1.646,0.271-3.196,0.811-4.653c0.541-1.457,1.32-2.726,2.338-3.807
		c1.02-1.081,2.256-1.939,3.713-2.573c1.457-0.635,3.104-0.952,4.936-0.952c1.551,0,2.98,0.247,4.289,0.74s2.436,1.21,3.385,2.15
		c0.947,0.939,1.684,2.096,2.209,3.466c0.523,1.371,0.787,2.935,0.787,4.688c0,0.486-0.023,0.886-0.07,1.198
		c-0.047,0.313-0.127,0.564-0.236,0.752c-0.109,0.188-0.258,0.317-0.445,0.388c-0.189,0.071-0.432,0.106-0.729,0.106H100.752z
		 M110.951,213.03c0-0.673-0.09-1.315-0.271-1.927c-0.18-0.611-0.465-1.151-0.857-1.621c-0.391-0.471-0.885-0.843-1.48-1.116
		c-0.596-0.274-1.309-0.412-2.139-0.412c-1.551,0-2.764,0.439-3.643,1.316c-0.877,0.878-1.449,2.131-1.715,3.76H110.951z"/>
	<path fill="#FFFFFF" d="M126.885,206.944c0.484-0.533,1.002-1.022,1.551-1.469c0.549-0.447,1.135-0.83,1.762-1.151
		s1.301-0.572,2.021-0.753c0.721-0.18,1.504-0.27,2.35-0.27c1.301,0,2.494,0.278,3.584,0.834c1.088,0.557,2.025,1.363,2.809,2.421
		c0.783,1.057,1.395,2.354,1.832,3.889c0.439,1.536,0.658,3.29,0.658,5.265c0,1.817-0.246,3.497-0.74,5.04
		c-0.492,1.544-1.193,2.879-2.104,4.007c-0.908,1.128-2,2.01-3.277,2.644c-1.277,0.635-2.699,0.952-4.266,0.952
		c-1.316,0-2.432-0.196-3.348-0.588c-0.918-0.391-1.736-0.924-2.457-1.598v9.658h-6.486v-32.054h3.996
		c0.814,0,1.355,0.376,1.621,1.128L126.885,206.944z M127.26,221.608c0.611,0.705,1.273,1.198,1.986,1.48
		c0.713,0.281,1.477,0.423,2.291,0.423c0.783,0,1.496-0.149,2.139-0.446c0.643-0.298,1.195-0.765,1.656-1.398
		c0.463-0.635,0.818-1.445,1.07-2.433c0.25-0.987,0.375-2.162,0.375-3.524c0-1.348-0.105-2.491-0.316-3.432
		c-0.213-0.939-0.51-1.699-0.893-2.279c-0.385-0.579-0.852-0.999-1.398-1.257c-0.549-0.259-1.16-0.389-1.834-0.389
		c-1.143,0-2.104,0.224-2.879,0.67c-0.775,0.447-1.508,1.102-2.197,1.963V221.608z"/>
	<path fill="#FFFFFF" d="M158.539,203.396c1.816,0,3.469,0.29,4.959,0.869c1.486,0.58,2.764,1.406,3.83,2.479
		c1.064,1.073,1.887,2.378,2.467,3.913s0.869,3.267,0.869,5.193s-0.289,3.662-0.869,5.205s-1.402,2.855-2.467,3.937
		c-1.066,1.081-2.344,1.911-3.83,2.491c-1.49,0.579-3.143,0.869-4.959,0.869c-1.834,0-3.498-0.29-4.994-0.869
		c-1.496-0.58-2.777-1.41-3.842-2.491c-1.066-1.081-1.893-2.394-2.48-3.937c-0.586-1.543-0.881-3.278-0.881-5.205
		s0.295-3.658,0.881-5.193c0.588-1.535,1.414-2.84,2.48-3.913c1.064-1.073,2.346-1.899,3.842-2.479
		C155.041,203.686,156.705,203.396,158.539,203.396z M158.539,223.488c1.848,0,3.219-0.639,4.111-1.916
		c0.895-1.276,1.34-3.176,1.34-5.698c0-2.507-0.445-4.398-1.34-5.675c-0.893-1.277-2.264-1.916-4.111-1.916
		c-1.896,0-3.291,0.639-4.184,1.916c-0.893,1.276-1.34,3.168-1.34,5.675c0,2.522,0.447,4.422,1.34,5.698
		C155.248,222.85,156.643,223.488,158.539,223.488z"/>
	<path fill="#FFFFFF" d="M180.84,207.767c0.768-1.379,1.652-2.468,2.656-3.267c1.002-0.799,2.178-1.198,3.525-1.198
		c1.096,0,1.988,0.258,2.678,0.775l-0.422,4.794c-0.08,0.313-0.201,0.528-0.365,0.646c-0.164,0.117-0.387,0.176-0.67,0.176
		c-0.25,0-0.611-0.035-1.08-0.105c-0.471-0.07-0.91-0.105-1.316-0.105c-0.596,0-1.125,0.086-1.586,0.258
		c-0.463,0.173-0.873,0.416-1.234,0.729c-0.359,0.313-0.686,0.697-0.975,1.151c-0.291,0.455-0.561,0.972-0.811,1.552V228h-6.486
		v-24.229h3.83c0.658,0,1.113,0.117,1.363,0.353s0.43,0.643,0.541,1.222L180.84,207.767z"/>
	<path fill="#FFFFFF" d="M200.838,228.376c-1.096,0-2.068-0.161-2.914-0.481c-0.846-0.321-1.559-0.779-2.139-1.375
		c-0.578-0.596-1.018-1.316-1.314-2.162c-0.299-0.846-0.447-1.802-0.447-2.867v-13.065h-2.279c-0.346,0-0.639-0.109-0.881-0.329
		c-0.244-0.22-0.365-0.549-0.365-0.987v-2.538l3.877-0.705l1.316-6.274c0.172-0.705,0.65-1.058,1.434-1.058h3.385v7.379h6.25v4.513
		h-6.25v12.643c0,0.674,0.16,1.207,0.48,1.598c0.322,0.393,0.779,0.588,1.375,0.588c0.314,0,0.58-0.035,0.799-0.105
		c0.221-0.07,0.408-0.148,0.564-0.235c0.156-0.086,0.303-0.164,0.436-0.234c0.133-0.071,0.27-0.106,0.41-0.106
		c0.189,0,0.346,0.044,0.471,0.13s0.25,0.23,0.377,0.435l1.949,3.102c-0.893,0.705-1.902,1.238-3.031,1.599
		C203.213,228.195,202.045,228.376,200.838,228.376z"/>
	<path fill="#FFFFFF" d="M215.174,216.885c0.203,2.271,0.85,3.933,1.939,4.981c1.088,1.05,2.51,1.575,4.264,1.575
		c0.895,0,1.666-0.106,2.316-0.317c0.648-0.212,1.221-0.446,1.715-0.705s0.939-0.494,1.34-0.705
		c0.398-0.212,0.795-0.317,1.186-0.317c0.502,0,0.895,0.188,1.176,0.564l1.879,2.35c-0.689,0.799-1.449,1.461-2.279,1.985
		c-0.83,0.525-1.691,0.94-2.584,1.246s-1.795,0.517-2.703,0.634c-0.908,0.118-1.785,0.177-2.631,0.177
		c-1.693,0-3.271-0.278-4.736-0.834c-1.465-0.557-2.742-1.379-3.83-2.468c-1.09-1.089-1.947-2.44-2.574-4.054
		c-0.625-1.613-0.939-3.485-0.939-5.616c0-1.646,0.271-3.196,0.811-4.653c0.541-1.457,1.32-2.726,2.338-3.807
		c1.02-1.081,2.256-1.939,3.713-2.573c1.457-0.635,3.104-0.952,4.936-0.952c1.551,0,2.98,0.247,4.289,0.74s2.436,1.21,3.385,2.15
		c0.947,0.939,1.684,2.096,2.209,3.466c0.523,1.371,0.787,2.935,0.787,4.688c0,0.486-0.023,0.886-0.07,1.198
		c-0.047,0.313-0.127,0.564-0.236,0.752c-0.109,0.188-0.258,0.317-0.445,0.388c-0.189,0.071-0.432,0.106-0.729,0.106H215.174z
		 M225.373,213.03c0-0.673-0.09-1.315-0.271-1.927c-0.18-0.611-0.465-1.151-0.857-1.621c-0.391-0.471-0.885-0.843-1.48-1.116
		c-0.596-0.274-1.309-0.412-2.139-0.412c-1.551,0-2.764,0.439-3.643,1.316c-0.877,0.878-1.449,2.131-1.715,3.76H225.373z"/>
	<path fill="#FFFFFF" d="M261.42,208.754c-0.172,0.267-0.348,0.458-0.527,0.575c-0.182,0.117-0.428,0.177-0.74,0.177
		c-0.314,0-0.635-0.078-0.965-0.235c-0.328-0.156-0.697-0.325-1.103-0.505c-0.408-0.181-0.873-0.349-1.398-0.506
		c-0.525-0.156-1.133-0.234-1.822-0.234c-1.049,0-1.863,0.215-2.443,0.646c-0.58,0.432-0.869,0.999-0.869,1.704
		c0,0.485,0.164,0.893,0.494,1.222c0.328,0.329,0.764,0.615,1.303,0.858c0.541,0.243,1.156,0.47,1.846,0.682
		c0.689,0.211,1.398,0.442,2.127,0.692c0.729,0.251,1.438,0.541,2.127,0.87s1.303,0.74,1.844,1.233s0.977,1.089,1.305,1.786
		s0.494,1.539,0.494,2.526c0,1.175-0.217,2.26-0.646,3.255c-0.432,0.995-1.062,1.853-1.893,2.573s-1.863,1.284-3.102,1.691
		c-1.238,0.407-2.664,0.611-4.277,0.611c-0.83,0-1.652-0.074-2.467-0.224c-0.814-0.148-1.59-0.359-2.326-0.634
		s-1.426-0.592-2.068-0.952s-1.199-0.752-1.668-1.175l1.504-2.421c0.172-0.281,0.387-0.501,0.645-0.657
		c0.26-0.157,0.592-0.235,1-0.235c0.391,0,0.752,0.098,1.08,0.294c0.33,0.195,0.697,0.407,1.105,0.634
		c0.406,0.228,0.889,0.439,1.445,0.635c0.555,0.196,1.248,0.294,2.08,0.294c0.625,0,1.166-0.07,1.621-0.212
		c0.453-0.141,0.822-0.332,1.104-0.575c0.283-0.243,0.49-0.518,0.623-0.822c0.133-0.306,0.199-0.623,0.199-0.952
		c0-0.532-0.168-0.967-0.504-1.305c-0.338-0.336-0.775-0.63-1.316-0.881c-0.541-0.25-1.164-0.478-1.869-0.682
		c-0.705-0.203-1.422-0.431-2.148-0.682c-0.729-0.25-1.443-0.548-2.139-0.893c-0.697-0.345-1.316-0.779-1.857-1.305
		c-0.541-0.524-0.979-1.171-1.316-1.938c-0.336-0.768-0.504-1.699-0.504-2.797c0-1.002,0.195-1.954,0.586-2.854
		c0.393-0.901,0.98-1.696,1.764-2.386s1.758-1.237,2.926-1.645c1.166-0.407,2.518-0.611,4.053-0.611
		c1.725,0,3.291,0.282,4.701,0.846c1.41,0.564,2.568,1.301,3.477,2.209L261.42,208.754z"/>
	<path fill="#FFFFFF" d="M272.324,216.885c0.203,2.271,0.85,3.933,1.939,4.981c1.088,1.05,2.51,1.575,4.264,1.575
		c0.895,0,1.666-0.106,2.316-0.317c0.648-0.212,1.221-0.446,1.715-0.705s0.939-0.494,1.34-0.705
		c0.398-0.212,0.795-0.317,1.186-0.317c0.502,0,0.895,0.188,1.176,0.564l1.879,2.35c-0.689,0.799-1.449,1.461-2.279,1.985
		c-0.83,0.525-1.691,0.94-2.584,1.246s-1.795,0.517-2.703,0.634c-0.908,0.118-1.785,0.177-2.631,0.177
		c-1.693,0-3.271-0.278-4.736-0.834c-1.465-0.557-2.742-1.379-3.83-2.468c-1.09-1.089-1.947-2.44-2.574-4.054
		c-0.625-1.613-0.939-3.485-0.939-5.616c0-1.646,0.271-3.196,0.811-4.653c0.541-1.457,1.32-2.726,2.338-3.807
		c1.02-1.081,2.256-1.939,3.713-2.573c1.457-0.635,3.104-0.952,4.936-0.952c1.551,0,2.98,0.247,4.289,0.74s2.436,1.21,3.385,2.15
		c0.947,0.939,1.684,2.096,2.209,3.466c0.523,1.371,0.787,2.935,0.787,4.688c0,0.486-0.023,0.886-0.07,1.198
		c-0.047,0.313-0.127,0.564-0.236,0.752c-0.109,0.188-0.258,0.317-0.445,0.388c-0.189,0.071-0.432,0.106-0.729,0.106H272.324z
		 M282.523,213.03c0-0.673-0.09-1.315-0.271-1.927c-0.18-0.611-0.465-1.151-0.857-1.621c-0.391-0.471-0.885-0.843-1.48-1.116
		c-0.596-0.274-1.309-0.412-2.139-0.412c-1.551,0-2.764,0.439-3.643,1.316c-0.877,0.878-1.449,2.131-1.715,3.76H282.523z"/>
	<path fill="#FFFFFF" d="M292.346,228v-24.229h3.996c0.814,0,1.355,0.376,1.621,1.128l0.377,1.574
		c0.422-0.438,0.857-0.846,1.303-1.222c0.447-0.376,0.93-0.701,1.445-0.976c0.518-0.273,1.078-0.489,1.682-0.646
		c0.602-0.157,1.256-0.235,1.961-0.235c1.488,0,2.719,0.396,3.689,1.187c0.973,0.792,1.707,1.845,2.209,3.161
		c0.393-0.768,0.873-1.43,1.445-1.986c0.572-0.556,1.199-1.006,1.881-1.351s1.402-0.6,2.162-0.764
		c0.76-0.165,1.523-0.247,2.291-0.247c1.363,0,2.568,0.204,3.619,0.611c1.049,0.407,1.93,1.007,2.643,1.798s1.258,1.759,1.635,2.901
		c0.375,1.145,0.562,2.444,0.562,3.901V228h-6.484v-15.393c0-2.835-1.215-4.254-3.643-4.254c-0.549,0-1.055,0.091-1.516,0.271
		c-0.463,0.181-0.871,0.451-1.223,0.811c-0.354,0.361-0.627,0.808-0.822,1.34c-0.197,0.533-0.295,1.144-0.295,1.833V228H306.4
		v-15.393c0-1.535-0.303-2.628-0.906-3.278c-0.604-0.649-1.492-0.976-2.666-0.976c-0.752,0-1.461,0.177-2.127,0.529
		s-1.289,0.842-1.869,1.469V228H292.346z"/>
	<path fill="#FFFFFF" d="M331.449,207.132c1.426-1.284,3-2.244,4.725-2.879c1.723-0.634,3.586-0.951,5.592-0.951
		c1.441,0,2.73,0.234,3.865,0.705c1.137,0.47,2.1,1.124,2.891,1.962c0.791,0.838,1.398,1.837,1.822,2.996
		c0.422,1.16,0.635,2.429,0.635,3.808V228h-2.961c-0.611,0-1.078-0.086-1.398-0.259c-0.322-0.172-0.584-0.532-0.787-1.081
		l-0.518-1.551c-0.611,0.533-1.203,1.003-1.773,1.41c-0.572,0.407-1.164,0.748-1.775,1.022s-1.266,0.481-1.961,0.622
		c-0.697,0.142-1.479,0.212-2.34,0.212c-1.064,0-2.035-0.141-2.914-0.423c-0.877-0.282-1.633-0.701-2.268-1.258
		c-0.635-0.556-1.123-1.249-1.469-2.079c-0.344-0.83-0.516-1.786-0.516-2.867c0-0.893,0.227-1.786,0.682-2.679
		c0.453-0.894,1.232-1.704,2.338-2.433c1.104-0.729,2.576-1.331,4.418-1.81c1.84-0.478,4.146-0.748,6.92-0.811v-1.245
		c0-1.52-0.32-2.636-0.963-3.35c-0.643-0.712-1.566-1.069-2.773-1.069c-0.893,0-1.637,0.106-2.232,0.317
		c-0.596,0.212-1.117,0.439-1.562,0.682c-0.447,0.243-0.865,0.47-1.258,0.682c-0.391,0.212-0.846,0.317-1.363,0.317
		c-0.453,0-0.834-0.113-1.139-0.341c-0.307-0.227-0.561-0.497-0.764-0.811L331.449,207.132z M344.656,217.871
		c-1.582,0.079-2.898,0.216-3.947,0.412c-1.051,0.195-1.885,0.45-2.504,0.764s-1.057,0.669-1.314,1.069
		c-0.26,0.399-0.389,0.834-0.389,1.304c0,0.94,0.262,1.606,0.787,1.998s1.258,0.587,2.197,0.587c1.082,0,2.018-0.191,2.809-0.575
		s1.578-0.983,2.361-1.798V217.871z"/>
	<path fill="#FFFFFF" d="M362.07,206.592c0.484-0.471,0.99-0.901,1.516-1.293c0.523-0.392,1.08-0.729,1.668-1.011
		c0.588-0.281,1.223-0.501,1.904-0.657c0.68-0.157,1.42-0.235,2.221-0.235c1.314,0,2.482,0.228,3.5,0.682
		c1.02,0.454,1.877,1.089,2.574,1.903s1.221,1.786,1.574,2.914c0.352,1.128,0.529,2.366,0.529,3.713V228h-6.463v-15.393
		c0-1.347-0.314-2.393-0.939-3.137c-0.627-0.744-1.553-1.117-2.773-1.117c-0.908,0-1.764,0.196-2.562,0.588s-1.559,0.94-2.279,1.646
		V228h-6.486v-24.229h3.996c0.814,0,1.355,0.376,1.621,1.128L362.07,206.592z"/>
	<path fill="#FFFFFF" d="M382.162,207.132c1.424-1.284,3-2.244,4.723-2.879c1.723-0.634,3.588-0.951,5.594-0.951
		c1.441,0,2.729,0.234,3.865,0.705c1.135,0.47,2.1,1.124,2.891,1.962s1.398,1.837,1.82,2.996c0.424,1.16,0.635,2.429,0.635,3.808
		V228h-2.961c-0.611,0-1.076-0.086-1.398-0.259c-0.32-0.172-0.584-0.532-0.787-1.081l-0.516-1.551
		c-0.611,0.533-1.203,1.003-1.775,1.41s-1.162,0.748-1.773,1.022s-1.266,0.481-1.963,0.622c-0.697,0.142-1.477,0.212-2.338,0.212
		c-1.066,0-2.037-0.141-2.914-0.423s-1.633-0.701-2.268-1.258c-0.635-0.556-1.125-1.249-1.469-2.079
		c-0.346-0.83-0.518-1.786-0.518-2.867c0-0.893,0.227-1.786,0.682-2.679c0.455-0.894,1.234-1.704,2.338-2.433
		c1.105-0.729,2.578-1.331,4.418-1.81c1.842-0.478,4.148-0.748,6.922-0.811v-1.245c0-1.52-0.322-2.636-0.965-3.35
		c-0.643-0.712-1.566-1.069-2.771-1.069c-0.895,0-1.639,0.106-2.232,0.317c-0.596,0.212-1.117,0.439-1.564,0.682
		c-0.445,0.243-0.865,0.47-1.256,0.682c-0.393,0.212-0.846,0.317-1.363,0.317c-0.455,0-0.834-0.113-1.141-0.341
		c-0.305-0.227-0.561-0.497-0.764-0.811L382.162,207.132z M395.369,217.871c-1.584,0.079-2.898,0.216-3.949,0.412
		c-1.049,0.195-1.883,0.45-2.502,0.764s-1.059,0.669-1.316,1.069c-0.258,0.399-0.387,0.834-0.387,1.304
		c0,0.94,0.262,1.606,0.787,1.998c0.523,0.392,1.256,0.587,2.197,0.587c1.08,0,2.016-0.191,2.807-0.575s1.578-0.983,2.363-1.798
		V217.871z"/>
	<path fill="#FFFFFF" d="M413.299,192.962V228h-6.486v-35.038H413.299z"/>
</g>
</svg>
