<?xml version="1.0" encoding="utf-8"?>
<!-- Generator: Adobe Illustrator 22.0.1, SVG Export Plug-In . SVG Version: 6.00 Build 0)  -->
<svg version="1.1" id="Capa_1" xmlns="http://www.w3.org/2000/svg" xmlns:xlink="http://www.w3.org/1999/xlink" x="0px" y="0px"
	 viewBox="0 0 192 192" enable-background="new 0 0 192 192" xml:space="preserve">
<circle fill="#FFFFFF" cx="96" cy="96" r="96"/>
<path fill="#009C45" d="M120.911,32H56.588c-4.317,0-7.833,3.516-7.833,7.833v112.136c0,4.317,3.516,7.833,7.833,7.833h78.794
	c4.319,0,7.835-3.516,7.835-7.833V56.231L120.911,32z M122.767,43.726l9.774,10.627h-9.774V43.726z M136.636,151.96
	c0,0.697-0.563,1.26-1.253,1.26H56.588c-0.688,0-1.251-0.563-1.251-1.26V39.833c0-0.69,0.563-1.251,1.251-1.251h59.587v19.062
	c0,1.814,1.486,3.283,3.3,3.283h17.161V151.96z M66.95,67.002h55.888c1.356,0,2.464,1.107,2.464,2.464
	c0,1.364-1.108,2.472-2.464,2.472H66.95c-1.364,0-2.472-1.107-2.472-2.472C64.478,68.109,65.586,67.002,66.95,67.002L66.95,67.002z
	 M125.302,86.041c0,1.356-1.108,2.464-2.464,2.464H66.95c-1.364,0-2.472-1.107-2.472-2.464c0-1.364,1.107-2.466,2.472-2.466h55.888
	C124.195,83.575,125.302,84.677,125.302,86.041L125.302,86.041z M125.302,102.068c0,1.358-1.108,2.466-2.464,2.466H66.95
	c-1.364,0-2.472-1.107-2.472-2.466c0-1.364,1.107-2.472,2.472-2.472h55.888C124.195,99.596,125.302,100.703,125.302,102.068
	L125.302,102.068z M125.302,118.362c0,1.364-1.108,2.472-2.464,2.472H66.95c-1.364,0-2.472-1.107-2.472-2.472
	c0-1.356,1.107-2.464,2.472-2.464h55.888C124.195,115.898,125.302,117.005,125.302,118.362L125.302,118.362z M125.302,118.362"/>
</svg>
