<?xml version="1.0" encoding="utf-8"?>
<!-- Generator: Adobe Illustrator 22.0.1, SVG Export Plug-In . SVG Version: 6.00 Build 0)  -->
<svg version="1.1" id="Capa_1" xmlns="http://www.w3.org/2000/svg" xmlns:xlink="http://www.w3.org/1999/xlink" x="0px" y="0px"
	 viewBox="0 0 192 192" enable-background="new 0 0 192 192" xml:space="preserve">
<circle fill="#FFFFFF" cx="96" cy="96" r="96"/>
<path fill="#009C45" d="M159.847,72.621L146.37,49.922c-0.011-0.008-0.022-0.019-0.033-0.03c-0.151-0.247-0.343-0.45-0.579-0.612
	c-0.033-0.033-0.074-0.052-0.107-0.085c-0.044-0.022-0.077-0.055-0.118-0.085L122.02,36.265c-0.801-0.439-1.79-0.332-2.487,0.258
	l-75.232,64.585c-0.011,0.022-0.022,0.033-0.044,0.052c-0.03,0.022-0.052,0.055-0.074,0.088c-0.162,0.159-0.299,0.354-0.395,0.557
	c-0.022,0.03-0.044,0.041-0.055,0.074l-12.041,26.846c-0.472,1.051-0.041,2.294,0.988,2.843l41.565,21.817
	c0.033,0.022,0.066,0.03,0.107,0.041c0.022,0.011,0.044,0.033,0.077,0.044c0.03,0.022,0.063,0.011,0.096,0.022
	c0.236,0.085,0.483,0.148,0.738,0.148c0.247,0,0.483-0.063,0.719-0.137c0.063-0.022,0.129-0.055,0.203-0.088
	c0.077-0.041,0.173-0.063,0.247-0.118c0.085-0.052,0.162-0.126,0.236-0.192c0.033-0.033,0.063-0.033,0.096-0.063l82.694-77.699
	C160.212,74.635,160.371,73.51,159.847,72.621L159.847,72.621z M121.237,40.843l19.471,10.647l-67.245,60.811l-23.629-10.153
	L121.237,40.843z M36.539,128.64l10.314-22.987l24.894,10.69l1.18,31.391L36.539,128.64z M77.281,146.535l-1.158-30.718
	l36.323-32.851l31.523-28.495l11.204,18.881L77.281,146.535z M77.281,146.535"/>
</svg>
