<?xml version="1.0" encoding="utf-8"?>
<!-- Generator: Adobe Illustrator 22.0.1, SVG Export Plug-In . SVG Version: 6.00 Build 0)  -->
<svg version="1.1" id="Capa_1" xmlns="http://www.w3.org/2000/svg" xmlns:xlink="http://www.w3.org/1999/xlink" x="0px" y="0px"
	 viewBox="0 0 192 192" enable-background="new 0 0 192 192" xml:space="preserve">
<circle fill="#FFFFFF" cx="96" cy="96" r="96"/>
<path fill="#009C45" d="M138.189,104.099c-1.967-3.393-4.626-6.051-8.019-7.917c-2.326-1.34-5.714-2.594-10.114-3.704
	c4.106-1.404,7.413-3.141,9.905-5.296c2.535-2.16,4.438-4.626,5.735-7.391c1.361-2.809,2.053-5.735,2.053-8.839
	c0-4.267-1.254-8.206-3.79-11.787c-2.535-3.58-6.116-6.319-10.806-8.206c-1.801-0.734-3.956-1.297-6.319-1.758V32.597H100.92v15.496
	H90.661V32.597H74.748v15.496H50.44v13.003h3.666c2.487,0,4.186,0.23,5.044,0.67c0.879,0.461,1.506,1.067,1.865,1.839
	c0.375,0.756,0.541,2.535,0.541,5.322v52.49c0,2.739-0.166,4.476-0.541,5.253c-0.359,0.793-0.986,1.404-1.865,1.865
	c-0.858,0.418-2.557,0.606-5.044,0.606H50.44v13.003h24.308v15.49h15.914v-15.49h10.237v15.49h15.935v-16.809
	c2.68-0.504,5.044-1.174,7.032-1.973c5.489-2.198,9.76-5.398,12.751-9.61c3.039-4.208,4.545-8.812,4.545-13.797
	C141.163,111.281,140.177,107.492,138.189,104.099L138.189,104.099z M84.84,63.25h10.302c6.03,0,10.238,0.375,12.585,1.131
	c2.299,0.734,4.1,1.967,5.339,3.725c1.233,1.758,1.839,3.897,1.839,6.346c0,2.385-0.649,4.481-1.924,6.303
	c-1.319,1.817-3.264,3.178-5.864,4.057c-2.573,0.922-6.572,1.383-11.953,1.383H84.862L84.84,63.25z M113.983,121.417
	c-1.86,2.321-4.058,3.87-6.716,4.604c-2.6,0.734-5.907,1.11-9.905,1.11h-6.866c-2.283,0-3.687-0.129-4.207-0.375
	c-0.525-0.209-0.884-0.67-1.131-1.281c-0.15-0.52-0.273-2.198-0.316-5.108V99.993h12.183c5.36,0,9.3,0.504,11.915,1.512
	c2.594,0.981,4.567,2.45,5.842,4.395c1.319,1.924,1.989,4.25,1.989,7.075C116.77,116.266,115.827,119.048,113.983,121.417
	L113.983,121.417z M113.983,121.417"/>
</svg>
