<?xml version="1.0" encoding="utf-8"?>
<!-- Generator: Adobe Illustrator 22.0.1, SVG Export Plug-In . SVG Version: 6.00 Build 0)  -->
<svg version="1.1" id="Capa_1" xmlns="http://www.w3.org/2000/svg" xmlns:xlink="http://www.w3.org/1999/xlink" x="0px" y="0px"
	 viewBox="0 0 192 192" enable-background="new 0 0 192 192" xml:space="preserve">
<circle fill="#FFFFFF" cx="96" cy="96" r="96"/>
<path fill="#009C45" d="M125.553,108.708c-0.563-1.91-1.25-3.571-2.051-4.985c-0.805-1.41-1.957-2.789-3.457-4.136
	c-1.496-1.348-2.844-2.434-4.039-3.258c-1.195-0.828-2.836-1.75-4.922-2.774c-2.086-1.019-3.734-1.781-4.953-2.281
	c-1.215-0.5-2.977-1.184-5.277-2.051c-2.043-0.781-3.563-1.379-4.567-1.793c-0.996-0.414-2.312-1-3.941-1.761
	c-1.629-0.758-2.848-1.434-3.649-2.02c-0.804-0.586-1.664-1.301-2.574-2.148c-0.914-0.848-1.554-1.75-1.926-2.707
	c-0.367-0.954-0.554-1.996-0.554-3.129c0-2.953,1.304-5.364,3.914-7.235c2.605-1.867,5.973-2.8,10.101-2.8
	c1.825,0,3.684,0.25,5.575,0.75c1.886,0.5,3.507,1.062,4.851,1.695c1.352,0.629,2.621,1.324,3.817,2.086
	c1.195,0.758,2.043,1.336,2.543,1.726c0.5,0.391,0.816,0.653,0.945,0.782c0.566,0.433,1.148,0.586,1.758,0.457
	c0.652-0.043,1.152-0.391,1.5-1.043l5.281-9.516c0.519-0.871,0.41-1.695-0.328-2.477c-0.262-0.261-0.586-0.566-0.977-0.914
	c-0.39-0.347-1.238-0.976-2.543-1.89c-1.304-0.91-2.683-1.727-4.136-2.446c-1.457-0.714-3.348-1.441-5.672-2.179
	c-2.325-0.742-4.727-1.238-7.203-1.5V39.688c0-0.609-0.196-1.109-0.586-1.5c-0.391-0.39-0.891-0.586-1.5-0.586h-8.801
	c-0.563,0-1.051,0.207-1.465,0.621c-0.414,0.41-0.621,0.899-0.621,1.465v11.731c-6.82,1.304-12.359,4.214-16.621,8.734
	c-4.254,4.52-6.387,9.777-6.387,15.773c0,1.782,0.188,3.477,0.555,5.082c0.371,1.61,0.828,3.055,1.371,4.336
	c0.543,1.282,1.312,2.543,2.312,3.782c1,1.238,1.946,2.3,2.836,3.191c0.891,0.891,2.055,1.816,3.489,2.77
	c1.433,0.957,2.66,1.73,3.679,2.316c1.024,0.586,2.379,1.258,4.074,2.02c1.696,0.757,3.032,1.335,4.008,1.726
	c0.981,0.391,2.317,0.934,4.012,1.629c2.344,0.914,4.082,1.617,5.215,2.117c1.129,0.5,2.562,1.195,4.301,2.086
	c1.738,0.891,3.007,1.707,3.812,2.445c0.805,0.739,1.531,1.649,2.184,2.739c0.652,1.086,0.98,2.234,0.98,3.453
	c0,3.433-1.336,6.082-4.012,7.949c-2.671,1.871-5.765,2.805-9.285,2.805c-1.609,0-3.215-0.172-4.824-0.524
	c-5.648-1.129-10.926-3.843-15.836-8.144l-0.133-0.133c-0.39-0.477-0.914-0.672-1.562-0.586c-0.695,0.09-1.195,0.348-1.5,0.785
	l-6.715,8.797c-0.652,0.871-0.605,1.762,0.133,2.672c0.215,0.262,0.598,0.652,1.14,1.176c0.543,0.519,1.555,1.336,3.032,2.445
	c1.476,1.109,3.082,2.148,4.82,3.129c1.738,0.976,3.945,1.941,6.617,2.898c2.672,0.957,5.442,1.629,8.313,2.02v11.406
	c0,0.567,0.203,1.055,0.617,1.469c0.414,0.41,0.902,0.617,1.469,0.617h8.797c0.609,0,1.109-0.195,1.5-0.586
	c0.39-0.39,0.585-0.89,0.585-1.5v-11.406c6.911-1.129,12.528-4.094,16.852-8.899c4.32-4.8,6.484-10.523,6.484-17.171
	C126.404,112.665,126.123,110.622,125.553,108.708L125.553,108.708z M125.553,108.708"/>
</svg>
