<?xml version="1.0" encoding="utf-8"?>
<!-- Generator: Adobe Illustrator 22.0.1, SVG Export Plug-In . SVG Version: 6.00 Build 0)  -->
<svg version="1.1" id="Capa_1" xmlns="http://www.w3.org/2000/svg" xmlns:xlink="http://www.w3.org/1999/xlink" x="0px" y="0px"
	 viewBox="0 0 192 192" enable-background="new 0 0 192 192" xml:space="preserve">
<circle fill="#FFFFFF" cx="96" cy="96" r="96"/>
<g>
	<path fill="#009C45" d="M54.117,119.315v34.903c0,0.279-0.279,0.838-0.838,0.838H37.643c-0.279,0-0.838-0.279-0.838-0.838v-34.903
		c0-0.279,0.279-0.838,0.838-0.838h15.636C53.838,118.477,54.117,118.756,54.117,119.315L54.117,119.315z M37.922,112.893
		c-3.351,0-6.422,2.792-6.422,6.422v34.903c0,3.351,2.792,6.422,6.422,6.422h15.636c3.351,0,6.422-2.792,6.422-6.422v-34.903
		c0-3.351-2.792-6.422-6.422-6.422H37.922L37.922,112.893L37.922,112.893z"/>
	<path fill="#009C45" d="M87.623,82.179v71.76c0,0.279-0.279,0.838-0.838,0.838H71.149c-0.279,0-0.838-0.279-0.838-0.838v-71.76
		c0-0.279,0.279-0.838,0.838-0.838h15.636C87.344,81.341,87.623,81.62,87.623,82.179L87.623,82.179z M71.429,75.756
		c-3.351,0-6.422,2.792-6.422,6.422v71.76c0,3.351,2.792,6.422,6.422,6.422h15.636c3.351,0,6.422-2.792,6.422-6.422v-71.76
		c0-3.351-2.792-6.422-6.422-6.422H71.429L71.429,75.756L71.429,75.756z"/>
	<path fill="#009C45" d="M121.409,100.607v53.331c0,0.279-0.279,0.838-0.838,0.838h-15.636c-0.279,0-0.838-0.279-0.838-0.838
		v-53.331c0-0.279,0.279-0.838,0.838-0.838h15.636C121.13,100.049,121.409,100.328,121.409,100.607L121.409,100.607z
		 M104.935,94.464c-3.351,0-6.422,2.792-6.422,6.422v53.331c0,3.351,2.792,6.422,6.422,6.422h15.636
		c3.351,0,6.422-2.792,6.422-6.422v-53.61c0-3.351-2.792-6.422-6.422-6.422h-15.636V94.464L104.935,94.464z"/>
	<path fill="#009C45" d="M137.883,66.821c0-0.279,0.279-0.838,0.838-0.838h15.636c0.279,0,0.838,0.279,0.838,0.838v87.117
		c0,0.279-0.279,0.838-0.838,0.838h-15.636c-0.279,0-0.838-0.279-0.838-0.838V66.821L137.883,66.821z M138.442,160.36h15.636
		c3.351,0,6.422-2.792,6.422-6.422V66.821c0-3.351-2.792-6.422-6.422-6.422h-15.636c-3.351,0-6.422,2.792-6.422,6.422v87.117
		C132.299,157.568,135.091,160.36,138.442,160.36L138.442,160.36z"/>
	<path fill="#009C45" d="M146.26,44.763c3.63,0,6.701-3.071,6.701-6.701c0-3.63-3.071-6.701-6.701-6.701
		c-3.63,0-6.701,3.071-6.701,6.701c0,0.838,0.279,1.396,0.279,2.234l-24.292,22.617c-0.838-0.558-1.955-0.558-2.792-0.558
		c-1.675,0-3.071,0.558-4.188,1.396L85.669,51.464c0-0.279,0-0.279,0-0.558c0-3.63-3.071-6.701-6.701-6.701
		s-6.701,3.071-6.701,6.701c0,1.117,0.279,1.955,0.558,2.792L47.136,84.412c-0.558-0.279-1.117-0.279-1.675-0.279
		c-3.63,0-6.701,3.071-6.701,6.701c0,3.63,3.071,6.701,6.701,6.701c3.63,0,6.701-3.071,6.701-6.701c0-1.117-0.279-1.955-0.558-2.792
		l25.688-30.714c0.558,0.279,1.117,0.279,1.675,0.279c1.675,0,3.071-0.558,4.188-1.396l22.896,12.286c0,0.279,0,0.279,0,0.558
		c0,3.63,3.071,6.701,6.701,6.701s6.701-3.071,6.701-6.701c0-0.838-0.279-1.396-0.279-2.234l24.571-22.617
		C144.584,44.763,145.422,44.763,146.26,44.763L146.26,44.763z"/>
</g>
</svg>
