<?xml version="1.0" encoding="utf-8"?>
<!-- Generator: Adobe Illustrator 22.0.1, SVG Export Plug-In . SVG Version: 6.00 Build 0)  -->
<svg version="1.1" id="Capa_1" xmlns="http://www.w3.org/2000/svg" xmlns:xlink="http://www.w3.org/1999/xlink" x="0px" y="0px"
	 viewBox="0 0 192 192" enable-background="new 0 0 192 192" xml:space="preserve">
<circle fill="#FFFFFF" cx="96" cy="96" r="96"/>
<g>
	<path fill="#009C45" d="M155.674,145.081H36.326c-1.634,0-2.959,1.325-2.959,2.959S34.691,151,36.326,151h119.349
		c1.634,0,2.959-1.325,2.959-2.959C158.634,146.406,157.309,145.081,155.674,145.081L155.674,145.081z"/>
	<path fill="#009C45" d="M46.999,77.762h14.865v50.736H46.999V77.762L46.999,77.762z M67.783,105.877h14.865v22.621H67.783V105.877
		L67.783,105.877z M88.567,46.919h14.865v34.092v47.487H88.567V46.919L88.567,46.919z M109.352,83.971h14.865v44.527h-14.865V83.971
		L109.352,83.971z M130.135,81.011V60.89H145v67.608h-14.865V81.011L130.135,81.011z M44.04,134.417h20.784h20.784h20.784h20.784
		h20.784c1.635,0,2.959-1.325,2.959-2.959V57.931c0-1.634-1.325-2.959-2.959-2.959h-20.784c-1.634,0-2.959,1.325-2.959,2.959v20.121
		h-14.865V43.959c0-1.634-1.325-2.959-2.959-2.959H85.607c-1.634,0-2.959,1.325-2.959,2.959v55.999H67.783V74.802
		c0-1.634-1.325-2.959-2.959-2.959H44.04c-1.635,0-2.959,1.325-2.959,2.959v56.655C41.08,133.092,42.406,134.417,44.04,134.417
		L44.04,134.417z"/>
</g>
</svg>
