<?xml version="1.0" encoding="utf-8"?>
<!-- Generator: Adobe Illustrator 22.0.1, SVG Export Plug-In . SVG Version: 6.00 Build 0)  -->
<svg version="1.1" id="Capa_1" xmlns="http://www.w3.org/2000/svg" xmlns:xlink="http://www.w3.org/1999/xlink" x="0px" y="0px"
	 viewBox="0 0 192 192" enable-background="new 0 0 192 192" xml:space="preserve">
<circle fill="#FFFFFF" cx="96" cy="96" r="96"/>
<g>
	<path fill="#009C45" d="M148.84,37.978c-2.866,0-5.183,2.317-5.183,5.183c0,2.865,2.317,5.183,5.183,5.183
		c2.865,0,5.183-2.318,5.183-5.183C154.022,40.295,151.705,37.978,148.84,37.978L148.84,37.978z M148.84,53.821
		c-5.899,0-10.661-4.761-10.661-10.661c0-5.899,4.761-10.661,10.661-10.661c5.899,0,10.66,4.761,10.66,10.661
		C159.5,49.06,154.739,53.821,148.84,53.821L148.84,53.821z"/>
	<path fill="#009C45" d="M43.161,98.739c-2.865,0-5.183,2.318-5.183,5.183c0,2.865,2.317,5.183,5.183,5.183
		c2.865,0,5.183-2.318,5.183-5.183C48.343,101.057,46.026,98.739,43.161,98.739L43.161,98.739z M43.161,114.582
		c-5.899,0-10.661-4.762-10.661-10.661c0-5.899,4.761-10.661,10.661-10.661c5.899,0,10.661,4.762,10.661,10.661
		C53.821,109.821,49.06,114.582,43.161,114.582L43.161,114.582z"/>
	<path fill="#009C45" d="M74.847,67.052c-2.865,0-5.183,2.317-5.183,5.183c0,2.865,2.318,5.183,5.183,5.183
		c2.865,0,5.183-2.318,5.183-5.183C80.03,69.37,77.713,67.052,74.847,67.052L74.847,67.052z M74.847,82.895
		c-5.899,0-10.661-4.761-10.661-10.66c0-5.899,4.761-10.661,10.661-10.661c5.899,0,10.661,4.761,10.661,10.661
		C85.508,78.134,80.746,82.895,74.847,82.895L74.847,82.895z"/>
	<path fill="#009C45" d="M97.306,89.511c-2.865,0-5.183,2.318-5.183,5.183c0,2.865,2.318,5.183,5.183,5.183
		c2.866,0,5.183-2.318,5.183-5.183C102.489,91.829,100.172,89.511,97.306,89.511L97.306,89.511z M97.306,105.355
		c-5.899,0-10.66-4.762-10.66-10.661s4.761-10.661,10.66-10.661c5.899,0,10.661,4.762,10.661,10.661S103.206,105.355,97.306,105.355
		L97.306,105.355z"/>
	<polygon fill="#009C45" points="141.261,46.779 145.138,50.648 104.865,91.001 100.988,87.131 141.261,46.779 	"/>
	<polygon fill="#009C45" points="82.4,75.888 93.684,87.13 89.818,91.011 78.534,79.769 82.4,75.888 	"/>
	<polygon fill="#009C45" points="67.32,75.89 71.193,79.763 50.724,100.232 46.851,96.359 67.32,75.89 	"/>
	<polygon fill="#009C45" points="32.584,154.022 159.416,154.022 159.416,159.5 32.584,159.5 32.584,154.022 	"/>
	<polygon fill="#009C45" points="146.101,77.502 151.578,77.502 151.578,156.761 146.101,156.761 146.101,77.502 	"/>
	<polygon fill="#009C45" points="95.916,117.153 101.394,117.153 101.394,156.761 95.916,156.761 95.916,117.153 	"/>
	<polygon fill="#009C45" points="40.422,125.075 45.899,125.075 45.899,156.761 40.422,156.761 40.422,125.075 	"/>
	<polygon fill="#009C45" points="72.109,101.267 77.586,101.267 77.586,156.761 72.109,156.761 72.109,101.267 	"/>
</g>
</svg>
